<?xml version="1.0" encoding="UTF-8" standalone="no"?>
<!DOCTYPE svg PUBLIC "-//W3C//DTD SVG 1.1//EN"
 "http://www.w3.org/Graphics/SVG/1.1/DTD/svg11.dtd">
<!-- Generated by graphviz version 2.50.0 (20211204.2007)
 -->
<!-- Title: G Pages: 1 -->
<svg width="1134pt" height="1460pt"
 viewBox="0.00 0.00 1134.00 1460.00" xmlns="http://www.w3.org/2000/svg" xmlns:xlink="http://www.w3.org/1999/xlink">
<g id="graph0" class="graph" transform="scale(1 1) rotate(0) translate(4 1456)">
<title>G</title>
<polygon fill="white" stroke="transparent" points="-4,4 -4,-1456 1130,-1456 1130,4 -4,4"/>
<g id="clust1" class="cluster">
<title>cluster_Global</title>
<polygon fill="none" stroke="black" points="8,-8 8,-1444 1118,-1444 1118,-8 8,-8"/>
<text text-anchor="middle" x="563" y="-1431.2" font-family="Times New Roman,serif" font-size="11.00" fill="gray">Global</text>
</g>
<g id="clust2" class="cluster">
<title>cluster_\RichWeb</title>
<polygon fill="none" stroke="black" points="16,-16 16,-1372 1110,-1372 1110,-16 16,-16"/>
<text text-anchor="middle" x="563" y="-1359.2" font-family="Times New Roman,serif" font-size="11.00" fill="gray">RichWeb</text>
</g>
<g id="clust3" class="cluster">
<title>cluster_\RichWeb\Algorithms</title>
<polygon fill="none" stroke="black" points="24,-24 24,-1344 1102,-1344 1102,-24 24,-24"/>
<text text-anchor="middle" x="563" y="-1331.2" font-family="Times New Roman,serif" font-size="11.00" fill="gray">Algorithms</text>
</g>
<g id="clust4" class="cluster">
<title>cluster_\RichWeb\Algorithms\Abstracts</title>
<polygon fill="none" stroke="black" points="367.5,-406 367.5,-640 792.5,-640 792.5,-406 367.5,-406"/>
<text text-anchor="middle" x="580" y="-627.2" font-family="Times New Roman,serif" font-size="11.00" fill="gray">Abstracts</text>
</g>
<g id="clust5" class="cluster">
<title>cluster_\RichWeb\Algorithms\Admin</title>
<polygon fill="none" stroke="black" points="75,-1056 75,-1316 811,-1316 811,-1056 75,-1056"/>
<text text-anchor="middle" x="443" y="-1303.2" font-family="Times New Roman,serif" font-size="11.00" fill="gray">Admin</text>
</g>
<g id="clust6" class="cluster">
<title>cluster_\RichWeb\Algorithms\Admin\Abstracts</title>
<polygon fill="none" stroke="black" points="360.5,-1140 360.5,-1266 501.5,-1266 501.5,-1140 360.5,-1140"/>
<text text-anchor="middle" x="431" y="-1253.2" font-family="Times New Roman,serif" font-size="11.00" fill="gray">Abstracts</text>
</g>
<g id="clust8" class="cluster">
<title>cluster_\RichWeb\Algorithms\Admin\MetaBoxes</title>
<polygon fill="none" stroke="black" points="581,-1064 581,-1244 803,-1244 803,-1064 581,-1064"/>
<text text-anchor="middle" x="692" y="-1231.2" font-family="Times New Roman,serif" font-size="11.00" fill="gray">MetaBoxes</text>
</g>
<g id="clust7" class="cluster">
<title>cluster_\RichWeb\Algorithms\Admin\Interfaces</title>
<polygon fill="none" stroke="black" points="83,-1140 83,-1266 230,-1266 230,-1140 83,-1140"/>
<text text-anchor="middle" x="156.5" y="-1253.2" font-family="Times New Roman,serif" font-size="11.00" fill="gray">Interfaces</text>
</g>
<g id="clust9" class="cluster">
<title>cluster_\RichWeb\Algorithms\CodeExamples</title>
<polygon fill="none" stroke="black" points="354,-922 354,-1048 508,-1048 508,-922 354,-922"/>
<text text-anchor="middle" x="431" y="-1035.2" font-family="Times New Roman,serif" font-size="11.00" fill="gray">CodeExamples</text>
</g>
<g id="clust11" class="cluster">
<title>cluster_\RichWeb\Algorithms\Interfaces</title>
<polygon fill="none" stroke="black" points="32,-54 32,-1044 281,-1044 281,-54 32,-54"/>
<text text-anchor="middle" x="156.5" y="-1031.2" font-family="Times New Roman,serif" font-size="11.00" fill="gray">Interfaces</text>
</g>
<g id="clust13" class="cluster">
<title>cluster_\RichWeb\Algorithms\Packages</title>
<polygon fill="none" stroke="black" points="337,-648 337,-828 525,-828 525,-648 337,-648"/>
<text text-anchor="middle" x="431" y="-815.2" font-family="Times New Roman,serif" font-size="11.00" fill="gray">Packages</text>
</g>
<g id="clust16" class="cluster">
<title>cluster_\RichWeb\Algorithms\Traits</title>
<polygon fill="none" stroke="black" points="898,-983 898,-1225 1055,-1225 1055,-983 898,-983"/>
<text text-anchor="middle" x="976.5" y="-1212.2" font-family="Times New Roman,serif" font-size="11.00" fill="gray">Traits</text>
</g>
<g id="clust18" class="cluster">
<title>cluster_\RichWeb\Algorithms\Traits\Posts</title>
<polygon fill="none" stroke="black" points="906,-1125 906,-1197 1047,-1197 1047,-1125 906,-1125"/>
<text text-anchor="middle" x="976.5" y="-1184.2" font-family="Times New Roman,serif" font-size="11.00" fill="gray">Posts</text>
</g>
<g id="clust17" class="cluster">
<title>cluster_\RichWeb\Algorithms\Traits\Formatting</title>
<polygon fill="none" stroke="black" points="930,-991 930,-1117 1023,-1117 1023,-991 930,-991"/>
<text text-anchor="middle" x="976.5" y="-1104.2" font-family="Times New Roman,serif" font-size="11.00" fill="gray">Formatting</text>
</g>
<g id="clust14" class="cluster">
<title>cluster_\RichWeb\Algorithms\Setup</title>
<polygon fill="none" stroke="black" points="859,-514 859,-884 1094,-884 1094,-514 859,-514"/>
<text text-anchor="middle" x="976.5" y="-871.2" font-family="Times New Roman,serif" font-size="11.00" fill="gray">Setup</text>
</g>
<g id="clust15" class="cluster">
<title>cluster_\RichWeb\Algorithms\Setup\Scripts</title>
<polygon fill="none" stroke="black" points="892.5,-784 892.5,-856 1060.5,-856 1060.5,-784 892.5,-784"/>
<text text-anchor="middle" x="976.5" y="-843.2" font-family="Times New Roman,serif" font-size="11.00" fill="gray">Scripts</text>
</g>
<g id="clust12" class="cluster">
<title>cluster_\RichWeb\Algorithms\Loaders</title>
<polygon fill="none" stroke="black" points="371,-218 371,-398 491,-398 491,-218 371,-218"/>
<text text-anchor="middle" x="431" y="-385.2" font-family="Times New Roman,serif" font-size="11.00" fill="gray">Loaders</text>
</g>
<g id="clust10" class="cluster">
<title>cluster_\RichWeb\Algorithms\Events</title>
<polygon fill="none" stroke="black" points="357.5,-84 357.5,-210 504.5,-210 504.5,-84 357.5,-84"/>
<text text-anchor="middle" x="431" y="-197.2" font-family="Times New Roman,serif" font-size="11.00" fill="gray">Events</text>
</g>
<!-- \\RichWeb\\Algorithms\\Abstracts\\AbstractAlgorithm -->
<g id="node1" class="node">
<title>\\RichWeb\\Algorithms\\Abstracts\\AbstractAlgorithm</title>
<polygon fill="none" stroke="black" points="757.5,-612 626.5,-612 626.5,-576 757.5,-576 757.5,-612"/>
<text text-anchor="start" x="658" y="-597.2" font-family="Courier,monospace" font-size="11.00">«abstract»</text>
<text text-anchor="start" x="634.5" y="-585.2" font-family="Courier,monospace" font-size="11.00">AbstractAlgorithm</text>
</g>
<!-- \\RichWeb\\Algorithms\\Interfaces\\AlgorithmInterface -->
<g id="node18" class="node">
<title>\\RichWeb\\Algorithms\\Interfaces\\AlgorithmInterface</title>
<polygon fill="none" stroke="black" points="225.5,-530 87.5,-530 87.5,-494 225.5,-494 225.5,-530"/>
<text text-anchor="middle" x="156.5" y="-509.2" font-family="Courier,monospace" font-size="11.00">AlgorithmInterface</text>
</g>
<!-- \\RichWeb\\Algorithms\\Abstracts\\AbstractAlgorithm&#45;&gt;\\RichWeb\\Algorithms\\Interfaces\\AlgorithmInterface -->
<g id="edge1" class="edge">
<title>\\RichWeb\\Algorithms\\Abstracts\\AbstractAlgorithm&#45;&gt;\\RichWeb\\Algorithms\\Interfaces\\AlgorithmInterface</title>
<path fill="none" stroke="black" stroke-dasharray="1,5" d="M626.28,-598.62C573.86,-602.52 498.11,-608.49 432,-615"/>
<path fill="none" stroke="black" stroke-dasharray="1,5" d="M430,-615C356.02,-622.29 351,-564.03 281,-539 266.59,-533.85 250.87,-529.5 235.62,-525.9"/>
<polygon fill="none" stroke="black" points="236.21,-522.44 225.68,-523.64 234.66,-529.27 236.21,-522.44"/>
</g>
<!-- \\RichWeb\\Algorithms\\Interfaces\\HasRunnerInterface -->
<g id="node28" class="node">
<title>\\RichWeb\\Algorithms\\Interfaces\\HasRunnerInterface</title>
<polygon fill="none" stroke="black" points="225.5,-800 87.5,-800 87.5,-764 225.5,-764 225.5,-800"/>
<text text-anchor="middle" x="156.5" y="-779.2" font-family="Courier,monospace" font-size="11.00">HasRunnerInterface</text>
</g>
<!-- \\RichWeb\\Algorithms\\Abstracts\\AbstractAlgorithm&#45;&gt;\\RichWeb\\Algorithms\\Interfaces\\HasRunnerInterface -->
<g id="edge2" class="edge">
<title>\\RichWeb\\Algorithms\\Abstracts\\AbstractAlgorithm&#45;&gt;\\RichWeb\\Algorithms\\Interfaces\\HasRunnerInterface</title>
<path fill="none" stroke="black" stroke-dasharray="1,5" d="M430,-615C386.91,-619.24 370.03,-616.01 337,-644 294.84,-679.72 324.67,-721.15 281,-755 267.93,-765.13 251.85,-771.64 235.67,-775.78"/>
<polygon fill="none" stroke="black" points="234.58,-772.43 225.61,-778.06 236.13,-779.26 234.58,-772.43"/>
</g>
<!-- \\RichWeb\\Algorithms\\Abstracts\\AbstractPlugin -->
<g id="node2" class="node">
<title>\\RichWeb\\Algorithms\\Abstracts\\AbstractPlugin</title>
<polygon fill="none" stroke="black" points="486.5,-504 375.5,-504 375.5,-468 486.5,-468 486.5,-504"/>
<text text-anchor="start" x="397" y="-489.2" font-family="Courier,monospace" font-size="11.00">«abstract»</text>
<text text-anchor="start" x="383.5" y="-477.2" font-family="Courier,monospace" font-size="11.00">AbstractPlugin</text>
</g>
<!-- \\RichWeb\\Algorithms\\Interfaces\\PluginInterface -->
<g id="node30" class="node">
<title>\\RichWeb\\Algorithms\\Interfaces\\PluginInterface</title>
<polygon fill="none" stroke="black" points="215.5,-476 97.5,-476 97.5,-440 215.5,-440 215.5,-476"/>
<text text-anchor="middle" x="156.5" y="-455.2" font-family="Courier,monospace" font-size="11.00">PluginInterface</text>
</g>
<!-- \\RichWeb\\Algorithms\\Abstracts\\AbstractPlugin&#45;&gt;\\RichWeb\\Algorithms\\Interfaces\\PluginInterface -->
<g id="edge3" class="edge">
<title>\\RichWeb\\Algorithms\\Abstracts\\AbstractPlugin&#45;&gt;\\RichWeb\\Algorithms\\Interfaces\\PluginInterface</title>
<path fill="none" stroke="black" stroke-dasharray="1,5" d="M375.18,-480.37C332.13,-475.94 271.93,-469.76 225.75,-465.01"/>
<polygon fill="none" stroke="black" points="225.83,-461.5 215.52,-463.96 225.11,-468.47 225.83,-461.5"/>
</g>
<!-- \\RichWeb\\Algorithms\\Interfaces\\SubscribesToEventsInterface -->
<g id="node34" class="node">
<title>\\RichWeb\\Algorithms\\Interfaces\\SubscribesToEventsInterface</title>
<polygon fill="none" stroke="black" points="256,-692 57,-692 57,-656 256,-656 256,-692"/>
<text text-anchor="middle" x="156.5" y="-671.2" font-family="Courier,monospace" font-size="11.00">SubscribesToEventsInterface</text>
</g>
<!-- \\RichWeb\\Algorithms\\Abstracts\\AbstractPlugin&#45;&gt;\\RichWeb\\Algorithms\\Interfaces\\SubscribesToEventsInterface -->
<g id="edge4" class="edge">
<title>\\RichWeb\\Algorithms\\Abstracts\\AbstractPlugin&#45;&gt;\\RichWeb\\Algorithms\\Interfaces\\SubscribesToEventsInterface</title>
<path fill="none" stroke="black" stroke-dasharray="1,5" d="M418.79,-504.08C396.82,-537.9 344.63,-610.59 281,-647 276.18,-649.76 271.1,-652.24 265.87,-654.46"/>
<polygon fill="none" stroke="black" points="264.34,-651.3 256.3,-658.2 266.89,-657.82 264.34,-651.3"/>
</g>
<!-- \\RichWeb\\Algorithms\\Abstracts\\AbstractScripts -->
<g id="node3" class="node">
<title>\\RichWeb\\Algorithms\\Abstracts\\AbstractScripts</title>
<polygon fill="none" stroke="black" points="751,-558 633,-558 633,-522 751,-522 751,-558"/>
<text text-anchor="start" x="658" y="-543.2" font-family="Courier,monospace" font-size="11.00">«abstract»</text>
<text text-anchor="start" x="641" y="-531.2" font-family="Courier,monospace" font-size="11.00">AbstractScripts</text>
</g>
<!-- \\RichWeb\\Algorithms\\Abstracts\\AbstractScripts&#45;&gt;\\RichWeb\\Algorithms\\Interfaces\\HasRunnerInterface -->
<g id="edge6" class="edge">
<title>\\RichWeb\\Algorithms\\Abstracts\\AbstractScripts&#45;&gt;\\RichWeb\\Algorithms\\Interfaces\\HasRunnerInterface</title>
<path fill="none" stroke="black" stroke-dasharray="1,5" d="M430,-73C388.58,-71.38 366.42,-50.8 337,-80 230.16,-186.02 380.15,-641.76 281,-755 269.4,-768.25 252.93,-775.85 235.8,-780.03"/>
<polygon fill="none" stroke="black" points="234.75,-776.67 225.66,-782.12 236.16,-783.53 234.75,-776.67"/>
</g>
<!-- \\RichWeb\\Algorithms\\Interfaces\\ScriptsInterface -->
<g id="node32" class="node">
<title>\\RichWeb\\Algorithms\\Interfaces\\ScriptsInterface</title>
<polygon fill="none" stroke="black" points="219,-206 94,-206 94,-170 219,-170 219,-206"/>
<text text-anchor="middle" x="156.5" y="-185.2" font-family="Courier,monospace" font-size="11.00">ScriptsInterface</text>
</g>
<!-- \\RichWeb\\Algorithms\\Abstracts\\AbstractScripts&#45;&gt;\\RichWeb\\Algorithms\\Interfaces\\ScriptsInterface -->
<g id="edge5" class="edge">
<title>\\RichWeb\\Algorithms\\Abstracts\\AbstractScripts&#45;&gt;\\RichWeb\\Algorithms\\Interfaces\\ScriptsInterface</title>
<path fill="none" stroke="black" stroke-dasharray="1,5" d="M632.84,-538.47C613.76,-534.99 594.1,-527.66 581,-513 451.69,-368.32 665.83,-213.49 525,-80 494.92,-51.48 473.42,-74.62 432,-73"/>
<path fill="none" stroke="black" stroke-dasharray="1,5" d="M430,-73C388.58,-71.38 372.96,-59.39 337,-80 299.03,-101.77 317.35,-136.63 281,-161 265.7,-171.26 247.15,-177.69 229.13,-181.71"/>
<polygon fill="none" stroke="black" points="228.31,-178.3 219.2,-183.7 229.69,-185.17 228.31,-178.3"/>
</g>
<!-- \\RichWeb\\Algorithms\\Abstracts\\AbstractSingletonPlugin -->
<g id="node4" class="node">
<title>\\RichWeb\\Algorithms\\Abstracts\\AbstractSingletonPlugin</title>
<polygon fill="none" stroke="black" points="778,-504 606,-504 606,-468 778,-468 778,-504"/>
<text text-anchor="start" x="658" y="-489.2" font-family="Courier,monospace" font-size="11.00">«abstract»</text>
<text text-anchor="start" x="614" y="-477.2" font-family="Courier,monospace" font-size="11.00">AbstractSingletonPlugin</text>
</g>
<!-- \\RichWeb\\Algorithms\\Abstracts\\AbstractSingletonPlugin&#45;&gt;\\RichWeb\\Algorithms\\Abstracts\\AbstractPlugin -->
<g id="edge7" class="edge">
<title>\\RichWeb\\Algorithms\\Abstracts\\AbstractSingletonPlugin&#45;&gt;\\RichWeb\\Algorithms\\Abstracts\\AbstractPlugin</title>
<path fill="none" stroke="black" d="M605.83,-486C570.45,-486 530.03,-486 497.09,-486"/>
<polygon fill="none" stroke="black" points="496.67,-482.5 486.67,-486 496.67,-489.5 496.67,-482.5"/>
</g>
<!-- \\RichWeb\\Algorithms\\Interfaces\\SingletonPluginInterface -->
<g id="node33" class="node">
<title>\\RichWeb\\Algorithms\\Interfaces\\SingletonPluginInterface</title>
<polygon fill="none" stroke="black" points="246,-152 67,-152 67,-116 246,-116 246,-152"/>
<text text-anchor="middle" x="156.5" y="-131.2" font-family="Courier,monospace" font-size="11.00">SingletonPluginInterface</text>
</g>
<!-- \\RichWeb\\Algorithms\\Abstracts\\AbstractSingletonPlugin&#45;&gt;\\RichWeb\\Algorithms\\Interfaces\\SingletonPluginInterface -->
<g id="edge8" class="edge">
<title>\\RichWeb\\Algorithms\\Abstracts\\AbstractSingletonPlugin&#45;&gt;\\RichWeb\\Algorithms\\Interfaces\\SingletonPluginInterface</title>
<path fill="none" stroke="black" stroke-dasharray="1,5" d="M605.85,-476.32C596.48,-472.19 587.87,-466.58 581,-459 463.12,-328.91 657.64,-183 525,-68 493.43,-40.63 376.86,-55.49 337,-68 308.06,-77.08 308.79,-94.86 281,-107 273.04,-110.48 264.58,-113.53 255.98,-116.19"/>
<polygon fill="none" stroke="black" points="254.83,-112.88 246.22,-119.05 256.8,-119.6 254.83,-112.88"/>
</g>
<!-- \\RichWeb\\Algorithms\\Abstracts\\AbstractSyntaxHighlighter -->
<g id="node5" class="node">
<title>\\RichWeb\\Algorithms\\Abstracts\\AbstractSyntaxHighlighter</title>
<polygon fill="none" stroke="black" points="784.5,-450 599.5,-450 599.5,-414 784.5,-414 784.5,-450"/>
<text text-anchor="start" x="658" y="-435.2" font-family="Courier,monospace" font-size="11.00">«abstract»</text>
<text text-anchor="start" x="607.5" y="-423.2" font-family="Courier,monospace" font-size="11.00">AbstractSyntaxHighlighter</text>
</g>
<!-- \\RichWeb\\Algorithms\\Interfaces\\SyntaxHighlighterInterface -->
<g id="node35" class="node">
<title>\\RichWeb\\Algorithms\\Interfaces\\SyntaxHighlighterInterface</title>
<polygon fill="none" stroke="black" points="252.5,-98 60.5,-98 60.5,-62 252.5,-62 252.5,-98"/>
<text text-anchor="middle" x="156.5" y="-77.2" font-family="Courier,monospace" font-size="11.00">SyntaxHighlighterInterface</text>
</g>
<!-- \\RichWeb\\Algorithms\\Abstracts\\AbstractSyntaxHighlighter&#45;&gt;\\RichWeb\\Algorithms\\Interfaces\\SyntaxHighlighterInterface -->
<g id="edge9" class="edge">
<title>\\RichWeb\\Algorithms\\Abstracts\\AbstractSyntaxHighlighter&#45;&gt;\\RichWeb\\Algorithms\\Interfaces\\SyntaxHighlighterInterface</title>
<path fill="none" stroke="black" stroke-dasharray="1,5" d="M689.75,-413.56C684.28,-349.29 656.41,-134.35 525,-48 427.04,16.38 281.3,-27.66 206.17,-57.99"/>
<polygon fill="none" stroke="black" points="204.4,-54.94 196.49,-61.98 207.07,-61.41 204.4,-54.94"/>
</g>
<!-- \\RichWeb\\Algorithms\\Admin\\Abstracts\\AbstractMetaBox -->
<g id="node6" class="node">
<title>\\RichWeb\\Algorithms\\Admin\\Abstracts\\AbstractMetaBox</title>
<polygon fill="none" stroke="black" points="490,-1184 372,-1184 372,-1148 490,-1148 490,-1184"/>
<text text-anchor="start" x="397" y="-1169.2" font-family="Courier,monospace" font-size="11.00">«abstract»</text>
<text text-anchor="start" x="380" y="-1157.2" font-family="Courier,monospace" font-size="11.00">AbstractMetaBox</text>
</g>
<!-- \\RichWeb\\Algorithms\\Admin\\Interfaces\\MetaBoxInterface -->
<g id="node8" class="node">
<title>\\RichWeb\\Algorithms\\Admin\\Interfaces\\MetaBoxInterface</title>
<polygon fill="none" stroke="black" points="219,-1184 94,-1184 94,-1148 219,-1148 219,-1184"/>
<text text-anchor="middle" x="156.5" y="-1163.2" font-family="Courier,monospace" font-size="11.00">MetaBoxInterface</text>
</g>
<!-- \\RichWeb\\Algorithms\\Admin\\Abstracts\\AbstractMetaBox&#45;&gt;\\RichWeb\\Algorithms\\Admin\\Interfaces\\MetaBoxInterface -->
<g id="edge10" class="edge">
<title>\\RichWeb\\Algorithms\\Admin\\Abstracts\\AbstractMetaBox&#45;&gt;\\RichWeb\\Algorithms\\Admin\\Interfaces\\MetaBoxInterface</title>
<path fill="none" stroke="black" stroke-dasharray="1,5" d="M371.88,-1166C330.26,-1166 273.95,-1166 229.49,-1166"/>
<polygon fill="none" stroke="black" points="229.32,-1162.5 219.32,-1166 229.32,-1169.5 229.32,-1162.5"/>
</g>
<!-- \\RichWeb\\Algorithms\\Admin\\Abstracts\\AbstractPostType -->
<g id="node7" class="node">
<title>\\RichWeb\\Algorithms\\Admin\\Abstracts\\AbstractPostType</title>
<polygon fill="none" stroke="black" points="493.5,-1238 368.5,-1238 368.5,-1202 493.5,-1202 493.5,-1238"/>
<text text-anchor="start" x="397" y="-1223.2" font-family="Courier,monospace" font-size="11.00">«abstract»</text>
<text text-anchor="start" x="376.5" y="-1211.2" font-family="Courier,monospace" font-size="11.00">AbstractPostType</text>
</g>
<!-- \\RichWeb\\Algorithms\\Admin\\Interfaces\\PostTypeInterface -->
<g id="node9" class="node">
<title>\\RichWeb\\Algorithms\\Admin\\Interfaces\\PostTypeInterface</title>
<polygon fill="none" stroke="black" points="222,-1238 91,-1238 91,-1202 222,-1202 222,-1238"/>
<text text-anchor="middle" x="156.5" y="-1217.2" font-family="Courier,monospace" font-size="11.00">PostTypeInterface</text>
</g>
<!-- \\RichWeb\\Algorithms\\Admin\\Abstracts\\AbstractPostType&#45;&gt;\\RichWeb\\Algorithms\\Admin\\Interfaces\\PostTypeInterface -->
<g id="edge11" class="edge">
<title>\\RichWeb\\Algorithms\\Admin\\Abstracts\\AbstractPostType&#45;&gt;\\RichWeb\\Algorithms\\Admin\\Interfaces\\PostTypeInterface</title>
<path fill="none" stroke="black" stroke-dasharray="1,5" d="M368.17,-1220C327.9,-1220 275.12,-1220 232.46,-1220"/>
<polygon fill="none" stroke="black" points="232.41,-1216.5 222.41,-1220 232.41,-1223.5 232.41,-1216.5"/>
</g>
<!-- \\RichWeb\\Algorithms\\Admin\\Abstracts\\AbstractPostType&#45;&gt;\\RichWeb\\Algorithms\\Interfaces\\HasRunnerInterface -->
<g id="edge12" class="edge">
<title>\\RichWeb\\Algorithms\\Admin\\Abstracts\\AbstractPostType&#45;&gt;\\RichWeb\\Algorithms\\Interfaces\\HasRunnerInterface</title>
<path fill="none" stroke="black" stroke-dasharray="1,5" d="M368.21,-1212.69C356.39,-1208.6 345.17,-1202.38 337,-1193 223.73,-1062.94 398.59,-935.17 281,-809 269.12,-796.25 252.72,-788.81 235.76,-784.62"/>
<polygon fill="none" stroke="black" points="236.24,-781.14 225.73,-782.51 234.8,-787.99 236.24,-781.14"/>
</g>
<!-- \\RichWeb\\Algorithms\\Admin\\MetaBoxes\\AlgorithmCodeExamplesMetaBox -->
<g id="node10" class="node">
<title>\\RichWeb\\Algorithms\\Admin\\MetaBoxes\\AlgorithmCodeExamplesMetaBox</title>
<polygon fill="none" stroke="black" points="795,-1162 589,-1162 589,-1126 795,-1126 795,-1162"/>
<text text-anchor="middle" x="692" y="-1141.2" font-family="Courier,monospace" font-size="11.00">AlgorithmCodeExamplesMetaBox</text>
</g>
<!-- \\RichWeb\\Algorithms\\Admin\\MetaBoxes\\AlgorithmCodeExamplesMetaBox&#45;&gt;\\RichWeb\\Algorithms\\Admin\\Abstracts\\AbstractMetaBox -->
<g id="edge14" class="edge">
<title>\\RichWeb\\Algorithms\\Admin\\MetaBoxes\\AlgorithmCodeExamplesMetaBox&#45;&gt;\\RichWeb\\Algorithms\\Admin\\Abstracts\\AbstractMetaBox</title>
<path fill="none" stroke="black" d="M588.64,-1152.69C558.92,-1155.22 527.21,-1157.91 500.15,-1160.21"/>
<polygon fill="none" stroke="black" points="499.69,-1156.74 490.02,-1161.07 500.28,-1163.71 499.69,-1156.74"/>
</g>
<!-- \\RichWeb\\Algorithms\\Admin\\MetaBoxes\\AlgorithmPackageMetaBox -->
<g id="node11" class="node">
<title>\\RichWeb\\Algorithms\\Admin\\MetaBoxes\\AlgorithmPackageMetaBox</title>
<polygon fill="none" stroke="black" points="778,-1216 606,-1216 606,-1180 778,-1180 778,-1216"/>
<text text-anchor="middle" x="692" y="-1195.2" font-family="Courier,monospace" font-size="11.00">AlgorithmPackageMetaBox</text>
</g>
<!-- \\RichWeb\\Algorithms\\Admin\\MetaBoxes\\AlgorithmPackageMetaBox&#45;&gt;\\RichWeb\\Algorithms\\Admin\\Abstracts\\AbstractMetaBox -->
<g id="edge15" class="edge">
<title>\\RichWeb\\Algorithms\\Admin\\MetaBoxes\\AlgorithmPackageMetaBox&#45;&gt;\\RichWeb\\Algorithms\\Admin\\Abstracts\\AbstractMetaBox</title>
<path fill="none" stroke="black" d="M605.83,-1187.48C571.64,-1183.25 532.76,-1178.45 500.46,-1174.46"/>
<polygon fill="none" stroke="black" points="500.56,-1170.94 490.21,-1173.19 499.71,-1177.89 500.56,-1170.94"/>
</g>
<!-- \\RichWeb\\Algorithms\\Admin\\MetaBoxes\\MetaBoxes -->
<g id="node12" class="node">
<title>\\RichWeb\\Algorithms\\Admin\\MetaBoxes\\MetaBoxes</title>
<polygon fill="none" stroke="black" points="730.5,-1108 653.5,-1108 653.5,-1072 730.5,-1072 730.5,-1108"/>
<text text-anchor="middle" x="692" y="-1087.2" font-family="Courier,monospace" font-size="11.00">MetaBoxes</text>
</g>
<!-- \\RichWeb\\Algorithms\\Admin\\MetaBoxes\\MetaBoxes&#45;&gt;\\RichWeb\\Algorithms\\Interfaces\\HasRunnerInterface -->
<g id="edge16" class="edge">
<title>\\RichWeb\\Algorithms\\Admin\\MetaBoxes\\MetaBoxes&#45;&gt;\\RichWeb\\Algorithms\\Interfaces\\HasRunnerInterface</title>
<path fill="none" stroke="black" stroke-dasharray="1,5" d="M653.25,-1092.07C629.56,-1091.29 600.01,-1086.16 581,-1068 506.18,-996.51 604.76,-907.93 525,-842 509.05,-828.81 451.97,-842.45 432,-837"/>
</g>
<!-- \\RichWeb\\Algorithms\\Admin\\AlgorithmPostType -->
<g id="node13" class="node">
<title>\\RichWeb\\Algorithms\\Admin\\AlgorithmPostType</title>
<polygon fill="none" stroke="black" points="757.5,-1288 626.5,-1288 626.5,-1252 757.5,-1252 757.5,-1288"/>
<text text-anchor="middle" x="692" y="-1267.2" font-family="Courier,monospace" font-size="11.00">AlgorithmPostType</text>
</g>
<!-- \\RichWeb\\Algorithms\\Admin\\AlgorithmPostType&#45;&gt;\\RichWeb\\Algorithms\\Admin\\Abstracts\\AbstractPostType -->
<g id="edge13" class="edge">
<title>\\RichWeb\\Algorithms\\Admin\\AlgorithmPostType&#45;&gt;\\RichWeb\\Algorithms\\Admin\\Abstracts\\AbstractPostType</title>
<path fill="none" stroke="black" d="M626.31,-1257.51C589.04,-1250.32 542.11,-1241.26 503.71,-1233.84"/>
<polygon fill="none" stroke="black" points="504.12,-1230.36 493.64,-1231.9 502.79,-1237.23 504.12,-1230.36"/>
</g>
<!-- \\RichWeb\\Algorithms\\CodeExamples\\CodeExample -->
<g id="node14" class="node">
<title>\\RichWeb\\Algorithms\\CodeExamples\\CodeExample</title>
<polygon fill="none" stroke="black" points="476.5,-1020 385.5,-1020 385.5,-984 476.5,-984 476.5,-1020"/>
<text text-anchor="middle" x="431" y="-999.2" font-family="Courier,monospace" font-size="11.00">CodeExample</text>
</g>
<!-- \\RichWeb\\Algorithms\\Interfaces\\CodeExampleInterface -->
<g id="node23" class="node">
<title>\\RichWeb\\Algorithms\\Interfaces\\CodeExampleInterface</title>
<polygon fill="none" stroke="black" points="232.5,-1016 80.5,-1016 80.5,-980 232.5,-980 232.5,-1016"/>
<text text-anchor="middle" x="156.5" y="-995.2" font-family="Courier,monospace" font-size="11.00">CodeExampleInterface</text>
</g>
<!-- \\RichWeb\\Algorithms\\CodeExamples\\CodeExample&#45;&gt;\\RichWeb\\Algorithms\\Interfaces\\CodeExampleInterface -->
<g id="edge17" class="edge">
<title>\\RichWeb\\Algorithms\\CodeExamples\\CodeExample&#45;&gt;\\RichWeb\\Algorithms\\Interfaces\\CodeExampleInterface</title>
<path fill="none" stroke="black" stroke-dasharray="1,5" d="M385.31,-1001.34C346.76,-1000.78 290.03,-999.95 242.82,-999.25"/>
<polygon fill="none" stroke="black" points="242.64,-995.75 232.59,-999.1 242.54,-1002.75 242.64,-995.75"/>
</g>
<!-- Stringable -->
<g id="node54" class="node">
<title>Stringable</title>
<ellipse fill="none" stroke="black" cx="156.5" cy="-1398" rx="46.59" ry="18"/>
<text text-anchor="middle" x="156.5" y="-1394.3" font-family="Times New Roman,serif" font-size="14.00" fill="gray">Stringable</text>
</g>
<!-- \\RichWeb\\Algorithms\\CodeExamples\\CodeExample&#45;&gt;Stringable -->
<g id="edge18" class="edge">
<title>\\RichWeb\\Algorithms\\CodeExamples\\CodeExample&#45;&gt;Stringable</title>
<path fill="none" stroke="black" stroke-dasharray="1,5" d="M415.45,-1020.27C395.93,-1045.35 360.95,-1092.29 337,-1136 305.98,-1192.61 316.46,-1216.07 281,-1270 253.82,-1311.33 212.3,-1351.05 185.03,-1375"/>
<polygon fill="none" stroke="black" points="182.66,-1372.42 177.4,-1381.62 187.24,-1377.71 182.66,-1372.42"/>
</g>
<!-- \\RichWeb\\Algorithms\\CodeExamples\\CodeExamplesLoader -->
<g id="node15" class="node">
<title>\\RichWeb\\Algorithms\\CodeExamples\\CodeExamplesLoader</title>
<polygon fill="none" stroke="black" points="500,-966 362,-966 362,-930 500,-930 500,-966"/>
<text text-anchor="middle" x="431" y="-945.2" font-family="Courier,monospace" font-size="11.00">CodeExamplesLoader</text>
</g>
<!-- \\RichWeb\\Algorithms\\Interfaces\\CodeExamplesLoaderInterface -->
<g id="node24" class="node">
<title>\\RichWeb\\Algorithms\\Interfaces\\CodeExamplesLoaderInterface</title>
<polygon fill="none" stroke="black" points="256,-962 57,-962 57,-926 256,-926 256,-962"/>
<text text-anchor="middle" x="156.5" y="-941.2" font-family="Courier,monospace" font-size="11.00">CodeExamplesLoaderInterface</text>
</g>
<!-- \\RichWeb\\Algorithms\\CodeExamples\\CodeExamplesLoader&#45;&gt;\\RichWeb\\Algorithms\\Interfaces\\CodeExamplesLoaderInterface -->
<g id="edge19" class="edge">
<title>\\RichWeb\\Algorithms\\CodeExamples\\CodeExamplesLoader&#45;&gt;\\RichWeb\\Algorithms\\Interfaces\\CodeExamplesLoaderInterface</title>
<path fill="none" stroke="black" stroke-dasharray="1,5" d="M361.94,-947C333.06,-946.58 298.68,-946.07 266.43,-945.6"/>
<polygon fill="none" stroke="black" points="266.09,-942.09 256.04,-945.45 265.99,-949.09 266.09,-942.09"/>
</g>
<!-- \\RichWeb\\Algorithms\\CodeExamples\\CodeExamplesLoader&#45;&gt;\\RichWeb\\Algorithms\\Interfaces\\SubscribesToEventsInterface -->
<g id="edge20" class="edge">
<title>\\RichWeb\\Algorithms\\CodeExamples\\CodeExamplesLoader&#45;&gt;\\RichWeb\\Algorithms\\Interfaces\\SubscribesToEventsInterface</title>
<path fill="none" stroke="black" stroke-dasharray="1,5" d="M361.91,-941.19C352.65,-937.76 343.96,-932.88 337,-926 263.71,-853.56 354.91,-772.81 281,-701 276.3,-696.43 271.02,-692.56 265.35,-689.29"/>
<polygon fill="none" stroke="black" points="266.66,-686.03 256.16,-684.63 263.49,-692.27 266.66,-686.03"/>
</g>
<!-- \\RichWeb\\Algorithms\\Events\\WPEventCreator -->
<g id="node16" class="node">
<title>\\RichWeb\\Algorithms\\Events\\WPEventCreator</title>
<polygon fill="none" stroke="black" points="486.5,-182 375.5,-182 375.5,-146 486.5,-146 486.5,-182"/>
<text text-anchor="middle" x="431" y="-161.2" font-family="Courier,monospace" font-size="11.00">WPEventCreator</text>
</g>
<!-- \\RichWeb\\Algorithms\\Interfaces\\EventCreatorInterface -->
<g id="node25" class="node">
<title>\\RichWeb\\Algorithms\\Interfaces\\EventCreatorInterface</title>
<polygon fill="none" stroke="black" points="235.5,-314 77.5,-314 77.5,-278 235.5,-278 235.5,-314"/>
<text text-anchor="middle" x="156.5" y="-293.2" font-family="Courier,monospace" font-size="11.00">EventCreatorInterface</text>
</g>
<!-- \\RichWeb\\Algorithms\\Events\\WPEventCreator&#45;&gt;\\RichWeb\\Algorithms\\Interfaces\\EventCreatorInterface -->
<g id="edge21" class="edge">
<title>\\RichWeb\\Algorithms\\Events\\WPEventCreator&#45;&gt;\\RichWeb\\Algorithms\\Interfaces\\EventCreatorInterface</title>
<path fill="none" stroke="black" stroke-dasharray="1,5" d="M390.52,-182.11C373.4,-190.73 353.53,-201.82 337,-214 308.91,-234.69 311.68,-252.4 281,-269 270.03,-274.93 257.85,-279.56 245.53,-283.17"/>
<polygon fill="none" stroke="black" points="244.38,-279.86 235.65,-285.86 246.21,-286.61 244.38,-279.86"/>
</g>
<!-- \\RichWeb\\Algorithms\\Events\\WPEventSubscriber -->
<g id="node17" class="node">
<title>\\RichWeb\\Algorithms\\Events\\WPEventSubscriber</title>
<polygon fill="none" stroke="black" points="496.5,-128 365.5,-128 365.5,-92 496.5,-92 496.5,-128"/>
<text text-anchor="middle" x="431" y="-107.2" font-family="Courier,monospace" font-size="11.00">WPEventSubscriber</text>
</g>
<!-- \\RichWeb\\Algorithms\\Interfaces\\EventSubscriberInterface -->
<g id="node26" class="node">
<title>\\RichWeb\\Algorithms\\Interfaces\\EventSubscriberInterface</title>
<polygon fill="none" stroke="black" points="246,-260 67,-260 67,-224 246,-224 246,-260"/>
<text text-anchor="middle" x="156.5" y="-239.2" font-family="Courier,monospace" font-size="11.00">EventSubscriberInterface</text>
</g>
<!-- \\RichWeb\\Algorithms\\Events\\WPEventSubscriber&#45;&gt;\\RichWeb\\Algorithms\\Interfaces\\EventSubscriberInterface -->
<g id="edge22" class="edge">
<title>\\RichWeb\\Algorithms\\Events\\WPEventSubscriber&#45;&gt;\\RichWeb\\Algorithms\\Interfaces\\EventSubscriberInterface</title>
<path fill="none" stroke="black" stroke-dasharray="1,5" d="M365.39,-122.65C355.36,-126.3 345.51,-130.98 337,-137 302.15,-161.63 316.66,-191.55 281,-215 273.17,-220.15 264.53,-224.33 255.55,-227.72"/>
<polygon fill="none" stroke="black" points="254.4,-224.41 246.09,-230.98 256.68,-231.03 254.4,-224.41"/>
</g>
<!-- \\RichWeb\\Algorithms\\Interfaces\\AlgorithmPackageInterface -->
<g id="node19" class="node">
<title>\\RichWeb\\Algorithms\\Interfaces\\AlgorithmPackageInterface</title>
<polygon fill="none" stroke="black" points="249,-638 64,-638 64,-602 249,-602 249,-638"/>
<text text-anchor="middle" x="156.5" y="-617.2" font-family="Courier,monospace" font-size="11.00">AlgorithmPackageInterface</text>
</g>
<!-- \\RichWeb\\Algorithms\\Interfaces\\AlgorithmPackageLoaderInterface -->
<g id="node20" class="node">
<title>\\RichWeb\\Algorithms\\Interfaces\\AlgorithmPackageLoaderInterface</title>
<polygon fill="none" stroke="black" points="269.5,-746 43.5,-746 43.5,-710 269.5,-710 269.5,-746"/>
<text text-anchor="middle" x="156.5" y="-725.2" font-family="Courier,monospace" font-size="11.00">AlgorithmPackageLoaderInterface</text>
</g>
<!-- \\RichWeb\\Algorithms\\Interfaces\\AlgorithmPackageManagerInterface -->
<g id="node21" class="node">
<title>\\RichWeb\\Algorithms\\Interfaces\\AlgorithmPackageManagerInterface</title>
<polygon fill="none" stroke="black" points="273,-584 40,-584 40,-548 273,-548 273,-584"/>
<text text-anchor="middle" x="156.5" y="-563.2" font-family="Courier,monospace" font-size="11.00">AlgorithmPackageManagerInterface</text>
</g>
<!-- \\RichWeb\\Algorithms\\Interfaces\\AutoloaderInterface -->
<g id="node22" class="node">
<title>\\RichWeb\\Algorithms\\Interfaces\\AutoloaderInterface</title>
<polygon fill="none" stroke="black" points="229,-368 84,-368 84,-332 229,-332 229,-368"/>
<text text-anchor="middle" x="156.5" y="-347.2" font-family="Courier,monospace" font-size="11.00">AutoloaderInterface</text>
</g>
<!-- \\RichWeb\\Algorithms\\Interfaces\\FileLoaderInterface -->
<g id="node27" class="node">
<title>\\RichWeb\\Algorithms\\Interfaces\\FileLoaderInterface</title>
<polygon fill="none" stroke="black" points="229,-422 84,-422 84,-386 229,-386 229,-422"/>
<text text-anchor="middle" x="156.5" y="-401.2" font-family="Courier,monospace" font-size="11.00">FileLoaderInterface</text>
</g>
<!-- \\RichWeb\\Algorithms\\Interfaces\\LanguagesInterface -->
<g id="node29" class="node">
<title>\\RichWeb\\Algorithms\\Interfaces\\LanguagesInterface</title>
<polygon fill="none" stroke="black" points="225.5,-908 87.5,-908 87.5,-872 225.5,-872 225.5,-908"/>
<text text-anchor="middle" x="156.5" y="-887.2" font-family="Courier,monospace" font-size="11.00">LanguagesInterface</text>
</g>
<!-- \\RichWeb\\Algorithms\\Interfaces\\ProjectInterface -->
<g id="node31" class="node">
<title>\\RichWeb\\Algorithms\\Interfaces\\ProjectInterface</title>
<polygon fill="none" stroke="black" points="219,-854 94,-854 94,-818 219,-818 219,-854"/>
<text text-anchor="middle" x="156.5" y="-833.2" font-family="Courier,monospace" font-size="11.00">ProjectInterface</text>
</g>
<!-- \\RichWeb\\Algorithms\\Loaders\\Autoloader -->
<g id="node36" class="node">
<title>\\RichWeb\\Algorithms\\Loaders\\Autoloader</title>
<polygon fill="none" stroke="black" points="473,-262 389,-262 389,-226 473,-226 473,-262"/>
<text text-anchor="middle" x="431" y="-241.2" font-family="Courier,monospace" font-size="11.00">Autoloader</text>
</g>
<!-- \\RichWeb\\Algorithms\\Loaders\\Autoloader&#45;&gt;\\RichWeb\\Algorithms\\Interfaces\\AutoloaderInterface -->
<g id="edge23" class="edge">
<title>\\RichWeb\\Algorithms\\Loaders\\Autoloader&#45;&gt;\\RichWeb\\Algorithms\\Interfaces\\AutoloaderInterface</title>
<path fill="none" stroke="black" stroke-dasharray="1,5" d="M388.99,-251.55C372.17,-255.73 352.94,-261.97 337,-271 307.45,-287.74 311.1,-307.26 281,-323 268.04,-329.78 253.46,-334.85 238.99,-338.66"/>
<polygon fill="none" stroke="black" points="237.89,-335.32 229,-341.09 239.55,-342.12 237.89,-335.32"/>
</g>
<!-- \\RichWeb\\Algorithms\\Loaders\\ContentLoader -->
<g id="node37" class="node">
<title>\\RichWeb\\Algorithms\\Loaders\\ContentLoader</title>
<polygon fill="none" stroke="black" points="483,-316 379,-316 379,-280 483,-280 483,-316"/>
<text text-anchor="middle" x="431" y="-295.2" font-family="Courier,monospace" font-size="11.00">ContentLoader</text>
</g>
<!-- \\RichWeb\\Algorithms\\Loaders\\FileLoader -->
<g id="node38" class="node">
<title>\\RichWeb\\Algorithms\\Loaders\\FileLoader</title>
<polygon fill="none" stroke="black" points="473,-370 389,-370 389,-334 473,-334 473,-370"/>
<text text-anchor="middle" x="431" y="-349.2" font-family="Courier,monospace" font-size="11.00">FileLoader</text>
</g>
<!-- \\RichWeb\\Algorithms\\Loaders\\FileLoader&#45;&gt;\\RichWeb\\Algorithms\\Interfaces\\FileLoaderInterface -->
<g id="edge24" class="edge">
<title>\\RichWeb\\Algorithms\\Loaders\\FileLoader&#45;&gt;\\RichWeb\\Algorithms\\Interfaces\\FileLoaderInterface</title>
<path fill="none" stroke="black" stroke-dasharray="1,5" d="M388.91,-359.84C349.4,-367.38 288.58,-378.99 239.21,-388.41"/>
<polygon fill="none" stroke="black" points="238.34,-385.01 229.18,-390.32 239.66,-391.89 238.34,-385.01"/>
</g>
<!-- \\RichWeb\\Algorithms\\Packages\\AlgorithmPackage -->
<g id="node39" class="node">
<title>\\RichWeb\\Algorithms\\Packages\\AlgorithmPackage</title>
<polygon fill="none" stroke="black" points="493.5,-746 368.5,-746 368.5,-710 493.5,-710 493.5,-746"/>
<text text-anchor="middle" x="431" y="-725.2" font-family="Courier,monospace" font-size="11.00">AlgorithmPackage</text>
</g>
<!-- \\RichWeb\\Algorithms\\Packages\\AlgorithmPackage&#45;&gt;\\RichWeb\\Algorithms\\Interfaces\\AlgorithmPackageInterface -->
<g id="edge25" class="edge">
<title>\\RichWeb\\Algorithms\\Packages\\AlgorithmPackage&#45;&gt;\\RichWeb\\Algorithms\\Interfaces\\AlgorithmPackageInterface</title>
<path fill="none" stroke="black" stroke-dasharray="1,5" d="M368.23,-714.65C357.44,-711.05 346.6,-706.56 337,-701 307.08,-683.67 311.49,-663.31 281,-647 273.98,-643.25 266.48,-640.01 258.76,-637.23"/>
<polygon fill="none" stroke="black" points="259.86,-633.91 249.26,-634.05 257.64,-640.55 259.86,-633.91"/>
</g>
<!-- \\RichWeb\\Algorithms\\Packages\\AlgorithmPackageLoader -->
<g id="node40" class="node">
<title>\\RichWeb\\Algorithms\\Packages\\AlgorithmPackageLoader</title>
<polygon fill="none" stroke="black" points="513.5,-800 348.5,-800 348.5,-764 513.5,-764 513.5,-800"/>
<text text-anchor="middle" x="431" y="-779.2" font-family="Courier,monospace" font-size="11.00">AlgorithmPackageLoader</text>
</g>
<!-- \\RichWeb\\Algorithms\\Packages\\AlgorithmPackageLoader&#45;&gt;\\RichWeb\\Algorithms\\Interfaces\\AlgorithmPackageLoaderInterface -->
<g id="edge26" class="edge">
<title>\\RichWeb\\Algorithms\\Packages\\AlgorithmPackageLoader&#45;&gt;\\RichWeb\\Algorithms\\Interfaces\\AlgorithmPackageLoaderInterface</title>
<path fill="none" stroke="black" stroke-dasharray="1,5" d="M348.24,-765.8C320.07,-760.22 288.18,-753.9 258.65,-748.04"/>
<polygon fill="none" stroke="black" points="259.23,-744.59 248.74,-746.08 257.86,-751.46 259.23,-744.59"/>
</g>
<!-- \\RichWeb\\Algorithms\\Packages\\AlgorithmPackageLoader&#45;&gt;\\RichWeb\\Algorithms\\Interfaces\\HasRunnerInterface -->
<g id="edge27" class="edge">
<title>\\RichWeb\\Algorithms\\Packages\\AlgorithmPackageLoader&#45;&gt;\\RichWeb\\Algorithms\\Interfaces\\HasRunnerInterface</title>
<path fill="none" stroke="black" stroke-dasharray="1,5" d="M348.24,-782C312.71,-782 271.27,-782 236.1,-782"/>
<polygon fill="none" stroke="black" points="235.88,-778.5 225.88,-782 235.88,-785.5 235.88,-778.5"/>
</g>
<!-- \\RichWeb\\Algorithms\\Packages\\AlgorithmPackageManager -->
<g id="node41" class="node">
<title>\\RichWeb\\Algorithms\\Packages\\AlgorithmPackageManager</title>
<polygon fill="none" stroke="black" points="517,-692 345,-692 345,-656 517,-656 517,-692"/>
<text text-anchor="middle" x="431" y="-671.2" font-family="Courier,monospace" font-size="11.00">AlgorithmPackageManager</text>
</g>
<!-- \\RichWeb\\Algorithms\\Packages\\AlgorithmPackageManager&#45;&gt;\\RichWeb\\Algorithms\\Interfaces\\AlgorithmPackageManagerInterface -->
<g id="edge28" class="edge">
<title>\\RichWeb\\Algorithms\\Packages\\AlgorithmPackageManager&#45;&gt;\\RichWeb\\Algorithms\\Interfaces\\AlgorithmPackageManagerInterface</title>
<path fill="none" stroke="black" stroke-dasharray="1,5" d="M361.98,-655.83C353.32,-652.44 344.78,-648.51 337,-644 307.88,-627.12 310.91,-608.45 281,-593 277.43,-591.15 273.73,-589.43 269.96,-587.83"/>
<polygon fill="none" stroke="black" points="270.99,-584.48 260.41,-584.08 268.44,-591 270.99,-584.48"/>
</g>
<!-- \\RichWeb\\Algorithms\\Setup\\Scripts\\FrontendScriptLoader -->
<g id="node42" class="node">
<title>\\RichWeb\\Algorithms\\Setup\\Scripts\\FrontendScriptLoader</title>
<polygon fill="none" stroke="black" points="1052.5,-828 900.5,-828 900.5,-792 1052.5,-792 1052.5,-828"/>
<text text-anchor="middle" x="976.5" y="-807.2" font-family="Courier,monospace" font-size="11.00">FrontendScriptLoader</text>
</g>
<!-- \\RichWeb\\Algorithms\\Setup\\AlgorithmScripts -->
<g id="node43" class="node">
<title>\\RichWeb\\Algorithms\\Setup\\AlgorithmScripts</title>
<polygon fill="none" stroke="black" points="1039,-612 914,-612 914,-576 1039,-576 1039,-612"/>
<text text-anchor="middle" x="976.5" y="-591.2" font-family="Courier,monospace" font-size="11.00">AlgorithmScripts</text>
</g>
<!-- \\RichWeb\\Algorithms\\Setup\\AlgorithmScripts&#45;&gt;\\RichWeb\\Algorithms\\Abstracts\\AbstractScripts -->
<g id="edge32" class="edge">
<title>\\RichWeb\\Algorithms\\Setup\\AlgorithmScripts&#45;&gt;\\RichWeb\\Algorithms\\Abstracts\\AbstractScripts</title>
<path fill="none" stroke="black" d="M913.85,-582.22C868.78,-573.6 807.65,-561.92 761.13,-553.02"/>
<polygon fill="none" stroke="black" points="761.62,-549.55 751.14,-551.11 760.3,-556.43 761.62,-549.55"/>
</g>
<!-- \\RichWeb\\Algorithms\\Setup\\Languages -->
<g id="node44" class="node">
<title>\\RichWeb\\Algorithms\\Setup\\Languages</title>
<polygon fill="none" stroke="black" points="1015,-774 938,-774 938,-738 1015,-738 1015,-774"/>
<text text-anchor="middle" x="976.5" y="-753.2" font-family="Courier,monospace" font-size="11.00">Languages</text>
</g>
<!-- \\RichWeb\\Algorithms\\Setup\\Languages&#45;&gt;\\RichWeb\\Algorithms\\Interfaces\\HasRunnerInterface -->
<g id="edge34" class="edge">
<title>\\RichWeb\\Algorithms\\Setup\\Languages&#45;&gt;\\RichWeb\\Algorithms\\Interfaces\\HasRunnerInterface</title>
<path fill="none" stroke="black" stroke-dasharray="1,5" d="M691,-857C618.44,-871.94 598.89,-847.32 525,-842 504.36,-840.51 451.97,-842.45 432,-837"/>
<path fill="none" stroke="black" stroke-dasharray="1,5" d="M937.88,-757.13C913.76,-759.38 882.66,-765.25 859,-780 829.43,-798.44 841.26,-824.71 811,-842 765.1,-868.23 744.78,-846.34 693,-857"/>
</g>
<!-- \\RichWeb\\Algorithms\\Setup\\Languages&#45;&gt;\\RichWeb\\Algorithms\\Interfaces\\LanguagesInterface -->
<g id="edge33" class="edge">
<title>\\RichWeb\\Algorithms\\Setup\\Languages&#45;&gt;\\RichWeb\\Algorithms\\Interfaces\\LanguagesInterface</title>
<path fill="none" stroke="black" stroke-dasharray="1,5" d="M691,-857C615.66,-872.52 601.13,-895 525,-906 442.3,-917.95 420.47,-909.71 337,-906 303.72,-904.52 267.07,-901.5 235.61,-898.48"/>
<polygon fill="none" stroke="black" points="235.89,-894.99 225.59,-897.51 235.21,-901.96 235.89,-894.99"/>
</g>
<!-- \\RichWeb\\Algorithms\\Setup\\PrismSyntaxtHighlighterScripts -->
<g id="node45" class="node">
<title>\\RichWeb\\Algorithms\\Setup\\PrismSyntaxtHighlighterScripts</title>
<polygon fill="none" stroke="black" points="1086,-666 867,-666 867,-630 1086,-630 1086,-666"/>
<text text-anchor="middle" x="976.5" y="-645.2" font-family="Courier,monospace" font-size="11.00">PrismSyntaxtHighlighterScripts</text>
</g>
<!-- \\RichWeb\\Algorithms\\Setup\\PrismSyntaxtHighlighterScripts&#45;&gt;\\RichWeb\\Algorithms\\Abstracts\\AbstractScripts -->
<g id="edge35" class="edge">
<title>\\RichWeb\\Algorithms\\Setup\\PrismSyntaxtHighlighterScripts&#45;&gt;\\RichWeb\\Algorithms\\Abstracts\\AbstractScripts</title>
<path fill="none" stroke="black" d="M877.13,-629.95C870.82,-627.36 864.71,-624.39 859,-621 831.39,-604.6 838.63,-583.36 811,-567 795.96,-558.09 778.23,-552.13 761.16,-548.13"/>
<polygon fill="none" stroke="black" points="761.72,-544.67 751.21,-545.99 760.25,-551.51 761.72,-544.67"/>
</g>
<!-- \\RichWeb\\Algorithms\\Setup\\Scripts -->
<g id="node46" class="node">
<title>\\RichWeb\\Algorithms\\Setup\\Scripts</title>
<polygon fill="none" stroke="black" points="1008.5,-558 944.5,-558 944.5,-522 1008.5,-522 1008.5,-558"/>
<text text-anchor="middle" x="976.5" y="-537.2" font-family="Courier,monospace" font-size="11.00">Scripts</text>
</g>
<!-- \\RichWeb\\Algorithms\\Setup\\Scripts&#45;&gt;\\RichWeb\\Algorithms\\Abstracts\\AbstractScripts -->
<g id="edge36" class="edge">
<title>\\RichWeb\\Algorithms\\Setup\\Scripts&#45;&gt;\\RichWeb\\Algorithms\\Abstracts\\AbstractScripts</title>
<path fill="none" stroke="black" d="M944.46,-540C900.65,-540 819.53,-540 761.26,-540"/>
<polygon fill="none" stroke="black" points="761.03,-536.5 751.03,-540 761.03,-543.5 761.03,-536.5"/>
</g>
<!-- \\RichWeb\\Algorithms\\Setup\\Setup -->
<g id="node47" class="node">
<title>\\RichWeb\\Algorithms\\Setup\\Setup</title>
<polygon fill="none" stroke="black" points="1003.5,-720 949.5,-720 949.5,-684 1003.5,-684 1003.5,-720"/>
<text text-anchor="middle" x="976.5" y="-699.2" font-family="Courier,monospace" font-size="11.00">Setup</text>
</g>
<!-- \\RichWeb\\Algorithms\\Setup\\Setup&#45;&gt;\\RichWeb\\Algorithms\\Interfaces\\HasRunnerInterface -->
<g id="edge37" class="edge">
<title>\\RichWeb\\Algorithms\\Setup\\Setup&#45;&gt;\\RichWeb\\Algorithms\\Interfaces\\HasRunnerInterface</title>
<path fill="none" stroke="black" stroke-dasharray="1,5" d="M949.46,-707.48C925.76,-712.59 889.87,-720.67 859,-729 764.5,-754.49 526.42,-862.79 432,-837"/>
<path fill="none" stroke="black" stroke-dasharray="1,5" d="M430,-837C389.75,-827.35 377.38,-841.1 337,-832 310.75,-826.08 306.68,-817.01 281,-809 266.48,-804.47 250.77,-800.41 235.57,-796.9"/>
<polygon fill="none" stroke="black" points="236.2,-793.46 225.68,-794.68 234.67,-800.29 236.2,-793.46"/>
</g>
<!-- \\RichWeb\\Algorithms\\Traits\\Formatting\\FilePaths -->
<g id="node48" class="node">
<title>\\RichWeb\\Algorithms\\Traits\\Formatting\\FilePaths</title>
<polygon fill="none" stroke="black" points="1015,-1089 938,-1089 938,-1053 1015,-1053 1015,-1089"/>
<text text-anchor="middle" x="976.5" y="-1068.2" font-family="Courier,monospace" font-size="11.00">FilePaths</text>
</g>
<!-- \\RichWeb\\Algorithms\\Traits\\Formatting\\Strings -->
<g id="node49" class="node">
<title>\\RichWeb\\Algorithms\\Traits\\Formatting\\Strings</title>
<polygon fill="none" stroke="black" points="1008.5,-1035 944.5,-1035 944.5,-999 1008.5,-999 1008.5,-1035"/>
<text text-anchor="middle" x="976.5" y="-1014.2" font-family="Courier,monospace" font-size="11.00">Strings</text>
</g>
<!-- \\RichWeb\\Algorithms\\Traits\\Posts\\AlgorithmChecker -->
<g id="node50" class="node">
<title>\\RichWeb\\Algorithms\\Traits\\Posts\\AlgorithmChecker</title>
<polygon fill="none" stroke="black" points="1039,-1169 914,-1169 914,-1133 1039,-1133 1039,-1169"/>
<text text-anchor="middle" x="976.5" y="-1148.2" font-family="Courier,monospace" font-size="11.00">AlgorithmChecker</text>
</g>
<!-- \\RichWeb\\Algorithms\\Plugin -->
<g id="node51" class="node">
<title>\\RichWeb\\Algorithms\\Plugin</title>
<polygon fill="none" stroke="black" points="1005,-504 948,-504 948,-468 1005,-468 1005,-504"/>
<text text-anchor="middle" x="976.5" y="-483.2" font-family="Courier,monospace" font-size="11.00">Plugin</text>
</g>
<!-- \\RichWeb\\Algorithms\\Plugin&#45;&gt;\\RichWeb\\Algorithms\\Abstracts\\AbstractSingletonPlugin -->
<g id="edge29" class="edge">
<title>\\RichWeb\\Algorithms\\Plugin&#45;&gt;\\RichWeb\\Algorithms\\Abstracts\\AbstractSingletonPlugin</title>
<path fill="none" stroke="black" d="M947.9,-486C911.17,-486 844.35,-486 788.34,-486"/>
<polygon fill="none" stroke="black" points="788.02,-482.5 778.02,-486 788.02,-489.5 788.02,-482.5"/>
</g>
<!-- \\RichWeb\\Algorithms\\PrismSyntaxHighlighter -->
<g id="node52" class="node">
<title>\\RichWeb\\Algorithms\\PrismSyntaxHighlighter</title>
<polygon fill="none" stroke="black" points="1059,-450 894,-450 894,-414 1059,-414 1059,-450"/>
<text text-anchor="middle" x="976.5" y="-429.2" font-family="Courier,monospace" font-size="11.00">PrismSyntaxHighlighter</text>
</g>
<!-- \\RichWeb\\Algorithms\\PrismSyntaxHighlighter&#45;&gt;\\RichWeb\\Algorithms\\Abstracts\\AbstractSyntaxHighlighter -->
<g id="edge30" class="edge">
<title>\\RichWeb\\Algorithms\\PrismSyntaxHighlighter&#45;&gt;\\RichWeb\\Algorithms\\Abstracts\\AbstractSyntaxHighlighter</title>
<path fill="none" stroke="black" d="M893.79,-432C862.98,-432 827.55,-432 795.11,-432"/>
<polygon fill="none" stroke="black" points="794.7,-428.5 784.7,-432 794.7,-435.5 794.7,-428.5"/>
</g>
<!-- \\RichWeb\\Algorithms\\Project -->
<g id="node53" class="node">
<title>\\RichWeb\\Algorithms\\Project</title>
<polygon fill="none" stroke="black" points="463,-892 399,-892 399,-856 463,-856 463,-892"/>
<text text-anchor="middle" x="431" y="-871.2" font-family="Courier,monospace" font-size="11.00">Project</text>
</g>
<!-- \\RichWeb\\Algorithms\\Project&#45;&gt;\\RichWeb\\Algorithms\\Interfaces\\ProjectInterface -->
<g id="edge31" class="edge">
<title>\\RichWeb\\Algorithms\\Project&#45;&gt;\\RichWeb\\Algorithms\\Interfaces\\ProjectInterface</title>
<path fill="none" stroke="black" stroke-dasharray="1,5" d="M398.74,-869.64C357.68,-863.91 284.34,-853.69 229.27,-846.01"/>
<polygon fill="none" stroke="black" points="229.59,-842.52 219.21,-844.6 228.63,-849.45 229.59,-842.52"/>
</g>
</g>
</svg>
