<?xml version="1.0" encoding="UTF-8" standalone="no"?>
<!DOCTYPE svg PUBLIC "-//W3C//DTD SVG 1.1//EN"
 "http://www.w3.org/Graphics/SVG/1.1/DTD/svg11.dtd">
<!-- Generated by graphviz version 2.50.0 (20211204.2007)
 -->
<!-- Title: G Pages: 1 -->
<svg width="1134pt" height="1262pt"
 viewBox="0.00 0.00 1134.00 1262.00" xmlns="http://www.w3.org/2000/svg" xmlns:xlink="http://www.w3.org/1999/xlink">
<g id="graph0" class="graph" transform="scale(1 1) rotate(0) translate(4 1258)">
<title>G</title>
<polygon fill="white" stroke="transparent" points="-4,4 -4,-1258 1130,-1258 1130,4 -4,4"/>
<g id="clust1" class="cluster">
<title>cluster_Global</title>
<polygon fill="none" stroke="black" points="8,-8 8,-1246 1118,-1246 1118,-8 8,-8"/>
<text text-anchor="middle" x="563" y="-1233.2" font-family="Times New Roman,serif" font-size="11.00" fill="gray">Global</text>
</g>
<g id="clust2" class="cluster">
<title>cluster_\RichWeb</title>
<polygon fill="none" stroke="black" points="16,-16 16,-1174 1110,-1174 1110,-16 16,-16"/>
<text text-anchor="middle" x="563" y="-1161.2" font-family="Times New Roman,serif" font-size="11.00" fill="gray">RichWeb</text>
</g>
<g id="clust3" class="cluster">
<title>cluster_\RichWeb\Algorithms</title>
<polygon fill="none" stroke="black" points="24,-24 24,-1146 1102,-1146 1102,-24 24,-24"/>
<text text-anchor="middle" x="563" y="-1133.2" font-family="Times New Roman,serif" font-size="11.00" fill="gray">Algorithms</text>
</g>
<g id="clust4" class="cluster">
<title>cluster_\RichWeb\Algorithms\Abstracts</title>
<polygon fill="none" stroke="black" points="367.5,-434 367.5,-668 792.5,-668 792.5,-434 367.5,-434"/>
<text text-anchor="middle" x="580" y="-655.2" font-family="Times New Roman,serif" font-size="11.00" fill="gray">Abstracts</text>
</g>
<g id="clust5" class="cluster">
<title>cluster_\RichWeb\Algorithms\Admin</title>
<polygon fill="none" stroke="black" points="75,-814 75,-1074 811,-1074 811,-814 75,-814"/>
<text text-anchor="middle" x="443" y="-1061.2" font-family="Times New Roman,serif" font-size="11.00" fill="gray">Admin</text>
</g>
<g id="clust6" class="cluster">
<title>cluster_\RichWeb\Algorithms\Admin\Abstracts</title>
<polygon fill="none" stroke="black" points="360.5,-898 360.5,-1024 501.5,-1024 501.5,-898 360.5,-898"/>
<text text-anchor="middle" x="431" y="-1011.2" font-family="Times New Roman,serif" font-size="11.00" fill="gray">Abstracts</text>
</g>
<g id="clust7" class="cluster">
<title>cluster_\RichWeb\Algorithms\Admin\Interfaces</title>
<polygon fill="none" stroke="black" points="83,-898 83,-1024 230,-1024 230,-898 83,-898"/>
<text text-anchor="middle" x="156.5" y="-1011.2" font-family="Times New Roman,serif" font-size="11.00" fill="gray">Interfaces</text>
</g>
<g id="clust8" class="cluster">
<title>cluster_\RichWeb\Algorithms\Admin\MetaBoxes</title>
<polygon fill="none" stroke="black" points="581,-822 581,-1002 803,-1002 803,-822 581,-822"/>
<text text-anchor="middle" x="692" y="-989.2" font-family="Times New Roman,serif" font-size="11.00" fill="gray">MetaBoxes</text>
</g>
<g id="clust12" class="cluster">
<title>cluster_\RichWeb\Algorithms\Traits</title>
<polygon fill="none" stroke="black" points="922,-907 922,-1069 1031,-1069 1031,-907 922,-907"/>
<text text-anchor="middle" x="976.5" y="-1056.2" font-family="Times New Roman,serif" font-size="11.00" fill="gray">Traits</text>
</g>
<g id="clust13" class="cluster">
<title>cluster_\RichWeb\Algorithms\Traits\Formatting</title>
<polygon fill="none" stroke="black" points="930,-915 930,-1041 1023,-1041 1023,-915 930,-915"/>
<text text-anchor="middle" x="976.5" y="-1028.2" font-family="Times New Roman,serif" font-size="11.00" fill="gray">Formatting</text>
</g>
<g id="clust9" class="cluster">
<title>cluster_\RichWeb\Algorithms\Interfaces</title>
<polygon fill="none" stroke="black" points="32,-32 32,-806 281,-806 281,-32 32,-32"/>
<text text-anchor="middle" x="156.5" y="-793.2" font-family="Times New Roman,serif" font-size="11.00" fill="gray">Interfaces</text>
</g>
<g id="clust11" class="cluster">
<title>cluster_\RichWeb\Algorithms\Setup</title>
<polygon fill="none" stroke="black" points="859,-607 859,-841 1094,-841 1094,-607 859,-607"/>
<text text-anchor="middle" x="976.5" y="-828.2" font-family="Times New Roman,serif" font-size="11.00" fill="gray">Setup</text>
</g>
<g id="clust10" class="cluster">
<title>cluster_\RichWeb\Algorithms\Loaders</title>
<polygon fill="none" stroke="black" points="371,-246 371,-426 491,-426 491,-246 371,-246"/>
<text text-anchor="middle" x="431" y="-413.2" font-family="Times New Roman,serif" font-size="11.00" fill="gray">Loaders</text>
</g>
<!-- \\RichWeb\\Algorithms\\Abstracts\\AbstractAlgorithm -->
<g id="node1" class="node">
<title>\\RichWeb\\Algorithms\\Abstracts\\AbstractAlgorithm</title>
<polygon fill="none" stroke="black" points="757.5,-478 626.5,-478 626.5,-442 757.5,-442 757.5,-478"/>
<text text-anchor="start" x="658" y="-463.2" font-family="Courier,monospace" font-size="11.00">«abstract»</text>
<text text-anchor="start" x="634.5" y="-451.2" font-family="Courier,monospace" font-size="11.00">AbstractAlgorithm</text>
</g>
<!-- \\RichWeb\\Algorithms\\Interfaces\\AlgorithmInterface -->
<g id="node14" class="node">
<title>\\RichWeb\\Algorithms\\Interfaces\\AlgorithmInterface</title>
<polygon fill="none" stroke="black" points="225.5,-76 87.5,-76 87.5,-40 225.5,-40 225.5,-76"/>
<text text-anchor="middle" x="156.5" y="-55.2" font-family="Courier,monospace" font-size="11.00">AlgorithmInterface</text>
</g>
<!-- \\RichWeb\\Algorithms\\Abstracts\\AbstractAlgorithm&#45;&gt;\\RichWeb\\Algorithms\\Interfaces\\AlgorithmInterface -->
<g id="edge1" class="edge">
<title>\\RichWeb\\Algorithms\\Abstracts\\AbstractAlgorithm&#45;&gt;\\RichWeb\\Algorithms\\Interfaces\\AlgorithmInterface</title>
<path fill="none" stroke="black" stroke-dasharray="1,5" d="M689.96,-441.65C685.06,-374.54 658.06,-141.55 517,-48 426.74,11.86 293.74,-13.99 217.37,-36.88"/>
<polygon fill="none" stroke="black" points="215.96,-33.66 207.43,-39.94 218.02,-40.35 215.96,-33.66"/>
</g>
<!-- \\RichWeb\\Algorithms\\Abstracts\\AbstractPlugin -->
<g id="node2" class="node">
<title>\\RichWeb\\Algorithms\\Abstracts\\AbstractPlugin</title>
<polygon fill="none" stroke="black" points="486.5,-510 375.5,-510 375.5,-474 486.5,-474 486.5,-510"/>
<text text-anchor="start" x="397" y="-495.2" font-family="Courier,monospace" font-size="11.00">«abstract»</text>
<text text-anchor="start" x="383.5" y="-483.2" font-family="Courier,monospace" font-size="11.00">AbstractPlugin</text>
</g>
<!-- \\RichWeb\\Algorithms\\Interfaces\\PluginInterface -->
<g id="node23" class="node">
<title>\\RichWeb\\Algorithms\\Interfaces\\PluginInterface</title>
<polygon fill="none" stroke="black" points="215.5,-454 97.5,-454 97.5,-418 215.5,-418 215.5,-454"/>
<text text-anchor="middle" x="156.5" y="-433.2" font-family="Courier,monospace" font-size="11.00">PluginInterface</text>
</g>
<!-- \\RichWeb\\Algorithms\\Abstracts\\AbstractPlugin&#45;&gt;\\RichWeb\\Algorithms\\Interfaces\\PluginInterface -->
<g id="edge2" class="edge">
<title>\\RichWeb\\Algorithms\\Abstracts\\AbstractPlugin&#45;&gt;\\RichWeb\\Algorithms\\Interfaces\\PluginInterface</title>
<path fill="none" stroke="black" stroke-dasharray="1,5" d="M375.18,-480.73C332.03,-471.87 271.68,-459.46 225.46,-449.97"/>
<polygon fill="none" stroke="black" points="226.02,-446.51 215.52,-447.92 224.61,-453.37 226.02,-446.51"/>
</g>
<!-- \\RichWeb\\Algorithms\\Abstracts\\AbstractScripts -->
<g id="node3" class="node">
<title>\\RichWeb\\Algorithms\\Abstracts\\AbstractScripts</title>
<polygon fill="none" stroke="black" points="751,-532 633,-532 633,-496 751,-496 751,-532"/>
<text text-anchor="start" x="658" y="-517.2" font-family="Courier,monospace" font-size="11.00">«abstract»</text>
<text text-anchor="start" x="641" y="-505.2" font-family="Courier,monospace" font-size="11.00">AbstractScripts</text>
</g>
<!-- \\RichWeb\\Algorithms\\Interfaces\\HasRunnerInterface -->
<g id="node21" class="node">
<title>\\RichWeb\\Algorithms\\Interfaces\\HasRunnerInterface</title>
<polygon fill="none" stroke="black" points="225.5,-724 87.5,-724 87.5,-688 225.5,-688 225.5,-724"/>
<text text-anchor="middle" x="156.5" y="-703.2" font-family="Courier,monospace" font-size="11.00">HasRunnerInterface</text>
</g>
<!-- \\RichWeb\\Algorithms\\Abstracts\\AbstractScripts&#45;&gt;\\RichWeb\\Algorithms\\Interfaces\\HasRunnerInterface -->
<g id="edge4" class="edge">
<title>\\RichWeb\\Algorithms\\Abstracts\\AbstractScripts&#45;&gt;\\RichWeb\\Algorithms\\Interfaces\\HasRunnerInterface</title>
<path fill="none" stroke="black" stroke-dasharray="1,5" d="M632.99,-511.35C614.26,-507.72 594.8,-500.59 581,-487 500.83,-408.01 606.07,-310.79 517,-242 501.87,-230.32 359.46,-229.5 345,-242 196.48,-370.35 414.87,-535.44 281,-679 269.11,-691.75 252.72,-699.18 235.75,-703.38"/>
<polygon fill="none" stroke="black" points="234.79,-700 225.73,-705.49 236.23,-706.85 234.79,-700"/>
</g>
<!-- \\RichWeb\\Algorithms\\Interfaces\\ScriptsInterface -->
<g id="node25" class="node">
<title>\\RichWeb\\Algorithms\\Interfaces\\ScriptsInterface</title>
<polygon fill="none" stroke="black" points="219,-130 94,-130 94,-94 219,-94 219,-130"/>
<text text-anchor="middle" x="156.5" y="-109.2" font-family="Courier,monospace" font-size="11.00">ScriptsInterface</text>
</g>
<!-- \\RichWeb\\Algorithms\\Abstracts\\AbstractScripts&#45;&gt;\\RichWeb\\Algorithms\\Interfaces\\ScriptsInterface -->
<g id="edge3" class="edge">
<title>\\RichWeb\\Algorithms\\Abstracts\\AbstractScripts&#45;&gt;\\RichWeb\\Algorithms\\Interfaces\\ScriptsInterface</title>
<path fill="none" stroke="black" stroke-dasharray="1,5" d="M633,-512.33C613.93,-508.83 594.25,-501.53 581,-487 451.14,-344.52 663.02,-183.86 517,-58 488.05,-33.05 382.46,-50.42 345,-58 314.74,-64.12 310.43,-75.66 281,-85 264.39,-90.27 246.2,-94.87 229.01,-98.71"/>
<polygon fill="none" stroke="black" points="228.05,-95.33 219.02,-100.88 229.53,-102.17 228.05,-95.33"/>
</g>
<!-- \\RichWeb\\Algorithms\\Abstracts\\AbstractSingletonPlugin -->
<g id="node4" class="node">
<title>\\RichWeb\\Algorithms\\Abstracts\\AbstractSingletonPlugin</title>
<polygon fill="none" stroke="black" points="778,-586 606,-586 606,-550 778,-550 778,-586"/>
<text text-anchor="start" x="658" y="-571.2" font-family="Courier,monospace" font-size="11.00">«abstract»</text>
<text text-anchor="start" x="614" y="-559.2" font-family="Courier,monospace" font-size="11.00">AbstractSingletonPlugin</text>
</g>
<!-- \\RichWeb\\Algorithms\\Abstracts\\AbstractSingletonPlugin&#45;&gt;\\RichWeb\\Algorithms\\Abstracts\\AbstractPlugin -->
<g id="edge5" class="edge">
<title>\\RichWeb\\Algorithms\\Abstracts\\AbstractSingletonPlugin&#45;&gt;\\RichWeb\\Algorithms\\Abstracts\\AbstractPlugin</title>
<path fill="none" stroke="black" d="M614.17,-549.94C603,-547.09 591.68,-544.06 581,-541 551.97,-532.68 520.14,-522.37 493.37,-513.36"/>
<polygon fill="none" stroke="black" points="494.35,-510 483.76,-510.11 492.11,-516.63 494.35,-510"/>
</g>
<!-- \\RichWeb\\Algorithms\\Interfaces\\SingletonPluginInterface -->
<g id="node26" class="node">
<title>\\RichWeb\\Algorithms\\Interfaces\\SingletonPluginInterface</title>
<polygon fill="none" stroke="black" points="246,-508 67,-508 67,-472 246,-472 246,-508"/>
<text text-anchor="middle" x="156.5" y="-487.2" font-family="Courier,monospace" font-size="11.00">SingletonPluginInterface</text>
</g>
<!-- \\RichWeb\\Algorithms\\Abstracts\\AbstractSingletonPlugin&#45;&gt;\\RichWeb\\Algorithms\\Interfaces\\SingletonPluginInterface -->
<g id="edge6" class="edge">
<title>\\RichWeb\\Algorithms\\Abstracts\\AbstractSingletonPlugin&#45;&gt;\\RichWeb\\Algorithms\\Interfaces\\SingletonPluginInterface</title>
<path fill="none" stroke="black" stroke-dasharray="1,5" d="M606,-556.27C535.93,-546.53 433.97,-532.18 345,-519 316.14,-514.73 284.82,-509.94 256.18,-505.5"/>
<polygon fill="none" stroke="black" points="256.59,-502.03 246.17,-503.95 255.51,-508.94 256.59,-502.03"/>
</g>
<!-- \\RichWeb\\Algorithms\\Abstracts\\AbstractSyntaxHighlighter -->
<g id="node5" class="node">
<title>\\RichWeb\\Algorithms\\Abstracts\\AbstractSyntaxHighlighter</title>
<polygon fill="none" stroke="black" points="784.5,-640 599.5,-640 599.5,-604 784.5,-604 784.5,-640"/>
<text text-anchor="start" x="658" y="-625.2" font-family="Courier,monospace" font-size="11.00">«abstract»</text>
<text text-anchor="start" x="607.5" y="-613.2" font-family="Courier,monospace" font-size="11.00">AbstractSyntaxHighlighter</text>
</g>
<!-- \\RichWeb\\Algorithms\\Interfaces\\SyntaxHighlighterInterface -->
<g id="node27" class="node">
<title>\\RichWeb\\Algorithms\\Interfaces\\SyntaxHighlighterInterface</title>
<polygon fill="none" stroke="black" points="252.5,-562 60.5,-562 60.5,-526 252.5,-526 252.5,-562"/>
<text text-anchor="middle" x="156.5" y="-541.2" font-family="Courier,monospace" font-size="11.00">SyntaxHighlighterInterface</text>
</g>
<!-- \\RichWeb\\Algorithms\\Abstracts\\AbstractSyntaxHighlighter&#45;&gt;\\RichWeb\\Algorithms\\Interfaces\\SyntaxHighlighterInterface -->
<g id="edge7" class="edge">
<title>\\RichWeb\\Algorithms\\Abstracts\\AbstractSyntaxHighlighter&#45;&gt;\\RichWeb\\Algorithms\\Interfaces\\SyntaxHighlighterInterface</title>
<path fill="none" stroke="black" stroke-dasharray="1,5" d="M614.17,-603.94C603.01,-601.08 591.68,-598.06 581,-595 552.22,-586.76 546.34,-579.95 517,-574 432.44,-556.84 334.77,-549.47 262.6,-546.31"/>
<polygon fill="none" stroke="black" points="262.73,-542.81 252.59,-545.89 262.43,-549.8 262.73,-542.81"/>
</g>
<!-- \\RichWeb\\Algorithms\\Admin\\Abstracts\\AbstractMetaBox -->
<g id="node6" class="node">
<title>\\RichWeb\\Algorithms\\Admin\\Abstracts\\AbstractMetaBox</title>
<polygon fill="none" stroke="black" points="490,-942 372,-942 372,-906 490,-906 490,-942"/>
<text text-anchor="start" x="397" y="-927.2" font-family="Courier,monospace" font-size="11.00">«abstract»</text>
<text text-anchor="start" x="380" y="-915.2" font-family="Courier,monospace" font-size="11.00">AbstractMetaBox</text>
</g>
<!-- \\RichWeb\\Algorithms\\Admin\\Interfaces\\MetaBoxInterface -->
<g id="node8" class="node">
<title>\\RichWeb\\Algorithms\\Admin\\Interfaces\\MetaBoxInterface</title>
<polygon fill="none" stroke="black" points="219,-942 94,-942 94,-906 219,-906 219,-942"/>
<text text-anchor="middle" x="156.5" y="-921.2" font-family="Courier,monospace" font-size="11.00">MetaBoxInterface</text>
</g>
<!-- \\RichWeb\\Algorithms\\Admin\\Abstracts\\AbstractMetaBox&#45;&gt;\\RichWeb\\Algorithms\\Admin\\Interfaces\\MetaBoxInterface -->
<g id="edge8" class="edge">
<title>\\RichWeb\\Algorithms\\Admin\\Abstracts\\AbstractMetaBox&#45;&gt;\\RichWeb\\Algorithms\\Admin\\Interfaces\\MetaBoxInterface</title>
<path fill="none" stroke="black" stroke-dasharray="1,5" d="M371.88,-924C330.26,-924 273.95,-924 229.49,-924"/>
<polygon fill="none" stroke="black" points="229.32,-920.5 219.32,-924 229.32,-927.5 229.32,-920.5"/>
</g>
<!-- \\RichWeb\\Algorithms\\Admin\\Abstracts\\AbstractPostType -->
<g id="node7" class="node">
<title>\\RichWeb\\Algorithms\\Admin\\Abstracts\\AbstractPostType</title>
<polygon fill="none" stroke="black" points="493.5,-996 368.5,-996 368.5,-960 493.5,-960 493.5,-996"/>
<text text-anchor="start" x="397" y="-981.2" font-family="Courier,monospace" font-size="11.00">«abstract»</text>
<text text-anchor="start" x="376.5" y="-969.2" font-family="Courier,monospace" font-size="11.00">AbstractPostType</text>
</g>
<!-- \\RichWeb\\Algorithms\\Admin\\Interfaces\\PostTypeInterface -->
<g id="node9" class="node">
<title>\\RichWeb\\Algorithms\\Admin\\Interfaces\\PostTypeInterface</title>
<polygon fill="none" stroke="black" points="222,-996 91,-996 91,-960 222,-960 222,-996"/>
<text text-anchor="middle" x="156.5" y="-975.2" font-family="Courier,monospace" font-size="11.00">PostTypeInterface</text>
</g>
<!-- \\RichWeb\\Algorithms\\Admin\\Abstracts\\AbstractPostType&#45;&gt;\\RichWeb\\Algorithms\\Admin\\Interfaces\\PostTypeInterface -->
<g id="edge9" class="edge">
<title>\\RichWeb\\Algorithms\\Admin\\Abstracts\\AbstractPostType&#45;&gt;\\RichWeb\\Algorithms\\Admin\\Interfaces\\PostTypeInterface</title>
<path fill="none" stroke="black" stroke-dasharray="1,5" d="M368.17,-978C327.9,-978 275.12,-978 232.46,-978"/>
<polygon fill="none" stroke="black" points="232.41,-974.5 222.41,-978 232.41,-981.5 232.41,-974.5"/>
</g>
<!-- \\RichWeb\\Algorithms\\Admin\\Abstracts\\AbstractPostType&#45;&gt;\\RichWeb\\Algorithms\\Interfaces\\HasRunnerInterface -->
<g id="edge10" class="edge">
<title>\\RichWeb\\Algorithms\\Admin\\Abstracts\\AbstractPostType&#45;&gt;\\RichWeb\\Algorithms\\Interfaces\\HasRunnerInterface</title>
<path fill="none" stroke="black" stroke-dasharray="1,5" d="M368.24,-966.43C359.62,-962.65 351.5,-957.64 345,-951 274.39,-878.82 354.87,-801.85 281,-733 268.52,-721.37 252.23,-714.31 235.59,-710.12"/>
<polygon fill="none" stroke="black" points="236.3,-706.69 225.79,-707.97 234.81,-713.53 236.3,-706.69"/>
</g>
<!-- \\RichWeb\\Algorithms\\Admin\\MetaBoxes\\AlgorithmCodeExamplesMetaBox -->
<g id="node10" class="node">
<title>\\RichWeb\\Algorithms\\Admin\\MetaBoxes\\AlgorithmCodeExamplesMetaBox</title>
<polygon fill="none" stroke="black" points="795,-920 589,-920 589,-884 795,-884 795,-920"/>
<text text-anchor="middle" x="692" y="-899.2" font-family="Courier,monospace" font-size="11.00">AlgorithmCodeExamplesMetaBox</text>
</g>
<!-- \\RichWeb\\Algorithms\\Admin\\MetaBoxes\\AlgorithmCodeExamplesMetaBox&#45;&gt;\\RichWeb\\Algorithms\\Admin\\Abstracts\\AbstractMetaBox -->
<g id="edge12" class="edge">
<title>\\RichWeb\\Algorithms\\Admin\\MetaBoxes\\AlgorithmCodeExamplesMetaBox&#45;&gt;\\RichWeb\\Algorithms\\Admin\\Abstracts\\AbstractMetaBox</title>
<path fill="none" stroke="black" d="M588.64,-910.69C558.92,-913.22 527.21,-915.91 500.15,-918.21"/>
<polygon fill="none" stroke="black" points="499.69,-914.74 490.02,-919.07 500.28,-921.71 499.69,-914.74"/>
</g>
<!-- \\RichWeb\\Algorithms\\Admin\\MetaBoxes\\AlgorithmPackageMetaBox -->
<g id="node11" class="node">
<title>\\RichWeb\\Algorithms\\Admin\\MetaBoxes\\AlgorithmPackageMetaBox</title>
<polygon fill="none" stroke="black" points="778,-974 606,-974 606,-938 778,-938 778,-974"/>
<text text-anchor="middle" x="692" y="-953.2" font-family="Courier,monospace" font-size="11.00">AlgorithmPackageMetaBox</text>
</g>
<!-- \\RichWeb\\Algorithms\\Admin\\MetaBoxes\\AlgorithmPackageMetaBox&#45;&gt;\\RichWeb\\Algorithms\\Admin\\Abstracts\\AbstractMetaBox -->
<g id="edge13" class="edge">
<title>\\RichWeb\\Algorithms\\Admin\\MetaBoxes\\AlgorithmPackageMetaBox&#45;&gt;\\RichWeb\\Algorithms\\Admin\\Abstracts\\AbstractMetaBox</title>
<path fill="none" stroke="black" d="M605.83,-945.48C571.64,-941.25 532.76,-936.45 500.46,-932.46"/>
<polygon fill="none" stroke="black" points="500.56,-928.94 490.21,-931.19 499.71,-935.89 500.56,-928.94"/>
</g>
<!-- \\RichWeb\\Algorithms\\Admin\\MetaBoxes\\MetaBoxes -->
<g id="node12" class="node">
<title>\\RichWeb\\Algorithms\\Admin\\MetaBoxes\\MetaBoxes</title>
<polygon fill="none" stroke="black" points="730.5,-866 653.5,-866 653.5,-830 730.5,-830 730.5,-866"/>
<text text-anchor="middle" x="692" y="-845.2" font-family="Courier,monospace" font-size="11.00">MetaBoxes</text>
</g>
<!-- \\RichWeb\\Algorithms\\Admin\\MetaBoxes\\MetaBoxes&#45;&gt;\\RichWeb\\Algorithms\\Interfaces\\HasRunnerInterface -->
<g id="edge14" class="edge">
<title>\\RichWeb\\Algorithms\\Admin\\MetaBoxes\\MetaBoxes&#45;&gt;\\RichWeb\\Algorithms\\Interfaces\\HasRunnerInterface</title>
<path fill="none" stroke="black" stroke-dasharray="1,5" d="M653.12,-841.65C602.55,-833.03 510.26,-816.75 432,-800"/>
</g>
<!-- \\RichWeb\\Algorithms\\Admin\\AlgorithmPostType -->
<g id="node13" class="node">
<title>\\RichWeb\\Algorithms\\Admin\\AlgorithmPostType</title>
<polygon fill="none" stroke="black" points="757.5,-1046 626.5,-1046 626.5,-1010 757.5,-1010 757.5,-1046"/>
<text text-anchor="middle" x="692" y="-1025.2" font-family="Courier,monospace" font-size="11.00">AlgorithmPostType</text>
</g>
<!-- \\RichWeb\\Algorithms\\Admin\\AlgorithmPostType&#45;&gt;\\RichWeb\\Algorithms\\Admin\\Abstracts\\AbstractPostType -->
<g id="edge11" class="edge">
<title>\\RichWeb\\Algorithms\\Admin\\AlgorithmPostType&#45;&gt;\\RichWeb\\Algorithms\\Admin\\Abstracts\\AbstractPostType</title>
<path fill="none" stroke="black" d="M626.31,-1015.51C589.04,-1008.32 542.11,-999.26 503.71,-991.84"/>
<polygon fill="none" stroke="black" points="504.12,-988.36 493.64,-989.9 502.79,-995.23 504.12,-988.36"/>
</g>
<!-- \\RichWeb\\Algorithms\\Interfaces\\AlgorithmPackageInterface -->
<g id="node15" class="node">
<title>\\RichWeb\\Algorithms\\Interfaces\\AlgorithmPackageInterface</title>
<polygon fill="none" stroke="black" points="249,-238 64,-238 64,-202 249,-202 249,-238"/>
<text text-anchor="middle" x="156.5" y="-217.2" font-family="Courier,monospace" font-size="11.00">AlgorithmPackageInterface</text>
</g>
<!-- \\RichWeb\\Algorithms\\Interfaces\\AlgorithmPackageLoaderInterface -->
<g id="node16" class="node">
<title>\\RichWeb\\Algorithms\\Interfaces\\AlgorithmPackageLoaderInterface</title>
<polygon fill="none" stroke="black" points="269.5,-292 43.5,-292 43.5,-256 269.5,-256 269.5,-292"/>
<text text-anchor="middle" x="156.5" y="-271.2" font-family="Courier,monospace" font-size="11.00">AlgorithmPackageLoaderInterface</text>
</g>
<!-- \\RichWeb\\Algorithms\\Interfaces\\AlgorithmPackageManagerInterface -->
<g id="node17" class="node">
<title>\\RichWeb\\Algorithms\\Interfaces\\AlgorithmPackageManagerInterface</title>
<polygon fill="none" stroke="black" points="273,-184 40,-184 40,-148 273,-148 273,-184"/>
<text text-anchor="middle" x="156.5" y="-163.2" font-family="Courier,monospace" font-size="11.00">AlgorithmPackageManagerInterface</text>
</g>
<!-- \\RichWeb\\Algorithms\\Interfaces\\AutoloaderInterface -->
<g id="node18" class="node">
<title>\\RichWeb\\Algorithms\\Interfaces\\AutoloaderInterface</title>
<polygon fill="none" stroke="black" points="229,-346 84,-346 84,-310 229,-310 229,-346"/>
<text text-anchor="middle" x="156.5" y="-325.2" font-family="Courier,monospace" font-size="11.00">AutoloaderInterface</text>
</g>
<!-- \\RichWeb\\Algorithms\\Interfaces\\CodeExampleInterface -->
<g id="node19" class="node">
<title>\\RichWeb\\Algorithms\\Interfaces\\CodeExampleInterface</title>
<polygon fill="none" stroke="black" points="232.5,-778 80.5,-778 80.5,-742 232.5,-742 232.5,-778"/>
<text text-anchor="middle" x="156.5" y="-757.2" font-family="Courier,monospace" font-size="11.00">CodeExampleInterface</text>
</g>
<!-- \\RichWeb\\Algorithms\\Interfaces\\FileLoaderInterface -->
<g id="node20" class="node">
<title>\\RichWeb\\Algorithms\\Interfaces\\FileLoaderInterface</title>
<polygon fill="none" stroke="black" points="229,-400 84,-400 84,-364 229,-364 229,-400"/>
<text text-anchor="middle" x="156.5" y="-379.2" font-family="Courier,monospace" font-size="11.00">FileLoaderInterface</text>
</g>
<!-- \\RichWeb\\Algorithms\\Interfaces\\LanguagesInterface -->
<g id="node22" class="node">
<title>\\RichWeb\\Algorithms\\Interfaces\\LanguagesInterface</title>
<polygon fill="none" stroke="black" points="225.5,-670 87.5,-670 87.5,-634 225.5,-634 225.5,-670"/>
<text text-anchor="middle" x="156.5" y="-649.2" font-family="Courier,monospace" font-size="11.00">LanguagesInterface</text>
</g>
<!-- \\RichWeb\\Algorithms\\Interfaces\\ProjectInterface -->
<g id="node24" class="node">
<title>\\RichWeb\\Algorithms\\Interfaces\\ProjectInterface</title>
<polygon fill="none" stroke="black" points="219,-616 94,-616 94,-580 219,-580 219,-616"/>
<text text-anchor="middle" x="156.5" y="-595.2" font-family="Courier,monospace" font-size="11.00">ProjectInterface</text>
</g>
<!-- \\RichWeb\\Algorithms\\Loaders\\Autoloader -->
<g id="node28" class="node">
<title>\\RichWeb\\Algorithms\\Loaders\\Autoloader</title>
<polygon fill="none" stroke="black" points="473,-290 389,-290 389,-254 473,-254 473,-290"/>
<text text-anchor="middle" x="431" y="-269.2" font-family="Courier,monospace" font-size="11.00">Autoloader</text>
</g>
<!-- \\RichWeb\\Algorithms\\Loaders\\Autoloader&#45;&gt;\\RichWeb\\Algorithms\\Interfaces\\AutoloaderInterface -->
<g id="edge21" class="edge">
<title>\\RichWeb\\Algorithms\\Loaders\\Autoloader&#45;&gt;\\RichWeb\\Algorithms\\Interfaces\\AutoloaderInterface</title>
<path fill="none" stroke="black" stroke-dasharray="1,5" d="M388.91,-280.44C349.4,-288.56 288.58,-301.06 239.21,-311.21"/>
<polygon fill="none" stroke="black" points="238.27,-307.83 229.18,-313.27 239.68,-314.69 238.27,-307.83"/>
</g>
<!-- \\RichWeb\\Algorithms\\Loaders\\ContentLoader -->
<g id="node29" class="node">
<title>\\RichWeb\\Algorithms\\Loaders\\ContentLoader</title>
<polygon fill="none" stroke="black" points="483,-344 379,-344 379,-308 483,-308 483,-344"/>
<text text-anchor="middle" x="431" y="-323.2" font-family="Courier,monospace" font-size="11.00">ContentLoader</text>
</g>
<!-- \\RichWeb\\Algorithms\\Loaders\\FileLoader -->
<g id="node30" class="node">
<title>\\RichWeb\\Algorithms\\Loaders\\FileLoader</title>
<polygon fill="none" stroke="black" points="473,-398 389,-398 389,-362 473,-362 473,-398"/>
<text text-anchor="middle" x="431" y="-377.2" font-family="Courier,monospace" font-size="11.00">FileLoader</text>
</g>
<!-- \\RichWeb\\Algorithms\\Loaders\\FileLoader&#45;&gt;\\RichWeb\\Algorithms\\Interfaces\\FileLoaderInterface -->
<g id="edge22" class="edge">
<title>\\RichWeb\\Algorithms\\Loaders\\FileLoader&#45;&gt;\\RichWeb\\Algorithms\\Interfaces\\FileLoaderInterface</title>
<path fill="none" stroke="black" stroke-dasharray="1,5" d="M388.91,-380.3C349.4,-380.59 288.58,-381.04 239.21,-381.4"/>
<polygon fill="none" stroke="black" points="239.15,-377.9 229.18,-381.47 239.2,-384.9 239.15,-377.9"/>
</g>
<!-- \\RichWeb\\Algorithms\\Setup\\Languages -->
<g id="node31" class="node">
<title>\\RichWeb\\Algorithms\\Setup\\Languages</title>
<polygon fill="none" stroke="black" points="1015,-759 938,-759 938,-723 1015,-723 1015,-759"/>
<text text-anchor="middle" x="976.5" y="-738.2" font-family="Courier,monospace" font-size="11.00">Languages</text>
</g>
<!-- \\RichWeb\\Algorithms\\Setup\\Languages&#45;&gt;\\RichWeb\\Algorithms\\Interfaces\\HasRunnerInterface -->
<g id="edge27" class="edge">
<title>\\RichWeb\\Algorithms\\Setup\\Languages&#45;&gt;\\RichWeb\\Algorithms\\Interfaces\\HasRunnerInterface</title>
<path fill="none" stroke="black" stroke-dasharray="1,5" d="M430,-731C392.32,-727.46 382.71,-729.12 345,-726 309.08,-723.03 269.37,-718.91 235.78,-715.19"/>
<polygon fill="none" stroke="black" points="235.89,-711.68 225.56,-714.05 235.11,-718.64 235.89,-711.68"/>
</g>
<!-- \\RichWeb\\Algorithms\\Setup\\Languages&#45;&gt;\\RichWeb\\Algorithms\\Interfaces\\LanguagesInterface -->
<g id="edge26" class="edge">
<title>\\RichWeb\\Algorithms\\Setup\\Languages&#45;&gt;\\RichWeb\\Algorithms\\Interfaces\\LanguagesInterface</title>
<path fill="none" stroke="black" stroke-dasharray="1,5" d="M430,-731C392.32,-727.46 380.6,-738.84 345,-726 311.8,-714.03 313.16,-693.53 281,-679 266.89,-672.63 251.18,-667.71 235.82,-663.94"/>
<polygon fill="none" stroke="black" points="236.33,-660.47 225.8,-661.63 234.75,-667.29 236.33,-660.47"/>
<path fill="none" stroke="black" stroke-dasharray="1,5" d="M937.83,-742.25C849.33,-744.76 621.33,-748.77 432,-731"/>
</g>
<!-- \\RichWeb\\Algorithms\\Setup\\PrismSyntaxtHighlighterScripts -->
<g id="node32" class="node">
<title>\\RichWeb\\Algorithms\\Setup\\PrismSyntaxtHighlighterScripts</title>
<polygon fill="none" stroke="black" points="1086,-651 867,-651 867,-615 1086,-615 1086,-651"/>
<text text-anchor="middle" x="976.5" y="-630.2" font-family="Courier,monospace" font-size="11.00">PrismSyntaxtHighlighterScripts</text>
</g>
<!-- \\RichWeb\\Algorithms\\Setup\\PrismSyntaxtHighlighterScripts&#45;&gt;\\RichWeb\\Algorithms\\Abstracts\\AbstractScripts -->
<g id="edge28" class="edge">
<title>\\RichWeb\\Algorithms\\Setup\\PrismSyntaxtHighlighterScripts&#45;&gt;\\RichWeb\\Algorithms\\Abstracts\\AbstractScripts</title>
<path fill="none" stroke="black" d="M866.75,-615.56C864.09,-614.15 861.5,-612.63 859,-611 827.41,-590.38 842.19,-562.22 811,-541 796.33,-531.02 778.5,-524.69 761.19,-520.68"/>
<polygon fill="none" stroke="black" points="761.59,-517.19 751.09,-518.58 760.17,-524.04 761.59,-517.19"/>
</g>
<!-- \\RichWeb\\Algorithms\\Setup\\Scripts -->
<g id="node33" class="node">
<title>\\RichWeb\\Algorithms\\Setup\\Scripts</title>
<polygon fill="none" stroke="black" points="1008.5,-705 944.5,-705 944.5,-669 1008.5,-669 1008.5,-705"/>
<text text-anchor="middle" x="976.5" y="-684.2" font-family="Courier,monospace" font-size="11.00">Scripts</text>
</g>
<!-- \\RichWeb\\Algorithms\\Setup\\Scripts&#45;&gt;\\RichWeb\\Algorithms\\Abstracts\\AbstractScripts -->
<g id="edge29" class="edge">
<title>\\RichWeb\\Algorithms\\Setup\\Scripts&#45;&gt;\\RichWeb\\Algorithms\\Abstracts\\AbstractScripts</title>
<path fill="none" stroke="black" d="M944.29,-687.36C918.6,-686.03 882.67,-680.24 859,-660 815.66,-622.93 854.39,-578.01 811,-541 797.04,-529.09 778.87,-522.16 760.99,-518.21"/>
<polygon fill="none" stroke="black" points="761.6,-514.76 751.11,-516.3 760.27,-521.63 761.6,-514.76"/>
</g>
<!-- \\RichWeb\\Algorithms\\Setup\\Setup -->
<g id="node34" class="node">
<title>\\RichWeb\\Algorithms\\Setup\\Setup</title>
<polygon fill="none" stroke="black" points="1003.5,-813 949.5,-813 949.5,-777 1003.5,-777 1003.5,-813"/>
<text text-anchor="middle" x="976.5" y="-792.2" font-family="Courier,monospace" font-size="11.00">Setup</text>
</g>
<!-- \\RichWeb\\Algorithms\\Setup\\Setup&#45;&gt;\\RichWeb\\Algorithms\\Interfaces\\HasRunnerInterface -->
<g id="edge30" class="edge">
<title>\\RichWeb\\Algorithms\\Setup\\Setup&#45;&gt;\\RichWeb\\Algorithms\\Interfaces\\HasRunnerInterface</title>
<path fill="none" stroke="black" stroke-dasharray="1,5" d="M949.45,-796.74C855.24,-802.81 532.46,-821.5 432,-800"/>
<path fill="none" stroke="black" stroke-dasharray="1,5" d="M430,-800C359.1,-784.34 349.95,-755.77 281,-733 266.55,-728.23 250.88,-724.06 235.69,-720.52"/>
<polygon fill="none" stroke="black" points="236.33,-717.08 225.81,-718.29 234.79,-723.91 236.33,-717.08"/>
</g>
<!-- \\RichWeb\\Algorithms\\Traits\\Formatting\\FilePaths -->
<g id="node35" class="node">
<title>\\RichWeb\\Algorithms\\Traits\\Formatting\\FilePaths</title>
<polygon fill="none" stroke="black" points="1015,-1013 938,-1013 938,-977 1015,-977 1015,-1013"/>
<text text-anchor="middle" x="976.5" y="-992.2" font-family="Courier,monospace" font-size="11.00">FilePaths</text>
</g>
<!-- \\RichWeb\\Algorithms\\Traits\\Formatting\\Strings -->
<g id="node36" class="node">
<title>\\RichWeb\\Algorithms\\Traits\\Formatting\\Strings</title>
<polygon fill="none" stroke="black" points="1008.5,-959 944.5,-959 944.5,-923 1008.5,-923 1008.5,-959"/>
<text text-anchor="middle" x="976.5" y="-938.2" font-family="Courier,monospace" font-size="11.00">Strings</text>
</g>
<!-- \\RichWeb\\Algorithms\\AlgorithmPackage -->
<g id="node37" class="node">
<title>\\RichWeb\\Algorithms\\AlgorithmPackage</title>
<polygon fill="none" stroke="black" points="493.5,-162 368.5,-162 368.5,-126 493.5,-126 493.5,-162"/>
<text text-anchor="middle" x="431" y="-141.2" font-family="Courier,monospace" font-size="11.00">AlgorithmPackage</text>
</g>
<!-- \\RichWeb\\Algorithms\\AlgorithmPackage&#45;&gt;\\RichWeb\\Algorithms\\Interfaces\\AlgorithmPackageInterface -->
<g id="edge15" class="edge">
<title>\\RichWeb\\Algorithms\\AlgorithmPackage&#45;&gt;\\RichWeb\\Algorithms\\Interfaces\\AlgorithmPackageInterface</title>
<path fill="none" stroke="black" stroke-dasharray="1,5" d="M372.33,-162.12C363.18,-165.05 353.82,-168.08 345,-171 316.44,-180.44 309.96,-184.89 281,-193 272.79,-195.3 264.22,-197.53 255.59,-199.65"/>
<polygon fill="none" stroke="black" points="254.75,-196.25 245.85,-201.99 256.39,-203.05 254.75,-196.25"/>
</g>
<!-- \\RichWeb\\Algorithms\\AlgorithmPackageLoader -->
<g id="node38" class="node">
<title>\\RichWeb\\Algorithms\\AlgorithmPackageLoader</title>
<polygon fill="none" stroke="black" points="513.5,-216 348.5,-216 348.5,-180 513.5,-180 513.5,-216"/>
<text text-anchor="middle" x="431" y="-195.2" font-family="Courier,monospace" font-size="11.00">AlgorithmPackageLoader</text>
</g>
<!-- \\RichWeb\\Algorithms\\AlgorithmPackageLoader&#45;&gt;\\RichWeb\\Algorithms\\Interfaces\\AlgorithmPackageLoaderInterface -->
<g id="edge16" class="edge">
<title>\\RichWeb\\Algorithms\\AlgorithmPackageLoader&#45;&gt;\\RichWeb\\Algorithms\\Interfaces\\AlgorithmPackageLoaderInterface</title>
<path fill="none" stroke="black" stroke-dasharray="1,5" d="M379.36,-216.08C350.71,-225.95 314.1,-237.96 281,-247 272.69,-249.27 264.03,-251.47 255.32,-253.59"/>
<polygon fill="none" stroke="black" points="254.4,-250.21 245.48,-255.93 256.02,-257.02 254.4,-250.21"/>
</g>
<!-- \\RichWeb\\Algorithms\\AlgorithmPackageLoader&#45;&gt;\\RichWeb\\Algorithms\\Interfaces\\HasRunnerInterface -->
<g id="edge17" class="edge">
<title>\\RichWeb\\Algorithms\\AlgorithmPackageLoader&#45;&gt;\\RichWeb\\Algorithms\\Interfaces\\HasRunnerInterface</title>
<path fill="none" stroke="black" stroke-dasharray="1,5" d="M361.01,-216.1C354.95,-219.89 349.44,-224.47 345,-230 218.86,-387.22 418.19,-531.32 281,-679 269.14,-691.77 252.75,-699.22 235.79,-703.41"/>
<polygon fill="none" stroke="black" points="234.83,-700.04 225.76,-705.52 236.27,-706.89 234.83,-700.04"/>
</g>
<!-- \\RichWeb\\Algorithms\\AlgorithmPackageManager -->
<g id="node39" class="node">
<title>\\RichWeb\\Algorithms\\AlgorithmPackageManager</title>
<polygon fill="none" stroke="black" points="517,-108 345,-108 345,-72 517,-72 517,-108"/>
<text text-anchor="middle" x="431" y="-87.2" font-family="Courier,monospace" font-size="11.00">AlgorithmPackageManager</text>
</g>
<!-- \\RichWeb\\Algorithms\\AlgorithmPackageManager&#45;&gt;\\RichWeb\\Algorithms\\Interfaces\\AlgorithmPackageManagerInterface -->
<g id="edge18" class="edge">
<title>\\RichWeb\\Algorithms\\AlgorithmPackageManager&#45;&gt;\\RichWeb\\Algorithms\\Interfaces\\AlgorithmPackageManagerInterface</title>
<path fill="none" stroke="black" stroke-dasharray="1,5" d="M372.33,-108.12C363.18,-111.05 353.82,-114.08 345,-117 316.44,-126.44 309.96,-130.89 281,-139 272.79,-141.3 264.22,-143.53 255.59,-145.65"/>
<polygon fill="none" stroke="black" points="254.75,-142.25 245.85,-147.99 256.39,-149.05 254.75,-142.25"/>
</g>
<!-- \\RichWeb\\Algorithms\\CodeExample -->
<g id="node40" class="node">
<title>\\RichWeb\\Algorithms\\CodeExample</title>
<polygon fill="none" stroke="black" points="476.5,-1118 385.5,-1118 385.5,-1082 476.5,-1082 476.5,-1118"/>
<text text-anchor="middle" x="431" y="-1097.2" font-family="Courier,monospace" font-size="11.00">CodeExample</text>
</g>
<!-- \\RichWeb\\Algorithms\\CodeExample&#45;&gt;\\RichWeb\\Algorithms\\Interfaces\\CodeExampleInterface -->
<g id="edge19" class="edge">
<title>\\RichWeb\\Algorithms\\CodeExample&#45;&gt;\\RichWeb\\Algorithms\\Interfaces\\CodeExampleInterface</title>
<path fill="none" stroke="black" stroke-dasharray="1,5" d="M403.25,-1081.97C385.06,-1068.69 361.41,-1049.29 345,-1028 304.7,-975.73 318,-948.65 281,-894 252.91,-852.51 212.31,-811.07 185.43,-785.5"/>
<polygon fill="none" stroke="black" points="187.58,-782.71 177.9,-778.41 182.78,-787.81 187.58,-782.71"/>
</g>
<!-- Stringable -->
<g id="node44" class="node">
<title>Stringable</title>
<ellipse fill="none" stroke="black" cx="156.5" cy="-1200" rx="46.59" ry="18"/>
<text text-anchor="middle" x="156.5" y="-1196.3" font-family="Times New Roman,serif" font-size="14.00" fill="gray">Stringable</text>
</g>
<!-- \\RichWeb\\Algorithms\\CodeExample&#45;&gt;Stringable -->
<g id="edge20" class="edge">
<title>\\RichWeb\\Algorithms\\CodeExample&#45;&gt;Stringable</title>
<path fill="none" stroke="black" stroke-dasharray="1,5" d="M385.31,-1116.4C334.21,-1135.15 251.12,-1165.64 200.67,-1184.16"/>
<polygon fill="none" stroke="black" points="199.21,-1180.96 191.03,-1187.69 201.63,-1187.53 199.21,-1180.96"/>
</g>
<!-- \\RichWeb\\Algorithms\\Plugin -->
<g id="node41" class="node">
<title>\\RichWeb\\Algorithms\\Plugin</title>
<polygon fill="none" stroke="black" points="1005,-543 948,-543 948,-507 1005,-507 1005,-543"/>
<text text-anchor="middle" x="976.5" y="-522.2" font-family="Courier,monospace" font-size="11.00">Plugin</text>
</g>
<!-- \\RichWeb\\Algorithms\\Plugin&#45;&gt;\\RichWeb\\Algorithms\\Abstracts\\AbstractSingletonPlugin -->
<g id="edge23" class="edge">
<title>\\RichWeb\\Algorithms\\Plugin&#45;&gt;\\RichWeb\\Algorithms\\Abstracts\\AbstractSingletonPlugin</title>
<path fill="none" stroke="black" d="M947.9,-529.2C911.09,-534.8 844.07,-545 787.99,-553.54"/>
<polygon fill="none" stroke="black" points="787.37,-550.09 778.02,-555.06 788.43,-557.01 787.37,-550.09"/>
</g>
<!-- \\RichWeb\\Algorithms\\PrismSyntaxHighlighter -->
<g id="node42" class="node">
<title>\\RichWeb\\Algorithms\\PrismSyntaxHighlighter</title>
<polygon fill="none" stroke="black" points="1059,-597 894,-597 894,-561 1059,-561 1059,-597"/>
<text text-anchor="middle" x="976.5" y="-576.2" font-family="Courier,monospace" font-size="11.00">PrismSyntaxHighlighter</text>
</g>
<!-- \\RichWeb\\Algorithms\\PrismSyntaxHighlighter&#45;&gt;\\RichWeb\\Algorithms\\Abstracts\\AbstractSyntaxHighlighter -->
<g id="edge24" class="edge">
<title>\\RichWeb\\Algorithms\\PrismSyntaxHighlighter&#45;&gt;\\RichWeb\\Algorithms\\Abstracts\\AbstractSyntaxHighlighter</title>
<path fill="none" stroke="black" d="M893.79,-591.44C862.85,-596.15 827.25,-601.57 794.69,-606.52"/>
<polygon fill="none" stroke="black" points="794.06,-603.08 784.7,-608.04 795.11,-610 794.06,-603.08"/>
</g>
<!-- \\RichWeb\\Algorithms\\Project -->
<g id="node43" class="node">
<title>\\RichWeb\\Algorithms\\Project</title>
<polygon fill="none" stroke="black" points="463,-712 399,-712 399,-676 463,-676 463,-712"/>
<text text-anchor="middle" x="431" y="-691.2" font-family="Courier,monospace" font-size="11.00">Project</text>
</g>
<!-- \\RichWeb\\Algorithms\\Project&#45;&gt;\\RichWeb\\Algorithms\\Interfaces\\ProjectInterface -->
<g id="edge25" class="edge">
<title>\\RichWeb\\Algorithms\\Project&#45;&gt;\\RichWeb\\Algorithms\\Interfaces\\ProjectInterface</title>
<path fill="none" stroke="black" stroke-dasharray="1,5" d="M398.73,-688.87C382.22,-685.44 361.94,-680.04 345,-672 313.12,-656.86 313.16,-639.53 281,-625 264.87,-617.71 246.64,-612.33 229.24,-608.39"/>
<polygon fill="none" stroke="black" points="229.62,-604.89 219.11,-606.23 228.16,-611.74 229.62,-604.89"/>
</g>
</g>
</svg>
