<?xml version="1.0" encoding="UTF-8" standalone="no"?>
<!DOCTYPE svg PUBLIC "-//W3C//DTD SVG 1.1//EN"
 "http://www.w3.org/Graphics/SVG/1.1/DTD/svg11.dtd">
<!-- Generated by graphviz version 2.50.0 (20211204.2007)
 -->
<!-- Title: G Pages: 1 -->
<svg width="1134pt" height="1326pt"
 viewBox="0.00 0.00 1134.00 1326.00" xmlns="http://www.w3.org/2000/svg" xmlns:xlink="http://www.w3.org/1999/xlink">
<g id="graph0" class="graph" transform="scale(1 1) rotate(0) translate(4 1322)">
<title>G</title>
<polygon fill="white" stroke="transparent" points="-4,4 -4,-1322 1130,-1322 1130,4 -4,4"/>
<g id="clust1" class="cluster">
<title>cluster_Global</title>
<polygon fill="none" stroke="black" points="8,-8 8,-1310 1118,-1310 1118,-8 8,-8"/>
<text text-anchor="middle" x="563" y="-1297.2" font-family="Times New Roman,serif" font-size="11.00" fill="gray">Global</text>
</g>
<g id="clust2" class="cluster">
<title>cluster_\RichWeb</title>
<polygon fill="none" stroke="black" points="16,-16 16,-1238 1110,-1238 1110,-16 16,-16"/>
<text text-anchor="middle" x="563" y="-1225.2" font-family="Times New Roman,serif" font-size="11.00" fill="gray">RichWeb</text>
</g>
<g id="clust3" class="cluster">
<title>cluster_\RichWeb\Algorithms</title>
<polygon fill="none" stroke="black" points="24,-24 24,-1210 1102,-1210 1102,-24 24,-24"/>
<text text-anchor="middle" x="563" y="-1197.2" font-family="Times New Roman,serif" font-size="11.00" fill="gray">Algorithms</text>
</g>
<g id="clust5" class="cluster">
<title>cluster_\RichWeb\Algorithms\Admin</title>
<polygon fill="none" stroke="black" points="75,-922 75,-1182 811,-1182 811,-922 75,-922"/>
<text text-anchor="middle" x="443" y="-1169.2" font-family="Times New Roman,serif" font-size="11.00" fill="gray">Admin</text>
</g>
<g id="clust6" class="cluster">
<title>cluster_\RichWeb\Algorithms\Admin\Abstracts</title>
<polygon fill="none" stroke="black" points="360.5,-1006 360.5,-1132 501.5,-1132 501.5,-1006 360.5,-1006"/>
<text text-anchor="middle" x="431" y="-1119.2" font-family="Times New Roman,serif" font-size="11.00" fill="gray">Abstracts</text>
</g>
<g id="clust8" class="cluster">
<title>cluster_\RichWeb\Algorithms\Admin\MetaBoxes</title>
<polygon fill="none" stroke="black" points="581,-930 581,-1110 803,-1110 803,-930 581,-930"/>
<text text-anchor="middle" x="692" y="-1097.2" font-family="Times New Roman,serif" font-size="11.00" fill="gray">MetaBoxes</text>
</g>
<g id="clust7" class="cluster">
<title>cluster_\RichWeb\Algorithms\Admin\Interfaces</title>
<polygon fill="none" stroke="black" points="83,-1006 83,-1132 230,-1132 230,-1006 83,-1006"/>
<text text-anchor="middle" x="156.5" y="-1119.2" font-family="Times New Roman,serif" font-size="11.00" fill="gray">Interfaces</text>
</g>
<g id="clust4" class="cluster">
<title>cluster_\RichWeb\Algorithms\Abstracts</title>
<polygon fill="none" stroke="black" points="367.5,-272 367.5,-506 792.5,-506 792.5,-272 367.5,-272"/>
<text text-anchor="middle" x="580" y="-493.2" font-family="Times New Roman,serif" font-size="11.00" fill="gray">Abstracts</text>
</g>
<g id="clust10" class="cluster">
<title>cluster_\RichWeb\Algorithms\Interfaces</title>
<polygon fill="none" stroke="black" points="32,-83 32,-911 281,-911 281,-83 32,-83"/>
<text text-anchor="middle" x="156.5" y="-898.2" font-family="Times New Roman,serif" font-size="11.00" fill="gray">Interfaces</text>
</g>
<g id="clust12" class="cluster">
<title>cluster_\RichWeb\Algorithms\Packages</title>
<polygon fill="none" stroke="black" points="337,-514 337,-694 525,-694 525,-514 337,-514"/>
<text text-anchor="middle" x="431" y="-681.2" font-family="Times New Roman,serif" font-size="11.00" fill="gray">Packages</text>
</g>
<g id="clust14" class="cluster">
<title>cluster_\RichWeb\Algorithms\Traits</title>
<polygon fill="none" stroke="black" points="898,-835 898,-1077 1055,-1077 1055,-835 898,-835"/>
<text text-anchor="middle" x="976.5" y="-1064.2" font-family="Times New Roman,serif" font-size="11.00" fill="gray">Traits</text>
</g>
<g id="clust16" class="cluster">
<title>cluster_\RichWeb\Algorithms\Traits\Posts</title>
<polygon fill="none" stroke="black" points="906,-977 906,-1049 1047,-1049 1047,-977 906,-977"/>
<text text-anchor="middle" x="976.5" y="-1036.2" font-family="Times New Roman,serif" font-size="11.00" fill="gray">Posts</text>
</g>
<g id="clust15" class="cluster">
<title>cluster_\RichWeb\Algorithms\Traits\Formatting</title>
<polygon fill="none" stroke="black" points="930,-843 930,-969 1023,-969 1023,-843 930,-843"/>
<text text-anchor="middle" x="976.5" y="-956.2" font-family="Times New Roman,serif" font-size="11.00" fill="gray">Formatting</text>
</g>
<g id="clust9" class="cluster">
<title>cluster_\RichWeb\Algorithms\CodeExamples</title>
<polygon fill="none" stroke="black" points="354,-788 354,-914 508,-914 508,-788 354,-788"/>
<text text-anchor="middle" x="431" y="-901.2" font-family="Times New Roman,serif" font-size="11.00" fill="gray">CodeExamples</text>
</g>
<g id="clust13" class="cluster">
<title>cluster_\RichWeb\Algorithms\Setup</title>
<polygon fill="none" stroke="black" points="859,-434 859,-722 1094,-722 1094,-434 859,-434"/>
<text text-anchor="middle" x="976.5" y="-709.2" font-family="Times New Roman,serif" font-size="11.00" fill="gray">Setup</text>
</g>
<g id="clust11" class="cluster">
<title>cluster_\RichWeb\Algorithms\Loaders</title>
<polygon fill="none" stroke="black" points="371,-84 371,-264 491,-264 491,-84 371,-84"/>
<text text-anchor="middle" x="431" y="-251.2" font-family="Times New Roman,serif" font-size="11.00" fill="gray">Loaders</text>
</g>
<!-- \\RichWeb\\Algorithms\\Abstracts\\AbstractAlgorithm -->
<g id="node1" class="node">
<title>\\RichWeb\\Algorithms\\Abstracts\\AbstractAlgorithm</title>
<polygon fill="none" stroke="black" points="757.5,-370 626.5,-370 626.5,-334 757.5,-334 757.5,-370"/>
<text text-anchor="start" x="658" y="-355.2" font-family="Courier,monospace" font-size="11.00">«abstract»</text>
<text text-anchor="start" x="634.5" y="-343.2" font-family="Courier,monospace" font-size="11.00">AbstractAlgorithm</text>
</g>
<!-- \\RichWeb\\Algorithms\\Interfaces\\AlgorithmInterface -->
<g id="node16" class="node">
<title>\\RichWeb\\Algorithms\\Interfaces\\AlgorithmInterface</title>
<polygon fill="none" stroke="black" points="225.5,-181 87.5,-181 87.5,-145 225.5,-145 225.5,-181"/>
<text text-anchor="middle" x="156.5" y="-160.2" font-family="Courier,monospace" font-size="11.00">AlgorithmInterface</text>
</g>
<!-- \\RichWeb\\Algorithms\\Abstracts\\AbstractAlgorithm&#45;&gt;\\RichWeb\\Algorithms\\Interfaces\\AlgorithmInterface -->
<g id="edge1" class="edge">
<title>\\RichWeb\\Algorithms\\Abstracts\\AbstractAlgorithm&#45;&gt;\\RichWeb\\Algorithms\\Interfaces\\AlgorithmInterface</title>
<path fill="none" stroke="black" stroke-dasharray="1,5" d="M626.37,-348.32C609.66,-344.38 593.01,-337.32 581,-325 499.43,-241.26 609.89,-148.37 525,-68 494.6,-39.21 473.79,-50.4 432,-53"/>
<path fill="none" stroke="black" stroke-dasharray="1,5" d="M430,-53C388.21,-55.6 373.31,-47.16 337,-68 303.04,-87.48 314.41,-115.58 281,-136 267.27,-144.39 251.29,-150.19 235.46,-154.19"/>
<polygon fill="none" stroke="black" points="234.6,-150.8 225.64,-156.46 236.17,-157.62 234.6,-150.8"/>
</g>
<!-- \\RichWeb\\Algorithms\\Interfaces\\HasRunnerInterface -->
<g id="node24" class="node">
<title>\\RichWeb\\Algorithms\\Interfaces\\HasRunnerInterface</title>
<polygon fill="none" stroke="black" points="225.5,-775 87.5,-775 87.5,-739 225.5,-739 225.5,-775"/>
<text text-anchor="middle" x="156.5" y="-754.2" font-family="Courier,monospace" font-size="11.00">HasRunnerInterface</text>
</g>
<!-- \\RichWeb\\Algorithms\\Abstracts\\AbstractAlgorithm&#45;&gt;\\RichWeb\\Algorithms\\Interfaces\\HasRunnerInterface -->
<g id="edge2" class="edge">
<title>\\RichWeb\\Algorithms\\Abstracts\\AbstractAlgorithm&#45;&gt;\\RichWeb\\Algorithms\\Interfaces\\HasRunnerInterface</title>
<path fill="none" stroke="black" stroke-dasharray="1,5" d="M430,-53C388.69,-55.57 366.7,-29.16 337,-58 229.49,-162.39 379.74,-617.28 281,-730 269.4,-743.25 252.93,-750.84 235.79,-755.03"/>
<polygon fill="none" stroke="black" points="234.74,-751.67 225.66,-757.12 236.16,-758.53 234.74,-751.67"/>
</g>
<!-- \\RichWeb\\Algorithms\\Abstracts\\AbstractPlugin -->
<g id="node2" class="node">
<title>\\RichWeb\\Algorithms\\Abstracts\\AbstractPlugin</title>
<polygon fill="none" stroke="black" points="486.5,-359 375.5,-359 375.5,-323 486.5,-323 486.5,-359"/>
<text text-anchor="start" x="397" y="-344.2" font-family="Courier,monospace" font-size="11.00">«abstract»</text>
<text text-anchor="start" x="383.5" y="-332.2" font-family="Courier,monospace" font-size="11.00">AbstractPlugin</text>
</g>
<!-- \\RichWeb\\Algorithms\\Interfaces\\PluginInterface -->
<g id="node26" class="node">
<title>\\RichWeb\\Algorithms\\Interfaces\\PluginInterface</title>
<polygon fill="none" stroke="black" points="215.5,-343 97.5,-343 97.5,-307 215.5,-307 215.5,-343"/>
<text text-anchor="middle" x="156.5" y="-322.2" font-family="Courier,monospace" font-size="11.00">PluginInterface</text>
</g>
<!-- \\RichWeb\\Algorithms\\Abstracts\\AbstractPlugin&#45;&gt;\\RichWeb\\Algorithms\\Interfaces\\PluginInterface -->
<g id="edge3" class="edge">
<title>\\RichWeb\\Algorithms\\Abstracts\\AbstractPlugin&#45;&gt;\\RichWeb\\Algorithms\\Interfaces\\PluginInterface</title>
<path fill="none" stroke="black" stroke-dasharray="1,5" d="M375.18,-337.78C332.13,-335.25 271.93,-331.72 225.75,-329.01"/>
<polygon fill="none" stroke="black" points="225.71,-325.5 215.52,-328.41 225.3,-332.49 225.71,-325.5"/>
</g>
<!-- \\RichWeb\\Algorithms\\Abstracts\\AbstractScripts -->
<g id="node3" class="node">
<title>\\RichWeb\\Algorithms\\Abstracts\\AbstractScripts</title>
<polygon fill="none" stroke="black" points="751,-478 633,-478 633,-442 751,-442 751,-478"/>
<text text-anchor="start" x="658" y="-463.2" font-family="Courier,monospace" font-size="11.00">«abstract»</text>
<text text-anchor="start" x="641" y="-451.2" font-family="Courier,monospace" font-size="11.00">AbstractScripts</text>
</g>
<!-- \\RichWeb\\Algorithms\\Abstracts\\AbstractScripts&#45;&gt;\\RichWeb\\Algorithms\\Interfaces\\HasRunnerInterface -->
<g id="edge5" class="edge">
<title>\\RichWeb\\Algorithms\\Abstracts\\AbstractScripts&#45;&gt;\\RichWeb\\Algorithms\\Interfaces\\HasRunnerInterface</title>
<path fill="none" stroke="black" stroke-dasharray="1,5" d="M632.79,-458.21C613.81,-454.68 594.25,-447.4 581,-433 473.45,-316.09 645.8,-183.15 525,-80 493.23,-52.87 367.78,-51.75 337,-80 230.17,-178.02 376.68,-621.08 281,-730 269.38,-743.23 252.9,-750.82 235.77,-755.01"/>
<polygon fill="none" stroke="black" points="234.72,-751.65 225.63,-757.09 236.13,-758.5 234.72,-751.65"/>
</g>
<!-- \\RichWeb\\Algorithms\\Interfaces\\ScriptsInterface -->
<g id="node28" class="node">
<title>\\RichWeb\\Algorithms\\Interfaces\\ScriptsInterface</title>
<polygon fill="none" stroke="black" points="219,-451 94,-451 94,-415 219,-415 219,-451"/>
<text text-anchor="middle" x="156.5" y="-430.2" font-family="Courier,monospace" font-size="11.00">ScriptsInterface</text>
</g>
<!-- \\RichWeb\\Algorithms\\Abstracts\\AbstractScripts&#45;&gt;\\RichWeb\\Algorithms\\Interfaces\\ScriptsInterface -->
<g id="edge4" class="edge">
<title>\\RichWeb\\Algorithms\\Abstracts\\AbstractScripts&#45;&gt;\\RichWeb\\Algorithms\\Interfaces\\ScriptsInterface</title>
<path fill="none" stroke="black" stroke-dasharray="1,5" d="M632.89,-457.06C534.65,-452.09 336.04,-442.04 229.27,-436.63"/>
<polygon fill="none" stroke="black" points="229.39,-433.13 219.23,-436.12 229.04,-440.13 229.39,-433.13"/>
</g>
<!-- \\RichWeb\\Algorithms\\Abstracts\\AbstractSingletonPlugin -->
<g id="node4" class="node">
<title>\\RichWeb\\Algorithms\\Abstracts\\AbstractSingletonPlugin</title>
<polygon fill="none" stroke="black" points="778,-424 606,-424 606,-388 778,-388 778,-424"/>
<text text-anchor="start" x="658" y="-409.2" font-family="Courier,monospace" font-size="11.00">«abstract»</text>
<text text-anchor="start" x="614" y="-397.2" font-family="Courier,monospace" font-size="11.00">AbstractSingletonPlugin</text>
</g>
<!-- \\RichWeb\\Algorithms\\Abstracts\\AbstractSingletonPlugin&#45;&gt;\\RichWeb\\Algorithms\\Abstracts\\AbstractPlugin -->
<g id="edge6" class="edge">
<title>\\RichWeb\\Algorithms\\Abstracts\\AbstractSingletonPlugin&#45;&gt;\\RichWeb\\Algorithms\\Abstracts\\AbstractPlugin</title>
<path fill="none" stroke="black" d="M617.02,-387.94C604.97,-384.97 592.64,-381.91 581,-379 553.33,-372.08 522.8,-364.31 496.62,-357.62"/>
<polygon fill="none" stroke="black" points="497.37,-354.19 486.81,-355.1 495.63,-360.98 497.37,-354.19"/>
</g>
<!-- \\RichWeb\\Algorithms\\Interfaces\\SingletonPluginInterface -->
<g id="node29" class="node">
<title>\\RichWeb\\Algorithms\\Interfaces\\SingletonPluginInterface</title>
<polygon fill="none" stroke="black" points="246,-397 67,-397 67,-361 246,-361 246,-397"/>
<text text-anchor="middle" x="156.5" y="-376.2" font-family="Courier,monospace" font-size="11.00">SingletonPluginInterface</text>
</g>
<!-- \\RichWeb\\Algorithms\\Abstracts\\AbstractSingletonPlugin&#45;&gt;\\RichWeb\\Algorithms\\Interfaces\\SingletonPluginInterface -->
<g id="edge7" class="edge">
<title>\\RichWeb\\Algorithms\\Abstracts\\AbstractSingletonPlugin&#45;&gt;\\RichWeb\\Algorithms\\Interfaces\\SingletonPluginInterface</title>
<path fill="none" stroke="black" stroke-dasharray="1,5" d="M605.88,-401.69C510.74,-396.88 356.9,-389.09 256.48,-384.01"/>
<polygon fill="none" stroke="black" points="256.49,-380.51 246.32,-383.5 256.13,-387.5 256.49,-380.51"/>
</g>
<!-- \\RichWeb\\Algorithms\\Abstracts\\AbstractSyntaxHighlighter -->
<g id="node5" class="node">
<title>\\RichWeb\\Algorithms\\Abstracts\\AbstractSyntaxHighlighter</title>
<polygon fill="none" stroke="black" points="784.5,-316 599.5,-316 599.5,-280 784.5,-280 784.5,-316"/>
<text text-anchor="start" x="658" y="-301.2" font-family="Courier,monospace" font-size="11.00">«abstract»</text>
<text text-anchor="start" x="607.5" y="-289.2" font-family="Courier,monospace" font-size="11.00">AbstractSyntaxHighlighter</text>
</g>
<!-- \\RichWeb\\Algorithms\\Interfaces\\SyntaxHighlighterInterface -->
<g id="node30" class="node">
<title>\\RichWeb\\Algorithms\\Interfaces\\SyntaxHighlighterInterface</title>
<polygon fill="none" stroke="black" points="252.5,-127 60.5,-127 60.5,-91 252.5,-91 252.5,-127"/>
<text text-anchor="middle" x="156.5" y="-106.2" font-family="Courier,monospace" font-size="11.00">SyntaxHighlighterInterface</text>
</g>
<!-- \\RichWeb\\Algorithms\\Abstracts\\AbstractSyntaxHighlighter&#45;&gt;\\RichWeb\\Algorithms\\Interfaces\\SyntaxHighlighterInterface -->
<g id="edge8" class="edge">
<title>\\RichWeb\\Algorithms\\Abstracts\\AbstractSyntaxHighlighter&#45;&gt;\\RichWeb\\Algorithms\\Interfaces\\SyntaxHighlighterInterface</title>
<path fill="none" stroke="black" stroke-dasharray="1,5" d="M685.64,-279.98C670.16,-231.61 620.27,-99.1 525,-48 417.82,9.49 269.79,-50.4 198.77,-86.24"/>
<polygon fill="none" stroke="black" points="196.98,-83.23 189.68,-90.91 200.17,-89.46 196.98,-83.23"/>
</g>
<!-- \\RichWeb\\Algorithms\\Admin\\Abstracts\\AbstractMetaBox -->
<g id="node6" class="node">
<title>\\RichWeb\\Algorithms\\Admin\\Abstracts\\AbstractMetaBox</title>
<polygon fill="none" stroke="black" points="490,-1050 372,-1050 372,-1014 490,-1014 490,-1050"/>
<text text-anchor="start" x="397" y="-1035.2" font-family="Courier,monospace" font-size="11.00">«abstract»</text>
<text text-anchor="start" x="380" y="-1023.2" font-family="Courier,monospace" font-size="11.00">AbstractMetaBox</text>
</g>
<!-- \\RichWeb\\Algorithms\\Admin\\Interfaces\\MetaBoxInterface -->
<g id="node8" class="node">
<title>\\RichWeb\\Algorithms\\Admin\\Interfaces\\MetaBoxInterface</title>
<polygon fill="none" stroke="black" points="219,-1050 94,-1050 94,-1014 219,-1014 219,-1050"/>
<text text-anchor="middle" x="156.5" y="-1029.2" font-family="Courier,monospace" font-size="11.00">MetaBoxInterface</text>
</g>
<!-- \\RichWeb\\Algorithms\\Admin\\Abstracts\\AbstractMetaBox&#45;&gt;\\RichWeb\\Algorithms\\Admin\\Interfaces\\MetaBoxInterface -->
<g id="edge9" class="edge">
<title>\\RichWeb\\Algorithms\\Admin\\Abstracts\\AbstractMetaBox&#45;&gt;\\RichWeb\\Algorithms\\Admin\\Interfaces\\MetaBoxInterface</title>
<path fill="none" stroke="black" stroke-dasharray="1,5" d="M371.88,-1032C330.26,-1032 273.95,-1032 229.49,-1032"/>
<polygon fill="none" stroke="black" points="229.32,-1028.5 219.32,-1032 229.32,-1035.5 229.32,-1028.5"/>
</g>
<!-- \\RichWeb\\Algorithms\\Admin\\Abstracts\\AbstractPostType -->
<g id="node7" class="node">
<title>\\RichWeb\\Algorithms\\Admin\\Abstracts\\AbstractPostType</title>
<polygon fill="none" stroke="black" points="493.5,-1104 368.5,-1104 368.5,-1068 493.5,-1068 493.5,-1104"/>
<text text-anchor="start" x="397" y="-1089.2" font-family="Courier,monospace" font-size="11.00">«abstract»</text>
<text text-anchor="start" x="376.5" y="-1077.2" font-family="Courier,monospace" font-size="11.00">AbstractPostType</text>
</g>
<!-- \\RichWeb\\Algorithms\\Admin\\Interfaces\\PostTypeInterface -->
<g id="node9" class="node">
<title>\\RichWeb\\Algorithms\\Admin\\Interfaces\\PostTypeInterface</title>
<polygon fill="none" stroke="black" points="222,-1104 91,-1104 91,-1068 222,-1068 222,-1104"/>
<text text-anchor="middle" x="156.5" y="-1083.2" font-family="Courier,monospace" font-size="11.00">PostTypeInterface</text>
</g>
<!-- \\RichWeb\\Algorithms\\Admin\\Abstracts\\AbstractPostType&#45;&gt;\\RichWeb\\Algorithms\\Admin\\Interfaces\\PostTypeInterface -->
<g id="edge10" class="edge">
<title>\\RichWeb\\Algorithms\\Admin\\Abstracts\\AbstractPostType&#45;&gt;\\RichWeb\\Algorithms\\Admin\\Interfaces\\PostTypeInterface</title>
<path fill="none" stroke="black" stroke-dasharray="1,5" d="M368.17,-1086C327.9,-1086 275.12,-1086 232.46,-1086"/>
<polygon fill="none" stroke="black" points="232.41,-1082.5 222.41,-1086 232.41,-1089.5 232.41,-1082.5"/>
</g>
<!-- \\RichWeb\\Algorithms\\Admin\\Abstracts\\AbstractPostType&#45;&gt;\\RichWeb\\Algorithms\\Interfaces\\HasRunnerInterface -->
<g id="edge11" class="edge">
<title>\\RichWeb\\Algorithms\\Admin\\Abstracts\\AbstractPostType&#45;&gt;\\RichWeb\\Algorithms\\Interfaces\\HasRunnerInterface</title>
<path fill="none" stroke="black" stroke-dasharray="1,5" d="M368.12,-1078.17C356.45,-1074.1 345.32,-1068.03 337,-1059 252.48,-967.28 368.56,-872.83 281,-784 268.83,-771.65 252.41,-764.35 235.52,-760.17"/>
<polygon fill="none" stroke="black" points="236.06,-756.7 225.55,-758.04 234.61,-763.55 236.06,-756.7"/>
</g>
<!-- \\RichWeb\\Algorithms\\Admin\\MetaBoxes\\AlgorithmCodeExamplesMetaBox -->
<g id="node10" class="node">
<title>\\RichWeb\\Algorithms\\Admin\\MetaBoxes\\AlgorithmCodeExamplesMetaBox</title>
<polygon fill="none" stroke="black" points="795,-1028 589,-1028 589,-992 795,-992 795,-1028"/>
<text text-anchor="middle" x="692" y="-1007.2" font-family="Courier,monospace" font-size="11.00">AlgorithmCodeExamplesMetaBox</text>
</g>
<!-- \\RichWeb\\Algorithms\\Admin\\MetaBoxes\\AlgorithmCodeExamplesMetaBox&#45;&gt;\\RichWeb\\Algorithms\\Admin\\Abstracts\\AbstractMetaBox -->
<g id="edge13" class="edge">
<title>\\RichWeb\\Algorithms\\Admin\\MetaBoxes\\AlgorithmCodeExamplesMetaBox&#45;&gt;\\RichWeb\\Algorithms\\Admin\\Abstracts\\AbstractMetaBox</title>
<path fill="none" stroke="black" d="M588.64,-1018.69C558.92,-1021.22 527.21,-1023.91 500.15,-1026.21"/>
<polygon fill="none" stroke="black" points="499.69,-1022.74 490.02,-1027.07 500.28,-1029.71 499.69,-1022.74"/>
</g>
<!-- \\RichWeb\\Algorithms\\Admin\\MetaBoxes\\AlgorithmPackageMetaBox -->
<g id="node11" class="node">
<title>\\RichWeb\\Algorithms\\Admin\\MetaBoxes\\AlgorithmPackageMetaBox</title>
<polygon fill="none" stroke="black" points="778,-1082 606,-1082 606,-1046 778,-1046 778,-1082"/>
<text text-anchor="middle" x="692" y="-1061.2" font-family="Courier,monospace" font-size="11.00">AlgorithmPackageMetaBox</text>
</g>
<!-- \\RichWeb\\Algorithms\\Admin\\MetaBoxes\\AlgorithmPackageMetaBox&#45;&gt;\\RichWeb\\Algorithms\\Admin\\Abstracts\\AbstractMetaBox -->
<g id="edge14" class="edge">
<title>\\RichWeb\\Algorithms\\Admin\\MetaBoxes\\AlgorithmPackageMetaBox&#45;&gt;\\RichWeb\\Algorithms\\Admin\\Abstracts\\AbstractMetaBox</title>
<path fill="none" stroke="black" d="M605.83,-1053.48C571.64,-1049.25 532.76,-1044.45 500.46,-1040.46"/>
<polygon fill="none" stroke="black" points="500.56,-1036.94 490.21,-1039.19 499.71,-1043.89 500.56,-1036.94"/>
</g>
<!-- \\RichWeb\\Algorithms\\Admin\\MetaBoxes\\MetaBoxes -->
<g id="node12" class="node">
<title>\\RichWeb\\Algorithms\\Admin\\MetaBoxes\\MetaBoxes</title>
<polygon fill="none" stroke="black" points="730.5,-974 653.5,-974 653.5,-938 730.5,-938 730.5,-974"/>
<text text-anchor="middle" x="692" y="-953.2" font-family="Courier,monospace" font-size="11.00">MetaBoxes</text>
</g>
<!-- \\RichWeb\\Algorithms\\Admin\\MetaBoxes\\MetaBoxes&#45;&gt;\\RichWeb\\Algorithms\\Interfaces\\HasRunnerInterface -->
<g id="edge15" class="edge">
<title>\\RichWeb\\Algorithms\\Admin\\MetaBoxes\\MetaBoxes&#45;&gt;\\RichWeb\\Algorithms\\Interfaces\\HasRunnerInterface</title>
<path fill="none" stroke="black" stroke-dasharray="1,5" d="M680.05,-937.78C656.82,-901.03 598.62,-818.58 525,-784 487.48,-766.38 472.61,-785.3 432,-777"/>
</g>
<!-- \\RichWeb\\Algorithms\\Admin\\AlgorithmPostType -->
<g id="node13" class="node">
<title>\\RichWeb\\Algorithms\\Admin\\AlgorithmPostType</title>
<polygon fill="none" stroke="black" points="757.5,-1154 626.5,-1154 626.5,-1118 757.5,-1118 757.5,-1154"/>
<text text-anchor="middle" x="692" y="-1133.2" font-family="Courier,monospace" font-size="11.00">AlgorithmPostType</text>
</g>
<!-- \\RichWeb\\Algorithms\\Admin\\AlgorithmPostType&#45;&gt;\\RichWeb\\Algorithms\\Admin\\Abstracts\\AbstractPostType -->
<g id="edge12" class="edge">
<title>\\RichWeb\\Algorithms\\Admin\\AlgorithmPostType&#45;&gt;\\RichWeb\\Algorithms\\Admin\\Abstracts\\AbstractPostType</title>
<path fill="none" stroke="black" d="M626.31,-1123.51C589.04,-1116.32 542.11,-1107.26 503.71,-1099.84"/>
<polygon fill="none" stroke="black" points="504.12,-1096.36 493.64,-1097.9 502.79,-1103.23 504.12,-1096.36"/>
</g>
<!-- \\RichWeb\\Algorithms\\CodeExamples\\CodeExample -->
<g id="node14" class="node">
<title>\\RichWeb\\Algorithms\\CodeExamples\\CodeExample</title>
<polygon fill="none" stroke="black" points="476.5,-886 385.5,-886 385.5,-850 476.5,-850 476.5,-886"/>
<text text-anchor="middle" x="431" y="-865.2" font-family="Courier,monospace" font-size="11.00">CodeExample</text>
</g>
<!-- \\RichWeb\\Algorithms\\Interfaces\\CodeExampleInterface -->
<g id="node21" class="node">
<title>\\RichWeb\\Algorithms\\Interfaces\\CodeExampleInterface</title>
<polygon fill="none" stroke="black" points="232.5,-883 80.5,-883 80.5,-847 232.5,-847 232.5,-883"/>
<text text-anchor="middle" x="156.5" y="-862.2" font-family="Courier,monospace" font-size="11.00">CodeExampleInterface</text>
</g>
<!-- \\RichWeb\\Algorithms\\CodeExamples\\CodeExample&#45;&gt;\\RichWeb\\Algorithms\\Interfaces\\CodeExampleInterface -->
<g id="edge16" class="edge">
<title>\\RichWeb\\Algorithms\\CodeExamples\\CodeExample&#45;&gt;\\RichWeb\\Algorithms\\Interfaces\\CodeExampleInterface</title>
<path fill="none" stroke="black" stroke-dasharray="1,5" d="M385.31,-867.51C346.76,-867.08 290.03,-866.46 242.82,-865.94"/>
<polygon fill="none" stroke="black" points="242.63,-862.44 232.59,-865.83 242.55,-869.44 242.63,-862.44"/>
</g>
<!-- Stringable -->
<g id="node48" class="node">
<title>Stringable</title>
<ellipse fill="none" stroke="black" cx="156.5" cy="-1264" rx="46.59" ry="18"/>
<text text-anchor="middle" x="156.5" y="-1260.3" font-family="Times New Roman,serif" font-size="14.00" fill="gray">Stringable</text>
</g>
<!-- \\RichWeb\\Algorithms\\CodeExamples\\CodeExample&#45;&gt;Stringable -->
<g id="edge17" class="edge">
<title>\\RichWeb\\Algorithms\\CodeExamples\\CodeExample&#45;&gt;Stringable</title>
<path fill="none" stroke="black" stroke-dasharray="1,5" d="M415.45,-886.27C395.93,-911.35 360.95,-958.29 337,-1002 305.98,-1058.61 316.46,-1082.07 281,-1136 253.82,-1177.33 212.3,-1217.05 185.03,-1241"/>
<polygon fill="none" stroke="black" points="182.66,-1238.42 177.4,-1247.62 187.24,-1243.71 182.66,-1238.42"/>
</g>
<!-- \\RichWeb\\Algorithms\\CodeExamples\\CodeExamplesLoader -->
<g id="node15" class="node">
<title>\\RichWeb\\Algorithms\\CodeExamples\\CodeExamplesLoader</title>
<polygon fill="none" stroke="black" points="500,-832 362,-832 362,-796 500,-796 500,-832"/>
<text text-anchor="middle" x="431" y="-811.2" font-family="Courier,monospace" font-size="11.00">CodeExamplesLoader</text>
</g>
<!-- \\RichWeb\\Algorithms\\Interfaces\\CodeExamplesLoaderInterface -->
<g id="node22" class="node">
<title>\\RichWeb\\Algorithms\\Interfaces\\CodeExamplesLoaderInterface</title>
<polygon fill="none" stroke="black" points="256,-829 57,-829 57,-793 256,-793 256,-829"/>
<text text-anchor="middle" x="156.5" y="-808.2" font-family="Courier,monospace" font-size="11.00">CodeExamplesLoaderInterface</text>
</g>
<!-- \\RichWeb\\Algorithms\\CodeExamples\\CodeExamplesLoader&#45;&gt;\\RichWeb\\Algorithms\\Interfaces\\CodeExamplesLoaderInterface -->
<g id="edge18" class="edge">
<title>\\RichWeb\\Algorithms\\CodeExamples\\CodeExamplesLoader&#45;&gt;\\RichWeb\\Algorithms\\Interfaces\\CodeExamplesLoaderInterface</title>
<path fill="none" stroke="black" stroke-dasharray="1,5" d="M361.94,-813.25C333.06,-812.93 298.68,-812.55 266.43,-812.2"/>
<polygon fill="none" stroke="black" points="266.08,-808.7 256.04,-812.08 266,-815.69 266.08,-808.7"/>
</g>
<!-- \\RichWeb\\Algorithms\\CodeExamples\\CodeExamplesLoader&#45;&gt;\\RichWeb\\Algorithms\\Interfaces\\HasRunnerInterface -->
<g id="edge19" class="edge">
<title>\\RichWeb\\Algorithms\\CodeExamples\\CodeExamplesLoader&#45;&gt;\\RichWeb\\Algorithms\\Interfaces\\HasRunnerInterface</title>
<path fill="none" stroke="black" stroke-dasharray="1,5" d="M361.94,-799.76C323.57,-791.74 275.49,-781.68 235.59,-773.33"/>
<polygon fill="none" stroke="black" points="236.14,-769.87 225.64,-771.25 234.71,-776.73 236.14,-769.87"/>
</g>
<!-- \\RichWeb\\Algorithms\\Interfaces\\AlgorithmPackageInterface -->
<g id="node17" class="node">
<title>\\RichWeb\\Algorithms\\Interfaces\\AlgorithmPackageInterface</title>
<polygon fill="none" stroke="black" points="249,-505 64,-505 64,-469 249,-469 249,-505"/>
<text text-anchor="middle" x="156.5" y="-484.2" font-family="Courier,monospace" font-size="11.00">AlgorithmPackageInterface</text>
</g>
<!-- \\RichWeb\\Algorithms\\Interfaces\\AlgorithmPackageLoaderInterface -->
<g id="node18" class="node">
<title>\\RichWeb\\Algorithms\\Interfaces\\AlgorithmPackageLoaderInterface</title>
<polygon fill="none" stroke="black" points="269.5,-613 43.5,-613 43.5,-577 269.5,-577 269.5,-613"/>
<text text-anchor="middle" x="156.5" y="-592.2" font-family="Courier,monospace" font-size="11.00">AlgorithmPackageLoaderInterface</text>
</g>
<!-- \\RichWeb\\Algorithms\\Interfaces\\AlgorithmPackageManagerInterface -->
<g id="node19" class="node">
<title>\\RichWeb\\Algorithms\\Interfaces\\AlgorithmPackageManagerInterface</title>
<polygon fill="none" stroke="black" points="273,-559 40,-559 40,-523 273,-523 273,-559"/>
<text text-anchor="middle" x="156.5" y="-538.2" font-family="Courier,monospace" font-size="11.00">AlgorithmPackageManagerInterface</text>
</g>
<!-- \\RichWeb\\Algorithms\\Interfaces\\AutoloaderInterface -->
<g id="node20" class="node">
<title>\\RichWeb\\Algorithms\\Interfaces\\AutoloaderInterface</title>
<polygon fill="none" stroke="black" points="229,-235 84,-235 84,-199 229,-199 229,-235"/>
<text text-anchor="middle" x="156.5" y="-214.2" font-family="Courier,monospace" font-size="11.00">AutoloaderInterface</text>
</g>
<!-- \\RichWeb\\Algorithms\\Interfaces\\FileLoaderInterface -->
<g id="node23" class="node">
<title>\\RichWeb\\Algorithms\\Interfaces\\FileLoaderInterface</title>
<polygon fill="none" stroke="black" points="229,-289 84,-289 84,-253 229,-253 229,-289"/>
<text text-anchor="middle" x="156.5" y="-268.2" font-family="Courier,monospace" font-size="11.00">FileLoaderInterface</text>
</g>
<!-- \\RichWeb\\Algorithms\\Interfaces\\LanguagesInterface -->
<g id="node25" class="node">
<title>\\RichWeb\\Algorithms\\Interfaces\\LanguagesInterface</title>
<polygon fill="none" stroke="black" points="225.5,-721 87.5,-721 87.5,-685 225.5,-685 225.5,-721"/>
<text text-anchor="middle" x="156.5" y="-700.2" font-family="Courier,monospace" font-size="11.00">LanguagesInterface</text>
</g>
<!-- \\RichWeb\\Algorithms\\Interfaces\\ProjectInterface -->
<g id="node27" class="node">
<title>\\RichWeb\\Algorithms\\Interfaces\\ProjectInterface</title>
<polygon fill="none" stroke="black" points="219,-667 94,-667 94,-631 219,-631 219,-667"/>
<text text-anchor="middle" x="156.5" y="-646.2" font-family="Courier,monospace" font-size="11.00">ProjectInterface</text>
</g>
<!-- \\RichWeb\\Algorithms\\Loaders\\Autoloader -->
<g id="node31" class="node">
<title>\\RichWeb\\Algorithms\\Loaders\\Autoloader</title>
<polygon fill="none" stroke="black" points="473,-128 389,-128 389,-92 473,-92 473,-128"/>
<text text-anchor="middle" x="431" y="-107.2" font-family="Courier,monospace" font-size="11.00">Autoloader</text>
</g>
<!-- \\RichWeb\\Algorithms\\Loaders\\Autoloader&#45;&gt;\\RichWeb\\Algorithms\\Interfaces\\AutoloaderInterface -->
<g id="edge20" class="edge">
<title>\\RichWeb\\Algorithms\\Loaders\\Autoloader&#45;&gt;\\RichWeb\\Algorithms\\Interfaces\\AutoloaderInterface</title>
<path fill="none" stroke="black" stroke-dasharray="1,5" d="M388.95,-117.47C372.12,-121.64 352.9,-127.89 337,-137 307.26,-154.03 311.29,-173.98 281,-190 268.07,-196.84 253.51,-201.94 239.04,-205.76"/>
<polygon fill="none" stroke="black" points="237.94,-202.42 229.06,-208.2 239.6,-209.22 237.94,-202.42"/>
</g>
<!-- \\RichWeb\\Algorithms\\Loaders\\ContentLoader -->
<g id="node32" class="node">
<title>\\RichWeb\\Algorithms\\Loaders\\ContentLoader</title>
<polygon fill="none" stroke="black" points="483,-182 379,-182 379,-146 483,-146 483,-182"/>
<text text-anchor="middle" x="431" y="-161.2" font-family="Courier,monospace" font-size="11.00">ContentLoader</text>
</g>
<!-- \\RichWeb\\Algorithms\\Loaders\\FileLoader -->
<g id="node33" class="node">
<title>\\RichWeb\\Algorithms\\Loaders\\FileLoader</title>
<polygon fill="none" stroke="black" points="473,-236 389,-236 389,-200 473,-200 473,-236"/>
<text text-anchor="middle" x="431" y="-215.2" font-family="Courier,monospace" font-size="11.00">FileLoader</text>
</g>
<!-- \\RichWeb\\Algorithms\\Loaders\\FileLoader&#45;&gt;\\RichWeb\\Algorithms\\Interfaces\\FileLoaderInterface -->
<g id="edge21" class="edge">
<title>\\RichWeb\\Algorithms\\Loaders\\FileLoader&#45;&gt;\\RichWeb\\Algorithms\\Interfaces\\FileLoaderInterface</title>
<path fill="none" stroke="black" stroke-dasharray="1,5" d="M388.91,-225.99C349.4,-233.68 288.58,-245.5 239.21,-255.11"/>
<polygon fill="none" stroke="black" points="238.32,-251.71 229.18,-257.06 239.66,-258.59 238.32,-251.71"/>
</g>
<!-- \\RichWeb\\Algorithms\\Packages\\AlgorithmPackage -->
<g id="node34" class="node">
<title>\\RichWeb\\Algorithms\\Packages\\AlgorithmPackage</title>
<polygon fill="none" stroke="black" points="493.5,-558 368.5,-558 368.5,-522 493.5,-522 493.5,-558"/>
<text text-anchor="middle" x="431" y="-537.2" font-family="Courier,monospace" font-size="11.00">AlgorithmPackage</text>
</g>
<!-- \\RichWeb\\Algorithms\\Packages\\AlgorithmPackage&#45;&gt;\\RichWeb\\Algorithms\\Interfaces\\AlgorithmPackageInterface -->
<g id="edge22" class="edge">
<title>\\RichWeb\\Algorithms\\Packages\\AlgorithmPackage&#45;&gt;\\RichWeb\\Algorithms\\Interfaces\\AlgorithmPackageInterface</title>
<path fill="none" stroke="black" stroke-dasharray="1,5" d="M368.17,-527.97C336.01,-521.72 295.89,-513.92 259.31,-506.8"/>
<polygon fill="none" stroke="black" points="259.58,-503.29 249.09,-504.81 258.24,-510.16 259.58,-503.29"/>
</g>
<!-- \\RichWeb\\Algorithms\\Packages\\AlgorithmPackageLoader -->
<g id="node35" class="node">
<title>\\RichWeb\\Algorithms\\Packages\\AlgorithmPackageLoader</title>
<polygon fill="none" stroke="black" points="513.5,-666 348.5,-666 348.5,-630 513.5,-630 513.5,-666"/>
<text text-anchor="middle" x="431" y="-645.2" font-family="Courier,monospace" font-size="11.00">AlgorithmPackageLoader</text>
</g>
<!-- \\RichWeb\\Algorithms\\Packages\\AlgorithmPackageLoader&#45;&gt;\\RichWeb\\Algorithms\\Interfaces\\AlgorithmPackageLoaderInterface -->
<g id="edge23" class="edge">
<title>\\RichWeb\\Algorithms\\Packages\\AlgorithmPackageLoader&#45;&gt;\\RichWeb\\Algorithms\\Interfaces\\AlgorithmPackageLoaderInterface</title>
<path fill="none" stroke="black" stroke-dasharray="1,5" d="M348.24,-632.1C320.61,-626.73 289.41,-620.66 260.36,-615.01"/>
<polygon fill="none" stroke="black" points="260.67,-611.5 250.19,-613.03 259.33,-618.37 260.67,-611.5"/>
</g>
<!-- \\RichWeb\\Algorithms\\Packages\\AlgorithmPackageLoader&#45;&gt;\\RichWeb\\Algorithms\\Interfaces\\HasRunnerInterface -->
<g id="edge24" class="edge">
<title>\\RichWeb\\Algorithms\\Packages\\AlgorithmPackageLoader&#45;&gt;\\RichWeb\\Algorithms\\Interfaces\\HasRunnerInterface</title>
<path fill="none" stroke="black" stroke-dasharray="1,5" d="M348.25,-664.32C344.36,-666.03 340.59,-667.92 337,-670 305.46,-688.32 312.7,-711.95 281,-730 267.1,-737.91 251.11,-743.51 235.34,-747.47"/>
<polygon fill="none" stroke="black" points="234.52,-744.06 225.57,-749.72 236.1,-750.88 234.52,-744.06"/>
</g>
<!-- \\RichWeb\\Algorithms\\Packages\\AlgorithmPackageManager -->
<g id="node36" class="node">
<title>\\RichWeb\\Algorithms\\Packages\\AlgorithmPackageManager</title>
<polygon fill="none" stroke="black" points="517,-612 345,-612 345,-576 517,-576 517,-612"/>
<text text-anchor="middle" x="431" y="-591.2" font-family="Courier,monospace" font-size="11.00">AlgorithmPackageManager</text>
</g>
<!-- \\RichWeb\\Algorithms\\Packages\\AlgorithmPackageManager&#45;&gt;\\RichWeb\\Algorithms\\Interfaces\\AlgorithmPackageManagerInterface -->
<g id="edge25" class="edge">
<title>\\RichWeb\\Algorithms\\Packages\\AlgorithmPackageManager&#45;&gt;\\RichWeb\\Algorithms\\Interfaces\\AlgorithmPackageManagerInterface</title>
<path fill="none" stroke="black" stroke-dasharray="1,5" d="M344.9,-577.45C318.2,-572.25 288.43,-566.46 260.62,-561.06"/>
<polygon fill="none" stroke="black" points="260.95,-557.56 250.47,-559.08 259.62,-564.43 260.95,-557.56"/>
</g>
<!-- \\RichWeb\\Algorithms\\Setup\\AlgorithmScripts -->
<g id="node37" class="node">
<title>\\RichWeb\\Algorithms\\Setup\\AlgorithmScripts</title>
<polygon fill="none" stroke="black" points="1039,-532 914,-532 914,-496 1039,-496 1039,-532"/>
<text text-anchor="middle" x="976.5" y="-511.2" font-family="Courier,monospace" font-size="11.00">AlgorithmScripts</text>
</g>
<!-- \\RichWeb\\Algorithms\\Setup\\AlgorithmScripts&#45;&gt;\\RichWeb\\Algorithms\\Abstracts\\AbstractScripts -->
<g id="edge29" class="edge">
<title>\\RichWeb\\Algorithms\\Setup\\AlgorithmScripts&#45;&gt;\\RichWeb\\Algorithms\\Abstracts\\AbstractScripts</title>
<path fill="none" stroke="black" d="M913.85,-502.22C868.78,-493.6 807.65,-481.92 761.13,-473.02"/>
<polygon fill="none" stroke="black" points="761.62,-469.55 751.14,-471.11 760.3,-476.43 761.62,-469.55"/>
</g>
<!-- \\RichWeb\\Algorithms\\Setup\\Languages -->
<g id="node38" class="node">
<title>\\RichWeb\\Algorithms\\Setup\\Languages</title>
<polygon fill="none" stroke="black" points="1015,-640 938,-640 938,-604 1015,-604 1015,-640"/>
<text text-anchor="middle" x="976.5" y="-619.2" font-family="Courier,monospace" font-size="11.00">Languages</text>
</g>
<!-- \\RichWeb\\Algorithms\\Setup\\Languages&#45;&gt;\\RichWeb\\Algorithms\\Interfaces\\HasRunnerInterface -->
<g id="edge31" class="edge">
<title>\\RichWeb\\Algorithms\\Setup\\Languages&#45;&gt;\\RichWeb\\Algorithms\\Interfaces\\HasRunnerInterface</title>
<path fill="none" stroke="black" stroke-dasharray="1,5" d="M430,-757C364.63,-760.23 290.34,-759.97 235.86,-759.04"/>
<polygon fill="none" stroke="black" points="235.64,-755.54 225.58,-758.86 235.51,-762.54 235.64,-755.54"/>
</g>
<!-- \\RichWeb\\Algorithms\\Setup\\Languages&#45;&gt;\\RichWeb\\Algorithms\\Interfaces\\LanguagesInterface -->
<g id="edge30" class="edge">
<title>\\RichWeb\\Algorithms\\Setup\\Languages&#45;&gt;\\RichWeb\\Algorithms\\Interfaces\\LanguagesInterface</title>
<path fill="none" stroke="black" stroke-dasharray="1,5" d="M937.82,-630.02C914.92,-635.07 885.16,-641.94 859,-649 670,-699.97 627.52,-766.59 432,-757"/>
<path fill="none" stroke="black" stroke-dasharray="1,5" d="M430,-757C388.66,-759.04 377.45,-760.79 337,-752 310.87,-746.32 306.59,-737.77 281,-730 266.44,-725.58 250.71,-721.57 235.52,-718.08"/>
<polygon fill="none" stroke="black" points="236.15,-714.64 225.62,-715.86 234.61,-721.47 236.15,-714.64"/>
</g>
<!-- \\RichWeb\\Algorithms\\Setup\\PrismSyntaxtHighlighterScripts -->
<g id="node39" class="node">
<title>\\RichWeb\\Algorithms\\Setup\\PrismSyntaxtHighlighterScripts</title>
<polygon fill="none" stroke="black" points="1086,-586 867,-586 867,-550 1086,-550 1086,-586"/>
<text text-anchor="middle" x="976.5" y="-565.2" font-family="Courier,monospace" font-size="11.00">PrismSyntaxtHighlighterScripts</text>
</g>
<!-- \\RichWeb\\Algorithms\\Setup\\PrismSyntaxtHighlighterScripts&#45;&gt;\\RichWeb\\Algorithms\\Abstracts\\AbstractScripts -->
<g id="edge32" class="edge">
<title>\\RichWeb\\Algorithms\\Setup\\PrismSyntaxtHighlighterScripts&#45;&gt;\\RichWeb\\Algorithms\\Abstracts\\AbstractScripts</title>
<path fill="none" stroke="black" d="M887.73,-549.92C877.94,-547.24 868.2,-544.26 859,-541 814.52,-525.22 766.33,-500.82 733.38,-482.92"/>
<polygon fill="none" stroke="black" points="734.96,-479.79 724.51,-478.05 731.6,-485.93 734.96,-479.79"/>
</g>
<!-- \\RichWeb\\Algorithms\\Setup\\Scripts -->
<g id="node40" class="node">
<title>\\RichWeb\\Algorithms\\Setup\\Scripts</title>
<polygon fill="none" stroke="black" points="1008.5,-478 944.5,-478 944.5,-442 1008.5,-442 1008.5,-478"/>
<text text-anchor="middle" x="976.5" y="-457.2" font-family="Courier,monospace" font-size="11.00">Scripts</text>
</g>
<!-- \\RichWeb\\Algorithms\\Setup\\Scripts&#45;&gt;\\RichWeb\\Algorithms\\Abstracts\\AbstractScripts -->
<g id="edge33" class="edge">
<title>\\RichWeb\\Algorithms\\Setup\\Scripts&#45;&gt;\\RichWeb\\Algorithms\\Abstracts\\AbstractScripts</title>
<path fill="none" stroke="black" d="M944.46,-460C900.65,-460 819.53,-460 761.26,-460"/>
<polygon fill="none" stroke="black" points="761.03,-456.5 751.03,-460 761.03,-463.5 761.03,-456.5"/>
</g>
<!-- \\RichWeb\\Algorithms\\Setup\\Setup -->
<g id="node41" class="node">
<title>\\RichWeb\\Algorithms\\Setup\\Setup</title>
<polygon fill="none" stroke="black" points="1003.5,-694 949.5,-694 949.5,-658 1003.5,-658 1003.5,-694"/>
<text text-anchor="middle" x="976.5" y="-673.2" font-family="Courier,monospace" font-size="11.00">Setup</text>
</g>
<!-- \\RichWeb\\Algorithms\\Setup\\Setup&#45;&gt;\\RichWeb\\Algorithms\\Interfaces\\HasRunnerInterface -->
<g id="edge34" class="edge">
<title>\\RichWeb\\Algorithms\\Setup\\Setup&#45;&gt;\\RichWeb\\Algorithms\\Interfaces\\HasRunnerInterface</title>
<path fill="none" stroke="black" stroke-dasharray="1,5" d="M949.26,-683.58C855.08,-710.38 534.26,-797.89 432,-777"/>
<path fill="none" stroke="black" stroke-dasharray="1,5" d="M430,-777C365.26,-765.65 290.76,-760.72 236.04,-758.6"/>
<polygon fill="none" stroke="black" points="235.84,-755.09 225.72,-758.22 235.58,-762.08 235.84,-755.09"/>
</g>
<!-- \\RichWeb\\Algorithms\\Traits\\Formatting\\FilePaths -->
<g id="node42" class="node">
<title>\\RichWeb\\Algorithms\\Traits\\Formatting\\FilePaths</title>
<polygon fill="none" stroke="black" points="1015,-941 938,-941 938,-905 1015,-905 1015,-941"/>
<text text-anchor="middle" x="976.5" y="-920.2" font-family="Courier,monospace" font-size="11.00">FilePaths</text>
</g>
<!-- \\RichWeb\\Algorithms\\Traits\\Formatting\\Strings -->
<g id="node43" class="node">
<title>\\RichWeb\\Algorithms\\Traits\\Formatting\\Strings</title>
<polygon fill="none" stroke="black" points="1008.5,-887 944.5,-887 944.5,-851 1008.5,-851 1008.5,-887"/>
<text text-anchor="middle" x="976.5" y="-866.2" font-family="Courier,monospace" font-size="11.00">Strings</text>
</g>
<!-- \\RichWeb\\Algorithms\\Traits\\Posts\\AlgorithmChecker -->
<g id="node44" class="node">
<title>\\RichWeb\\Algorithms\\Traits\\Posts\\AlgorithmChecker</title>
<polygon fill="none" stroke="black" points="1039,-1021 914,-1021 914,-985 1039,-985 1039,-1021"/>
<text text-anchor="middle" x="976.5" y="-1000.2" font-family="Courier,monospace" font-size="11.00">AlgorithmChecker</text>
</g>
<!-- \\RichWeb\\Algorithms\\Plugin -->
<g id="node45" class="node">
<title>\\RichWeb\\Algorithms\\Plugin</title>
<polygon fill="none" stroke="black" points="1005,-424 948,-424 948,-388 1005,-388 1005,-424"/>
<text text-anchor="middle" x="976.5" y="-403.2" font-family="Courier,monospace" font-size="11.00">Plugin</text>
</g>
<!-- \\RichWeb\\Algorithms\\Plugin&#45;&gt;\\RichWeb\\Algorithms\\Abstracts\\AbstractSingletonPlugin -->
<g id="edge26" class="edge">
<title>\\RichWeb\\Algorithms\\Plugin&#45;&gt;\\RichWeb\\Algorithms\\Abstracts\\AbstractSingletonPlugin</title>
<path fill="none" stroke="black" d="M947.9,-406C911.17,-406 844.35,-406 788.34,-406"/>
<polygon fill="none" stroke="black" points="788.02,-402.5 778.02,-406 788.02,-409.5 788.02,-402.5"/>
</g>
<!-- \\RichWeb\\Algorithms\\PrismSyntaxHighlighter -->
<g id="node46" class="node">
<title>\\RichWeb\\Algorithms\\PrismSyntaxHighlighter</title>
<polygon fill="none" stroke="black" points="1059,-316 894,-316 894,-280 1059,-280 1059,-316"/>
<text text-anchor="middle" x="976.5" y="-295.2" font-family="Courier,monospace" font-size="11.00">PrismSyntaxHighlighter</text>
</g>
<!-- \\RichWeb\\Algorithms\\PrismSyntaxHighlighter&#45;&gt;\\RichWeb\\Algorithms\\Abstracts\\AbstractSyntaxHighlighter -->
<g id="edge27" class="edge">
<title>\\RichWeb\\Algorithms\\PrismSyntaxHighlighter&#45;&gt;\\RichWeb\\Algorithms\\Abstracts\\AbstractSyntaxHighlighter</title>
<path fill="none" stroke="black" d="M893.79,-298C862.98,-298 827.55,-298 795.11,-298"/>
<polygon fill="none" stroke="black" points="794.7,-294.5 784.7,-298 794.7,-301.5 794.7,-294.5"/>
</g>
<!-- \\RichWeb\\Algorithms\\Project -->
<g id="node47" class="node">
<title>\\RichWeb\\Algorithms\\Project</title>
<polygon fill="none" stroke="black" points="463,-738 399,-738 399,-702 463,-702 463,-738"/>
<text text-anchor="middle" x="431" y="-717.2" font-family="Courier,monospace" font-size="11.00">Project</text>
</g>
<!-- \\RichWeb\\Algorithms\\Project&#45;&gt;\\RichWeb\\Algorithms\\Interfaces\\ProjectInterface -->
<g id="edge28" class="edge">
<title>\\RichWeb\\Algorithms\\Project&#45;&gt;\\RichWeb\\Algorithms\\Interfaces\\ProjectInterface</title>
<path fill="none" stroke="black" stroke-dasharray="1,5" d="M398.7,-713.76C380.52,-709.84 357.27,-704.34 337,-698 311.48,-690.01 306.59,-683.77 281,-676 264.41,-670.96 246.3,-666.46 229.19,-662.65"/>
<polygon fill="none" stroke="black" points="229.76,-659.19 219.24,-660.48 228.27,-666.03 229.76,-659.19"/>
</g>
</g>
</svg>
