<?xml version="1.0" encoding="UTF-8" standalone="no"?>
<!DOCTYPE svg PUBLIC "-//W3C//DTD SVG 1.1//EN"
 "http://www.w3.org/Graphics/SVG/1.1/DTD/svg11.dtd">
<!-- Generated by graphviz version 2.50.0 (20211204.2007)
 -->
<!-- Title: G Pages: 1 -->
<svg width="1134pt" height="1366pt"
 viewBox="0.00 0.00 1134.00 1366.00" xmlns="http://www.w3.org/2000/svg" xmlns:xlink="http://www.w3.org/1999/xlink">
<g id="graph0" class="graph" transform="scale(1 1) rotate(0) translate(4 1362)">
<title>G</title>
<polygon fill="white" stroke="transparent" points="-4,4 -4,-1362 1130,-1362 1130,4 -4,4"/>
<g id="clust1" class="cluster">
<title>cluster_Global</title>
<polygon fill="none" stroke="black" points="8,-8 8,-1350 1118,-1350 1118,-8 8,-8"/>
<text text-anchor="middle" x="563" y="-1337.2" font-family="Times New Roman,serif" font-size="11.00" fill="gray">Global</text>
</g>
<g id="clust2" class="cluster">
<title>cluster_\RichWeb</title>
<polygon fill="none" stroke="black" points="16,-16 16,-1278 1110,-1278 1110,-16 16,-16"/>
<text text-anchor="middle" x="563" y="-1265.2" font-family="Times New Roman,serif" font-size="11.00" fill="gray">RichWeb</text>
</g>
<g id="clust3" class="cluster">
<title>cluster_\RichWeb\Algorithms</title>
<polygon fill="none" stroke="black" points="24,-24 24,-1250 1102,-1250 1102,-24 24,-24"/>
<text text-anchor="middle" x="563" y="-1237.2" font-family="Times New Roman,serif" font-size="11.00" fill="gray">Algorithms</text>
</g>
<g id="clust13" class="cluster">
<title>cluster_\RichWeb\Algorithms\Setup</title>
<polygon fill="none" stroke="black" points="859,-575 859,-863 1094,-863 1094,-575 859,-575"/>
<text text-anchor="middle" x="976.5" y="-850.2" font-family="Times New Roman,serif" font-size="11.00" fill="gray">Setup</text>
</g>
<g id="clust14" class="cluster">
<title>cluster_\RichWeb\Algorithms\Traits</title>
<polygon fill="none" stroke="black" points="898,-325 898,-567 1055,-567 1055,-325 898,-325"/>
<text text-anchor="middle" x="976.5" y="-554.2" font-family="Times New Roman,serif" font-size="11.00" fill="gray">Traits</text>
</g>
<g id="clust16" class="cluster">
<title>cluster_\RichWeb\Algorithms\Traits\Posts</title>
<polygon fill="none" stroke="black" points="906,-467 906,-539 1047,-539 1047,-467 906,-467"/>
<text text-anchor="middle" x="976.5" y="-526.2" font-family="Times New Roman,serif" font-size="11.00" fill="gray">Posts</text>
</g>
<g id="clust15" class="cluster">
<title>cluster_\RichWeb\Algorithms\Traits\Formatting</title>
<polygon fill="none" stroke="black" points="930,-333 930,-459 1023,-459 1023,-333 930,-333"/>
<text text-anchor="middle" x="976.5" y="-446.2" font-family="Times New Roman,serif" font-size="11.00" fill="gray">Formatting</text>
</g>
<g id="clust10" class="cluster">
<title>cluster_\RichWeb\Algorithms\Interfaces</title>
<polygon fill="none" stroke="black" points="32,-124 32,-952 281,-952 281,-124 32,-124"/>
<text text-anchor="middle" x="156.5" y="-939.2" font-family="Times New Roman,serif" font-size="11.00" fill="gray">Interfaces</text>
</g>
<g id="clust5" class="cluster">
<title>cluster_\RichWeb\Algorithms\Admin</title>
<polygon fill="none" stroke="black" points="75,-962 75,-1222 811,-1222 811,-962 75,-962"/>
<text text-anchor="middle" x="443" y="-1209.2" font-family="Times New Roman,serif" font-size="11.00" fill="gray">Admin</text>
</g>
<g id="clust7" class="cluster">
<title>cluster_\RichWeb\Algorithms\Admin\Interfaces</title>
<polygon fill="none" stroke="black" points="83,-1046 83,-1172 230,-1172 230,-1046 83,-1046"/>
<text text-anchor="middle" x="156.5" y="-1159.2" font-family="Times New Roman,serif" font-size="11.00" fill="gray">Interfaces</text>
</g>
<g id="clust6" class="cluster">
<title>cluster_\RichWeb\Algorithms\Admin\Abstracts</title>
<polygon fill="none" stroke="black" points="360.5,-1046 360.5,-1172 501.5,-1172 501.5,-1046 360.5,-1046"/>
<text text-anchor="middle" x="431" y="-1159.2" font-family="Times New Roman,serif" font-size="11.00" fill="gray">Abstracts</text>
</g>
<g id="clust8" class="cluster">
<title>cluster_\RichWeb\Algorithms\Admin\MetaBoxes</title>
<polygon fill="none" stroke="black" points="581,-970 581,-1150 803,-1150 803,-970 581,-970"/>
<text text-anchor="middle" x="692" y="-1137.2" font-family="Times New Roman,serif" font-size="11.00" fill="gray">MetaBoxes</text>
</g>
<g id="clust12" class="cluster">
<title>cluster_\RichWeb\Algorithms\Packages</title>
<polygon fill="none" stroke="black" points="337,-232 337,-412 525,-412 525,-232 337,-232"/>
<text text-anchor="middle" x="431" y="-399.2" font-family="Times New Roman,serif" font-size="11.00" fill="gray">Packages</text>
</g>
<g id="clust11" class="cluster">
<title>cluster_\RichWeb\Algorithms\Loaders</title>
<polygon fill="none" stroke="black" points="371,-44 371,-224 491,-224 491,-44 371,-44"/>
<text text-anchor="middle" x="431" y="-211.2" font-family="Times New Roman,serif" font-size="11.00" fill="gray">Loaders</text>
</g>
<g id="clust9" class="cluster">
<title>cluster_\RichWeb\Algorithms\CodeExamples</title>
<polygon fill="none" stroke="black" points="354,-828 354,-954 508,-954 508,-828 354,-828"/>
<text text-anchor="middle" x="431" y="-941.2" font-family="Times New Roman,serif" font-size="11.00" fill="gray">CodeExamples</text>
</g>
<g id="clust4" class="cluster">
<title>cluster_\RichWeb\Algorithms\Abstracts</title>
<polygon fill="none" stroke="black" points="367.5,-420 367.5,-654 792.5,-654 792.5,-420 367.5,-420"/>
<text text-anchor="middle" x="580" y="-641.2" font-family="Times New Roman,serif" font-size="11.00" fill="gray">Abstracts</text>
</g>
<!-- \\RichWeb\\Algorithms\\Abstracts\\AbstractAlgorithm -->
<g id="node1" class="node">
<title>\\RichWeb\\Algorithms\\Abstracts\\AbstractAlgorithm</title>
<polygon fill="none" stroke="black" points="757.5,-518 626.5,-518 626.5,-482 757.5,-482 757.5,-518"/>
<text text-anchor="start" x="658" y="-503.2" font-family="Courier,monospace" font-size="11.00">«abstract»</text>
<text text-anchor="start" x="634.5" y="-491.2" font-family="Courier,monospace" font-size="11.00">AbstractAlgorithm</text>
</g>
<!-- \\RichWeb\\Algorithms\\Interfaces\\AlgorithmInterface -->
<g id="node16" class="node">
<title>\\RichWeb\\Algorithms\\Interfaces\\AlgorithmInterface</title>
<polygon fill="none" stroke="black" points="225.5,-600 87.5,-600 87.5,-564 225.5,-564 225.5,-600"/>
<text text-anchor="middle" x="156.5" y="-579.2" font-family="Courier,monospace" font-size="11.00">AlgorithmInterface</text>
</g>
<!-- \\RichWeb\\Algorithms\\Abstracts\\AbstractAlgorithm&#45;&gt;\\RichWeb\\Algorithms\\Interfaces\\AlgorithmInterface -->
<g id="edge1" class="edge">
<title>\\RichWeb\\Algorithms\\Abstracts\\AbstractAlgorithm&#45;&gt;\\RichWeb\\Algorithms\\Interfaces\\AlgorithmInterface</title>
<path fill="none" stroke="black" stroke-dasharray="1,5" d="M626.31,-504.33C609.79,-508.3 593.26,-515.21 581,-527 516.01,-589.51 597.02,-667.75 525,-722 491.63,-747.14 372.5,-744.03 337,-722 289.37,-692.45 325.18,-643.5 281,-609 267.96,-598.82 251.9,-592.29 235.72,-588.15"/>
<polygon fill="none" stroke="black" points="236.19,-584.67 225.66,-585.87 234.64,-591.5 236.19,-584.67"/>
</g>
<!-- \\RichWeb\\Algorithms\\Interfaces\\HasRunnerInterface -->
<g id="node24" class="node">
<title>\\RichWeb\\Algorithms\\Interfaces\\HasRunnerInterface</title>
<polygon fill="none" stroke="black" points="225.5,-816 87.5,-816 87.5,-780 225.5,-780 225.5,-816"/>
<text text-anchor="middle" x="156.5" y="-795.2" font-family="Courier,monospace" font-size="11.00">HasRunnerInterface</text>
</g>
<!-- \\RichWeb\\Algorithms\\Abstracts\\AbstractAlgorithm&#45;&gt;\\RichWeb\\Algorithms\\Interfaces\\HasRunnerInterface -->
<g id="edge2" class="edge">
<title>\\RichWeb\\Algorithms\\Abstracts\\AbstractAlgorithm&#45;&gt;\\RichWeb\\Algorithms\\Interfaces\\HasRunnerInterface</title>
<path fill="none" stroke="black" stroke-dasharray="1,5" d="M626.24,-497.11C609.32,-493.21 592.6,-485.98 581,-473 451.69,-328.32 665.83,-173.49 525,-40 494.92,-11.48 473.26,-29.05 432,-33"/>
</g>
<!-- \\RichWeb\\Algorithms\\Abstracts\\AbstractPlugin -->
<g id="node2" class="node">
<title>\\RichWeb\\Algorithms\\Abstracts\\AbstractPlugin</title>
<polygon fill="none" stroke="black" points="486.5,-518 375.5,-518 375.5,-482 486.5,-482 486.5,-518"/>
<text text-anchor="start" x="397" y="-503.2" font-family="Courier,monospace" font-size="11.00">«abstract»</text>
<text text-anchor="start" x="383.5" y="-491.2" font-family="Courier,monospace" font-size="11.00">AbstractPlugin</text>
</g>
<!-- \\RichWeb\\Algorithms\\Interfaces\\PluginInterface -->
<g id="node26" class="node">
<title>\\RichWeb\\Algorithms\\Interfaces\\PluginInterface</title>
<polygon fill="none" stroke="black" points="215.5,-438 97.5,-438 97.5,-402 215.5,-402 215.5,-438"/>
<text text-anchor="middle" x="156.5" y="-417.2" font-family="Courier,monospace" font-size="11.00">PluginInterface</text>
</g>
<!-- \\RichWeb\\Algorithms\\Abstracts\\AbstractPlugin&#45;&gt;\\RichWeb\\Algorithms\\Interfaces\\PluginInterface -->
<g id="edge3" class="edge">
<title>\\RichWeb\\Algorithms\\Abstracts\\AbstractPlugin&#45;&gt;\\RichWeb\\Algorithms\\Interfaces\\PluginInterface</title>
<path fill="none" stroke="black" stroke-dasharray="1,5" d="M383.85,-481.88C354.66,-470.85 315.98,-457 281,-447 263.2,-441.91 243.71,-437.24 225.59,-433.27"/>
<polygon fill="none" stroke="black" points="226.19,-429.82 215.68,-431.14 224.72,-436.66 226.19,-429.82"/>
</g>
<!-- \\RichWeb\\Algorithms\\Abstracts\\AbstractScripts -->
<g id="node3" class="node">
<title>\\RichWeb\\Algorithms\\Abstracts\\AbstractScripts</title>
<polygon fill="none" stroke="black" points="751,-464 633,-464 633,-428 751,-428 751,-464"/>
<text text-anchor="start" x="658" y="-449.2" font-family="Courier,monospace" font-size="11.00">«abstract»</text>
<text text-anchor="start" x="641" y="-437.2" font-family="Courier,monospace" font-size="11.00">AbstractScripts</text>
</g>
<!-- \\RichWeb\\Algorithms\\Abstracts\\AbstractScripts&#45;&gt;\\RichWeb\\Algorithms\\Interfaces\\HasRunnerInterface -->
<g id="edge5" class="edge">
<title>\\RichWeb\\Algorithms\\Abstracts\\AbstractScripts&#45;&gt;\\RichWeb\\Algorithms\\Interfaces\\HasRunnerInterface</title>
<path fill="none" stroke="black" stroke-dasharray="1,5" d="M430,-33C388.74,-36.95 366.33,-10.71 337,-40 221.72,-155.13 387.94,-648.09 281,-771 269.44,-784.29 252.99,-791.9 235.85,-796.08"/>
<polygon fill="none" stroke="black" points="234.81,-792.73 225.72,-798.17 236.22,-799.58 234.81,-792.73"/>
<path fill="none" stroke="black" stroke-dasharray="1,5" d="M689.95,-427.82C685.11,-362.37 658.94,-137.43 525,-40 491.48,-15.62 473.26,-29.05 432,-33"/>
</g>
<!-- \\RichWeb\\Algorithms\\Interfaces\\ScriptsInterface -->
<g id="node28" class="node">
<title>\\RichWeb\\Algorithms\\Interfaces\\ScriptsInterface</title>
<polygon fill="none" stroke="black" points="219,-546 94,-546 94,-510 219,-510 219,-546"/>
<text text-anchor="middle" x="156.5" y="-525.2" font-family="Courier,monospace" font-size="11.00">ScriptsInterface</text>
</g>
<!-- \\RichWeb\\Algorithms\\Abstracts\\AbstractScripts&#45;&gt;\\RichWeb\\Algorithms\\Interfaces\\ScriptsInterface -->
<g id="edge4" class="edge">
<title>\\RichWeb\\Algorithms\\Abstracts\\AbstractScripts&#45;&gt;\\RichWeb\\Algorithms\\Interfaces\\ScriptsInterface</title>
<path fill="none" stroke="black" stroke-dasharray="1,5" d="M632.79,-448.45C614.05,-452.06 594.62,-459.23 581,-473 504.26,-550.55 610.49,-644.22 525,-712 508.63,-724.98 354.07,-724.04 337,-712 276.45,-669.31 336.61,-603.94 281,-555 266.69,-542.4 247.86,-535.25 229.24,-531.29"/>
<polygon fill="none" stroke="black" points="229.71,-527.82 219.24,-529.45 228.45,-534.7 229.71,-527.82"/>
</g>
<!-- \\RichWeb\\Algorithms\\Abstracts\\AbstractSingletonPlugin -->
<g id="node4" class="node">
<title>\\RichWeb\\Algorithms\\Abstracts\\AbstractSingletonPlugin</title>
<polygon fill="none" stroke="black" points="778,-572 606,-572 606,-536 778,-536 778,-572"/>
<text text-anchor="start" x="658" y="-557.2" font-family="Courier,monospace" font-size="11.00">«abstract»</text>
<text text-anchor="start" x="614" y="-545.2" font-family="Courier,monospace" font-size="11.00">AbstractSingletonPlugin</text>
</g>
<!-- \\RichWeb\\Algorithms\\Abstracts\\AbstractSingletonPlugin&#45;&gt;\\RichWeb\\Algorithms\\Abstracts\\AbstractPlugin -->
<g id="edge6" class="edge">
<title>\\RichWeb\\Algorithms\\Abstracts\\AbstractSingletonPlugin&#45;&gt;\\RichWeb\\Algorithms\\Abstracts\\AbstractPlugin</title>
<path fill="none" stroke="black" d="M605.83,-536.24C570.29,-528.83 529.68,-520.37 496.66,-513.48"/>
<polygon fill="none" stroke="black" points="497.17,-510.01 486.67,-511.4 495.74,-516.87 497.17,-510.01"/>
</g>
<!-- \\RichWeb\\Algorithms\\Interfaces\\SingletonPluginInterface -->
<g id="node29" class="node">
<title>\\RichWeb\\Algorithms\\Interfaces\\SingletonPluginInterface</title>
<polygon fill="none" stroke="black" points="246,-654 67,-654 67,-618 246,-618 246,-654"/>
<text text-anchor="middle" x="156.5" y="-633.2" font-family="Courier,monospace" font-size="11.00">SingletonPluginInterface</text>
</g>
<!-- \\RichWeb\\Algorithms\\Abstracts\\AbstractSingletonPlugin&#45;&gt;\\RichWeb\\Algorithms\\Interfaces\\SingletonPluginInterface -->
<g id="edge7" class="edge">
<title>\\RichWeb\\Algorithms\\Abstracts\\AbstractSingletonPlugin&#45;&gt;\\RichWeb\\Algorithms\\Interfaces\\SingletonPluginInterface</title>
<path fill="none" stroke="black" stroke-dasharray="1,5" d="M605.89,-565.67C596.8,-569.5 588.24,-574.5 581,-581 526.8,-629.64 584.65,-693.22 525,-735 456.56,-782.94 412.06,-771.71 337,-735 300.58,-717.19 315.29,-684.62 281,-663 273.23,-658.1 264.7,-654.08 255.86,-650.79"/>
<polygon fill="none" stroke="black" points="256.77,-647.4 246.17,-647.49 254.51,-654.02 256.77,-647.4"/>
</g>
<!-- \\RichWeb\\Algorithms\\Abstracts\\AbstractSyntaxHighlighter -->
<g id="node5" class="node">
<title>\\RichWeb\\Algorithms\\Abstracts\\AbstractSyntaxHighlighter</title>
<polygon fill="none" stroke="black" points="784.5,-626 599.5,-626 599.5,-590 784.5,-590 784.5,-626"/>
<text text-anchor="start" x="658" y="-611.2" font-family="Courier,monospace" font-size="11.00">«abstract»</text>
<text text-anchor="start" x="607.5" y="-599.2" font-family="Courier,monospace" font-size="11.00">AbstractSyntaxHighlighter</text>
</g>
<!-- \\RichWeb\\Algorithms\\Interfaces\\SyntaxHighlighterInterface -->
<g id="node30" class="node">
<title>\\RichWeb\\Algorithms\\Interfaces\\SyntaxHighlighterInterface</title>
<polygon fill="none" stroke="black" points="252.5,-708 60.5,-708 60.5,-672 252.5,-672 252.5,-708"/>
<text text-anchor="middle" x="156.5" y="-687.2" font-family="Courier,monospace" font-size="11.00">SyntaxHighlighterInterface</text>
</g>
<!-- \\RichWeb\\Algorithms\\Abstracts\\AbstractSyntaxHighlighter&#45;&gt;\\RichWeb\\Algorithms\\Interfaces\\SyntaxHighlighterInterface -->
<g id="edge8" class="edge">
<title>\\RichWeb\\Algorithms\\Abstracts\\AbstractSyntaxHighlighter&#45;&gt;\\RichWeb\\Algorithms\\Interfaces\\SyntaxHighlighterInterface</title>
<path fill="none" stroke="black" stroke-dasharray="1,5" d="M678.02,-626.06C652.93,-659.21 594.11,-728.8 525,-755 446.87,-784.62 416.87,-779.54 337,-755 308.25,-746.17 308.64,-728.87 281,-717 275.11,-714.47 268.96,-712.17 262.68,-710.07"/>
<polygon fill="none" stroke="black" points="263.32,-706.6 252.73,-706.94 261.22,-713.28 263.32,-706.6"/>
</g>
<!-- \\RichWeb\\Algorithms\\Admin\\Abstracts\\AbstractMetaBox -->
<g id="node6" class="node">
<title>\\RichWeb\\Algorithms\\Admin\\Abstracts\\AbstractMetaBox</title>
<polygon fill="none" stroke="black" points="490,-1090 372,-1090 372,-1054 490,-1054 490,-1090"/>
<text text-anchor="start" x="397" y="-1075.2" font-family="Courier,monospace" font-size="11.00">«abstract»</text>
<text text-anchor="start" x="380" y="-1063.2" font-family="Courier,monospace" font-size="11.00">AbstractMetaBox</text>
</g>
<!-- \\RichWeb\\Algorithms\\Admin\\Interfaces\\MetaBoxInterface -->
<g id="node8" class="node">
<title>\\RichWeb\\Algorithms\\Admin\\Interfaces\\MetaBoxInterface</title>
<polygon fill="none" stroke="black" points="219,-1090 94,-1090 94,-1054 219,-1054 219,-1090"/>
<text text-anchor="middle" x="156.5" y="-1069.2" font-family="Courier,monospace" font-size="11.00">MetaBoxInterface</text>
</g>
<!-- \\RichWeb\\Algorithms\\Admin\\Abstracts\\AbstractMetaBox&#45;&gt;\\RichWeb\\Algorithms\\Admin\\Interfaces\\MetaBoxInterface -->
<g id="edge9" class="edge">
<title>\\RichWeb\\Algorithms\\Admin\\Abstracts\\AbstractMetaBox&#45;&gt;\\RichWeb\\Algorithms\\Admin\\Interfaces\\MetaBoxInterface</title>
<path fill="none" stroke="black" stroke-dasharray="1,5" d="M371.88,-1072C330.26,-1072 273.95,-1072 229.49,-1072"/>
<polygon fill="none" stroke="black" points="229.32,-1068.5 219.32,-1072 229.32,-1075.5 229.32,-1068.5"/>
</g>
<!-- \\RichWeb\\Algorithms\\Admin\\Abstracts\\AbstractPostType -->
<g id="node7" class="node">
<title>\\RichWeb\\Algorithms\\Admin\\Abstracts\\AbstractPostType</title>
<polygon fill="none" stroke="black" points="493.5,-1144 368.5,-1144 368.5,-1108 493.5,-1108 493.5,-1144"/>
<text text-anchor="start" x="397" y="-1129.2" font-family="Courier,monospace" font-size="11.00">«abstract»</text>
<text text-anchor="start" x="376.5" y="-1117.2" font-family="Courier,monospace" font-size="11.00">AbstractPostType</text>
</g>
<!-- \\RichWeb\\Algorithms\\Admin\\Interfaces\\PostTypeInterface -->
<g id="node9" class="node">
<title>\\RichWeb\\Algorithms\\Admin\\Interfaces\\PostTypeInterface</title>
<polygon fill="none" stroke="black" points="222,-1144 91,-1144 91,-1108 222,-1108 222,-1144"/>
<text text-anchor="middle" x="156.5" y="-1123.2" font-family="Courier,monospace" font-size="11.00">PostTypeInterface</text>
</g>
<!-- \\RichWeb\\Algorithms\\Admin\\Abstracts\\AbstractPostType&#45;&gt;\\RichWeb\\Algorithms\\Admin\\Interfaces\\PostTypeInterface -->
<g id="edge10" class="edge">
<title>\\RichWeb\\Algorithms\\Admin\\Abstracts\\AbstractPostType&#45;&gt;\\RichWeb\\Algorithms\\Admin\\Interfaces\\PostTypeInterface</title>
<path fill="none" stroke="black" stroke-dasharray="1,5" d="M368.17,-1126C327.9,-1126 275.12,-1126 232.46,-1126"/>
<polygon fill="none" stroke="black" points="232.41,-1122.5 222.41,-1126 232.41,-1129.5 232.41,-1122.5"/>
</g>
<!-- \\RichWeb\\Algorithms\\Admin\\Abstracts\\AbstractPostType&#45;&gt;\\RichWeb\\Algorithms\\Interfaces\\HasRunnerInterface -->
<g id="edge11" class="edge">
<title>\\RichWeb\\Algorithms\\Admin\\Abstracts\\AbstractPostType&#45;&gt;\\RichWeb\\Algorithms\\Interfaces\\HasRunnerInterface</title>
<path fill="none" stroke="black" stroke-dasharray="1,5" d="M368.13,-1118.17C356.46,-1114.09 345.32,-1108.02 337,-1099 252.74,-1007.63 368.29,-913.49 281,-825 268.82,-812.66 252.4,-805.36 235.52,-801.17"/>
<polygon fill="none" stroke="black" points="236.06,-797.71 225.55,-799.05 234.6,-804.56 236.06,-797.71"/>
</g>
<!-- \\RichWeb\\Algorithms\\Admin\\MetaBoxes\\AlgorithmCodeExamplesMetaBox -->
<g id="node10" class="node">
<title>\\RichWeb\\Algorithms\\Admin\\MetaBoxes\\AlgorithmCodeExamplesMetaBox</title>
<polygon fill="none" stroke="black" points="795,-1122 589,-1122 589,-1086 795,-1086 795,-1122"/>
<text text-anchor="middle" x="692" y="-1101.2" font-family="Courier,monospace" font-size="11.00">AlgorithmCodeExamplesMetaBox</text>
</g>
<!-- \\RichWeb\\Algorithms\\Admin\\MetaBoxes\\AlgorithmCodeExamplesMetaBox&#45;&gt;\\RichWeb\\Algorithms\\Admin\\Abstracts\\AbstractMetaBox -->
<g id="edge13" class="edge">
<title>\\RichWeb\\Algorithms\\Admin\\MetaBoxes\\AlgorithmCodeExamplesMetaBox&#45;&gt;\\RichWeb\\Algorithms\\Admin\\Abstracts\\AbstractMetaBox</title>
<path fill="none" stroke="black" d="M588.64,-1091.35C558.92,-1087.68 527.21,-1083.76 500.15,-1080.42"/>
<polygon fill="none" stroke="black" points="500.37,-1076.92 490.02,-1079.17 499.51,-1083.87 500.37,-1076.92"/>
</g>
<!-- \\RichWeb\\Algorithms\\Admin\\MetaBoxes\\AlgorithmPackageMetaBox -->
<g id="node11" class="node">
<title>\\RichWeb\\Algorithms\\Admin\\MetaBoxes\\AlgorithmPackageMetaBox</title>
<polygon fill="none" stroke="black" points="778,-1068 606,-1068 606,-1032 778,-1032 778,-1068"/>
<text text-anchor="middle" x="692" y="-1047.2" font-family="Courier,monospace" font-size="11.00">AlgorithmPackageMetaBox</text>
</g>
<!-- \\RichWeb\\Algorithms\\Admin\\MetaBoxes\\AlgorithmPackageMetaBox&#45;&gt;\\RichWeb\\Algorithms\\Admin\\Abstracts\\AbstractMetaBox -->
<g id="edge14" class="edge">
<title>\\RichWeb\\Algorithms\\Admin\\MetaBoxes\\AlgorithmPackageMetaBox&#45;&gt;\\RichWeb\\Algorithms\\Admin\\Abstracts\\AbstractMetaBox</title>
<path fill="none" stroke="black" d="M605.83,-1057.23C571.64,-1060.14 532.76,-1063.44 500.46,-1066.19"/>
<polygon fill="none" stroke="black" points="499.88,-1062.72 490.21,-1067.06 500.47,-1069.7 499.88,-1062.72"/>
</g>
<!-- \\RichWeb\\Algorithms\\Admin\\MetaBoxes\\MetaBoxes -->
<g id="node12" class="node">
<title>\\RichWeb\\Algorithms\\Admin\\MetaBoxes\\MetaBoxes</title>
<polygon fill="none" stroke="black" points="730.5,-1014 653.5,-1014 653.5,-978 730.5,-978 730.5,-1014"/>
<text text-anchor="middle" x="692" y="-993.2" font-family="Courier,monospace" font-size="11.00">MetaBoxes</text>
</g>
<!-- \\RichWeb\\Algorithms\\Admin\\MetaBoxes\\MetaBoxes&#45;&gt;\\RichWeb\\Algorithms\\Interfaces\\HasRunnerInterface -->
<g id="edge15" class="edge">
<title>\\RichWeb\\Algorithms\\Admin\\MetaBoxes\\MetaBoxes&#45;&gt;\\RichWeb\\Algorithms\\Interfaces\\HasRunnerInterface</title>
<path fill="none" stroke="black" stroke-dasharray="1,5" d="M680.05,-977.78C656.82,-941.03 598.62,-858.58 525,-824 487.48,-806.38 472.63,-825.22 432,-817"/>
</g>
<!-- \\RichWeb\\Algorithms\\Admin\\AlgorithmPostType -->
<g id="node13" class="node">
<title>\\RichWeb\\Algorithms\\Admin\\AlgorithmPostType</title>
<polygon fill="none" stroke="black" points="757.5,-1194 626.5,-1194 626.5,-1158 757.5,-1158 757.5,-1194"/>
<text text-anchor="middle" x="692" y="-1173.2" font-family="Courier,monospace" font-size="11.00">AlgorithmPostType</text>
</g>
<!-- \\RichWeb\\Algorithms\\Admin\\AlgorithmPostType&#45;&gt;\\RichWeb\\Algorithms\\Admin\\Abstracts\\AbstractPostType -->
<g id="edge12" class="edge">
<title>\\RichWeb\\Algorithms\\Admin\\AlgorithmPostType&#45;&gt;\\RichWeb\\Algorithms\\Admin\\Abstracts\\AbstractPostType</title>
<path fill="none" stroke="black" d="M626.31,-1163.51C589.04,-1156.32 542.11,-1147.26 503.71,-1139.84"/>
<polygon fill="none" stroke="black" points="504.12,-1136.36 493.64,-1137.9 502.79,-1143.23 504.12,-1136.36"/>
</g>
<!-- \\RichWeb\\Algorithms\\CodeExamples\\CodeExample -->
<g id="node14" class="node">
<title>\\RichWeb\\Algorithms\\CodeExamples\\CodeExample</title>
<polygon fill="none" stroke="black" points="476.5,-926 385.5,-926 385.5,-890 476.5,-890 476.5,-926"/>
<text text-anchor="middle" x="431" y="-905.2" font-family="Courier,monospace" font-size="11.00">CodeExample</text>
</g>
<!-- \\RichWeb\\Algorithms\\Interfaces\\CodeExampleInterface -->
<g id="node21" class="node">
<title>\\RichWeb\\Algorithms\\Interfaces\\CodeExampleInterface</title>
<polygon fill="none" stroke="black" points="232.5,-924 80.5,-924 80.5,-888 232.5,-888 232.5,-924"/>
<text text-anchor="middle" x="156.5" y="-903.2" font-family="Courier,monospace" font-size="11.00">CodeExampleInterface</text>
</g>
<!-- \\RichWeb\\Algorithms\\CodeExamples\\CodeExample&#45;&gt;\\RichWeb\\Algorithms\\Interfaces\\CodeExampleInterface -->
<g id="edge16" class="edge">
<title>\\RichWeb\\Algorithms\\CodeExamples\\CodeExample&#45;&gt;\\RichWeb\\Algorithms\\Interfaces\\CodeExampleInterface</title>
<path fill="none" stroke="black" stroke-dasharray="1,5" d="M385.31,-907.67C346.76,-907.39 290.03,-906.97 242.82,-906.63"/>
<polygon fill="none" stroke="black" points="242.62,-903.12 232.59,-906.55 242.57,-910.12 242.62,-903.12"/>
</g>
<!-- Stringable -->
<g id="node48" class="node">
<title>Stringable</title>
<ellipse fill="none" stroke="black" cx="156.5" cy="-1304" rx="46.59" ry="18"/>
<text text-anchor="middle" x="156.5" y="-1300.3" font-family="Times New Roman,serif" font-size="14.00" fill="gray">Stringable</text>
</g>
<!-- \\RichWeb\\Algorithms\\CodeExamples\\CodeExample&#45;&gt;Stringable -->
<g id="edge17" class="edge">
<title>\\RichWeb\\Algorithms\\CodeExamples\\CodeExample&#45;&gt;Stringable</title>
<path fill="none" stroke="black" stroke-dasharray="1,5" d="M415.45,-926.27C395.93,-951.35 360.95,-998.29 337,-1042 305.98,-1098.61 316.46,-1122.07 281,-1176 253.82,-1217.33 212.3,-1257.05 185.03,-1281"/>
<polygon fill="none" stroke="black" points="182.66,-1278.42 177.4,-1287.62 187.24,-1283.71 182.66,-1278.42"/>
</g>
<!-- \\RichWeb\\Algorithms\\CodeExamples\\CodeExamplesLoader -->
<g id="node15" class="node">
<title>\\RichWeb\\Algorithms\\CodeExamples\\CodeExamplesLoader</title>
<polygon fill="none" stroke="black" points="500,-872 362,-872 362,-836 500,-836 500,-872"/>
<text text-anchor="middle" x="431" y="-851.2" font-family="Courier,monospace" font-size="11.00">CodeExamplesLoader</text>
</g>
<!-- \\RichWeb\\Algorithms\\Interfaces\\CodeExamplesLoaderInterface -->
<g id="node22" class="node">
<title>\\RichWeb\\Algorithms\\Interfaces\\CodeExamplesLoaderInterface</title>
<polygon fill="none" stroke="black" points="256,-870 57,-870 57,-834 256,-834 256,-870"/>
<text text-anchor="middle" x="156.5" y="-849.2" font-family="Courier,monospace" font-size="11.00">CodeExamplesLoaderInterface</text>
</g>
<!-- \\RichWeb\\Algorithms\\CodeExamples\\CodeExamplesLoader&#45;&gt;\\RichWeb\\Algorithms\\Interfaces\\CodeExamplesLoaderInterface -->
<g id="edge18" class="edge">
<title>\\RichWeb\\Algorithms\\CodeExamples\\CodeExamplesLoader&#45;&gt;\\RichWeb\\Algorithms\\Interfaces\\CodeExamplesLoaderInterface</title>
<path fill="none" stroke="black" stroke-dasharray="1,5" d="M361.94,-853.5C333.06,-853.29 298.68,-853.04 266.43,-852.8"/>
<polygon fill="none" stroke="black" points="266.07,-849.3 256.04,-852.72 266.02,-856.3 266.07,-849.3"/>
</g>
<!-- \\RichWeb\\Algorithms\\CodeExamples\\CodeExamplesLoader&#45;&gt;\\RichWeb\\Algorithms\\Interfaces\\HasRunnerInterface -->
<g id="edge19" class="edge">
<title>\\RichWeb\\Algorithms\\CodeExamples\\CodeExamplesLoader&#45;&gt;\\RichWeb\\Algorithms\\Interfaces\\HasRunnerInterface</title>
<path fill="none" stroke="black" stroke-dasharray="1,5" d="M361.94,-840.01C323.57,-832.13 275.49,-822.25 235.59,-814.05"/>
<polygon fill="none" stroke="black" points="236.14,-810.59 225.64,-812 234.73,-817.44 236.14,-810.59"/>
</g>
<!-- \\RichWeb\\Algorithms\\Interfaces\\AlgorithmPackageInterface -->
<g id="node17" class="node">
<title>\\RichWeb\\Algorithms\\Interfaces\\AlgorithmPackageInterface</title>
<polygon fill="none" stroke="black" points="249,-330 64,-330 64,-294 249,-294 249,-330"/>
<text text-anchor="middle" x="156.5" y="-309.2" font-family="Courier,monospace" font-size="11.00">AlgorithmPackageInterface</text>
</g>
<!-- \\RichWeb\\Algorithms\\Interfaces\\AlgorithmPackageLoaderInterface -->
<g id="node18" class="node">
<title>\\RichWeb\\Algorithms\\Interfaces\\AlgorithmPackageLoaderInterface</title>
<polygon fill="none" stroke="black" points="269.5,-384 43.5,-384 43.5,-348 269.5,-348 269.5,-384"/>
<text text-anchor="middle" x="156.5" y="-363.2" font-family="Courier,monospace" font-size="11.00">AlgorithmPackageLoaderInterface</text>
</g>
<!-- \\RichWeb\\Algorithms\\Interfaces\\AlgorithmPackageManagerInterface -->
<g id="node19" class="node">
<title>\\RichWeb\\Algorithms\\Interfaces\\AlgorithmPackageManagerInterface</title>
<polygon fill="none" stroke="black" points="273,-276 40,-276 40,-240 273,-240 273,-276"/>
<text text-anchor="middle" x="156.5" y="-255.2" font-family="Courier,monospace" font-size="11.00">AlgorithmPackageManagerInterface</text>
</g>
<!-- \\RichWeb\\Algorithms\\Interfaces\\AutoloaderInterface -->
<g id="node20" class="node">
<title>\\RichWeb\\Algorithms\\Interfaces\\AutoloaderInterface</title>
<polygon fill="none" stroke="black" points="229,-222 84,-222 84,-186 229,-186 229,-222"/>
<text text-anchor="middle" x="156.5" y="-201.2" font-family="Courier,monospace" font-size="11.00">AutoloaderInterface</text>
</g>
<!-- \\RichWeb\\Algorithms\\Interfaces\\FileLoaderInterface -->
<g id="node23" class="node">
<title>\\RichWeb\\Algorithms\\Interfaces\\FileLoaderInterface</title>
<polygon fill="none" stroke="black" points="229,-168 84,-168 84,-132 229,-132 229,-168"/>
<text text-anchor="middle" x="156.5" y="-147.2" font-family="Courier,monospace" font-size="11.00">FileLoaderInterface</text>
</g>
<!-- \\RichWeb\\Algorithms\\Interfaces\\LanguagesInterface -->
<g id="node25" class="node">
<title>\\RichWeb\\Algorithms\\Interfaces\\LanguagesInterface</title>
<polygon fill="none" stroke="black" points="225.5,-762 87.5,-762 87.5,-726 225.5,-726 225.5,-762"/>
<text text-anchor="middle" x="156.5" y="-741.2" font-family="Courier,monospace" font-size="11.00">LanguagesInterface</text>
</g>
<!-- \\RichWeb\\Algorithms\\Interfaces\\ProjectInterface -->
<g id="node27" class="node">
<title>\\RichWeb\\Algorithms\\Interfaces\\ProjectInterface</title>
<polygon fill="none" stroke="black" points="219,-492 94,-492 94,-456 219,-456 219,-492"/>
<text text-anchor="middle" x="156.5" y="-471.2" font-family="Courier,monospace" font-size="11.00">ProjectInterface</text>
</g>
<!-- \\RichWeb\\Algorithms\\Loaders\\Autoloader -->
<g id="node31" class="node">
<title>\\RichWeb\\Algorithms\\Loaders\\Autoloader</title>
<polygon fill="none" stroke="black" points="473,-196 389,-196 389,-160 473,-160 473,-196"/>
<text text-anchor="middle" x="431" y="-175.2" font-family="Courier,monospace" font-size="11.00">Autoloader</text>
</g>
<!-- \\RichWeb\\Algorithms\\Loaders\\Autoloader&#45;&gt;\\RichWeb\\Algorithms\\Interfaces\\AutoloaderInterface -->
<g id="edge20" class="edge">
<title>\\RichWeb\\Algorithms\\Loaders\\Autoloader&#45;&gt;\\RichWeb\\Algorithms\\Interfaces\\AutoloaderInterface</title>
<path fill="none" stroke="black" stroke-dasharray="1,5" d="M388.91,-181.92C349.4,-185.69 288.58,-191.49 239.21,-196.2"/>
<polygon fill="none" stroke="black" points="238.8,-192.73 229.18,-197.16 239.46,-199.7 238.8,-192.73"/>
</g>
<!-- \\RichWeb\\Algorithms\\Loaders\\ContentLoader -->
<g id="node32" class="node">
<title>\\RichWeb\\Algorithms\\Loaders\\ContentLoader</title>
<polygon fill="none" stroke="black" points="483,-142 379,-142 379,-106 483,-106 483,-142"/>
<text text-anchor="middle" x="431" y="-121.2" font-family="Courier,monospace" font-size="11.00">ContentLoader</text>
</g>
<!-- \\RichWeb\\Algorithms\\Loaders\\FileLoader -->
<g id="node33" class="node">
<title>\\RichWeb\\Algorithms\\Loaders\\FileLoader</title>
<polygon fill="none" stroke="black" points="473,-88 389,-88 389,-52 473,-52 473,-88"/>
<text text-anchor="middle" x="431" y="-67.2" font-family="Courier,monospace" font-size="11.00">FileLoader</text>
</g>
<!-- \\RichWeb\\Algorithms\\Loaders\\FileLoader&#45;&gt;\\RichWeb\\Algorithms\\Interfaces\\FileLoaderInterface -->
<g id="edge21" class="edge">
<title>\\RichWeb\\Algorithms\\Loaders\\FileLoader&#45;&gt;\\RichWeb\\Algorithms\\Interfaces\\FileLoaderInterface</title>
<path fill="none" stroke="black" stroke-dasharray="1,5" d="M388.78,-81.92C372.63,-86.61 353.94,-92.04 337,-97 301.25,-107.47 261.52,-119.19 228.55,-128.94"/>
<polygon fill="none" stroke="black" points="227.14,-125.71 218.54,-131.9 229.13,-132.42 227.14,-125.71"/>
</g>
<!-- \\RichWeb\\Algorithms\\Packages\\AlgorithmPackage -->
<g id="node34" class="node">
<title>\\RichWeb\\Algorithms\\Packages\\AlgorithmPackage</title>
<polygon fill="none" stroke="black" points="493.5,-330 368.5,-330 368.5,-294 493.5,-294 493.5,-330"/>
<text text-anchor="middle" x="431" y="-309.2" font-family="Courier,monospace" font-size="11.00">AlgorithmPackage</text>
</g>
<!-- \\RichWeb\\Algorithms\\Packages\\AlgorithmPackage&#45;&gt;\\RichWeb\\Algorithms\\Interfaces\\AlgorithmPackageInterface -->
<g id="edge22" class="edge">
<title>\\RichWeb\\Algorithms\\Packages\\AlgorithmPackage&#45;&gt;\\RichWeb\\Algorithms\\Interfaces\\AlgorithmPackageInterface</title>
<path fill="none" stroke="black" stroke-dasharray="1,5" d="M368.17,-312C336.01,-312 295.89,-312 259.31,-312"/>
<polygon fill="none" stroke="black" points="259.09,-308.5 249.09,-312 259.09,-315.5 259.09,-308.5"/>
</g>
<!-- \\RichWeb\\Algorithms\\Packages\\AlgorithmPackageLoader -->
<g id="node35" class="node">
<title>\\RichWeb\\Algorithms\\Packages\\AlgorithmPackageLoader</title>
<polygon fill="none" stroke="black" points="513.5,-384 348.5,-384 348.5,-348 513.5,-348 513.5,-384"/>
<text text-anchor="middle" x="431" y="-363.2" font-family="Courier,monospace" font-size="11.00">AlgorithmPackageLoader</text>
</g>
<!-- \\RichWeb\\Algorithms\\Packages\\AlgorithmPackageLoader&#45;&gt;\\RichWeb\\Algorithms\\Interfaces\\AlgorithmPackageLoaderInterface -->
<g id="edge23" class="edge">
<title>\\RichWeb\\Algorithms\\Packages\\AlgorithmPackageLoader&#45;&gt;\\RichWeb\\Algorithms\\Interfaces\\AlgorithmPackageLoaderInterface</title>
<path fill="none" stroke="black" stroke-dasharray="1,5" d="M348.24,-366C326.73,-366 303.05,-366 279.92,-366"/>
<polygon fill="none" stroke="black" points="279.69,-362.5 269.69,-366 279.69,-369.5 279.69,-362.5"/>
</g>
<!-- \\RichWeb\\Algorithms\\Packages\\AlgorithmPackageLoader&#45;&gt;\\RichWeb\\Algorithms\\Interfaces\\HasRunnerInterface -->
<g id="edge24" class="edge">
<title>\\RichWeb\\Algorithms\\Packages\\AlgorithmPackageLoader&#45;&gt;\\RichWeb\\Algorithms\\Interfaces\\HasRunnerInterface</title>
<path fill="none" stroke="black" stroke-dasharray="1,5" d="M376.9,-384.09C361.83,-391.69 346.86,-402.09 337,-416 244.59,-546.28 390.58,-654.78 281,-771 269.04,-783.68 252.62,-791.09 235.65,-795.28"/>
<polygon fill="none" stroke="black" points="234.69,-791.91 225.63,-797.4 236.14,-798.76 234.69,-791.91"/>
</g>
<!-- \\RichWeb\\Algorithms\\Packages\\AlgorithmPackageManager -->
<g id="node36" class="node">
<title>\\RichWeb\\Algorithms\\Packages\\AlgorithmPackageManager</title>
<polygon fill="none" stroke="black" points="517,-276 345,-276 345,-240 517,-240 517,-276"/>
<text text-anchor="middle" x="431" y="-255.2" font-family="Courier,monospace" font-size="11.00">AlgorithmPackageManager</text>
</g>
<!-- \\RichWeb\\Algorithms\\Packages\\AlgorithmPackageManager&#45;&gt;\\RichWeb\\Algorithms\\Interfaces\\AlgorithmPackageManagerInterface -->
<g id="edge25" class="edge">
<title>\\RichWeb\\Algorithms\\Packages\\AlgorithmPackageManager&#45;&gt;\\RichWeb\\Algorithms\\Interfaces\\AlgorithmPackageManagerInterface</title>
<path fill="none" stroke="black" stroke-dasharray="1,5" d="M344.9,-258C325.44,-258 304.35,-258 283.58,-258"/>
<polygon fill="none" stroke="black" points="283.42,-254.5 273.42,-258 283.42,-261.5 283.42,-254.5"/>
</g>
<!-- \\RichWeb\\Algorithms\\Setup\\AlgorithmScripts -->
<g id="node37" class="node">
<title>\\RichWeb\\Algorithms\\Setup\\AlgorithmScripts</title>
<polygon fill="none" stroke="black" points="1039,-727 914,-727 914,-691 1039,-691 1039,-727"/>
<text text-anchor="middle" x="976.5" y="-706.2" font-family="Courier,monospace" font-size="11.00">AlgorithmScripts</text>
</g>
<!-- \\RichWeb\\Algorithms\\Setup\\AlgorithmScripts&#45;&gt;\\RichWeb\\Algorithms\\Abstracts\\AbstractScripts -->
<g id="edge29" class="edge">
<title>\\RichWeb\\Algorithms\\Setup\\AlgorithmScripts&#45;&gt;\\RichWeb\\Algorithms\\Abstracts\\AbstractScripts</title>
<path fill="none" stroke="black" d="M913.87,-707.35C894.02,-703.81 873.45,-696.47 859,-682 791.67,-614.54 878.42,-540.37 811,-473 797.77,-459.78 779.47,-452.49 761.23,-448.6"/>
<polygon fill="none" stroke="black" points="761.6,-445.11 751.13,-446.77 760.35,-452 761.6,-445.11"/>
</g>
<!-- \\RichWeb\\Algorithms\\Setup\\Languages -->
<g id="node38" class="node">
<title>\\RichWeb\\Algorithms\\Setup\\Languages</title>
<polygon fill="none" stroke="black" points="1015,-781 938,-781 938,-745 1015,-745 1015,-781"/>
<text text-anchor="middle" x="976.5" y="-760.2" font-family="Courier,monospace" font-size="11.00">Languages</text>
</g>
<!-- \\RichWeb\\Algorithms\\Setup\\Languages&#45;&gt;\\RichWeb\\Algorithms\\Interfaces\\HasRunnerInterface -->
<g id="edge31" class="edge">
<title>\\RichWeb\\Algorithms\\Setup\\Languages&#45;&gt;\\RichWeb\\Algorithms\\Interfaces\\HasRunnerInterface</title>
<path fill="none" stroke="black" stroke-dasharray="1,5" d="M430,-797C364.59,-794.79 290.3,-795.26 235.83,-796.16"/>
<polygon fill="none" stroke="black" points="235.49,-792.66 225.55,-796.34 235.61,-799.66 235.49,-792.66"/>
</g>
<!-- \\RichWeb\\Algorithms\\Setup\\Languages&#45;&gt;\\RichWeb\\Algorithms\\Interfaces\\LanguagesInterface -->
<g id="edge30" class="edge">
<title>\\RichWeb\\Algorithms\\Setup\\Languages&#45;&gt;\\RichWeb\\Algorithms\\Interfaces\\LanguagesInterface</title>
<path fill="none" stroke="black" stroke-dasharray="1,5" d="M430,-797C410.77,-796.09 309.45,-775.68 235.96,-760.46"/>
<polygon fill="none" stroke="black" points="236.29,-756.95 225.79,-758.35 234.87,-763.81 236.29,-756.95"/>
<path fill="none" stroke="black" stroke-dasharray="1,5" d="M937.96,-768.19C849.74,-779.76 622.29,-805.99 432,-797"/>
</g>
<!-- \\RichWeb\\Algorithms\\Setup\\PrismSyntaxtHighlighterScripts -->
<g id="node39" class="node">
<title>\\RichWeb\\Algorithms\\Setup\\PrismSyntaxtHighlighterScripts</title>
<polygon fill="none" stroke="black" points="1086,-619 867,-619 867,-583 1086,-583 1086,-619"/>
<text text-anchor="middle" x="976.5" y="-598.2" font-family="Courier,monospace" font-size="11.00">PrismSyntaxtHighlighterScripts</text>
</g>
<!-- \\RichWeb\\Algorithms\\Setup\\PrismSyntaxtHighlighterScripts&#45;&gt;\\RichWeb\\Algorithms\\Abstracts\\AbstractScripts -->
<g id="edge32" class="edge">
<title>\\RichWeb\\Algorithms\\Setup\\PrismSyntaxtHighlighterScripts&#45;&gt;\\RichWeb\\Algorithms\\Abstracts\\AbstractScripts</title>
<path fill="none" stroke="black" d="M925.96,-582.99C903.88,-573.37 878.52,-559.98 859,-543 830.54,-518.24 842.19,-494.22 811,-473 796.33,-463.02 778.5,-456.69 761.19,-452.68"/>
<polygon fill="none" stroke="black" points="761.59,-449.19 751.09,-450.58 760.17,-456.04 761.59,-449.19"/>
</g>
<!-- \\RichWeb\\Algorithms\\Setup\\Scripts -->
<g id="node40" class="node">
<title>\\RichWeb\\Algorithms\\Setup\\Scripts</title>
<polygon fill="none" stroke="black" points="1008.5,-673 944.5,-673 944.5,-637 1008.5,-637 1008.5,-673"/>
<text text-anchor="middle" x="976.5" y="-652.2" font-family="Courier,monospace" font-size="11.00">Scripts</text>
</g>
<!-- \\RichWeb\\Algorithms\\Setup\\Scripts&#45;&gt;\\RichWeb\\Algorithms\\Abstracts\\AbstractScripts -->
<g id="edge33" class="edge">
<title>\\RichWeb\\Algorithms\\Setup\\Scripts&#45;&gt;\\RichWeb\\Algorithms\\Abstracts\\AbstractScripts</title>
<path fill="none" stroke="black" d="M944.37,-655.87C918.36,-654.91 881.96,-649.35 859,-628 806.19,-578.89 863.88,-522.04 811,-473 797.41,-460.4 779.19,-453.28 761.13,-449.35"/>
<polygon fill="none" stroke="black" points="761.62,-445.88 751.15,-447.49 760.33,-452.76 761.62,-445.88"/>
</g>
<!-- \\RichWeb\\Algorithms\\Setup\\Setup -->
<g id="node41" class="node">
<title>\\RichWeb\\Algorithms\\Setup\\Setup</title>
<polygon fill="none" stroke="black" points="1003.5,-835 949.5,-835 949.5,-799 1003.5,-799 1003.5,-835"/>
<text text-anchor="middle" x="976.5" y="-814.2" font-family="Courier,monospace" font-size="11.00">Setup</text>
</g>
<!-- \\RichWeb\\Algorithms\\Setup\\Setup&#45;&gt;\\RichWeb\\Algorithms\\Interfaces\\HasRunnerInterface -->
<g id="edge34" class="edge">
<title>\\RichWeb\\Algorithms\\Setup\\Setup&#45;&gt;\\RichWeb\\Algorithms\\Interfaces\\HasRunnerInterface</title>
<path fill="none" stroke="black" stroke-dasharray="1,5" d="M949.3,-817.61C847.69,-819.9 482.87,-827.3 432,-817"/>
<path fill="none" stroke="black" stroke-dasharray="1,5" d="M430,-817C365.39,-803.69 290.55,-799.24 235.66,-797.94"/>
<polygon fill="none" stroke="black" points="235.72,-794.44 225.65,-797.74 235.58,-801.44 235.72,-794.44"/>
</g>
<!-- \\RichWeb\\Algorithms\\Traits\\Formatting\\FilePaths -->
<g id="node42" class="node">
<title>\\RichWeb\\Algorithms\\Traits\\Formatting\\FilePaths</title>
<polygon fill="none" stroke="black" points="1015,-431 938,-431 938,-395 1015,-395 1015,-431"/>
<text text-anchor="middle" x="976.5" y="-410.2" font-family="Courier,monospace" font-size="11.00">FilePaths</text>
</g>
<!-- \\RichWeb\\Algorithms\\Traits\\Formatting\\Strings -->
<g id="node43" class="node">
<title>\\RichWeb\\Algorithms\\Traits\\Formatting\\Strings</title>
<polygon fill="none" stroke="black" points="1008.5,-377 944.5,-377 944.5,-341 1008.5,-341 1008.5,-377"/>
<text text-anchor="middle" x="976.5" y="-356.2" font-family="Courier,monospace" font-size="11.00">Strings</text>
</g>
<!-- \\RichWeb\\Algorithms\\Traits\\Posts\\AlgorithmChecker -->
<g id="node44" class="node">
<title>\\RichWeb\\Algorithms\\Traits\\Posts\\AlgorithmChecker</title>
<polygon fill="none" stroke="black" points="1039,-511 914,-511 914,-475 1039,-475 1039,-511"/>
<text text-anchor="middle" x="976.5" y="-490.2" font-family="Courier,monospace" font-size="11.00">AlgorithmChecker</text>
</g>
<!-- \\RichWeb\\Algorithms\\Plugin -->
<g id="node45" class="node">
<title>\\RichWeb\\Algorithms\\Plugin</title>
<polygon fill="none" stroke="black" points="1005,-263 948,-263 948,-227 1005,-227 1005,-263"/>
<text text-anchor="middle" x="976.5" y="-242.2" font-family="Courier,monospace" font-size="11.00">Plugin</text>
</g>
<!-- \\RichWeb\\Algorithms\\Plugin&#45;&gt;\\RichWeb\\Algorithms\\Abstracts\\AbstractSingletonPlugin -->
<g id="edge26" class="edge">
<title>\\RichWeb\\Algorithms\\Plugin&#45;&gt;\\RichWeb\\Algorithms\\Abstracts\\AbstractSingletonPlugin</title>
<path fill="none" stroke="black" d="M947.84,-243.43C921.26,-243.53 881.85,-248.18 859,-272 779.17,-355.23 890.95,-443.88 811,-527 804.3,-533.97 796.19,-539.31 787.4,-543.37"/>
<polygon fill="none" stroke="black" points="785.99,-540.17 778.03,-547.16 788.61,-546.66 785.99,-540.17"/>
</g>
<!-- \\RichWeb\\Algorithms\\PrismSyntaxHighlighter -->
<g id="node46" class="node">
<title>\\RichWeb\\Algorithms\\PrismSyntaxHighlighter</title>
<polygon fill="none" stroke="black" points="1059,-317 894,-317 894,-281 1059,-281 1059,-317"/>
<text text-anchor="middle" x="976.5" y="-296.2" font-family="Courier,monospace" font-size="11.00">PrismSyntaxHighlighter</text>
</g>
<!-- \\RichWeb\\Algorithms\\PrismSyntaxHighlighter&#45;&gt;\\RichWeb\\Algorithms\\Abstracts\\AbstractSyntaxHighlighter -->
<g id="edge27" class="edge">
<title>\\RichWeb\\Algorithms\\PrismSyntaxHighlighter&#45;&gt;\\RichWeb\\Algorithms\\Abstracts\\AbstractSyntaxHighlighter</title>
<path fill="none" stroke="black" d="M893.82,-307.43C880.74,-312.08 868.43,-318.95 859,-329 780.99,-412.15 890.13,-498.91 811,-581 805.89,-586.31 799.96,-590.66 793.54,-594.24"/>
<polygon fill="none" stroke="black" points="791.97,-591.11 784.51,-598.63 795.03,-597.4 791.97,-591.11"/>
</g>
<!-- \\RichWeb\\Algorithms\\Project -->
<g id="node47" class="node">
<title>\\RichWeb\\Algorithms\\Project</title>
<polygon fill="none" stroke="black" points="463,-698 399,-698 399,-662 463,-662 463,-698"/>
<text text-anchor="middle" x="431" y="-677.2" font-family="Courier,monospace" font-size="11.00">Project</text>
</g>
<!-- \\RichWeb\\Algorithms\\Project&#45;&gt;\\RichWeb\\Algorithms\\Interfaces\\ProjectInterface -->
<g id="edge28" class="edge">
<title>\\RichWeb\\Algorithms\\Project&#45;&gt;\\RichWeb\\Algorithms\\Interfaces\\ProjectInterface</title>
<path fill="none" stroke="black" stroke-dasharray="1,5" d="M398.94,-679.95C379.01,-678.32 353.81,-673.05 337,-658 281.81,-608.58 336.61,-549.94 281,-501 266.69,-488.4 247.86,-481.25 229.24,-477.29"/>
<polygon fill="none" stroke="black" points="229.71,-473.82 219.24,-475.45 228.45,-480.7 229.71,-473.82"/>
</g>
</g>
</svg>
