<?xml version="1.0" encoding="UTF-8" standalone="no"?>
<!DOCTYPE svg PUBLIC "-//W3C//DTD SVG 1.1//EN"
 "http://www.w3.org/Graphics/SVG/1.1/DTD/svg11.dtd">
<!-- Generated by graphviz version 2.50.0 (20211204.2007)
 -->
<!-- Title: G Pages: 1 -->
<svg width="1134pt" height="1461pt"
 viewBox="0.00 0.00 1134.00 1461.47" xmlns="http://www.w3.org/2000/svg" xmlns:xlink="http://www.w3.org/1999/xlink">
<g id="graph0" class="graph" transform="scale(1 1) rotate(0) translate(4 1457.47)">
<title>G</title>
<polygon fill="white" stroke="transparent" points="-4,4 -4,-1457.47 1130,-1457.47 1130,4 -4,4"/>
<g id="clust1" class="cluster">
<title>cluster_Global</title>
<polygon fill="none" stroke="black" points="8,-9.47 8,-1445.47 1118,-1445.47 1118,-9.47 8,-9.47"/>
<text text-anchor="middle" x="563" y="-1432.67" font-family="Times New Roman,serif" font-size="11.00" fill="gray">Global</text>
</g>
<g id="clust2" class="cluster">
<title>cluster_\RichWeb</title>
<polygon fill="none" stroke="black" points="16,-17.47 16,-1373.47 1110,-1373.47 1110,-17.47 16,-17.47"/>
<text text-anchor="middle" x="563" y="-1360.67" font-family="Times New Roman,serif" font-size="11.00" fill="gray">RichWeb</text>
</g>
<g id="clust3" class="cluster">
<title>cluster_\RichWeb\Algorithms</title>
<polygon fill="none" stroke="black" points="24,-25.47 24,-1345.47 1102,-1345.47 1102,-25.47 24,-25.47"/>
<text text-anchor="middle" x="563" y="-1332.67" font-family="Times New Roman,serif" font-size="11.00" fill="gray">Algorithms</text>
</g>
<g id="clust4" class="cluster">
<title>cluster_\RichWeb\Algorithms\Abstracts</title>
<polygon fill="none" stroke="black" points="367.5,-595.47 367.5,-829.47 792.5,-829.47 792.5,-595.47 367.5,-595.47"/>
<text text-anchor="middle" x="580" y="-816.67" font-family="Times New Roman,serif" font-size="11.00" fill="gray">Abstracts</text>
</g>
<g id="clust5" class="cluster">
<title>cluster_\RichWeb\Algorithms\Admin</title>
<polygon fill="none" stroke="black" points="75,-1057.47 75,-1317.47 811,-1317.47 811,-1057.47 75,-1057.47"/>
<text text-anchor="middle" x="443" y="-1304.67" font-family="Times New Roman,serif" font-size="11.00" fill="gray">Admin</text>
</g>
<g id="clust6" class="cluster">
<title>cluster_\RichWeb\Algorithms\Admin\Abstracts</title>
<polygon fill="none" stroke="black" points="360.5,-1141.47 360.5,-1267.47 501.5,-1267.47 501.5,-1141.47 360.5,-1141.47"/>
<text text-anchor="middle" x="431" y="-1254.67" font-family="Times New Roman,serif" font-size="11.00" fill="gray">Abstracts</text>
</g>
<g id="clust8" class="cluster">
<title>cluster_\RichWeb\Algorithms\Admin\MetaBoxes</title>
<polygon fill="none" stroke="black" points="581,-1065.47 581,-1245.47 803,-1245.47 803,-1065.47 581,-1065.47"/>
<text text-anchor="middle" x="692" y="-1232.67" font-family="Times New Roman,serif" font-size="11.00" fill="gray">MetaBoxes</text>
</g>
<g id="clust7" class="cluster">
<title>cluster_\RichWeb\Algorithms\Admin\Interfaces</title>
<polygon fill="none" stroke="black" points="83,-1141.47 83,-1267.47 230,-1267.47 230,-1141.47 83,-1141.47"/>
<text text-anchor="middle" x="156.5" y="-1254.67" font-family="Times New Roman,serif" font-size="11.00" fill="gray">Interfaces</text>
</g>
<g id="clust16" class="cluster">
<title>cluster_\RichWeb\Algorithms\Traits</title>
<polygon fill="none" stroke="black" points="898,-1061.47 898,-1303.47 1055,-1303.47 1055,-1061.47 898,-1061.47"/>
<text text-anchor="middle" x="976.5" y="-1290.67" font-family="Times New Roman,serif" font-size="11.00" fill="gray">Traits</text>
</g>
<g id="clust17" class="cluster">
<title>cluster_\RichWeb\Algorithms\Traits\Formatting</title>
<polygon fill="none" stroke="black" points="930,-1149.47 930,-1275.47 1023,-1275.47 1023,-1149.47 930,-1149.47"/>
<text text-anchor="middle" x="976.5" y="-1262.67" font-family="Times New Roman,serif" font-size="11.00" fill="gray">Formatting</text>
</g>
<g id="clust18" class="cluster">
<title>cluster_\RichWeb\Algorithms\Traits\Posts</title>
<polygon fill="none" stroke="black" points="906,-1069.47 906,-1141.47 1047,-1141.47 1047,-1069.47 906,-1069.47"/>
<text text-anchor="middle" x="976.5" y="-1128.67" font-family="Times New Roman,serif" font-size="11.00" fill="gray">Posts</text>
</g>
<g id="clust14" class="cluster">
<title>cluster_\RichWeb\Algorithms\Setup</title>
<polygon fill="none" stroke="black" points="859,-660.47 859,-1030.47 1094,-1030.47 1094,-660.47 859,-660.47"/>
<text text-anchor="middle" x="976.5" y="-1017.67" font-family="Times New Roman,serif" font-size="11.00" fill="gray">Setup</text>
</g>
<g id="clust15" class="cluster">
<title>cluster_\RichWeb\Algorithms\Setup\Scripts</title>
<polygon fill="none" stroke="black" points="892.5,-930.47 892.5,-1002.47 1060.5,-1002.47 1060.5,-930.47 892.5,-930.47"/>
<text text-anchor="middle" x="976.5" y="-989.67" font-family="Times New Roman,serif" font-size="11.00" fill="gray">Scripts</text>
</g>
<g id="clust9" class="cluster">
<title>cluster_\RichWeb\Algorithms\CodeExamples</title>
<polygon fill="none" stroke="black" points="354,-923.47 354,-1049.47 508,-1049.47 508,-923.47 354,-923.47"/>
<text text-anchor="middle" x="431" y="-1036.67" font-family="Times New Roman,serif" font-size="11.00" fill="gray">CodeExamples</text>
</g>
<g id="clust13" class="cluster">
<title>cluster_\RichWeb\Algorithms\Packages</title>
<polygon fill="none" stroke="black" points="337,-407.47 337,-587.47 525,-587.47 525,-407.47 337,-407.47"/>
<text text-anchor="middle" x="431" y="-574.67" font-family="Times New Roman,serif" font-size="11.00" fill="gray">Packages</text>
</g>
<g id="clust11" class="cluster">
<title>cluster_\RichWeb\Algorithms\Interfaces</title>
<polygon fill="none" stroke="black" points="32,-33.47 32,-1023.47 281,-1023.47 281,-33.47 32,-33.47"/>
<text text-anchor="middle" x="156.5" y="-1010.67" font-family="Times New Roman,serif" font-size="11.00" fill="gray">Interfaces</text>
</g>
<g id="clust10" class="cluster">
<title>cluster_\RichWeb\Algorithms\Events</title>
<polygon fill="none" stroke="black" points="357.5,-273.47 357.5,-399.47 504.5,-399.47 504.5,-273.47 357.5,-273.47"/>
<text text-anchor="middle" x="431" y="-386.67" font-family="Times New Roman,serif" font-size="11.00" fill="gray">Events</text>
</g>
<g id="clust12" class="cluster">
<title>cluster_\RichWeb\Algorithms\Loaders</title>
<polygon fill="none" stroke="black" points="371,-85.47 371,-265.47 491,-265.47 491,-85.47 371,-85.47"/>
<text text-anchor="middle" x="431" y="-252.67" font-family="Times New Roman,serif" font-size="11.00" fill="gray">Loaders</text>
</g>
<!-- \\RichWeb\\Algorithms\\Abstracts\\AbstractAlgorithm -->
<g id="node1" class="node">
<title>\\RichWeb\\Algorithms\\Abstracts\\AbstractAlgorithm</title>
<polygon fill="none" stroke="black" points="757.5,-801.47 626.5,-801.47 626.5,-765.47 757.5,-765.47 757.5,-801.47"/>
<text text-anchor="start" x="658" y="-786.67" font-family="Courier,monospace" font-size="11.00">«abstract»</text>
<text text-anchor="start" x="634.5" y="-774.67" font-family="Courier,monospace" font-size="11.00">AbstractAlgorithm</text>
</g>
<!-- \\RichWeb\\Algorithms\\Interfaces\\AlgorithmInterface -->
<g id="node18" class="node">
<title>\\RichWeb\\Algorithms\\Interfaces\\AlgorithmInterface</title>
<polygon fill="none" stroke="black" points="225.5,-671.47 87.5,-671.47 87.5,-635.47 225.5,-635.47 225.5,-671.47"/>
<text text-anchor="middle" x="156.5" y="-650.67" font-family="Courier,monospace" font-size="11.00">AlgorithmInterface</text>
</g>
<!-- \\RichWeb\\Algorithms\\Abstracts\\AbstractAlgorithm&#45;&gt;\\RichWeb\\Algorithms\\Interfaces\\AlgorithmInterface -->
<g id="edge1" class="edge">
<title>\\RichWeb\\Algorithms\\Abstracts\\AbstractAlgorithm&#45;&gt;\\RichWeb\\Algorithms\\Interfaces\\AlgorithmInterface</title>
<path fill="none" stroke="black" stroke-dasharray="1,5" d="M430,-707.47C389.18,-699.59 377.74,-705.77 337,-697.47 311.51,-692.28 306.17,-687.03 281,-680.47 266.37,-676.66 250.66,-672.94 235.52,-669.55"/>
<polygon fill="none" stroke="black" points="236.2,-666.11 225.68,-667.36 234.68,-672.94 236.2,-666.11"/>
<path fill="none" stroke="black" stroke-dasharray="1,5" d="M626.22,-768.45C611.31,-764.75 595.55,-760.65 581,-756.47 513.99,-737.26 500.45,-720.69 432,-707.47"/>
</g>
<!-- \\RichWeb\\Algorithms\\Interfaces\\HasRunnerInterface -->
<g id="node28" class="node">
<title>\\RichWeb\\Algorithms\\Interfaces\\HasRunnerInterface</title>
<polygon fill="none" stroke="black" points="225.5,-725.47 87.5,-725.47 87.5,-689.47 225.5,-689.47 225.5,-725.47"/>
<text text-anchor="middle" x="156.5" y="-704.67" font-family="Courier,monospace" font-size="11.00">HasRunnerInterface</text>
</g>
<!-- \\RichWeb\\Algorithms\\Abstracts\\AbstractAlgorithm&#45;&gt;\\RichWeb\\Algorithms\\Interfaces\\HasRunnerInterface -->
<g id="edge2" class="edge">
<title>\\RichWeb\\Algorithms\\Abstracts\\AbstractAlgorithm&#45;&gt;\\RichWeb\\Algorithms\\Interfaces\\HasRunnerInterface</title>
<path fill="none" stroke="black" stroke-dasharray="1,5" d="M430,-707.47C365.39,-695 290.54,-696.08 235.66,-699.67"/>
<polygon fill="none" stroke="black" points="235.38,-696.18 225.65,-700.37 235.87,-703.16 235.38,-696.18"/>
</g>
<!-- \\RichWeb\\Algorithms\\Abstracts\\AbstractPlugin -->
<g id="node2" class="node">
<title>\\RichWeb\\Algorithms\\Abstracts\\AbstractPlugin</title>
<polygon fill="none" stroke="black" points="486.5,-688.47 375.5,-688.47 375.5,-652.47 486.5,-652.47 486.5,-688.47"/>
<text text-anchor="start" x="397" y="-673.67" font-family="Courier,monospace" font-size="11.00">«abstract»</text>
<text text-anchor="start" x="383.5" y="-661.67" font-family="Courier,monospace" font-size="11.00">AbstractPlugin</text>
</g>
<!-- \\RichWeb\\Algorithms\\Interfaces\\PluginInterface -->
<g id="node30" class="node">
<title>\\RichWeb\\Algorithms\\Interfaces\\PluginInterface</title>
<polygon fill="none" stroke="black" points="215.5,-617.47 97.5,-617.47 97.5,-581.47 215.5,-581.47 215.5,-617.47"/>
<text text-anchor="middle" x="156.5" y="-596.67" font-family="Courier,monospace" font-size="11.00">PluginInterface</text>
</g>
<!-- \\RichWeb\\Algorithms\\Abstracts\\AbstractPlugin&#45;&gt;\\RichWeb\\Algorithms\\Interfaces\\PluginInterface -->
<g id="edge3" class="edge">
<title>\\RichWeb\\Algorithms\\Abstracts\\AbstractPlugin&#45;&gt;\\RichWeb\\Algorithms\\Interfaces\\PluginInterface</title>
<path fill="none" stroke="black" stroke-dasharray="1,5" d="M375.42,-653.33C347.34,-644.77 312.48,-634.55 281,-626.47 263.06,-621.87 243.53,-617.37 225.41,-613.4"/>
<polygon fill="none" stroke="black" points="226.02,-609.95 215.51,-611.25 224.54,-616.79 226.02,-609.95"/>
</g>
<!-- \\RichWeb\\Algorithms\\Interfaces\\SubscribesToEventsInterface -->
<g id="node34" class="node">
<title>\\RichWeb\\Algorithms\\Interfaces\\SubscribesToEventsInterface</title>
<polygon fill="none" stroke="black" points="256,-887.47 57,-887.47 57,-851.47 256,-851.47 256,-887.47"/>
<text text-anchor="middle" x="156.5" y="-866.67" font-family="Courier,monospace" font-size="11.00">SubscribesToEventsInterface</text>
</g>
<!-- \\RichWeb\\Algorithms\\Abstracts\\AbstractPlugin&#45;&gt;\\RichWeb\\Algorithms\\Interfaces\\SubscribesToEventsInterface -->
<g id="edge4" class="edge">
<title>\\RichWeb\\Algorithms\\Abstracts\\AbstractPlugin&#45;&gt;\\RichWeb\\Algorithms\\Interfaces\\SubscribesToEventsInterface</title>
<path fill="none" stroke="black" stroke-dasharray="1,5" d="M375.02,-680.84C361.3,-685.58 347.51,-692.47 337,-702.47 288.46,-748.68 332.14,-799.16 281,-842.47 276.16,-846.57 270.85,-850.08 265.22,-853.1"/>
<polygon fill="none" stroke="black" points="263.66,-849.96 256.15,-857.43 266.68,-856.28 263.66,-849.96"/>
</g>
<!-- \\RichWeb\\Algorithms\\Abstracts\\AbstractScripts -->
<g id="node3" class="node">
<title>\\RichWeb\\Algorithms\\Abstracts\\AbstractScripts</title>
<polygon fill="none" stroke="black" points="751,-747.47 633,-747.47 633,-711.47 751,-711.47 751,-747.47"/>
<text text-anchor="start" x="658" y="-732.67" font-family="Courier,monospace" font-size="11.00">«abstract»</text>
<text text-anchor="start" x="641" y="-720.67" font-family="Courier,monospace" font-size="11.00">AbstractScripts</text>
</g>
<!-- \\RichWeb\\Algorithms\\Abstracts\\AbstractScripts&#45;&gt;\\RichWeb\\Algorithms\\Interfaces\\HasRunnerInterface -->
<g id="edge6" class="edge">
<title>\\RichWeb\\Algorithms\\Abstracts\\AbstractScripts&#45;&gt;\\RichWeb\\Algorithms\\Interfaces\\HasRunnerInterface</title>
<path fill="none" stroke="black" stroke-dasharray="1,5" d="M430,-74.47C388.92,-68.93 366.57,-52.43 337,-81.47 241.61,-175.15 369.59,-580.35 281,-680.47 269.33,-693.66 252.84,-701.24 235.7,-705.42"/>
<polygon fill="none" stroke="black" points="234.65,-702.06 225.56,-707.51 236.06,-708.92 234.65,-702.06"/>
</g>
<!-- \\RichWeb\\Algorithms\\Interfaces\\ScriptsInterface -->
<g id="node32" class="node">
<title>\\RichWeb\\Algorithms\\Interfaces\\ScriptsInterface</title>
<polygon fill="none" stroke="black" points="219,-185.47 94,-185.47 94,-149.47 219,-149.47 219,-185.47"/>
<text text-anchor="middle" x="156.5" y="-164.67" font-family="Courier,monospace" font-size="11.00">ScriptsInterface</text>
</g>
<!-- \\RichWeb\\Algorithms\\Abstracts\\AbstractScripts&#45;&gt;\\RichWeb\\Algorithms\\Interfaces\\ScriptsInterface -->
<g id="edge5" class="edge">
<title>\\RichWeb\\Algorithms\\Abstracts\\AbstractScripts&#45;&gt;\\RichWeb\\Algorithms\\Interfaces\\ScriptsInterface</title>
<path fill="none" stroke="black" stroke-dasharray="1,5" d="M632.81,-728.28C613.6,-724.84 593.88,-717.46 581,-702.47 490.68,-597.4 623.7,-178.72 525,-81.47 495.47,-52.38 473.08,-80.02 432,-74.47"/>
<path fill="none" stroke="black" stroke-dasharray="1,5" d="M430,-74.47C388.92,-68.93 374.44,-63.69 337,-81.47 304.34,-96.98 312.49,-122.72 281,-140.47 265.34,-149.3 247.05,-155.25 229.43,-159.25"/>
<polygon fill="none" stroke="black" points="228.23,-155.92 219.15,-161.38 229.65,-162.77 228.23,-155.92"/>
</g>
<!-- \\RichWeb\\Algorithms\\Abstracts\\AbstractSingletonPlugin -->
<g id="node4" class="node">
<title>\\RichWeb\\Algorithms\\Abstracts\\AbstractSingletonPlugin</title>
<polygon fill="none" stroke="black" points="778,-693.47 606,-693.47 606,-657.47 778,-657.47 778,-693.47"/>
<text text-anchor="start" x="658" y="-678.67" font-family="Courier,monospace" font-size="11.00">«abstract»</text>
<text text-anchor="start" x="614" y="-666.67" font-family="Courier,monospace" font-size="11.00">AbstractSingletonPlugin</text>
</g>
<!-- \\RichWeb\\Algorithms\\Abstracts\\AbstractSingletonPlugin&#45;&gt;\\RichWeb\\Algorithms\\Abstracts\\AbstractPlugin -->
<g id="edge7" class="edge">
<title>\\RichWeb\\Algorithms\\Abstracts\\AbstractSingletonPlugin&#45;&gt;\\RichWeb\\Algorithms\\Abstracts\\AbstractPlugin</title>
<path fill="none" stroke="black" d="M605.83,-673.83C570.45,-673.15 530.03,-672.37 497.09,-671.73"/>
<polygon fill="none" stroke="black" points="496.73,-668.22 486.67,-671.53 496.6,-675.22 496.73,-668.22"/>
</g>
<!-- \\RichWeb\\Algorithms\\Interfaces\\SingletonPluginInterface -->
<g id="node33" class="node">
<title>\\RichWeb\\Algorithms\\Interfaces\\SingletonPluginInterface</title>
<polygon fill="none" stroke="black" points="246,-131.47 67,-131.47 67,-95.47 246,-95.47 246,-131.47"/>
<text text-anchor="middle" x="156.5" y="-110.67" font-family="Courier,monospace" font-size="11.00">SingletonPluginInterface</text>
</g>
<!-- \\RichWeb\\Algorithms\\Abstracts\\AbstractSingletonPlugin&#45;&gt;\\RichWeb\\Algorithms\\Interfaces\\SingletonPluginInterface -->
<g id="edge8" class="edge">
<title>\\RichWeb\\Algorithms\\Abstracts\\AbstractSingletonPlugin&#45;&gt;\\RichWeb\\Algorithms\\Interfaces\\SingletonPluginInterface</title>
<path fill="none" stroke="black" stroke-dasharray="1,5" d="M605.79,-666.21C596.37,-662.02 587.75,-656.28 581,-648.47 496.42,-550.72 620.7,-156.37 525,-69.47 463.14,-13.31 419.65,-57.2 337,-69.47 311.27,-73.29 306.17,-79.91 281,-86.47 272.27,-88.75 263.15,-90.99 254,-93.15"/>
<polygon fill="none" stroke="black" points="253.03,-89.78 244.08,-95.46 254.61,-96.6 253.03,-89.78"/>
</g>
<!-- \\RichWeb\\Algorithms\\Abstracts\\AbstractSyntaxHighlighter -->
<g id="node5" class="node">
<title>\\RichWeb\\Algorithms\\Abstracts\\AbstractSyntaxHighlighter</title>
<polygon fill="none" stroke="black" points="784.5,-639.47 599.5,-639.47 599.5,-603.47 784.5,-603.47 784.5,-639.47"/>
<text text-anchor="start" x="658" y="-624.67" font-family="Courier,monospace" font-size="11.00">«abstract»</text>
<text text-anchor="start" x="607.5" y="-612.67" font-family="Courier,monospace" font-size="11.00">AbstractSyntaxHighlighter</text>
</g>
<!-- \\RichWeb\\Algorithms\\Interfaces\\SyntaxHighlighterInterface -->
<g id="node35" class="node">
<title>\\RichWeb\\Algorithms\\Interfaces\\SyntaxHighlighterInterface</title>
<polygon fill="none" stroke="black" points="252.5,-77.47 60.5,-77.47 60.5,-41.47 252.5,-41.47 252.5,-77.47"/>
<text text-anchor="middle" x="156.5" y="-56.67" font-family="Courier,monospace" font-size="11.00">SyntaxHighlighterInterface</text>
</g>
<!-- \\RichWeb\\Algorithms\\Abstracts\\AbstractSyntaxHighlighter&#45;&gt;\\RichWeb\\Algorithms\\Interfaces\\SyntaxHighlighterInterface -->
<g id="edge9" class="edge">
<title>\\RichWeb\\Algorithms\\Abstracts\\AbstractSyntaxHighlighter&#45;&gt;\\RichWeb\\Algorithms\\Interfaces\\SyntaxHighlighterInterface</title>
<path fill="none" stroke="black" stroke-dasharray="1,5" d="M688.72,-603.23C676.96,-512.47 620.09,-111.23 525,-39.47 432.31,30.47 286.03,-8.96 208.95,-37.74"/>
<polygon fill="none" stroke="black" points="207.54,-34.53 199.45,-41.36 210.04,-41.07 207.54,-34.53"/>
</g>
<!-- \\RichWeb\\Algorithms\\Admin\\Abstracts\\AbstractMetaBox -->
<g id="node6" class="node">
<title>\\RichWeb\\Algorithms\\Admin\\Abstracts\\AbstractMetaBox</title>
<polygon fill="none" stroke="black" points="490,-1185.47 372,-1185.47 372,-1149.47 490,-1149.47 490,-1185.47"/>
<text text-anchor="start" x="397" y="-1170.67" font-family="Courier,monospace" font-size="11.00">«abstract»</text>
<text text-anchor="start" x="380" y="-1158.67" font-family="Courier,monospace" font-size="11.00">AbstractMetaBox</text>
</g>
<!-- \\RichWeb\\Algorithms\\Admin\\Interfaces\\MetaBoxInterface -->
<g id="node8" class="node">
<title>\\RichWeb\\Algorithms\\Admin\\Interfaces\\MetaBoxInterface</title>
<polygon fill="none" stroke="black" points="219,-1185.47 94,-1185.47 94,-1149.47 219,-1149.47 219,-1185.47"/>
<text text-anchor="middle" x="156.5" y="-1164.67" font-family="Courier,monospace" font-size="11.00">MetaBoxInterface</text>
</g>
<!-- \\RichWeb\\Algorithms\\Admin\\Abstracts\\AbstractMetaBox&#45;&gt;\\RichWeb\\Algorithms\\Admin\\Interfaces\\MetaBoxInterface -->
<g id="edge10" class="edge">
<title>\\RichWeb\\Algorithms\\Admin\\Abstracts\\AbstractMetaBox&#45;&gt;\\RichWeb\\Algorithms\\Admin\\Interfaces\\MetaBoxInterface</title>
<path fill="none" stroke="black" stroke-dasharray="1,5" d="M371.88,-1167.47C330.26,-1167.47 273.95,-1167.47 229.49,-1167.47"/>
<polygon fill="none" stroke="black" points="229.32,-1163.97 219.32,-1167.47 229.32,-1170.97 229.32,-1163.97"/>
</g>
<!-- \\RichWeb\\Algorithms\\Admin\\Abstracts\\AbstractPostType -->
<g id="node7" class="node">
<title>\\RichWeb\\Algorithms\\Admin\\Abstracts\\AbstractPostType</title>
<polygon fill="none" stroke="black" points="493.5,-1239.47 368.5,-1239.47 368.5,-1203.47 493.5,-1203.47 493.5,-1239.47"/>
<text text-anchor="start" x="397" y="-1224.67" font-family="Courier,monospace" font-size="11.00">«abstract»</text>
<text text-anchor="start" x="376.5" y="-1212.67" font-family="Courier,monospace" font-size="11.00">AbstractPostType</text>
</g>
<!-- \\RichWeb\\Algorithms\\Admin\\Interfaces\\PostTypeInterface -->
<g id="node9" class="node">
<title>\\RichWeb\\Algorithms\\Admin\\Interfaces\\PostTypeInterface</title>
<polygon fill="none" stroke="black" points="222,-1239.47 91,-1239.47 91,-1203.47 222,-1203.47 222,-1239.47"/>
<text text-anchor="middle" x="156.5" y="-1218.67" font-family="Courier,monospace" font-size="11.00">PostTypeInterface</text>
</g>
<!-- \\RichWeb\\Algorithms\\Admin\\Abstracts\\AbstractPostType&#45;&gt;\\RichWeb\\Algorithms\\Admin\\Interfaces\\PostTypeInterface -->
<g id="edge11" class="edge">
<title>\\RichWeb\\Algorithms\\Admin\\Abstracts\\AbstractPostType&#45;&gt;\\RichWeb\\Algorithms\\Admin\\Interfaces\\PostTypeInterface</title>
<path fill="none" stroke="black" stroke-dasharray="1,5" d="M368.17,-1221.47C327.9,-1221.47 275.12,-1221.47 232.46,-1221.47"/>
<polygon fill="none" stroke="black" points="232.41,-1217.97 222.41,-1221.47 232.41,-1224.97 232.41,-1217.97"/>
</g>
<!-- \\RichWeb\\Algorithms\\Admin\\Abstracts\\AbstractPostType&#45;&gt;\\RichWeb\\Algorithms\\Interfaces\\HasRunnerInterface -->
<g id="edge12" class="edge">
<title>\\RichWeb\\Algorithms\\Admin\\Abstracts\\AbstractPostType&#45;&gt;\\RichWeb\\Algorithms\\Interfaces\\HasRunnerInterface</title>
<path fill="none" stroke="black" stroke-dasharray="1,5" d="M368.04,-1214.31C356.23,-1210.21 345.06,-1203.95 337,-1194.47 203.58,-1037.57 419.62,-886.79 281,-734.47 269.21,-721.51 252.76,-714.01 235.71,-709.82"/>
<polygon fill="none" stroke="black" points="236.13,-706.34 225.63,-707.72 234.7,-713.19 236.13,-706.34"/>
</g>
<!-- \\RichWeb\\Algorithms\\Admin\\MetaBoxes\\AlgorithmCodeExamplesMetaBox -->
<g id="node10" class="node">
<title>\\RichWeb\\Algorithms\\Admin\\MetaBoxes\\AlgorithmCodeExamplesMetaBox</title>
<polygon fill="none" stroke="black" points="795,-1163.47 589,-1163.47 589,-1127.47 795,-1127.47 795,-1163.47"/>
<text text-anchor="middle" x="692" y="-1142.67" font-family="Courier,monospace" font-size="11.00">AlgorithmCodeExamplesMetaBox</text>
</g>
<!-- \\RichWeb\\Algorithms\\Admin\\MetaBoxes\\AlgorithmCodeExamplesMetaBox&#45;&gt;\\RichWeb\\Algorithms\\Admin\\Abstracts\\AbstractMetaBox -->
<g id="edge14" class="edge">
<title>\\RichWeb\\Algorithms\\Admin\\MetaBoxes\\AlgorithmCodeExamplesMetaBox&#45;&gt;\\RichWeb\\Algorithms\\Admin\\Abstracts\\AbstractMetaBox</title>
<path fill="none" stroke="black" d="M588.64,-1154.17C558.92,-1156.69 527.21,-1159.39 500.15,-1161.68"/>
<polygon fill="none" stroke="black" points="499.69,-1158.21 490.02,-1162.54 500.28,-1165.19 499.69,-1158.21"/>
</g>
<!-- \\RichWeb\\Algorithms\\Admin\\MetaBoxes\\AlgorithmPackageMetaBox -->
<g id="node11" class="node">
<title>\\RichWeb\\Algorithms\\Admin\\MetaBoxes\\AlgorithmPackageMetaBox</title>
<polygon fill="none" stroke="black" points="778,-1217.47 606,-1217.47 606,-1181.47 778,-1181.47 778,-1217.47"/>
<text text-anchor="middle" x="692" y="-1196.67" font-family="Courier,monospace" font-size="11.00">AlgorithmPackageMetaBox</text>
</g>
<!-- \\RichWeb\\Algorithms\\Admin\\MetaBoxes\\AlgorithmPackageMetaBox&#45;&gt;\\RichWeb\\Algorithms\\Admin\\Abstracts\\AbstractMetaBox -->
<g id="edge15" class="edge">
<title>\\RichWeb\\Algorithms\\Admin\\MetaBoxes\\AlgorithmPackageMetaBox&#45;&gt;\\RichWeb\\Algorithms\\Admin\\Abstracts\\AbstractMetaBox</title>
<path fill="none" stroke="black" d="M605.83,-1188.95C571.64,-1184.73 532.76,-1179.92 500.46,-1175.93"/>
<polygon fill="none" stroke="black" points="500.56,-1172.42 490.21,-1174.66 499.71,-1179.36 500.56,-1172.42"/>
</g>
<!-- \\RichWeb\\Algorithms\\Admin\\MetaBoxes\\MetaBoxes -->
<g id="node12" class="node">
<title>\\RichWeb\\Algorithms\\Admin\\MetaBoxes\\MetaBoxes</title>
<polygon fill="none" stroke="black" points="730.5,-1109.47 653.5,-1109.47 653.5,-1073.47 730.5,-1073.47 730.5,-1109.47"/>
<text text-anchor="middle" x="692" y="-1088.67" font-family="Courier,monospace" font-size="11.00">MetaBoxes</text>
</g>
<!-- \\RichWeb\\Algorithms\\Admin\\MetaBoxes\\MetaBoxes&#45;&gt;\\RichWeb\\Algorithms\\Interfaces\\HasRunnerInterface -->
<g id="edge16" class="edge">
<title>\\RichWeb\\Algorithms\\Admin\\MetaBoxes\\MetaBoxes&#45;&gt;\\RichWeb\\Algorithms\\Interfaces\\HasRunnerInterface</title>
<path fill="none" stroke="black" stroke-dasharray="1,5" d="M653.25,-1093.55C629.56,-1092.76 600.01,-1087.64 581,-1069.47 506.18,-997.98 604.76,-909.41 525,-843.47 493.1,-817.1 469.88,-855.16 432,-838.47"/>
</g>
<!-- \\RichWeb\\Algorithms\\Admin\\AlgorithmPostType -->
<g id="node13" class="node">
<title>\\RichWeb\\Algorithms\\Admin\\AlgorithmPostType</title>
<polygon fill="none" stroke="black" points="757.5,-1289.47 626.5,-1289.47 626.5,-1253.47 757.5,-1253.47 757.5,-1289.47"/>
<text text-anchor="middle" x="692" y="-1268.67" font-family="Courier,monospace" font-size="11.00">AlgorithmPostType</text>
</g>
<!-- \\RichWeb\\Algorithms\\Admin\\AlgorithmPostType&#45;&gt;\\RichWeb\\Algorithms\\Admin\\Abstracts\\AbstractPostType -->
<g id="edge13" class="edge">
<title>\\RichWeb\\Algorithms\\Admin\\AlgorithmPostType&#45;&gt;\\RichWeb\\Algorithms\\Admin\\Abstracts\\AbstractPostType</title>
<path fill="none" stroke="black" d="M626.31,-1258.98C589.04,-1251.79 542.11,-1242.73 503.71,-1235.32"/>
<polygon fill="none" stroke="black" points="504.12,-1231.83 493.64,-1233.37 502.79,-1238.7 504.12,-1231.83"/>
</g>
<!-- \\RichWeb\\Algorithms\\CodeExamples\\CodeExample -->
<g id="node14" class="node">
<title>\\RichWeb\\Algorithms\\CodeExamples\\CodeExample</title>
<polygon fill="none" stroke="black" points="476.5,-1021.47 385.5,-1021.47 385.5,-985.47 476.5,-985.47 476.5,-1021.47"/>
<text text-anchor="middle" x="431" y="-1000.67" font-family="Courier,monospace" font-size="11.00">CodeExample</text>
</g>
<!-- \\RichWeb\\Algorithms\\Interfaces\\CodeExampleInterface -->
<g id="node23" class="node">
<title>\\RichWeb\\Algorithms\\Interfaces\\CodeExampleInterface</title>
<polygon fill="none" stroke="black" points="232.5,-995.47 80.5,-995.47 80.5,-959.47 232.5,-959.47 232.5,-995.47"/>
<text text-anchor="middle" x="156.5" y="-974.67" font-family="Courier,monospace" font-size="11.00">CodeExampleInterface</text>
</g>
<!-- \\RichWeb\\Algorithms\\CodeExamples\\CodeExample&#45;&gt;\\RichWeb\\Algorithms\\Interfaces\\CodeExampleInterface -->
<g id="edge17" class="edge">
<title>\\RichWeb\\Algorithms\\CodeExamples\\CodeExample&#45;&gt;\\RichWeb\\Algorithms\\Interfaces\\CodeExampleInterface</title>
<path fill="none" stroke="black" stroke-dasharray="1,5" d="M385.31,-999.21C346.76,-995.53 290.03,-990.12 242.82,-985.61"/>
<polygon fill="none" stroke="black" points="242.88,-982.1 232.59,-984.64 242.21,-989.07 242.88,-982.1"/>
</g>
<!-- Stringable -->
<g id="node54" class="node">
<title>Stringable</title>
<ellipse fill="none" stroke="black" cx="156.5" cy="-1399.47" rx="46.59" ry="18"/>
<text text-anchor="middle" x="156.5" y="-1395.77" font-family="Times New Roman,serif" font-size="14.00" fill="gray">Stringable</text>
</g>
<!-- \\RichWeb\\Algorithms\\CodeExamples\\CodeExample&#45;&gt;Stringable -->
<g id="edge18" class="edge">
<title>\\RichWeb\\Algorithms\\CodeExamples\\CodeExample&#45;&gt;Stringable</title>
<path fill="none" stroke="black" stroke-dasharray="1,5" d="M415.45,-1021.75C395.93,-1046.82 360.95,-1093.77 337,-1137.47 305.98,-1194.08 316.46,-1217.54 281,-1271.47 253.82,-1312.8 212.3,-1352.53 185.03,-1376.47"/>
<polygon fill="none" stroke="black" points="182.66,-1373.89 177.4,-1383.09 187.24,-1379.18 182.66,-1373.89"/>
</g>
<!-- \\RichWeb\\Algorithms\\CodeExamples\\CodeExamplesLoader -->
<g id="node15" class="node">
<title>\\RichWeb\\Algorithms\\CodeExamples\\CodeExamplesLoader</title>
<polygon fill="none" stroke="black" points="500,-967.47 362,-967.47 362,-931.47 500,-931.47 500,-967.47"/>
<text text-anchor="middle" x="431" y="-946.67" font-family="Courier,monospace" font-size="11.00">CodeExamplesLoader</text>
</g>
<!-- \\RichWeb\\Algorithms\\Interfaces\\CodeExamplesLoaderInterface -->
<g id="node24" class="node">
<title>\\RichWeb\\Algorithms\\Interfaces\\CodeExamplesLoaderInterface</title>
<polygon fill="none" stroke="black" points="256,-941.47 57,-941.47 57,-905.47 256,-905.47 256,-941.47"/>
<text text-anchor="middle" x="156.5" y="-920.67" font-family="Courier,monospace" font-size="11.00">CodeExamplesLoaderInterface</text>
</g>
<!-- \\RichWeb\\Algorithms\\CodeExamples\\CodeExamplesLoader&#45;&gt;\\RichWeb\\Algorithms\\Interfaces\\CodeExamplesLoaderInterface -->
<g id="edge19" class="edge">
<title>\\RichWeb\\Algorithms\\CodeExamples\\CodeExamplesLoader&#45;&gt;\\RichWeb\\Algorithms\\Interfaces\\CodeExamplesLoaderInterface</title>
<path fill="none" stroke="black" stroke-dasharray="1,5" d="M361.94,-942.98C332.94,-940.21 298.38,-936.91 266.01,-933.83"/>
<polygon fill="none" stroke="black" points="266.33,-930.34 256.04,-932.87 265.67,-937.31 266.33,-930.34"/>
</g>
<!-- \\RichWeb\\Algorithms\\CodeExamples\\CodeExamplesLoader&#45;&gt;\\RichWeb\\Algorithms\\Interfaces\\SubscribesToEventsInterface -->
<g id="edge20" class="edge">
<title>\\RichWeb\\Algorithms\\CodeExamples\\CodeExamplesLoader&#45;&gt;\\RichWeb\\Algorithms\\Interfaces\\SubscribesToEventsInterface</title>
<path fill="none" stroke="black" stroke-dasharray="1,5" d="M376.8,-931.45C363.76,-926.95 349.85,-922.09 337,-917.47 311.99,-908.48 306.49,-904 281,-896.47 273.29,-894.2 265.26,-892.02 257.16,-889.96"/>
<polygon fill="none" stroke="black" points="257.81,-886.52 247.26,-887.51 256.13,-893.31 257.81,-886.52"/>
</g>
<!-- \\RichWeb\\Algorithms\\Events\\WPEventCreator -->
<g id="node16" class="node">
<title>\\RichWeb\\Algorithms\\Events\\WPEventCreator</title>
<polygon fill="none" stroke="black" points="486.5,-317.47 375.5,-317.47 375.5,-281.47 486.5,-281.47 486.5,-317.47"/>
<text text-anchor="middle" x="431" y="-296.67" font-family="Courier,monospace" font-size="11.00">WPEventCreator</text>
</g>
<!-- \\RichWeb\\Algorithms\\Interfaces\\EventCreatorInterface -->
<g id="node25" class="node">
<title>\\RichWeb\\Algorithms\\Interfaces\\EventCreatorInterface</title>
<polygon fill="none" stroke="black" points="235.5,-347.47 77.5,-347.47 77.5,-311.47 235.5,-311.47 235.5,-347.47"/>
<text text-anchor="middle" x="156.5" y="-326.67" font-family="Courier,monospace" font-size="11.00">EventCreatorInterface</text>
</g>
<!-- \\RichWeb\\Algorithms\\Events\\WPEventCreator&#45;&gt;\\RichWeb\\Algorithms\\Interfaces\\EventCreatorInterface -->
<g id="edge21" class="edge">
<title>\\RichWeb\\Algorithms\\Events\\WPEventCreator&#45;&gt;\\RichWeb\\Algorithms\\Interfaces\\EventCreatorInterface</title>
<path fill="none" stroke="black" stroke-dasharray="1,5" d="M375.18,-305.51C338.13,-309.59 288.39,-315.06 245.81,-319.75"/>
<polygon fill="none" stroke="black" points="245.28,-316.29 235.72,-320.86 246.04,-323.25 245.28,-316.29"/>
</g>
<!-- \\RichWeb\\Algorithms\\Events\\WPEventSubscriber -->
<g id="node17" class="node">
<title>\\RichWeb\\Algorithms\\Events\\WPEventSubscriber</title>
<polygon fill="none" stroke="black" points="496.5,-371.47 365.5,-371.47 365.5,-335.47 496.5,-335.47 496.5,-371.47"/>
<text text-anchor="middle" x="431" y="-350.67" font-family="Courier,monospace" font-size="11.00">WPEventSubscriber</text>
</g>
<!-- \\RichWeb\\Algorithms\\Interfaces\\EventSubscriberInterface -->
<g id="node26" class="node">
<title>\\RichWeb\\Algorithms\\Interfaces\\EventSubscriberInterface</title>
<polygon fill="none" stroke="black" points="246,-401.47 67,-401.47 67,-365.47 246,-365.47 246,-401.47"/>
<text text-anchor="middle" x="156.5" y="-380.67" font-family="Courier,monospace" font-size="11.00">EventSubscriberInterface</text>
</g>
<!-- \\RichWeb\\Algorithms\\Events\\WPEventSubscriber&#45;&gt;\\RichWeb\\Algorithms\\Interfaces\\EventSubscriberInterface -->
<g id="edge22" class="edge">
<title>\\RichWeb\\Algorithms\\Events\\WPEventSubscriber&#45;&gt;\\RichWeb\\Algorithms\\Interfaces\\EventSubscriberInterface</title>
<path fill="none" stroke="black" stroke-dasharray="1,5" d="M365.42,-360.58C332.84,-364.17 292.61,-368.6 256.24,-372.6"/>
<polygon fill="none" stroke="black" points="255.65,-369.15 246.1,-373.72 256.42,-376.1 255.65,-369.15"/>
</g>
<!-- \\RichWeb\\Algorithms\\Interfaces\\AlgorithmPackageInterface -->
<g id="node19" class="node">
<title>\\RichWeb\\Algorithms\\Interfaces\\AlgorithmPackageInterface</title>
<polygon fill="none" stroke="black" points="249,-509.47 64,-509.47 64,-473.47 249,-473.47 249,-509.47"/>
<text text-anchor="middle" x="156.5" y="-488.67" font-family="Courier,monospace" font-size="11.00">AlgorithmPackageInterface</text>
</g>
<!-- \\RichWeb\\Algorithms\\Interfaces\\AlgorithmPackageLoaderInterface -->
<g id="node20" class="node">
<title>\\RichWeb\\Algorithms\\Interfaces\\AlgorithmPackageLoaderInterface</title>
<polygon fill="none" stroke="black" points="269.5,-563.47 43.5,-563.47 43.5,-527.47 269.5,-527.47 269.5,-563.47"/>
<text text-anchor="middle" x="156.5" y="-542.67" font-family="Courier,monospace" font-size="11.00">AlgorithmPackageLoaderInterface</text>
</g>
<!-- \\RichWeb\\Algorithms\\Interfaces\\AlgorithmPackageManagerInterface -->
<g id="node21" class="node">
<title>\\RichWeb\\Algorithms\\Interfaces\\AlgorithmPackageManagerInterface</title>
<polygon fill="none" stroke="black" points="273,-455.47 40,-455.47 40,-419.47 273,-419.47 273,-455.47"/>
<text text-anchor="middle" x="156.5" y="-434.67" font-family="Courier,monospace" font-size="11.00">AlgorithmPackageManagerInterface</text>
</g>
<!-- \\RichWeb\\Algorithms\\Interfaces\\AutoloaderInterface -->
<g id="node22" class="node">
<title>\\RichWeb\\Algorithms\\Interfaces\\AutoloaderInterface</title>
<polygon fill="none" stroke="black" points="229,-239.47 84,-239.47 84,-203.47 229,-203.47 229,-239.47"/>
<text text-anchor="middle" x="156.5" y="-218.67" font-family="Courier,monospace" font-size="11.00">AutoloaderInterface</text>
</g>
<!-- \\RichWeb\\Algorithms\\Interfaces\\FileLoaderInterface -->
<g id="node27" class="node">
<title>\\RichWeb\\Algorithms\\Interfaces\\FileLoaderInterface</title>
<polygon fill="none" stroke="black" points="229,-293.47 84,-293.47 84,-257.47 229,-257.47 229,-293.47"/>
<text text-anchor="middle" x="156.5" y="-272.67" font-family="Courier,monospace" font-size="11.00">FileLoaderInterface</text>
</g>
<!-- \\RichWeb\\Algorithms\\Interfaces\\LanguagesInterface -->
<g id="node29" class="node">
<title>\\RichWeb\\Algorithms\\Interfaces\\LanguagesInterface</title>
<polygon fill="none" stroke="black" points="225.5,-833.47 87.5,-833.47 87.5,-797.47 225.5,-797.47 225.5,-833.47"/>
<text text-anchor="middle" x="156.5" y="-812.67" font-family="Courier,monospace" font-size="11.00">LanguagesInterface</text>
</g>
<!-- \\RichWeb\\Algorithms\\Interfaces\\ProjectInterface -->
<g id="node31" class="node">
<title>\\RichWeb\\Algorithms\\Interfaces\\ProjectInterface</title>
<polygon fill="none" stroke="black" points="219,-779.47 94,-779.47 94,-743.47 219,-743.47 219,-779.47"/>
<text text-anchor="middle" x="156.5" y="-758.67" font-family="Courier,monospace" font-size="11.00">ProjectInterface</text>
</g>
<!-- \\RichWeb\\Algorithms\\Loaders\\Autoloader -->
<g id="node36" class="node">
<title>\\RichWeb\\Algorithms\\Loaders\\Autoloader</title>
<polygon fill="none" stroke="black" points="473,-129.47 389,-129.47 389,-93.47 473,-93.47 473,-129.47"/>
<text text-anchor="middle" x="431" y="-108.67" font-family="Courier,monospace" font-size="11.00">Autoloader</text>
</g>
<!-- \\RichWeb\\Algorithms\\Loaders\\Autoloader&#45;&gt;\\RichWeb\\Algorithms\\Interfaces\\AutoloaderInterface -->
<g id="edge23" class="edge">
<title>\\RichWeb\\Algorithms\\Loaders\\Autoloader&#45;&gt;\\RichWeb\\Algorithms\\Interfaces\\AutoloaderInterface</title>
<path fill="none" stroke="black" stroke-dasharray="1,5" d="M388.83,-118.73C371.98,-122.87 352.77,-129.15 337,-138.47 306.7,-156.39 311.88,-177.59 281,-194.47 268.17,-201.49 253.65,-206.68 239.2,-210.52"/>
<polygon fill="none" stroke="black" points="238.1,-207.19 229.22,-212.97 239.77,-213.99 238.1,-207.19"/>
</g>
<!-- \\RichWeb\\Algorithms\\Loaders\\ContentLoader -->
<g id="node37" class="node">
<title>\\RichWeb\\Algorithms\\Loaders\\ContentLoader</title>
<polygon fill="none" stroke="black" points="483,-183.47 379,-183.47 379,-147.47 483,-147.47 483,-183.47"/>
<text text-anchor="middle" x="431" y="-162.67" font-family="Courier,monospace" font-size="11.00">ContentLoader</text>
</g>
<!-- \\RichWeb\\Algorithms\\Loaders\\FileLoader -->
<g id="node38" class="node">
<title>\\RichWeb\\Algorithms\\Loaders\\FileLoader</title>
<polygon fill="none" stroke="black" points="473,-237.47 389,-237.47 389,-201.47 473,-201.47 473,-237.47"/>
<text text-anchor="middle" x="431" y="-216.67" font-family="Courier,monospace" font-size="11.00">FileLoader</text>
</g>
<!-- \\RichWeb\\Algorithms\\Loaders\\FileLoader&#45;&gt;\\RichWeb\\Algorithms\\Interfaces\\FileLoaderInterface -->
<g id="edge24" class="edge">
<title>\\RichWeb\\Algorithms\\Loaders\\FileLoader&#45;&gt;\\RichWeb\\Algorithms\\Interfaces\\FileLoaderInterface</title>
<path fill="none" stroke="black" stroke-dasharray="1,5" d="M388.91,-227.92C349.4,-236.04 288.58,-248.53 239.21,-258.68"/>
<polygon fill="none" stroke="black" points="238.27,-255.3 229.18,-260.74 239.68,-262.16 238.27,-255.3"/>
</g>
<!-- \\RichWeb\\Algorithms\\Packages\\AlgorithmPackage -->
<g id="node39" class="node">
<title>\\RichWeb\\Algorithms\\Packages\\AlgorithmPackage</title>
<polygon fill="none" stroke="black" points="493.5,-505.47 368.5,-505.47 368.5,-469.47 493.5,-469.47 493.5,-505.47"/>
<text text-anchor="middle" x="431" y="-484.67" font-family="Courier,monospace" font-size="11.00">AlgorithmPackage</text>
</g>
<!-- \\RichWeb\\Algorithms\\Packages\\AlgorithmPackage&#45;&gt;\\RichWeb\\Algorithms\\Interfaces\\AlgorithmPackageInterface -->
<g id="edge25" class="edge">
<title>\\RichWeb\\Algorithms\\Packages\\AlgorithmPackage&#45;&gt;\\RichWeb\\Algorithms\\Interfaces\\AlgorithmPackageInterface</title>
<path fill="none" stroke="black" stroke-dasharray="1,5" d="M368.17,-488.38C336.01,-488.85 295.89,-489.44 259.31,-489.98"/>
<polygon fill="none" stroke="black" points="259.04,-486.48 249.09,-490.13 259.14,-493.48 259.04,-486.48"/>
</g>
<!-- \\RichWeb\\Algorithms\\Packages\\AlgorithmPackageLoader -->
<g id="node40" class="node">
<title>\\RichWeb\\Algorithms\\Packages\\AlgorithmPackageLoader</title>
<polygon fill="none" stroke="black" points="513.5,-559.47 348.5,-559.47 348.5,-523.47 513.5,-523.47 513.5,-559.47"/>
<text text-anchor="middle" x="431" y="-538.67" font-family="Courier,monospace" font-size="11.00">AlgorithmPackageLoader</text>
</g>
<!-- \\RichWeb\\Algorithms\\Packages\\AlgorithmPackageLoader&#45;&gt;\\RichWeb\\Algorithms\\Interfaces\\AlgorithmPackageLoaderInterface -->
<g id="edge26" class="edge">
<title>\\RichWeb\\Algorithms\\Packages\\AlgorithmPackageLoader&#45;&gt;\\RichWeb\\Algorithms\\Interfaces\\AlgorithmPackageLoaderInterface</title>
<path fill="none" stroke="black" stroke-dasharray="1,5" d="M348.24,-542.67C326.73,-542.99 303.05,-543.34 279.92,-543.68"/>
<polygon fill="none" stroke="black" points="279.63,-540.18 269.69,-543.83 279.74,-547.18 279.63,-540.18"/>
</g>
<!-- \\RichWeb\\Algorithms\\Packages\\AlgorithmPackageLoader&#45;&gt;\\RichWeb\\Algorithms\\Interfaces\\HasRunnerInterface -->
<g id="edge27" class="edge">
<title>\\RichWeb\\Algorithms\\Packages\\AlgorithmPackageLoader&#45;&gt;\\RichWeb\\Algorithms\\Interfaces\\HasRunnerInterface</title>
<path fill="none" stroke="black" stroke-dasharray="1,5" d="M385.31,-559.66C368.89,-567.77 350.93,-578.46 337,-591.47 302.84,-623.37 319.25,-653.62 281,-680.47 267.61,-689.87 251.55,-696.09 235.51,-700.18"/>
<polygon fill="none" stroke="black" points="234.52,-696.81 225.55,-702.46 236.08,-703.64 234.52,-696.81"/>
</g>
<!-- \\RichWeb\\Algorithms\\Packages\\AlgorithmPackageManager -->
<g id="node41" class="node">
<title>\\RichWeb\\Algorithms\\Packages\\AlgorithmPackageManager</title>
<polygon fill="none" stroke="black" points="517,-451.47 345,-451.47 345,-415.47 517,-415.47 517,-451.47"/>
<text text-anchor="middle" x="431" y="-430.67" font-family="Courier,monospace" font-size="11.00">AlgorithmPackageManager</text>
</g>
<!-- \\RichWeb\\Algorithms\\Packages\\AlgorithmPackageManager&#45;&gt;\\RichWeb\\Algorithms\\Interfaces\\AlgorithmPackageManagerInterface -->
<g id="edge28" class="edge">
<title>\\RichWeb\\Algorithms\\Packages\\AlgorithmPackageManager&#45;&gt;\\RichWeb\\Algorithms\\Interfaces\\AlgorithmPackageManagerInterface</title>
<path fill="none" stroke="black" stroke-dasharray="1,5" d="M344.9,-434.72C325.44,-435.01 304.35,-435.32 283.58,-435.62"/>
<polygon fill="none" stroke="black" points="283.37,-432.12 273.42,-435.77 283.47,-439.12 283.37,-432.12"/>
</g>
<!-- \\RichWeb\\Algorithms\\Setup\\Scripts\\FrontendScriptLoader -->
<g id="node42" class="node">
<title>\\RichWeb\\Algorithms\\Setup\\Scripts\\FrontendScriptLoader</title>
<polygon fill="none" stroke="black" points="1052.5,-974.47 900.5,-974.47 900.5,-938.47 1052.5,-938.47 1052.5,-974.47"/>
<text text-anchor="middle" x="976.5" y="-953.67" font-family="Courier,monospace" font-size="11.00">FrontendScriptLoader</text>
</g>
<!-- \\RichWeb\\Algorithms\\Setup\\AlgorithmScripts -->
<g id="node43" class="node">
<title>\\RichWeb\\Algorithms\\Setup\\AlgorithmScripts</title>
<polygon fill="none" stroke="black" points="1039,-758.47 914,-758.47 914,-722.47 1039,-722.47 1039,-758.47"/>
<text text-anchor="middle" x="976.5" y="-737.67" font-family="Courier,monospace" font-size="11.00">AlgorithmScripts</text>
</g>
<!-- \\RichWeb\\Algorithms\\Setup\\AlgorithmScripts&#45;&gt;\\RichWeb\\Algorithms\\Abstracts\\AbstractScripts -->
<g id="edge32" class="edge">
<title>\\RichWeb\\Algorithms\\Setup\\AlgorithmScripts&#45;&gt;\\RichWeb\\Algorithms\\Abstracts\\AbstractScripts</title>
<path fill="none" stroke="black" d="M913.85,-738.07C868.88,-736.32 807.91,-733.95 761.42,-732.14"/>
<polygon fill="none" stroke="black" points="761.27,-728.63 751.14,-731.74 761,-735.62 761.27,-728.63"/>
</g>
<!-- \\RichWeb\\Algorithms\\Setup\\Languages -->
<g id="node44" class="node">
<title>\\RichWeb\\Algorithms\\Setup\\Languages</title>
<polygon fill="none" stroke="black" points="1015,-920.47 938,-920.47 938,-884.47 1015,-884.47 1015,-920.47"/>
<text text-anchor="middle" x="976.5" y="-899.67" font-family="Courier,monospace" font-size="11.00">Languages</text>
</g>
<!-- \\RichWeb\\Algorithms\\Setup\\Languages&#45;&gt;\\RichWeb\\Algorithms\\Interfaces\\HasRunnerInterface -->
<g id="edge34" class="edge">
<title>\\RichWeb\\Algorithms\\Setup\\Languages&#45;&gt;\\RichWeb\\Algorithms\\Interfaces\\HasRunnerInterface</title>
<path fill="none" stroke="black" stroke-dasharray="1,5" d="M691,-902.47C612.82,-898.22 601.78,-858.84 525,-843.47 504.71,-839.41 450.92,-846.86 432,-838.47"/>
<path fill="none" stroke="black" stroke-dasharray="1,5" d="M937.99,-903.77C883.85,-905.34 780.66,-907.24 693,-902.47"/>
</g>
<!-- \\RichWeb\\Algorithms\\Setup\\Languages&#45;&gt;\\RichWeb\\Algorithms\\Interfaces\\LanguagesInterface -->
<g id="edge33" class="edge">
<title>\\RichWeb\\Algorithms\\Setup\\Languages&#45;&gt;\\RichWeb\\Algorithms\\Interfaces\\LanguagesInterface</title>
<path fill="none" stroke="black" stroke-dasharray="1,5" d="M691,-902.47C651.71,-900.45 372.76,-923.86 337,-907.47 302.34,-891.58 313.76,-861.99 281,-842.47 267.26,-834.28 251.34,-828.57 235.58,-824.59"/>
<polygon fill="none" stroke="black" points="236.35,-821.17 225.82,-822.32 234.77,-827.99 236.35,-821.17"/>
</g>
<!-- \\RichWeb\\Algorithms\\Setup\\PrismSyntaxtHighlighterScripts -->
<g id="node45" class="node">
<title>\\RichWeb\\Algorithms\\Setup\\PrismSyntaxtHighlighterScripts</title>
<polygon fill="none" stroke="black" points="1086,-812.47 867,-812.47 867,-776.47 1086,-776.47 1086,-812.47"/>
<text text-anchor="middle" x="976.5" y="-791.67" font-family="Courier,monospace" font-size="11.00">PrismSyntaxtHighlighterScripts</text>
</g>
<!-- \\RichWeb\\Algorithms\\Setup\\PrismSyntaxtHighlighterScripts&#45;&gt;\\RichWeb\\Algorithms\\Abstracts\\AbstractScripts -->
<g id="edge35" class="edge">
<title>\\RichWeb\\Algorithms\\Setup\\PrismSyntaxtHighlighterScripts&#45;&gt;\\RichWeb\\Algorithms\\Abstracts\\AbstractScripts</title>
<path fill="none" stroke="black" d="M897.69,-776.46C870.29,-770.13 839.28,-762.97 811,-756.47 794.89,-752.77 777.53,-748.79 761.22,-745.06"/>
<polygon fill="none" stroke="black" points="761.75,-741.59 751.22,-742.77 760.19,-748.41 761.75,-741.59"/>
</g>
<!-- \\RichWeb\\Algorithms\\Setup\\Scripts -->
<g id="node46" class="node">
<title>\\RichWeb\\Algorithms\\Setup\\Scripts</title>
<polygon fill="none" stroke="black" points="1008.5,-704.47 944.5,-704.47 944.5,-668.47 1008.5,-668.47 1008.5,-704.47"/>
<text text-anchor="middle" x="976.5" y="-683.67" font-family="Courier,monospace" font-size="11.00">Scripts</text>
</g>
<!-- \\RichWeb\\Algorithms\\Setup\\Scripts&#45;&gt;\\RichWeb\\Algorithms\\Abstracts\\AbstractScripts -->
<g id="edge36" class="edge">
<title>\\RichWeb\\Algorithms\\Setup\\Scripts&#45;&gt;\\RichWeb\\Algorithms\\Abstracts\\AbstractScripts</title>
<path fill="none" stroke="black" d="M944.46,-691.2C900.65,-697.87 819.53,-710.21 761.26,-719.08"/>
<polygon fill="none" stroke="black" points="760.39,-715.68 751.03,-720.64 761.44,-722.6 760.39,-715.68"/>
</g>
<!-- \\RichWeb\\Algorithms\\Setup\\Setup -->
<g id="node47" class="node">
<title>\\RichWeb\\Algorithms\\Setup\\Setup</title>
<polygon fill="none" stroke="black" points="1003.5,-866.47 949.5,-866.47 949.5,-830.47 1003.5,-830.47 1003.5,-866.47"/>
<text text-anchor="middle" x="976.5" y="-845.67" font-family="Courier,monospace" font-size="11.00">Setup</text>
</g>
<!-- \\RichWeb\\Algorithms\\Setup\\Setup&#45;&gt;\\RichWeb\\Algorithms\\Interfaces\\HasRunnerInterface -->
<g id="edge37" class="edge">
<title>\\RichWeb\\Algorithms\\Setup\\Setup&#45;&gt;\\RichWeb\\Algorithms\\Interfaces\\HasRunnerInterface</title>
<path fill="none" stroke="black" stroke-dasharray="1,5" d="M949.29,-847.54C916.83,-846.41 859.85,-844.54 811,-843.47 800.47,-843.24 441.64,-842.72 432,-838.47"/>
<path fill="none" stroke="black" stroke-dasharray="1,5" d="M430,-838.47C392.16,-821.7 372.18,-855.28 337,-833.47 294.03,-806.84 321.68,-764.48 281,-734.47 267.76,-724.71 251.69,-718.35 235.58,-714.23"/>
<polygon fill="none" stroke="black" points="236.1,-710.76 225.57,-711.95 234.54,-717.58 236.1,-710.76"/>
</g>
<!-- \\RichWeb\\Algorithms\\Traits\\Formatting\\FilePaths -->
<g id="node48" class="node">
<title>\\RichWeb\\Algorithms\\Traits\\Formatting\\FilePaths</title>
<polygon fill="none" stroke="black" points="1015,-1247.47 938,-1247.47 938,-1211.47 1015,-1211.47 1015,-1247.47"/>
<text text-anchor="middle" x="976.5" y="-1226.67" font-family="Courier,monospace" font-size="11.00">FilePaths</text>
</g>
<!-- \\RichWeb\\Algorithms\\Traits\\Formatting\\Strings -->
<g id="node49" class="node">
<title>\\RichWeb\\Algorithms\\Traits\\Formatting\\Strings</title>
<polygon fill="none" stroke="black" points="1008.5,-1193.47 944.5,-1193.47 944.5,-1157.47 1008.5,-1157.47 1008.5,-1193.47"/>
<text text-anchor="middle" x="976.5" y="-1172.67" font-family="Courier,monospace" font-size="11.00">Strings</text>
</g>
<!-- \\RichWeb\\Algorithms\\Traits\\Posts\\AlgorithmChecker -->
<g id="node50" class="node">
<title>\\RichWeb\\Algorithms\\Traits\\Posts\\AlgorithmChecker</title>
<polygon fill="none" stroke="black" points="1039,-1113.47 914,-1113.47 914,-1077.47 1039,-1077.47 1039,-1113.47"/>
<text text-anchor="middle" x="976.5" y="-1092.67" font-family="Courier,monospace" font-size="11.00">AlgorithmChecker</text>
</g>
<!-- \\RichWeb\\Algorithms\\Plugin -->
<g id="node51" class="node">
<title>\\RichWeb\\Algorithms\\Plugin</title>
<polygon fill="none" stroke="black" points="1005,-650.47 948,-650.47 948,-614.47 1005,-614.47 1005,-650.47"/>
<text text-anchor="middle" x="976.5" y="-629.67" font-family="Courier,monospace" font-size="11.00">Plugin</text>
</g>
<!-- \\RichWeb\\Algorithms\\Plugin&#45;&gt;\\RichWeb\\Algorithms\\Abstracts\\AbstractSingletonPlugin -->
<g id="edge29" class="edge">
<title>\\RichWeb\\Algorithms\\Plugin&#45;&gt;\\RichWeb\\Algorithms\\Abstracts\\AbstractSingletonPlugin</title>
<path fill="none" stroke="black" d="M947.9,-636.67C911.09,-642.28 844.07,-652.48 787.99,-661.01"/>
<polygon fill="none" stroke="black" points="787.37,-657.57 778.02,-662.53 788.43,-664.49 787.37,-657.57"/>
</g>
<!-- \\RichWeb\\Algorithms\\PrismSyntaxHighlighter -->
<g id="node52" class="node">
<title>\\RichWeb\\Algorithms\\PrismSyntaxHighlighter</title>
<polygon fill="none" stroke="black" points="1059,-596.47 894,-596.47 894,-560.47 1059,-560.47 1059,-596.47"/>
<text text-anchor="middle" x="976.5" y="-575.67" font-family="Courier,monospace" font-size="11.00">PrismSyntaxHighlighter</text>
</g>
<!-- \\RichWeb\\Algorithms\\PrismSyntaxHighlighter&#45;&gt;\\RichWeb\\Algorithms\\Abstracts\\AbstractSyntaxHighlighter -->
<g id="edge30" class="edge">
<title>\\RichWeb\\Algorithms\\PrismSyntaxHighlighter&#45;&gt;\\RichWeb\\Algorithms\\Abstracts\\AbstractSyntaxHighlighter</title>
<path fill="none" stroke="black" d="M893.79,-590.91C862.85,-595.62 827.25,-601.04 794.69,-605.99"/>
<polygon fill="none" stroke="black" points="794.06,-602.55 784.7,-607.52 795.11,-609.47 794.06,-602.55"/>
</g>
<!-- \\RichWeb\\Algorithms\\Project -->
<g id="node53" class="node">
<title>\\RichWeb\\Algorithms\\Project</title>
<polygon fill="none" stroke="black" points="463,-893.47 399,-893.47 399,-857.47 463,-857.47 463,-893.47"/>
<text text-anchor="middle" x="431" y="-872.67" font-family="Courier,monospace" font-size="11.00">Project</text>
</g>
<!-- \\RichWeb\\Algorithms\\Project&#45;&gt;\\RichWeb\\Algorithms\\Interfaces\\ProjectInterface -->
<g id="edge31" class="edge">
<title>\\RichWeb\\Algorithms\\Project&#45;&gt;\\RichWeb\\Algorithms\\Interfaces\\ProjectInterface</title>
<path fill="none" stroke="black" stroke-dasharray="1,5" d="M398.74,-868.45C379.93,-863.34 356.02,-855.24 337,-843.47 307.33,-825.12 311.68,-805.07 281,-788.47 265.27,-779.96 247.03,-774.13 229.49,-770.14"/>
<polygon fill="none" stroke="black" points="229.76,-766.63 219.26,-768 228.33,-773.48 229.76,-766.63"/>
</g>
</g>
</svg>
