<?xml version="1.0" encoding="UTF-8" standalone="no"?>
<!DOCTYPE svg PUBLIC "-//W3C//DTD SVG 1.1//EN"
 "http://www.w3.org/Graphics/SVG/1.1/DTD/svg11.dtd">
<!-- Generated by graphviz version 2.50.0 (20211204.2007)
 -->
<!-- Title: G Pages: 1 -->
<svg width="1134pt" height="1358pt"
 viewBox="0.00 0.00 1134.00 1358.00" xmlns="http://www.w3.org/2000/svg" xmlns:xlink="http://www.w3.org/1999/xlink">
<g id="graph0" class="graph" transform="scale(1 1) rotate(0) translate(4 1354)">
<title>G</title>
<polygon fill="white" stroke="transparent" points="-4,4 -4,-1354 1130,-1354 1130,4 -4,4"/>
<g id="clust1" class="cluster">
<title>cluster_Global</title>
<polygon fill="none" stroke="black" points="8,-8 8,-1342 1118,-1342 1118,-8 8,-8"/>
<text text-anchor="middle" x="563" y="-1329.2" font-family="Times New Roman,serif" font-size="11.00" fill="gray">Global</text>
</g>
<g id="clust2" class="cluster">
<title>cluster_\RichWeb</title>
<polygon fill="none" stroke="black" points="16,-16 16,-1270 1110,-1270 1110,-16 16,-16"/>
<text text-anchor="middle" x="563" y="-1257.2" font-family="Times New Roman,serif" font-size="11.00" fill="gray">RichWeb</text>
</g>
<g id="clust3" class="cluster">
<title>cluster_\RichWeb\Algorithms</title>
<polygon fill="none" stroke="black" points="24,-24 24,-1242 1102,-1242 1102,-24 24,-24"/>
<text text-anchor="middle" x="563" y="-1229.2" font-family="Times New Roman,serif" font-size="11.00" fill="gray">Algorithms</text>
</g>
<g id="clust4" class="cluster">
<title>cluster_\RichWeb\Algorithms\Abstracts</title>
<polygon fill="none" stroke="black" points="367.5,-232 367.5,-466 792.5,-466 792.5,-232 367.5,-232"/>
<text text-anchor="middle" x="580" y="-453.2" font-family="Times New Roman,serif" font-size="11.00" fill="gray">Abstracts</text>
</g>
<g id="clust10" class="cluster">
<title>cluster_\RichWeb\Algorithms\Interfaces</title>
<polygon fill="none" stroke="black" points="32,-118 32,-946 281,-946 281,-118 32,-118"/>
<text text-anchor="middle" x="156.5" y="-933.2" font-family="Times New Roman,serif" font-size="11.00" fill="gray">Interfaces</text>
</g>
<g id="clust14" class="cluster">
<title>cluster_\RichWeb\Algorithms\Traits</title>
<polygon fill="none" stroke="black" points="898,-804 898,-1046 1055,-1046 1055,-804 898,-804"/>
<text text-anchor="middle" x="976.5" y="-1033.2" font-family="Times New Roman,serif" font-size="11.00" fill="gray">Traits</text>
</g>
<g id="clust15" class="cluster">
<title>cluster_\RichWeb\Algorithms\Traits\Formatting</title>
<polygon fill="none" stroke="black" points="930,-892 930,-1018 1023,-1018 1023,-892 930,-892"/>
<text text-anchor="middle" x="976.5" y="-1005.2" font-family="Times New Roman,serif" font-size="11.00" fill="gray">Formatting</text>
</g>
<g id="clust16" class="cluster">
<title>cluster_\RichWeb\Algorithms\Traits\Posts</title>
<polygon fill="none" stroke="black" points="906,-812 906,-884 1047,-884 1047,-812 906,-812"/>
<text text-anchor="middle" x="976.5" y="-871.2" font-family="Times New Roman,serif" font-size="11.00" fill="gray">Posts</text>
</g>
<g id="clust9" class="cluster">
<title>cluster_\RichWeb\Algorithms\CodeExamples</title>
<polygon fill="none" stroke="black" points="354,-820 354,-946 508,-946 508,-820 354,-820"/>
<text text-anchor="middle" x="431" y="-933.2" font-family="Times New Roman,serif" font-size="11.00" fill="gray">CodeExamples</text>
</g>
<g id="clust11" class="cluster">
<title>cluster_\RichWeb\Algorithms\Loaders</title>
<polygon fill="none" stroke="black" points="371,-580 371,-760 491,-760 491,-580 371,-580"/>
<text text-anchor="middle" x="431" y="-747.2" font-family="Times New Roman,serif" font-size="11.00" fill="gray">Loaders</text>
</g>
<g id="clust13" class="cluster">
<title>cluster_\RichWeb\Algorithms\Setup</title>
<polygon fill="none" stroke="black" points="859,-340 859,-628 1094,-628 1094,-340 859,-340"/>
<text text-anchor="middle" x="976.5" y="-615.2" font-family="Times New Roman,serif" font-size="11.00" fill="gray">Setup</text>
</g>
<g id="clust5" class="cluster">
<title>cluster_\RichWeb\Algorithms\Admin</title>
<polygon fill="none" stroke="black" points="75,-954 75,-1214 811,-1214 811,-954 75,-954"/>
<text text-anchor="middle" x="443" y="-1201.2" font-family="Times New Roman,serif" font-size="11.00" fill="gray">Admin</text>
</g>
<g id="clust7" class="cluster">
<title>cluster_\RichWeb\Algorithms\Admin\Interfaces</title>
<polygon fill="none" stroke="black" points="83,-1038 83,-1164 230,-1164 230,-1038 83,-1038"/>
<text text-anchor="middle" x="156.5" y="-1151.2" font-family="Times New Roman,serif" font-size="11.00" fill="gray">Interfaces</text>
</g>
<g id="clust6" class="cluster">
<title>cluster_\RichWeb\Algorithms\Admin\Abstracts</title>
<polygon fill="none" stroke="black" points="360.5,-1038 360.5,-1164 501.5,-1164 501.5,-1038 360.5,-1038"/>
<text text-anchor="middle" x="431" y="-1151.2" font-family="Times New Roman,serif" font-size="11.00" fill="gray">Abstracts</text>
</g>
<g id="clust8" class="cluster">
<title>cluster_\RichWeb\Algorithms\Admin\MetaBoxes</title>
<polygon fill="none" stroke="black" points="581,-962 581,-1142 803,-1142 803,-962 581,-962"/>
<text text-anchor="middle" x="692" y="-1129.2" font-family="Times New Roman,serif" font-size="11.00" fill="gray">MetaBoxes</text>
</g>
<g id="clust12" class="cluster">
<title>cluster_\RichWeb\Algorithms\Packages</title>
<polygon fill="none" stroke="black" points="337,-44 337,-224 525,-224 525,-44 337,-44"/>
<text text-anchor="middle" x="431" y="-211.2" font-family="Times New Roman,serif" font-size="11.00" fill="gray">Packages</text>
</g>
<!-- \\RichWeb\\Algorithms\\Abstracts\\AbstractAlgorithm -->
<g id="node1" class="node">
<title>\\RichWeb\\Algorithms\\Abstracts\\AbstractAlgorithm</title>
<polygon fill="none" stroke="black" points="757.5,-438 626.5,-438 626.5,-402 757.5,-402 757.5,-438"/>
<text text-anchor="start" x="658" y="-423.2" font-family="Courier,monospace" font-size="11.00">«abstract»</text>
<text text-anchor="start" x="634.5" y="-411.2" font-family="Courier,monospace" font-size="11.00">AbstractAlgorithm</text>
</g>
<!-- \\RichWeb\\Algorithms\\Interfaces\\AlgorithmInterface -->
<g id="node16" class="node">
<title>\\RichWeb\\Algorithms\\Interfaces\\AlgorithmInterface</title>
<polygon fill="none" stroke="black" points="225.5,-702 87.5,-702 87.5,-666 225.5,-666 225.5,-702"/>
<text text-anchor="middle" x="156.5" y="-681.2" font-family="Courier,monospace" font-size="11.00">AlgorithmInterface</text>
</g>
<!-- \\RichWeb\\Algorithms\\Abstracts\\AbstractAlgorithm&#45;&gt;\\RichWeb\\Algorithms\\Interfaces\\AlgorithmInterface -->
<g id="edge1" class="edge">
<title>\\RichWeb\\Algorithms\\Abstracts\\AbstractAlgorithm&#45;&gt;\\RichWeb\\Algorithms\\Interfaces\\AlgorithmInterface</title>
<path fill="none" stroke="black" stroke-dasharray="1,5" d="M688.82,-438.23C680.6,-497.97 645.47,-688.37 525,-764 489.62,-786.21 375.81,-779.46 337,-764 305.16,-751.32 311.29,-727.02 281,-711 267.07,-703.63 251.25,-698.28 235.68,-694.38"/>
<polygon fill="none" stroke="black" points="236.05,-690.87 225.52,-692.02 234.47,-697.69 236.05,-690.87"/>
</g>
<!-- \\RichWeb\\Algorithms\\Interfaces\\HasRunnerInterface -->
<g id="node24" class="node">
<title>\\RichWeb\\Algorithms\\Interfaces\\HasRunnerInterface</title>
<polygon fill="none" stroke="black" points="225.5,-810 87.5,-810 87.5,-774 225.5,-774 225.5,-810"/>
<text text-anchor="middle" x="156.5" y="-789.2" font-family="Courier,monospace" font-size="11.00">HasRunnerInterface</text>
</g>
<!-- \\RichWeb\\Algorithms\\Abstracts\\AbstractAlgorithm&#45;&gt;\\RichWeb\\Algorithms\\Interfaces\\HasRunnerInterface -->
<g id="edge2" class="edge">
<title>\\RichWeb\\Algorithms\\Abstracts\\AbstractAlgorithm&#45;&gt;\\RichWeb\\Algorithms\\Interfaces\\HasRunnerInterface</title>
<path fill="none" stroke="black" stroke-dasharray="1,5" d="M626.48,-416.9C609.56,-412.99 592.78,-405.81 581,-393 473.45,-276.09 641.84,-147.61 525,-40 494.51,-11.92 473.04,-27.21 432,-33"/>
</g>
<!-- \\RichWeb\\Algorithms\\Abstracts\\AbstractPlugin -->
<g id="node2" class="node">
<title>\\RichWeb\\Algorithms\\Abstracts\\AbstractPlugin</title>
<polygon fill="none" stroke="black" points="486.5,-300 375.5,-300 375.5,-264 486.5,-264 486.5,-300"/>
<text text-anchor="start" x="397" y="-285.2" font-family="Courier,monospace" font-size="11.00">«abstract»</text>
<text text-anchor="start" x="383.5" y="-273.2" font-family="Courier,monospace" font-size="11.00">AbstractPlugin</text>
</g>
<!-- \\RichWeb\\Algorithms\\Interfaces\\PluginInterface -->
<g id="node26" class="node">
<title>\\RichWeb\\Algorithms\\Interfaces\\PluginInterface</title>
<polygon fill="none" stroke="black" points="215.5,-324 97.5,-324 97.5,-288 215.5,-288 215.5,-324"/>
<text text-anchor="middle" x="156.5" y="-303.2" font-family="Courier,monospace" font-size="11.00">PluginInterface</text>
</g>
<!-- \\RichWeb\\Algorithms\\Abstracts\\AbstractPlugin&#45;&gt;\\RichWeb\\Algorithms\\Interfaces\\PluginInterface -->
<g id="edge3" class="edge">
<title>\\RichWeb\\Algorithms\\Abstracts\\AbstractPlugin&#45;&gt;\\RichWeb\\Algorithms\\Interfaces\\PluginInterface</title>
<path fill="none" stroke="black" stroke-dasharray="1,5" d="M375.18,-286.83C332.13,-290.62 271.93,-295.92 225.75,-299.99"/>
<polygon fill="none" stroke="black" points="225.18,-296.53 215.52,-300.89 225.79,-303.5 225.18,-296.53"/>
</g>
<!-- \\RichWeb\\Algorithms\\Abstracts\\AbstractScripts -->
<g id="node3" class="node">
<title>\\RichWeb\\Algorithms\\Abstracts\\AbstractScripts</title>
<polygon fill="none" stroke="black" points="751,-384 633,-384 633,-348 751,-348 751,-384"/>
<text text-anchor="start" x="658" y="-369.2" font-family="Courier,monospace" font-size="11.00">«abstract»</text>
<text text-anchor="start" x="641" y="-357.2" font-family="Courier,monospace" font-size="11.00">AbstractScripts</text>
</g>
<!-- \\RichWeb\\Algorithms\\Abstracts\\AbstractScripts&#45;&gt;\\RichWeb\\Algorithms\\Interfaces\\HasRunnerInterface -->
<g id="edge5" class="edge">
<title>\\RichWeb\\Algorithms\\Abstracts\\AbstractScripts&#45;&gt;\\RichWeb\\Algorithms\\Interfaces\\HasRunnerInterface</title>
<path fill="none" stroke="black" stroke-dasharray="1,5" d="M632.72,-363.95C613.86,-360.38 594.38,-353.14 581,-339 488.09,-240.78 625.71,-130.2 525,-40 494.12,-12.35 473.04,-27.21 432,-33"/>
<path fill="none" stroke="black" stroke-dasharray="1,5" d="M430,-33C388.96,-38.79 366.34,-10.72 337,-40 222.63,-154.15 387.1,-643.12 281,-765 269.44,-778.28 252.98,-785.89 235.85,-790.08"/>
<polygon fill="none" stroke="black" points="234.8,-786.72 225.71,-792.17 236.21,-793.58 234.8,-786.72"/>
</g>
<!-- \\RichWeb\\Algorithms\\Interfaces\\ScriptsInterface -->
<g id="node28" class="node">
<title>\\RichWeb\\Algorithms\\Interfaces\\ScriptsInterface</title>
<polygon fill="none" stroke="black" points="219,-540 94,-540 94,-504 219,-504 219,-540"/>
<text text-anchor="middle" x="156.5" y="-519.2" font-family="Courier,monospace" font-size="11.00">ScriptsInterface</text>
</g>
<!-- \\RichWeb\\Algorithms\\Abstracts\\AbstractScripts&#45;&gt;\\RichWeb\\Algorithms\\Interfaces\\ScriptsInterface -->
<g id="edge4" class="edge">
<title>\\RichWeb\\Algorithms\\Abstracts\\AbstractScripts&#45;&gt;\\RichWeb\\Algorithms\\Interfaces\\ScriptsInterface</title>
<path fill="none" stroke="black" stroke-dasharray="1,5" d="M632.74,-369.45C614.32,-373.18 595.11,-380.16 581,-393 524.97,-443.99 586.75,-510.1 525,-554 490.95,-578.21 378.62,-557.68 337,-554 301.14,-550.83 261.71,-544.16 228.97,-537.73"/>
<polygon fill="none" stroke="black" points="229.52,-534.27 219.03,-535.74 228.15,-541.13 229.52,-534.27"/>
</g>
<!-- \\RichWeb\\Algorithms\\Abstracts\\AbstractSingletonPlugin -->
<g id="node4" class="node">
<title>\\RichWeb\\Algorithms\\Abstracts\\AbstractSingletonPlugin</title>
<polygon fill="none" stroke="black" points="778,-276 606,-276 606,-240 778,-240 778,-276"/>
<text text-anchor="start" x="658" y="-261.2" font-family="Courier,monospace" font-size="11.00">«abstract»</text>
<text text-anchor="start" x="614" y="-249.2" font-family="Courier,monospace" font-size="11.00">AbstractSingletonPlugin</text>
</g>
<!-- \\RichWeb\\Algorithms\\Abstracts\\AbstractSingletonPlugin&#45;&gt;\\RichWeb\\Algorithms\\Abstracts\\AbstractPlugin -->
<g id="edge6" class="edge">
<title>\\RichWeb\\Algorithms\\Abstracts\\AbstractSingletonPlugin&#45;&gt;\\RichWeb\\Algorithms\\Abstracts\\AbstractPlugin</title>
<path fill="none" stroke="black" d="M605.83,-265.89C570.29,-269.19 529.68,-272.95 496.66,-276.01"/>
<polygon fill="none" stroke="black" points="496.3,-272.53 486.67,-276.93 496.95,-279.5 496.3,-272.53"/>
</g>
<!-- \\RichWeb\\Algorithms\\Interfaces\\SingletonPluginInterface -->
<g id="node29" class="node">
<title>\\RichWeb\\Algorithms\\Interfaces\\SingletonPluginInterface</title>
<polygon fill="none" stroke="black" points="246,-432 67,-432 67,-396 246,-396 246,-432"/>
<text text-anchor="middle" x="156.5" y="-411.2" font-family="Courier,monospace" font-size="11.00">SingletonPluginInterface</text>
</g>
<!-- \\RichWeb\\Algorithms\\Abstracts\\AbstractSingletonPlugin&#45;&gt;\\RichWeb\\Algorithms\\Interfaces\\SingletonPluginInterface -->
<g id="edge7" class="edge">
<title>\\RichWeb\\Algorithms\\Abstracts\\AbstractSingletonPlugin&#45;&gt;\\RichWeb\\Algorithms\\Interfaces\\SingletonPluginInterface</title>
<path fill="none" stroke="black" stroke-dasharray="1,5" d="M605.93,-268.5C596.66,-272.51 588.05,-277.87 581,-285 504.26,-362.55 610.49,-456.22 525,-524 492.26,-549.95 373.89,-543.61 337,-524 297.71,-503.11 317.82,-465.99 281,-441 273.33,-435.8 264.83,-431.57 255.99,-428.15"/>
<polygon fill="none" stroke="black" points="256.87,-424.75 246.27,-424.74 254.55,-431.36 256.87,-424.75"/>
</g>
<!-- \\RichWeb\\Algorithms\\Abstracts\\AbstractSyntaxHighlighter -->
<g id="node5" class="node">
<title>\\RichWeb\\Algorithms\\Abstracts\\AbstractSyntaxHighlighter</title>
<polygon fill="none" stroke="black" points="784.5,-330 599.5,-330 599.5,-294 784.5,-294 784.5,-330"/>
<text text-anchor="start" x="658" y="-315.2" font-family="Courier,monospace" font-size="11.00">«abstract»</text>
<text text-anchor="start" x="607.5" y="-303.2" font-family="Courier,monospace" font-size="11.00">AbstractSyntaxHighlighter</text>
</g>
<!-- \\RichWeb\\Algorithms\\Interfaces\\SyntaxHighlighterInterface -->
<g id="node30" class="node">
<title>\\RichWeb\\Algorithms\\Interfaces\\SyntaxHighlighterInterface</title>
<polygon fill="none" stroke="black" points="252.5,-486 60.5,-486 60.5,-450 252.5,-450 252.5,-486"/>
<text text-anchor="middle" x="156.5" y="-465.2" font-family="Courier,monospace" font-size="11.00">SyntaxHighlighterInterface</text>
</g>
<!-- \\RichWeb\\Algorithms\\Abstracts\\AbstractSyntaxHighlighter&#45;&gt;\\RichWeb\\Algorithms\\Interfaces\\SyntaxHighlighterInterface -->
<g id="edge8" class="edge">
<title>\\RichWeb\\Algorithms\\Abstracts\\AbstractSyntaxHighlighter&#45;&gt;\\RichWeb\\Algorithms\\Interfaces\\SyntaxHighlighterInterface</title>
<path fill="none" stroke="black" stroke-dasharray="1,5" d="M599.25,-326.1C592.58,-329.56 586.38,-333.81 581,-339 515.21,-402.53 597.94,-481.83 525,-537 491.68,-562.2 376.63,-550.21 337,-537 307.49,-527.16 309.29,-507.95 281,-495 274.97,-492.24 268.64,-489.75 262.16,-487.51"/>
<polygon fill="none" stroke="black" points="263.18,-484.17 252.59,-484.41 261.03,-490.82 263.18,-484.17"/>
</g>
<!-- \\RichWeb\\Algorithms\\Admin\\Abstracts\\AbstractMetaBox -->
<g id="node6" class="node">
<title>\\RichWeb\\Algorithms\\Admin\\Abstracts\\AbstractMetaBox</title>
<polygon fill="none" stroke="black" points="490,-1082 372,-1082 372,-1046 490,-1046 490,-1082"/>
<text text-anchor="start" x="397" y="-1067.2" font-family="Courier,monospace" font-size="11.00">«abstract»</text>
<text text-anchor="start" x="380" y="-1055.2" font-family="Courier,monospace" font-size="11.00">AbstractMetaBox</text>
</g>
<!-- \\RichWeb\\Algorithms\\Admin\\Interfaces\\MetaBoxInterface -->
<g id="node8" class="node">
<title>\\RichWeb\\Algorithms\\Admin\\Interfaces\\MetaBoxInterface</title>
<polygon fill="none" stroke="black" points="219,-1082 94,-1082 94,-1046 219,-1046 219,-1082"/>
<text text-anchor="middle" x="156.5" y="-1061.2" font-family="Courier,monospace" font-size="11.00">MetaBoxInterface</text>
</g>
<!-- \\RichWeb\\Algorithms\\Admin\\Abstracts\\AbstractMetaBox&#45;&gt;\\RichWeb\\Algorithms\\Admin\\Interfaces\\MetaBoxInterface -->
<g id="edge9" class="edge">
<title>\\RichWeb\\Algorithms\\Admin\\Abstracts\\AbstractMetaBox&#45;&gt;\\RichWeb\\Algorithms\\Admin\\Interfaces\\MetaBoxInterface</title>
<path fill="none" stroke="black" stroke-dasharray="1,5" d="M371.88,-1064C330.26,-1064 273.95,-1064 229.49,-1064"/>
<polygon fill="none" stroke="black" points="229.32,-1060.5 219.32,-1064 229.32,-1067.5 229.32,-1060.5"/>
</g>
<!-- \\RichWeb\\Algorithms\\Admin\\Abstracts\\AbstractPostType -->
<g id="node7" class="node">
<title>\\RichWeb\\Algorithms\\Admin\\Abstracts\\AbstractPostType</title>
<polygon fill="none" stroke="black" points="493.5,-1136 368.5,-1136 368.5,-1100 493.5,-1100 493.5,-1136"/>
<text text-anchor="start" x="397" y="-1121.2" font-family="Courier,monospace" font-size="11.00">«abstract»</text>
<text text-anchor="start" x="376.5" y="-1109.2" font-family="Courier,monospace" font-size="11.00">AbstractPostType</text>
</g>
<!-- \\RichWeb\\Algorithms\\Admin\\Interfaces\\PostTypeInterface -->
<g id="node9" class="node">
<title>\\RichWeb\\Algorithms\\Admin\\Interfaces\\PostTypeInterface</title>
<polygon fill="none" stroke="black" points="222,-1136 91,-1136 91,-1100 222,-1100 222,-1136"/>
<text text-anchor="middle" x="156.5" y="-1115.2" font-family="Courier,monospace" font-size="11.00">PostTypeInterface</text>
</g>
<!-- \\RichWeb\\Algorithms\\Admin\\Abstracts\\AbstractPostType&#45;&gt;\\RichWeb\\Algorithms\\Admin\\Interfaces\\PostTypeInterface -->
<g id="edge10" class="edge">
<title>\\RichWeb\\Algorithms\\Admin\\Abstracts\\AbstractPostType&#45;&gt;\\RichWeb\\Algorithms\\Admin\\Interfaces\\PostTypeInterface</title>
<path fill="none" stroke="black" stroke-dasharray="1,5" d="M368.17,-1118C327.9,-1118 275.12,-1118 232.46,-1118"/>
<polygon fill="none" stroke="black" points="232.41,-1114.5 222.41,-1118 232.41,-1121.5 232.41,-1114.5"/>
</g>
<!-- \\RichWeb\\Algorithms\\Admin\\Abstracts\\AbstractPostType&#45;&gt;\\RichWeb\\Algorithms\\Interfaces\\HasRunnerInterface -->
<g id="edge11" class="edge">
<title>\\RichWeb\\Algorithms\\Admin\\Abstracts\\AbstractPostType&#45;&gt;\\RichWeb\\Algorithms\\Interfaces\\HasRunnerInterface</title>
<path fill="none" stroke="black" stroke-dasharray="1,5" d="M368.14,-1110.16C356.47,-1106.09 345.33,-1100.02 337,-1091 253.26,-1000.33 367.74,-906.8 281,-819 268.82,-806.67 252.39,-799.37 235.5,-795.18"/>
<polygon fill="none" stroke="black" points="236.04,-791.72 225.54,-793.06 234.59,-798.57 236.04,-791.72"/>
</g>
<!-- \\RichWeb\\Algorithms\\Admin\\MetaBoxes\\AlgorithmCodeExamplesMetaBox -->
<g id="node10" class="node">
<title>\\RichWeb\\Algorithms\\Admin\\MetaBoxes\\AlgorithmCodeExamplesMetaBox</title>
<polygon fill="none" stroke="black" points="795,-1060 589,-1060 589,-1024 795,-1024 795,-1060"/>
<text text-anchor="middle" x="692" y="-1039.2" font-family="Courier,monospace" font-size="11.00">AlgorithmCodeExamplesMetaBox</text>
</g>
<!-- \\RichWeb\\Algorithms\\Admin\\MetaBoxes\\AlgorithmCodeExamplesMetaBox&#45;&gt;\\RichWeb\\Algorithms\\Admin\\Abstracts\\AbstractMetaBox -->
<g id="edge13" class="edge">
<title>\\RichWeb\\Algorithms\\Admin\\MetaBoxes\\AlgorithmCodeExamplesMetaBox&#45;&gt;\\RichWeb\\Algorithms\\Admin\\Abstracts\\AbstractMetaBox</title>
<path fill="none" stroke="black" d="M588.64,-1050.69C558.92,-1053.22 527.21,-1055.91 500.15,-1058.21"/>
<polygon fill="none" stroke="black" points="499.69,-1054.74 490.02,-1059.07 500.28,-1061.71 499.69,-1054.74"/>
</g>
<!-- \\RichWeb\\Algorithms\\Admin\\MetaBoxes\\AlgorithmPackageMetaBox -->
<g id="node11" class="node">
<title>\\RichWeb\\Algorithms\\Admin\\MetaBoxes\\AlgorithmPackageMetaBox</title>
<polygon fill="none" stroke="black" points="778,-1114 606,-1114 606,-1078 778,-1078 778,-1114"/>
<text text-anchor="middle" x="692" y="-1093.2" font-family="Courier,monospace" font-size="11.00">AlgorithmPackageMetaBox</text>
</g>
<!-- \\RichWeb\\Algorithms\\Admin\\MetaBoxes\\AlgorithmPackageMetaBox&#45;&gt;\\RichWeb\\Algorithms\\Admin\\Abstracts\\AbstractMetaBox -->
<g id="edge14" class="edge">
<title>\\RichWeb\\Algorithms\\Admin\\MetaBoxes\\AlgorithmPackageMetaBox&#45;&gt;\\RichWeb\\Algorithms\\Admin\\Abstracts\\AbstractMetaBox</title>
<path fill="none" stroke="black" d="M605.83,-1085.48C571.64,-1081.25 532.76,-1076.45 500.46,-1072.46"/>
<polygon fill="none" stroke="black" points="500.56,-1068.94 490.21,-1071.19 499.71,-1075.89 500.56,-1068.94"/>
</g>
<!-- \\RichWeb\\Algorithms\\Admin\\MetaBoxes\\MetaBoxes -->
<g id="node12" class="node">
<title>\\RichWeb\\Algorithms\\Admin\\MetaBoxes\\MetaBoxes</title>
<polygon fill="none" stroke="black" points="730.5,-1006 653.5,-1006 653.5,-970 730.5,-970 730.5,-1006"/>
<text text-anchor="middle" x="692" y="-985.2" font-family="Courier,monospace" font-size="11.00">MetaBoxes</text>
</g>
<!-- \\RichWeb\\Algorithms\\Admin\\MetaBoxes\\MetaBoxes&#45;&gt;\\RichWeb\\Algorithms\\Interfaces\\HasRunnerInterface -->
<g id="edge15" class="edge">
<title>\\RichWeb\\Algorithms\\Admin\\MetaBoxes\\MetaBoxes&#45;&gt;\\RichWeb\\Algorithms\\Interfaces\\HasRunnerInterface</title>
<path fill="none" stroke="black" stroke-dasharray="1,5" d="M680.05,-969.78C656.82,-933.03 598.62,-850.58 525,-816 487.48,-798.38 472.66,-817.08 432,-809"/>
</g>
<!-- \\RichWeb\\Algorithms\\Admin\\AlgorithmPostType -->
<g id="node13" class="node">
<title>\\RichWeb\\Algorithms\\Admin\\AlgorithmPostType</title>
<polygon fill="none" stroke="black" points="757.5,-1186 626.5,-1186 626.5,-1150 757.5,-1150 757.5,-1186"/>
<text text-anchor="middle" x="692" y="-1165.2" font-family="Courier,monospace" font-size="11.00">AlgorithmPostType</text>
</g>
<!-- \\RichWeb\\Algorithms\\Admin\\AlgorithmPostType&#45;&gt;\\RichWeb\\Algorithms\\Admin\\Abstracts\\AbstractPostType -->
<g id="edge12" class="edge">
<title>\\RichWeb\\Algorithms\\Admin\\AlgorithmPostType&#45;&gt;\\RichWeb\\Algorithms\\Admin\\Abstracts\\AbstractPostType</title>
<path fill="none" stroke="black" d="M626.31,-1155.51C589.04,-1148.32 542.11,-1139.26 503.71,-1131.84"/>
<polygon fill="none" stroke="black" points="504.12,-1128.36 493.64,-1129.9 502.79,-1135.23 504.12,-1128.36"/>
</g>
<!-- \\RichWeb\\Algorithms\\CodeExamples\\CodeExample -->
<g id="node14" class="node">
<title>\\RichWeb\\Algorithms\\CodeExamples\\CodeExample</title>
<polygon fill="none" stroke="black" points="476.5,-918 385.5,-918 385.5,-882 476.5,-882 476.5,-918"/>
<text text-anchor="middle" x="431" y="-897.2" font-family="Courier,monospace" font-size="11.00">CodeExample</text>
</g>
<!-- \\RichWeb\\Algorithms\\Interfaces\\CodeExampleInterface -->
<g id="node21" class="node">
<title>\\RichWeb\\Algorithms\\Interfaces\\CodeExampleInterface</title>
<polygon fill="none" stroke="black" points="232.5,-918 80.5,-918 80.5,-882 232.5,-882 232.5,-918"/>
<text text-anchor="middle" x="156.5" y="-897.2" font-family="Courier,monospace" font-size="11.00">CodeExampleInterface</text>
</g>
<!-- \\RichWeb\\Algorithms\\CodeExamples\\CodeExample&#45;&gt;\\RichWeb\\Algorithms\\Interfaces\\CodeExampleInterface -->
<g id="edge16" class="edge">
<title>\\RichWeb\\Algorithms\\CodeExamples\\CodeExample&#45;&gt;\\RichWeb\\Algorithms\\Interfaces\\CodeExampleInterface</title>
<path fill="none" stroke="black" stroke-dasharray="1,5" d="M385.31,-900C346.76,-900 290.03,-900 242.82,-900"/>
<polygon fill="none" stroke="black" points="242.59,-896.5 232.59,-900 242.59,-903.5 242.59,-896.5"/>
</g>
<!-- Stringable -->
<g id="node48" class="node">
<title>Stringable</title>
<ellipse fill="none" stroke="black" cx="156.5" cy="-1296" rx="46.59" ry="18"/>
<text text-anchor="middle" x="156.5" y="-1292.3" font-family="Times New Roman,serif" font-size="14.00" fill="gray">Stringable</text>
</g>
<!-- \\RichWeb\\Algorithms\\CodeExamples\\CodeExample&#45;&gt;Stringable -->
<g id="edge17" class="edge">
<title>\\RichWeb\\Algorithms\\CodeExamples\\CodeExample&#45;&gt;Stringable</title>
<path fill="none" stroke="black" stroke-dasharray="1,5" d="M415.45,-918.27C395.93,-943.35 360.95,-990.29 337,-1034 305.98,-1090.61 316.46,-1114.07 281,-1168 253.82,-1209.33 212.3,-1249.05 185.03,-1273"/>
<polygon fill="none" stroke="black" points="182.66,-1270.42 177.4,-1279.62 187.24,-1275.71 182.66,-1270.42"/>
</g>
<!-- \\RichWeb\\Algorithms\\CodeExamples\\CodeExamplesLoader -->
<g id="node15" class="node">
<title>\\RichWeb\\Algorithms\\CodeExamples\\CodeExamplesLoader</title>
<polygon fill="none" stroke="black" points="500,-864 362,-864 362,-828 500,-828 500,-864"/>
<text text-anchor="middle" x="431" y="-843.2" font-family="Courier,monospace" font-size="11.00">CodeExamplesLoader</text>
</g>
<!-- \\RichWeb\\Algorithms\\Interfaces\\CodeExamplesLoaderInterface -->
<g id="node22" class="node">
<title>\\RichWeb\\Algorithms\\Interfaces\\CodeExamplesLoaderInterface</title>
<polygon fill="none" stroke="black" points="256,-864 57,-864 57,-828 256,-828 256,-864"/>
<text text-anchor="middle" x="156.5" y="-843.2" font-family="Courier,monospace" font-size="11.00">CodeExamplesLoaderInterface</text>
</g>
<!-- \\RichWeb\\Algorithms\\CodeExamples\\CodeExamplesLoader&#45;&gt;\\RichWeb\\Algorithms\\Interfaces\\CodeExamplesLoaderInterface -->
<g id="edge18" class="edge">
<title>\\RichWeb\\Algorithms\\CodeExamples\\CodeExamplesLoader&#45;&gt;\\RichWeb\\Algorithms\\Interfaces\\CodeExamplesLoaderInterface</title>
<path fill="none" stroke="black" stroke-dasharray="1,5" d="M361.94,-846C333.06,-846 298.68,-846 266.43,-846"/>
<polygon fill="none" stroke="black" points="266.04,-842.5 256.04,-846 266.04,-849.5 266.04,-842.5"/>
</g>
<!-- \\RichWeb\\Algorithms\\CodeExamples\\CodeExamplesLoader&#45;&gt;\\RichWeb\\Algorithms\\Interfaces\\HasRunnerInterface -->
<g id="edge19" class="edge">
<title>\\RichWeb\\Algorithms\\CodeExamples\\CodeExamplesLoader&#45;&gt;\\RichWeb\\Algorithms\\Interfaces\\HasRunnerInterface</title>
<path fill="none" stroke="black" stroke-dasharray="1,5" d="M361.94,-832.51C323.57,-824.91 275.49,-815.38 235.59,-807.48"/>
<polygon fill="none" stroke="black" points="236.13,-804.01 225.64,-805.5 234.77,-810.88 236.13,-804.01"/>
</g>
<!-- \\RichWeb\\Algorithms\\Interfaces\\AlgorithmPackageInterface -->
<g id="node17" class="node">
<title>\\RichWeb\\Algorithms\\Interfaces\\AlgorithmPackageInterface</title>
<polygon fill="none" stroke="black" points="249,-162 64,-162 64,-126 249,-126 249,-162"/>
<text text-anchor="middle" x="156.5" y="-141.2" font-family="Courier,monospace" font-size="11.00">AlgorithmPackageInterface</text>
</g>
<!-- \\RichWeb\\Algorithms\\Interfaces\\AlgorithmPackageLoaderInterface -->
<g id="node18" class="node">
<title>\\RichWeb\\Algorithms\\Interfaces\\AlgorithmPackageLoaderInterface</title>
<polygon fill="none" stroke="black" points="269.5,-270 43.5,-270 43.5,-234 269.5,-234 269.5,-270"/>
<text text-anchor="middle" x="156.5" y="-249.2" font-family="Courier,monospace" font-size="11.00">AlgorithmPackageLoaderInterface</text>
</g>
<!-- \\RichWeb\\Algorithms\\Interfaces\\AlgorithmPackageManagerInterface -->
<g id="node19" class="node">
<title>\\RichWeb\\Algorithms\\Interfaces\\AlgorithmPackageManagerInterface</title>
<polygon fill="none" stroke="black" points="273,-216 40,-216 40,-180 273,-180 273,-216"/>
<text text-anchor="middle" x="156.5" y="-195.2" font-family="Courier,monospace" font-size="11.00">AlgorithmPackageManagerInterface</text>
</g>
<!-- \\RichWeb\\Algorithms\\Interfaces\\AutoloaderInterface -->
<g id="node20" class="node">
<title>\\RichWeb\\Algorithms\\Interfaces\\AutoloaderInterface</title>
<polygon fill="none" stroke="black" points="229,-594 84,-594 84,-558 229,-558 229,-594"/>
<text text-anchor="middle" x="156.5" y="-573.2" font-family="Courier,monospace" font-size="11.00">AutoloaderInterface</text>
</g>
<!-- \\RichWeb\\Algorithms\\Interfaces\\FileLoaderInterface -->
<g id="node23" class="node">
<title>\\RichWeb\\Algorithms\\Interfaces\\FileLoaderInterface</title>
<polygon fill="none" stroke="black" points="229,-648 84,-648 84,-612 229,-612 229,-648"/>
<text text-anchor="middle" x="156.5" y="-627.2" font-family="Courier,monospace" font-size="11.00">FileLoaderInterface</text>
</g>
<!-- \\RichWeb\\Algorithms\\Interfaces\\LanguagesInterface -->
<g id="node25" class="node">
<title>\\RichWeb\\Algorithms\\Interfaces\\LanguagesInterface</title>
<polygon fill="none" stroke="black" points="225.5,-756 87.5,-756 87.5,-720 225.5,-720 225.5,-756"/>
<text text-anchor="middle" x="156.5" y="-735.2" font-family="Courier,monospace" font-size="11.00">LanguagesInterface</text>
</g>
<!-- \\RichWeb\\Algorithms\\Interfaces\\ProjectInterface -->
<g id="node27" class="node">
<title>\\RichWeb\\Algorithms\\Interfaces\\ProjectInterface</title>
<polygon fill="none" stroke="black" points="219,-378 94,-378 94,-342 219,-342 219,-378"/>
<text text-anchor="middle" x="156.5" y="-357.2" font-family="Courier,monospace" font-size="11.00">ProjectInterface</text>
</g>
<!-- \\RichWeb\\Algorithms\\Loaders\\Autoloader -->
<g id="node31" class="node">
<title>\\RichWeb\\Algorithms\\Loaders\\Autoloader</title>
<polygon fill="none" stroke="black" points="473,-624 389,-624 389,-588 473,-588 473,-624"/>
<text text-anchor="middle" x="431" y="-603.2" font-family="Courier,monospace" font-size="11.00">Autoloader</text>
</g>
<!-- \\RichWeb\\Algorithms\\Loaders\\Autoloader&#45;&gt;\\RichWeb\\Algorithms\\Interfaces\\AutoloaderInterface -->
<g id="edge20" class="edge">
<title>\\RichWeb\\Algorithms\\Loaders\\Autoloader&#45;&gt;\\RichWeb\\Algorithms\\Interfaces\\AutoloaderInterface</title>
<path fill="none" stroke="black" stroke-dasharray="1,5" d="M388.91,-601.48C349.4,-597.13 288.58,-590.43 239.21,-585"/>
<polygon fill="none" stroke="black" points="239.5,-581.51 229.18,-583.89 238.73,-588.46 239.5,-581.51"/>
</g>
<!-- \\RichWeb\\Algorithms\\Loaders\\ContentLoader -->
<g id="node32" class="node">
<title>\\RichWeb\\Algorithms\\Loaders\\ContentLoader</title>
<polygon fill="none" stroke="black" points="483,-678 379,-678 379,-642 483,-642 483,-678"/>
<text text-anchor="middle" x="431" y="-657.2" font-family="Courier,monospace" font-size="11.00">ContentLoader</text>
</g>
<!-- \\RichWeb\\Algorithms\\Loaders\\FileLoader -->
<g id="node33" class="node">
<title>\\RichWeb\\Algorithms\\Loaders\\FileLoader</title>
<polygon fill="none" stroke="black" points="473,-732 389,-732 389,-696 473,-696 473,-732"/>
<text text-anchor="middle" x="431" y="-711.2" font-family="Courier,monospace" font-size="11.00">FileLoader</text>
</g>
<!-- \\RichWeb\\Algorithms\\Loaders\\FileLoader&#45;&gt;\\RichWeb\\Algorithms\\Interfaces\\FileLoaderInterface -->
<g id="edge21" class="edge">
<title>\\RichWeb\\Algorithms\\Loaders\\FileLoader&#45;&gt;\\RichWeb\\Algorithms\\Interfaces\\FileLoaderInterface</title>
<path fill="none" stroke="black" stroke-dasharray="1,5" d="M388.63,-703.98C372.28,-699.51 353.5,-693.73 337,-687 310.85,-676.34 307.49,-666.78 281,-657 267.7,-652.09 253.25,-647.94 239.07,-644.48"/>
<polygon fill="none" stroke="black" points="239.86,-641.07 229.32,-642.19 238.26,-647.88 239.86,-641.07"/>
</g>
<!-- \\RichWeb\\Algorithms\\Packages\\AlgorithmPackage -->
<g id="node34" class="node">
<title>\\RichWeb\\Algorithms\\Packages\\AlgorithmPackage</title>
<polygon fill="none" stroke="black" points="493.5,-88 368.5,-88 368.5,-52 493.5,-52 493.5,-88"/>
<text text-anchor="middle" x="431" y="-67.2" font-family="Courier,monospace" font-size="11.00">AlgorithmPackage</text>
</g>
<!-- \\RichWeb\\Algorithms\\Packages\\AlgorithmPackage&#45;&gt;\\RichWeb\\Algorithms\\Interfaces\\AlgorithmPackageInterface -->
<g id="edge22" class="edge">
<title>\\RichWeb\\Algorithms\\Packages\\AlgorithmPackage&#45;&gt;\\RichWeb\\Algorithms\\Interfaces\\AlgorithmPackageInterface</title>
<path fill="none" stroke="black" stroke-dasharray="1,5" d="M368.17,-86.79C328.25,-97.63 276.04,-111.81 233.58,-123.34"/>
<polygon fill="none" stroke="black" points="232.58,-119.98 223.85,-125.98 234.42,-126.74 232.58,-119.98"/>
</g>
<!-- \\RichWeb\\Algorithms\\Packages\\AlgorithmPackageLoader -->
<g id="node35" class="node">
<title>\\RichWeb\\Algorithms\\Packages\\AlgorithmPackageLoader</title>
<polygon fill="none" stroke="black" points="513.5,-196 348.5,-196 348.5,-160 513.5,-160 513.5,-196"/>
<text text-anchor="middle" x="431" y="-175.2" font-family="Courier,monospace" font-size="11.00">AlgorithmPackageLoader</text>
</g>
<!-- \\RichWeb\\Algorithms\\Packages\\AlgorithmPackageLoader&#45;&gt;\\RichWeb\\Algorithms\\Interfaces\\AlgorithmPackageLoaderInterface -->
<g id="edge23" class="edge">
<title>\\RichWeb\\Algorithms\\Packages\\AlgorithmPackageLoader&#45;&gt;\\RichWeb\\Algorithms\\Interfaces\\AlgorithmPackageLoaderInterface</title>
<path fill="none" stroke="black" stroke-dasharray="1,5" d="M376.9,-196.03C348.6,-205.32 313.11,-216.45 281,-225 272.43,-227.28 263.5,-229.52 254.52,-231.66"/>
<polygon fill="none" stroke="black" points="253.71,-228.26 244.78,-233.95 255.31,-235.07 253.71,-228.26"/>
</g>
<!-- \\RichWeb\\Algorithms\\Packages\\AlgorithmPackageLoader&#45;&gt;\\RichWeb\\Algorithms\\Interfaces\\HasRunnerInterface -->
<g id="edge24" class="edge">
<title>\\RichWeb\\Algorithms\\Packages\\AlgorithmPackageLoader&#45;&gt;\\RichWeb\\Algorithms\\Interfaces\\HasRunnerInterface</title>
<path fill="none" stroke="black" stroke-dasharray="1,5" d="M375.96,-196.02C361.05,-203.6 346.39,-213.99 337,-228 270.18,-327.65 360.99,-675.57 281,-765 269.32,-778.06 252.91,-785.6 235.87,-789.79"/>
<polygon fill="none" stroke="black" points="234.86,-786.43 225.79,-791.89 236.29,-793.28 234.86,-786.43"/>
</g>
<!-- \\RichWeb\\Algorithms\\Packages\\AlgorithmPackageManager -->
<g id="node36" class="node">
<title>\\RichWeb\\Algorithms\\Packages\\AlgorithmPackageManager</title>
<polygon fill="none" stroke="black" points="517,-142 345,-142 345,-106 517,-106 517,-142"/>
<text text-anchor="middle" x="431" y="-121.2" font-family="Courier,monospace" font-size="11.00">AlgorithmPackageManager</text>
</g>
<!-- \\RichWeb\\Algorithms\\Packages\\AlgorithmPackageManager&#45;&gt;\\RichWeb\\Algorithms\\Interfaces\\AlgorithmPackageManagerInterface -->
<g id="edge25" class="edge">
<title>\\RichWeb\\Algorithms\\Packages\\AlgorithmPackageManager&#45;&gt;\\RichWeb\\Algorithms\\Interfaces\\AlgorithmPackageManagerInterface</title>
<path fill="none" stroke="black" stroke-dasharray="1,5" d="M366.06,-142.01C356.3,-144.92 346.36,-147.97 337,-151 311.85,-159.13 306.41,-163.72 281,-171 273.04,-173.28 264.74,-175.48 256.38,-177.56"/>
<polygon fill="none" stroke="black" points="255.44,-174.19 246.55,-179.96 257.1,-180.99 255.44,-174.19"/>
</g>
<!-- \\RichWeb\\Algorithms\\Setup\\AlgorithmScripts -->
<g id="node37" class="node">
<title>\\RichWeb\\Algorithms\\Setup\\AlgorithmScripts</title>
<polygon fill="none" stroke="black" points="1039,-438 914,-438 914,-402 1039,-402 1039,-438"/>
<text text-anchor="middle" x="976.5" y="-417.2" font-family="Courier,monospace" font-size="11.00">AlgorithmScripts</text>
</g>
<!-- \\RichWeb\\Algorithms\\Setup\\AlgorithmScripts&#45;&gt;\\RichWeb\\Algorithms\\Abstracts\\AbstractScripts -->
<g id="edge29" class="edge">
<title>\\RichWeb\\Algorithms\\Setup\\AlgorithmScripts&#45;&gt;\\RichWeb\\Algorithms\\Abstracts\\AbstractScripts</title>
<path fill="none" stroke="black" d="M913.85,-408.22C868.78,-399.6 807.65,-387.92 761.13,-379.02"/>
<polygon fill="none" stroke="black" points="761.62,-375.55 751.14,-377.11 760.3,-382.43 761.62,-375.55"/>
</g>
<!-- \\RichWeb\\Algorithms\\Setup\\Languages -->
<g id="node38" class="node">
<title>\\RichWeb\\Algorithms\\Setup\\Languages</title>
<polygon fill="none" stroke="black" points="1015,-546 938,-546 938,-510 1015,-510 1015,-546"/>
<text text-anchor="middle" x="976.5" y="-525.2" font-family="Courier,monospace" font-size="11.00">Languages</text>
</g>
<!-- \\RichWeb\\Algorithms\\Setup\\Languages&#45;&gt;\\RichWeb\\Algorithms\\Interfaces\\HasRunnerInterface -->
<g id="edge31" class="edge">
<title>\\RichWeb\\Algorithms\\Setup\\Languages&#45;&gt;\\RichWeb\\Algorithms\\Interfaces\\HasRunnerInterface</title>
<path fill="none" stroke="black" stroke-dasharray="1,5" d="M430,-789C365.14,-800.15 290.32,-800.07 235.51,-797.67"/>
<polygon fill="none" stroke="black" points="235.67,-794.18 225.51,-797.2 235.33,-801.17 235.67,-794.18"/>
</g>
<!-- \\RichWeb\\Algorithms\\Setup\\Languages&#45;&gt;\\RichWeb\\Algorithms\\Interfaces\\LanguagesInterface -->
<g id="edge30" class="edge">
<title>\\RichWeb\\Algorithms\\Setup\\Languages&#45;&gt;\\RichWeb\\Algorithms\\Interfaces\\LanguagesInterface</title>
<path fill="none" stroke="black" stroke-dasharray="1,5" d="M430,-789C388.3,-787.18 378.11,-783.22 337,-776 317.48,-772.57 274.51,-763.5 235.51,-755.08"/>
<polygon fill="none" stroke="black" points="236.22,-751.65 225.7,-752.95 234.74,-758.49 236.22,-751.65"/>
<path fill="none" stroke="black" stroke-dasharray="1,5" d="M937.96,-533.2C914.59,-537.28 884.27,-544.13 859,-555 660.2,-640.49 648.2,-798.43 432,-789"/>
</g>
<!-- \\RichWeb\\Algorithms\\Setup\\PrismSyntaxtHighlighterScripts -->
<g id="node39" class="node">
<title>\\RichWeb\\Algorithms\\Setup\\PrismSyntaxtHighlighterScripts</title>
<polygon fill="none" stroke="black" points="1086,-492 867,-492 867,-456 1086,-456 1086,-492"/>
<text text-anchor="middle" x="976.5" y="-471.2" font-family="Courier,monospace" font-size="11.00">PrismSyntaxtHighlighterScripts</text>
</g>
<!-- \\RichWeb\\Algorithms\\Setup\\PrismSyntaxtHighlighterScripts&#45;&gt;\\RichWeb\\Algorithms\\Abstracts\\AbstractScripts -->
<g id="edge32" class="edge">
<title>\\RichWeb\\Algorithms\\Setup\\PrismSyntaxtHighlighterScripts&#45;&gt;\\RichWeb\\Algorithms\\Abstracts\\AbstractScripts</title>
<path fill="none" stroke="black" d="M877.13,-455.95C870.82,-453.36 864.71,-450.39 859,-447 831.39,-430.6 838.63,-409.36 811,-393 795.96,-384.09 778.23,-378.13 761.16,-374.13"/>
<polygon fill="none" stroke="black" points="761.72,-370.67 751.21,-371.99 760.25,-377.51 761.72,-370.67"/>
</g>
<!-- \\RichWeb\\Algorithms\\Setup\\Scripts -->
<g id="node40" class="node">
<title>\\RichWeb\\Algorithms\\Setup\\Scripts</title>
<polygon fill="none" stroke="black" points="1008.5,-384 944.5,-384 944.5,-348 1008.5,-348 1008.5,-384"/>
<text text-anchor="middle" x="976.5" y="-363.2" font-family="Courier,monospace" font-size="11.00">Scripts</text>
</g>
<!-- \\RichWeb\\Algorithms\\Setup\\Scripts&#45;&gt;\\RichWeb\\Algorithms\\Abstracts\\AbstractScripts -->
<g id="edge33" class="edge">
<title>\\RichWeb\\Algorithms\\Setup\\Scripts&#45;&gt;\\RichWeb\\Algorithms\\Abstracts\\AbstractScripts</title>
<path fill="none" stroke="black" d="M944.46,-366C900.65,-366 819.53,-366 761.26,-366"/>
<polygon fill="none" stroke="black" points="761.03,-362.5 751.03,-366 761.03,-369.5 761.03,-362.5"/>
</g>
<!-- \\RichWeb\\Algorithms\\Setup\\Setup -->
<g id="node41" class="node">
<title>\\RichWeb\\Algorithms\\Setup\\Setup</title>
<polygon fill="none" stroke="black" points="1003.5,-600 949.5,-600 949.5,-564 1003.5,-564 1003.5,-600"/>
<text text-anchor="middle" x="976.5" y="-579.2" font-family="Courier,monospace" font-size="11.00">Setup</text>
</g>
<!-- \\RichWeb\\Algorithms\\Setup\\Setup&#45;&gt;\\RichWeb\\Algorithms\\Interfaces\\HasRunnerInterface -->
<g id="edge34" class="edge">
<title>\\RichWeb\\Algorithms\\Setup\\Setup&#45;&gt;\\RichWeb\\Algorithms\\Interfaces\\HasRunnerInterface</title>
<path fill="none" stroke="black" stroke-dasharray="1,5" d="M955.71,-600.05C886.63,-660.84 648.64,-852.04 432,-809"/>
<path fill="none" stroke="black" stroke-dasharray="1,5" d="M430,-809C365.07,-799.05 290.6,-794.89 235.93,-793.17"/>
<polygon fill="none" stroke="black" points="235.71,-789.66 225.61,-792.87 235.51,-796.66 235.71,-789.66"/>
</g>
<!-- \\RichWeb\\Algorithms\\Traits\\Formatting\\FilePaths -->
<g id="node42" class="node">
<title>\\RichWeb\\Algorithms\\Traits\\Formatting\\FilePaths</title>
<polygon fill="none" stroke="black" points="1015,-990 938,-990 938,-954 1015,-954 1015,-990"/>
<text text-anchor="middle" x="976.5" y="-969.2" font-family="Courier,monospace" font-size="11.00">FilePaths</text>
</g>
<!-- \\RichWeb\\Algorithms\\Traits\\Formatting\\Strings -->
<g id="node43" class="node">
<title>\\RichWeb\\Algorithms\\Traits\\Formatting\\Strings</title>
<polygon fill="none" stroke="black" points="1008.5,-936 944.5,-936 944.5,-900 1008.5,-900 1008.5,-936"/>
<text text-anchor="middle" x="976.5" y="-915.2" font-family="Courier,monospace" font-size="11.00">Strings</text>
</g>
<!-- \\RichWeb\\Algorithms\\Traits\\Posts\\AlgorithmChecker -->
<g id="node44" class="node">
<title>\\RichWeb\\Algorithms\\Traits\\Posts\\AlgorithmChecker</title>
<polygon fill="none" stroke="black" points="1039,-856 914,-856 914,-820 1039,-820 1039,-856"/>
<text text-anchor="middle" x="976.5" y="-835.2" font-family="Courier,monospace" font-size="11.00">AlgorithmChecker</text>
</g>
<!-- \\RichWeb\\Algorithms\\Plugin -->
<g id="node45" class="node">
<title>\\RichWeb\\Algorithms\\Plugin</title>
<polygon fill="none" stroke="black" points="1005,-276 948,-276 948,-240 1005,-240 1005,-276"/>
<text text-anchor="middle" x="976.5" y="-255.2" font-family="Courier,monospace" font-size="11.00">Plugin</text>
</g>
<!-- \\RichWeb\\Algorithms\\Plugin&#45;&gt;\\RichWeb\\Algorithms\\Abstracts\\AbstractSingletonPlugin -->
<g id="edge26" class="edge">
<title>\\RichWeb\\Algorithms\\Plugin&#45;&gt;\\RichWeb\\Algorithms\\Abstracts\\AbstractSingletonPlugin</title>
<path fill="none" stroke="black" d="M947.9,-258C911.17,-258 844.35,-258 788.34,-258"/>
<polygon fill="none" stroke="black" points="788.02,-254.5 778.02,-258 788.02,-261.5 788.02,-254.5"/>
</g>
<!-- \\RichWeb\\Algorithms\\PrismSyntaxHighlighter -->
<g id="node46" class="node">
<title>\\RichWeb\\Algorithms\\PrismSyntaxHighlighter</title>
<polygon fill="none" stroke="black" points="1059,-330 894,-330 894,-294 1059,-294 1059,-330"/>
<text text-anchor="middle" x="976.5" y="-309.2" font-family="Courier,monospace" font-size="11.00">PrismSyntaxHighlighter</text>
</g>
<!-- \\RichWeb\\Algorithms\\PrismSyntaxHighlighter&#45;&gt;\\RichWeb\\Algorithms\\Abstracts\\AbstractSyntaxHighlighter -->
<g id="edge27" class="edge">
<title>\\RichWeb\\Algorithms\\PrismSyntaxHighlighter&#45;&gt;\\RichWeb\\Algorithms\\Abstracts\\AbstractSyntaxHighlighter</title>
<path fill="none" stroke="black" d="M893.79,-312C862.98,-312 827.55,-312 795.11,-312"/>
<polygon fill="none" stroke="black" points="794.7,-308.5 784.7,-312 794.7,-315.5 794.7,-308.5"/>
</g>
<!-- \\RichWeb\\Algorithms\\Project -->
<g id="node47" class="node">
<title>\\RichWeb\\Algorithms\\Project</title>
<polygon fill="none" stroke="black" points="463,-510 399,-510 399,-474 463,-474 463,-510"/>
<text text-anchor="middle" x="431" y="-489.2" font-family="Courier,monospace" font-size="11.00">Project</text>
</g>
<!-- \\RichWeb\\Algorithms\\Project&#45;&gt;\\RichWeb\\Algorithms\\Interfaces\\ProjectInterface -->
<g id="edge28" class="edge">
<title>\\RichWeb\\Algorithms\\Project&#45;&gt;\\RichWeb\\Algorithms\\Interfaces\\ProjectInterface</title>
<path fill="none" stroke="black" stroke-dasharray="1,5" d="M398.79,-490.33C379.55,-487.99 355.15,-482.55 337,-470 300.39,-444.7 317.82,-411.99 281,-387 265.75,-376.65 247.23,-370.19 229.21,-366.17"/>
<polygon fill="none" stroke="black" points="229.77,-362.72 219.27,-364.19 228.39,-369.58 229.77,-362.72"/>
</g>
</g>
</svg>
