<?xml version="1.0" encoding="UTF-8" standalone="no"?>
<!DOCTYPE svg PUBLIC "-//W3C//DTD SVG 1.1//EN"
 "http://www.w3.org/Graphics/SVG/1.1/DTD/svg11.dtd">
<!-- Generated by graphviz version 2.50.0 (20211204.2007)
 -->
<!-- Title: G Pages: 1 -->
<svg width="830pt" height="1298pt"
 viewBox="0.00 0.00 829.50 1298.00" xmlns="http://www.w3.org/2000/svg" xmlns:xlink="http://www.w3.org/1999/xlink">
<g id="graph0" class="graph" transform="scale(1 1) rotate(0) translate(4 1294)">
<title>G</title>
<polygon fill="white" stroke="transparent" points="-4,4 -4,-1294 825.5,-1294 825.5,4 -4,4"/>
<g id="clust1" class="cluster">
<title>cluster_Global</title>
<polygon fill="none" stroke="black" points="8,-8 8,-1282 813.5,-1282 813.5,-8 8,-8"/>
<text text-anchor="middle" x="410.75" y="-1269.2" font-family="Times New Roman,serif" font-size="11.00" fill="gray">Global</text>
</g>
<g id="clust2" class="cluster">
<title>cluster_\RichWeb</title>
<polygon fill="none" stroke="black" points="16,-16 16,-1210 805.5,-1210 805.5,-16 16,-16"/>
<text text-anchor="middle" x="410.75" y="-1197.2" font-family="Times New Roman,serif" font-size="11.00" fill="gray">RichWeb</text>
</g>
<g id="clust3" class="cluster">
<title>cluster_\RichWeb\Algorithms</title>
<polygon fill="none" stroke="black" points="24,-24 24,-1182 797.5,-1182 797.5,-24 24,-24"/>
<text text-anchor="middle" x="410.75" y="-1169.2" font-family="Times New Roman,serif" font-size="11.00" fill="gray">Algorithms</text>
</g>
<g id="clust5" class="cluster">
<title>cluster_\RichWeb\Algorithms\Admin</title>
<polygon fill="none" stroke="black" points="57.5,-892 57.5,-1154 789.5,-1154 789.5,-892 57.5,-892"/>
<text text-anchor="middle" x="423.5" y="-1141.2" font-family="Times New Roman,serif" font-size="11.00" fill="gray">Admin</text>
</g>
<g id="clust6" class="cluster">
<title>cluster_\RichWeb\Algorithms\Admin\Abstracts</title>
<polygon fill="none" stroke="black" points="326,-923 326,-1049 467,-1049 467,-923 326,-923"/>
<text text-anchor="middle" x="396.5" y="-1036.2" font-family="Times New Roman,serif" font-size="11.00" fill="gray">Abstracts</text>
</g>
<g id="clust7" class="cluster">
<title>cluster_\RichWeb\Algorithms\Admin\Interfaces</title>
<polygon fill="none" stroke="black" points="65.5,-977 65.5,-1049 206.5,-1049 206.5,-977 65.5,-977"/>
<text text-anchor="middle" x="136" y="-1036.2" font-family="Times New Roman,serif" font-size="11.00" fill="gray">Interfaces</text>
</g>
<g id="clust8" class="cluster">
<title>cluster_\RichWeb\Algorithms\Admin\MetaBoxes</title>
<polygon fill="none" stroke="black" points="559.5,-946 559.5,-1126 781.5,-1126 781.5,-946 559.5,-946"/>
<text text-anchor="middle" x="670.5" y="-1113.2" font-family="Times New Roman,serif" font-size="11.00" fill="gray">MetaBoxes</text>
</g>
<g id="clust10" class="cluster">
<title>cluster_\RichWeb\Algorithms\Loaders</title>
<polygon fill="none" stroke="black" points="620.5,-758 620.5,-884 720.5,-884 720.5,-758 620.5,-758"/>
<text text-anchor="middle" x="670.5" y="-871.2" font-family="Times New Roman,serif" font-size="11.00" fill="gray">Loaders</text>
</g>
<g id="clust4" class="cluster">
<title>cluster_\RichWeb\Algorithms\Abstracts</title>
<polygon fill="none" stroke="black" points="72.5,-283 72.5,-463 497,-463 497,-283 72.5,-283"/>
<text text-anchor="middle" x="284.75" y="-450.2" font-family="Times New Roman,serif" font-size="11.00" fill="gray">Abstracts</text>
</g>
<g id="clust9" class="cluster">
<title>cluster_\RichWeb\Algorithms\Interfaces</title>
<polygon fill="none" stroke="black" points="32,-471 32,-759 240,-759 240,-471 32,-471"/>
<text text-anchor="middle" x="136" y="-746.2" font-family="Times New Roman,serif" font-size="11.00" fill="gray">Interfaces</text>
</g>
<g id="clust11" class="cluster">
<title>cluster_\RichWeb\Algorithms\Setup</title>
<polygon fill="none" stroke="black" points="553,-516 553,-750 788,-750 788,-516 553,-516"/>
<text text-anchor="middle" x="670.5" y="-737.2" font-family="Times New Roman,serif" font-size="11.00" fill="gray">Setup</text>
</g>
<g id="clust12" class="cluster">
<title>cluster_\RichWeb\Algorithms\Traits</title>
<polygon fill="none" stroke="black" points="616,-346 616,-508 725,-508 725,-346 616,-346"/>
<text text-anchor="middle" x="670.5" y="-495.2" font-family="Times New Roman,serif" font-size="11.00" fill="gray">Traits</text>
</g>
<g id="clust13" class="cluster">
<title>cluster_\RichWeb\Algorithms\Traits\Formatting</title>
<polygon fill="none" stroke="black" points="624,-354 624,-480 717,-480 717,-354 624,-354"/>
<text text-anchor="middle" x="670.5" y="-467.2" font-family="Times New Roman,serif" font-size="11.00" fill="gray">Formatting</text>
</g>
<!-- \\RichWeb\\Algorithms\\Abstracts\\AbstractPlugin -->
<g id="node1" class="node">
<title>\\RichWeb\\Algorithms\\Abstracts\\AbstractPlugin</title>
<polygon fill="none" stroke="black" points="191.5,-381 80.5,-381 80.5,-345 191.5,-345 191.5,-381"/>
<text text-anchor="start" x="102" y="-366.2" font-family="Courier,monospace" font-size="11.00">«abstract»</text>
<text text-anchor="start" x="88.5" y="-354.2" font-family="Courier,monospace" font-size="11.00">AbstractPlugin</text>
</g>
<!-- \\RichWeb\\Algorithms\\Abstracts\\AbstractScripts -->
<g id="node2" class="node">
<title>\\RichWeb\\Algorithms\\Abstracts\\AbstractScripts</title>
<polygon fill="none" stroke="black" points="455.5,-435 337.5,-435 337.5,-399 455.5,-399 455.5,-435"/>
<text text-anchor="start" x="362.5" y="-420.2" font-family="Courier,monospace" font-size="11.00">«abstract»</text>
<text text-anchor="start" x="345.5" y="-408.2" font-family="Courier,monospace" font-size="11.00">AbstractScripts</text>
</g>
<!-- \\RichWeb\\Algorithms\\Interfaces\\ScriptsInterface -->
<g id="node14" class="node">
<title>\\RichWeb\\Algorithms\\Interfaces\\ScriptsInterface</title>
<polygon fill="none" stroke="black" points="198.5,-623 73.5,-623 73.5,-587 198.5,-587 198.5,-623"/>
<text text-anchor="middle" x="136" y="-602.2" font-family="Courier,monospace" font-size="11.00">ScriptsInterface</text>
</g>
<!-- \\RichWeb\\Algorithms\\Abstracts\\AbstractScripts&#45;&gt;\\RichWeb\\Algorithms\\Interfaces\\ScriptsInterface -->
<g id="edge1" class="edge">
<title>\\RichWeb\\Algorithms\\Abstracts\\AbstractScripts&#45;&gt;\\RichWeb\\Algorithms\\Interfaces\\ScriptsInterface</title>
<path fill="none" stroke="black" stroke-dasharray="1,5" d="M383.28,-435.09C359.66,-468.59 304.39,-540.31 240,-578 230.25,-583.71 219.29,-588.23 208.25,-591.8"/>
<polygon fill="none" stroke="black" points="207.13,-588.48 198.55,-594.71 209.14,-595.19 207.13,-588.48"/>
</g>
<!-- \\RichWeb\\Algorithms\\Abstracts\\AbstractSingletonPlugin -->
<g id="node3" class="node">
<title>\\RichWeb\\Algorithms\\Abstracts\\AbstractSingletonPlugin</title>
<polygon fill="none" stroke="black" points="482.5,-381 310.5,-381 310.5,-345 482.5,-345 482.5,-381"/>
<text text-anchor="start" x="362.5" y="-366.2" font-family="Courier,monospace" font-size="11.00">«abstract»</text>
<text text-anchor="start" x="318.5" y="-354.2" font-family="Courier,monospace" font-size="11.00">AbstractSingletonPlugin</text>
</g>
<!-- \\RichWeb\\Algorithms\\Abstracts\\AbstractSingletonPlugin&#45;&gt;\\RichWeb\\Algorithms\\Abstracts\\AbstractPlugin -->
<g id="edge2" class="edge">
<title>\\RichWeb\\Algorithms\\Abstracts\\AbstractSingletonPlugin&#45;&gt;\\RichWeb\\Algorithms\\Abstracts\\AbstractPlugin</title>
<path fill="none" stroke="black" d="M310.5,-363C275.18,-363 234.84,-363 201.96,-363"/>
<polygon fill="none" stroke="black" points="201.56,-359.5 191.56,-363 201.56,-366.5 201.56,-359.5"/>
</g>
<!-- \\RichWeb\\Algorithms\\Interfaces\\SingletonInterface -->
<g id="node15" class="node">
<title>\\RichWeb\\Algorithms\\Interfaces\\SingletonInterface</title>
<polygon fill="none" stroke="black" points="205,-569 67,-569 67,-533 205,-533 205,-569"/>
<text text-anchor="middle" x="136" y="-548.2" font-family="Courier,monospace" font-size="11.00">SingletonInterface</text>
</g>
<!-- \\RichWeb\\Algorithms\\Abstracts\\AbstractSingletonPlugin&#45;&gt;\\RichWeb\\Algorithms\\Interfaces\\SingletonInterface -->
<g id="edge3" class="edge">
<title>\\RichWeb\\Algorithms\\Abstracts\\AbstractSingletonPlugin&#45;&gt;\\RichWeb\\Algorithms\\Interfaces\\SingletonInterface</title>
<path fill="none" stroke="black" stroke-dasharray="1,5" d="M316.75,-381.19C312.21,-383.75 307.91,-386.67 304,-390 253.78,-432.82 290.87,-481.95 240,-524 232.54,-530.16 223.83,-534.93 214.69,-538.63"/>
<polygon fill="none" stroke="black" points="213.27,-535.42 205.05,-542.1 215.64,-542 213.27,-535.42"/>
</g>
<!-- \\RichWeb\\Algorithms\\Abstracts\\AbstractSyntaxHighlighter -->
<g id="node4" class="node">
<title>\\RichWeb\\Algorithms\\Abstracts\\AbstractSyntaxHighlighter</title>
<polygon fill="none" stroke="black" points="489,-327 304,-327 304,-291 489,-291 489,-327"/>
<text text-anchor="start" x="362.5" y="-312.2" font-family="Courier,monospace" font-size="11.00">«abstract»</text>
<text text-anchor="start" x="312" y="-300.2" font-family="Courier,monospace" font-size="11.00">AbstractSyntaxHighlighter</text>
</g>
<!-- \\RichWeb\\Algorithms\\Interfaces\\SyntaxHighlighterInterface -->
<g id="node16" class="node">
<title>\\RichWeb\\Algorithms\\Interfaces\\SyntaxHighlighterInterface</title>
<polygon fill="none" stroke="black" points="232,-515 40,-515 40,-479 232,-479 232,-515"/>
<text text-anchor="middle" x="136" y="-494.2" font-family="Courier,monospace" font-size="11.00">SyntaxHighlighterInterface</text>
</g>
<!-- \\RichWeb\\Algorithms\\Abstracts\\AbstractSyntaxHighlighter&#45;&gt;\\RichWeb\\Algorithms\\Interfaces\\SyntaxHighlighterInterface -->
<g id="edge4" class="edge">
<title>\\RichWeb\\Algorithms\\Abstracts\\AbstractSyntaxHighlighter&#45;&gt;\\RichWeb\\Algorithms\\Interfaces\\SyntaxHighlighterInterface</title>
<path fill="none" stroke="black" stroke-dasharray="1,5" d="M316.79,-327.23C312.24,-329.78 307.92,-332.69 304,-336 254.51,-377.83 289.57,-425.26 240,-467 236.96,-469.56 233.71,-471.9 230.31,-474.04"/>
<polygon fill="none" stroke="black" points="228.57,-471 221.58,-478.96 232.01,-477.1 228.57,-471"/>
</g>
<!-- \\RichWeb\\Algorithms\\Admin\\Abstracts\\AbstractMetaBox -->
<g id="node5" class="node">
<title>\\RichWeb\\Algorithms\\Admin\\Abstracts\\AbstractMetaBox</title>
<polygon fill="none" stroke="black" points="455.5,-1021 337.5,-1021 337.5,-985 455.5,-985 455.5,-1021"/>
<text text-anchor="start" x="362.5" y="-1006.2" font-family="Courier,monospace" font-size="11.00">«abstract»</text>
<text text-anchor="start" x="345.5" y="-994.2" font-family="Courier,monospace" font-size="11.00">AbstractMetaBox</text>
</g>
<!-- \\RichWeb\\Algorithms\\Admin\\Interfaces\\MetaBoxInterface -->
<g id="node7" class="node">
<title>\\RichWeb\\Algorithms\\Admin\\Interfaces\\MetaBoxInterface</title>
<polygon fill="none" stroke="black" points="198.5,-1021 73.5,-1021 73.5,-985 198.5,-985 198.5,-1021"/>
<text text-anchor="middle" x="136" y="-1000.2" font-family="Courier,monospace" font-size="11.00">MetaBoxInterface</text>
</g>
<!-- \\RichWeb\\Algorithms\\Admin\\Abstracts\\AbstractMetaBox&#45;&gt;\\RichWeb\\Algorithms\\Admin\\Interfaces\\MetaBoxInterface -->
<g id="edge5" class="edge">
<title>\\RichWeb\\Algorithms\\Admin\\Abstracts\\AbstractMetaBox&#45;&gt;\\RichWeb\\Algorithms\\Admin\\Interfaces\\MetaBoxInterface</title>
<path fill="none" stroke="black" stroke-dasharray="1,5" d="M337.49,-1003C299.48,-1003 249.51,-1003 208.97,-1003"/>
<polygon fill="none" stroke="black" points="208.88,-999.5 198.88,-1003 208.88,-1006.5 208.88,-999.5"/>
</g>
<!-- \\RichWeb\\Algorithms\\Admin\\Abstracts\\AbstractPostType -->
<g id="node6" class="node">
<title>\\RichWeb\\Algorithms\\Admin\\Abstracts\\AbstractPostType</title>
<polygon fill="none" stroke="black" points="459,-967 334,-967 334,-931 459,-931 459,-967"/>
<text text-anchor="start" x="362.5" y="-952.2" font-family="Courier,monospace" font-size="11.00">«abstract»</text>
<text text-anchor="start" x="342" y="-940.2" font-family="Courier,monospace" font-size="11.00">AbstractPostType</text>
</g>
<!-- \\RichWeb\\Algorithms\\Interfaces\\HasRunnerInterface -->
<g id="node12" class="node">
<title>\\RichWeb\\Algorithms\\Interfaces\\HasRunnerInterface</title>
<polygon fill="none" stroke="black" points="205,-731 67,-731 67,-695 205,-695 205,-731"/>
<text text-anchor="middle" x="136" y="-710.2" font-family="Courier,monospace" font-size="11.00">HasRunnerInterface</text>
</g>
<!-- \\RichWeb\\Algorithms\\Admin\\Abstracts\\AbstractPostType&#45;&gt;\\RichWeb\\Algorithms\\Interfaces\\HasRunnerInterface -->
<g id="edge6" class="edge">
<title>\\RichWeb\\Algorithms\\Admin\\Abstracts\\AbstractPostType&#45;&gt;\\RichWeb\\Algorithms\\Interfaces\\HasRunnerInterface</title>
<path fill="none" stroke="black" stroke-dasharray="1,5" d="M333.61,-940.14C323.22,-937 312.93,-932.75 304,-927 229.64,-879.13 174.57,-786.45 150.45,-740.38"/>
<polygon fill="none" stroke="black" points="153.47,-738.58 145.78,-731.29 147.24,-741.78 153.47,-738.58"/>
</g>
<!-- \\RichWeb\\Algorithms\\Admin\\MetaBoxes\\AlgorithmCodeExamplesMetaBox -->
<g id="node8" class="node">
<title>\\RichWeb\\Algorithms\\Admin\\MetaBoxes\\AlgorithmCodeExamplesMetaBox</title>
<polygon fill="none" stroke="black" points="773.5,-1098 567.5,-1098 567.5,-1062 773.5,-1062 773.5,-1098"/>
<text text-anchor="middle" x="670.5" y="-1077.2" font-family="Courier,monospace" font-size="11.00">AlgorithmCodeExamplesMetaBox</text>
</g>
<!-- \\RichWeb\\Algorithms\\Admin\\MetaBoxes\\AlgorithmCodeExamplesMetaBox&#45;&gt;\\RichWeb\\Algorithms\\Admin\\Abstracts\\AbstractMetaBox -->
<g id="edge8" class="edge">
<title>\\RichWeb\\Algorithms\\Admin\\MetaBoxes\\AlgorithmCodeExamplesMetaBox&#45;&gt;\\RichWeb\\Algorithms\\Admin\\Abstracts\\AbstractMetaBox</title>
<path fill="none" stroke="black" d="M581.38,-1061.92C571.71,-1059.25 562.08,-1056.27 553,-1053 526.82,-1043.57 523.23,-1034.3 497,-1025 486.91,-1021.43 476.04,-1018.31 465.31,-1015.64"/>
<polygon fill="none" stroke="black" points="466.07,-1012.22 455.53,-1013.31 464.45,-1019.03 466.07,-1012.22"/>
</g>
<!-- \\RichWeb\\Algorithms\\Admin\\MetaBoxes\\AlgorithmPackageMetaBox -->
<g id="node9" class="node">
<title>\\RichWeb\\Algorithms\\Admin\\MetaBoxes\\AlgorithmPackageMetaBox</title>
<polygon fill="none" stroke="black" points="756.5,-1044 584.5,-1044 584.5,-1008 756.5,-1008 756.5,-1044"/>
<text text-anchor="middle" x="670.5" y="-1023.2" font-family="Courier,monospace" font-size="11.00">AlgorithmPackageMetaBox</text>
</g>
<!-- \\RichWeb\\Algorithms\\Admin\\MetaBoxes\\AlgorithmPackageMetaBox&#45;&gt;\\RichWeb\\Algorithms\\Admin\\Abstracts\\AbstractMetaBox -->
<g id="edge9" class="edge">
<title>\\RichWeb\\Algorithms\\Admin\\MetaBoxes\\AlgorithmPackageMetaBox&#45;&gt;\\RichWeb\\Algorithms\\Admin\\Abstracts\\AbstractMetaBox</title>
<path fill="none" stroke="black" d="M584.18,-1018.79C546.18,-1015.57 502.02,-1011.84 466.19,-1008.81"/>
<polygon fill="none" stroke="black" points="466.09,-1005.29 455.84,-1007.93 465.5,-1012.26 466.09,-1005.29"/>
</g>
<!-- \\RichWeb\\Algorithms\\Admin\\MetaBoxes\\MetaBoxes -->
<g id="node10" class="node">
<title>\\RichWeb\\Algorithms\\Admin\\MetaBoxes\\MetaBoxes</title>
<polygon fill="none" stroke="black" points="709,-990 632,-990 632,-954 709,-954 709,-990"/>
<text text-anchor="middle" x="670.5" y="-969.2" font-family="Courier,monospace" font-size="11.00">MetaBoxes</text>
</g>
<!-- \\RichWeb\\Algorithms\\Admin\\AlgorithmPostType -->
<g id="node11" class="node">
<title>\\RichWeb\\Algorithms\\Admin\\AlgorithmPostType</title>
<polygon fill="none" stroke="black" points="736,-936 605,-936 605,-900 736,-900 736,-936"/>
<text text-anchor="middle" x="670.5" y="-915.2" font-family="Courier,monospace" font-size="11.00">AlgorithmPostType</text>
</g>
<!-- \\RichWeb\\Algorithms\\Admin\\AlgorithmPostType&#45;&gt;\\RichWeb\\Algorithms\\Admin\\Abstracts\\AbstractPostType -->
<g id="edge7" class="edge">
<title>\\RichWeb\\Algorithms\\Admin\\AlgorithmPostType&#45;&gt;\\RichWeb\\Algorithms\\Admin\\Abstracts\\AbstractPostType</title>
<path fill="none" stroke="black" d="M604.69,-925.39C563.9,-930.03 511.21,-936.04 469.18,-940.83"/>
<polygon fill="none" stroke="black" points="468.55,-937.38 459.01,-941.99 469.34,-944.34 468.55,-937.38"/>
</g>
<!-- \\RichWeb\\Algorithms\\Interfaces\\LanguagesInterface -->
<g id="node13" class="node">
<title>\\RichWeb\\Algorithms\\Interfaces\\LanguagesInterface</title>
<polygon fill="none" stroke="black" points="205,-677 67,-677 67,-641 205,-641 205,-677"/>
<text text-anchor="middle" x="136" y="-656.2" font-family="Courier,monospace" font-size="11.00">LanguagesInterface</text>
</g>
<!-- \\RichWeb\\Algorithms\\Loaders\\Autoloader -->
<g id="node17" class="node">
<title>\\RichWeb\\Algorithms\\Loaders\\Autoloader</title>
<polygon fill="none" stroke="black" points="712.5,-856 628.5,-856 628.5,-820 712.5,-820 712.5,-856"/>
<text text-anchor="middle" x="670.5" y="-835.2" font-family="Courier,monospace" font-size="11.00">Autoloader</text>
</g>
<!-- \\RichWeb\\Algorithms\\Loaders\\FileLoader -->
<g id="node18" class="node">
<title>\\RichWeb\\Algorithms\\Loaders\\FileLoader</title>
<polygon fill="none" stroke="black" points="712.5,-802 628.5,-802 628.5,-766 712.5,-766 712.5,-802"/>
<text text-anchor="middle" x="670.5" y="-781.2" font-family="Courier,monospace" font-size="11.00">FileLoader</text>
</g>
<!-- \\RichWeb\\Algorithms\\Setup\\Languages -->
<g id="node19" class="node">
<title>\\RichWeb\\Algorithms\\Setup\\Languages</title>
<polygon fill="none" stroke="black" points="709,-668 632,-668 632,-632 709,-632 709,-668"/>
<text text-anchor="middle" x="670.5" y="-647.2" font-family="Courier,monospace" font-size="11.00">Languages</text>
</g>
<!-- \\RichWeb\\Algorithms\\Setup\\Languages&#45;&gt;\\RichWeb\\Algorithms\\Interfaces\\HasRunnerInterface -->
<g id="edge15" class="edge">
<title>\\RichWeb\\Algorithms\\Setup\\Languages&#45;&gt;\\RichWeb\\Algorithms\\Interfaces\\HasRunnerInterface</title>
<path fill="none" stroke="black" stroke-dasharray="1,5" d="M395.5,-667C334.32,-671.13 266.05,-683.62 215.04,-694.55"/>
<polygon fill="none" stroke="black" points="214.11,-691.17 205.08,-696.71 215.59,-698.01 214.11,-691.17"/>
</g>
<!-- \\RichWeb\\Algorithms\\Setup\\Languages&#45;&gt;\\RichWeb\\Algorithms\\Interfaces\\LanguagesInterface -->
<g id="edge14" class="edge">
<title>\\RichWeb\\Algorithms\\Setup\\Languages&#45;&gt;\\RichWeb\\Algorithms\\Interfaces\\LanguagesInterface</title>
<path fill="none" stroke="black" stroke-dasharray="1,5" d="M631.65,-652.25C579.1,-655.39 481.06,-661.36 397.5,-667"/>
<path fill="none" stroke="black" stroke-dasharray="1,5" d="M395.5,-667C335.02,-671.08 266.44,-668.63 215.13,-665.41"/>
<polygon fill="none" stroke="black" points="215.31,-661.91 205.1,-664.75 214.85,-668.9 215.31,-661.91"/>
</g>
<!-- \\RichWeb\\Algorithms\\Setup\\PrismSyntaxtHighlighterScripts -->
<g id="node20" class="node">
<title>\\RichWeb\\Algorithms\\Setup\\PrismSyntaxtHighlighterScripts</title>
<polygon fill="none" stroke="black" points="780,-560 561,-560 561,-524 780,-524 780,-560"/>
<text text-anchor="middle" x="670.5" y="-539.2" font-family="Courier,monospace" font-size="11.00">PrismSyntaxtHighlighterScripts</text>
</g>
<!-- \\RichWeb\\Algorithms\\Setup\\PrismSyntaxtHighlighterScripts&#45;&gt;\\RichWeb\\Algorithms\\Abstracts\\AbstractScripts -->
<g id="edge16" class="edge">
<title>\\RichWeb\\Algorithms\\Setup\\PrismSyntaxtHighlighterScripts&#45;&gt;\\RichWeb\\Algorithms\\Abstracts\\AbstractScripts</title>
<path fill="none" stroke="black" d="M630.24,-523.96C581.53,-501.57 498.48,-463.41 445.88,-439.23"/>
<polygon fill="none" stroke="black" points="447.3,-436.03 436.75,-435.04 444.37,-442.39 447.3,-436.03"/>
</g>
<!-- \\RichWeb\\Algorithms\\Setup\\Scripts -->
<g id="node21" class="node">
<title>\\RichWeb\\Algorithms\\Setup\\Scripts</title>
<polygon fill="none" stroke="black" points="702.5,-614 638.5,-614 638.5,-578 702.5,-578 702.5,-614"/>
<text text-anchor="middle" x="670.5" y="-593.2" font-family="Courier,monospace" font-size="11.00">Scripts</text>
</g>
<!-- \\RichWeb\\Algorithms\\Setup\\Scripts&#45;&gt;\\RichWeb\\Algorithms\\Abstracts\\AbstractScripts -->
<g id="edge17" class="edge">
<title>\\RichWeb\\Algorithms\\Setup\\Scripts&#45;&gt;\\RichWeb\\Algorithms\\Abstracts\\AbstractScripts</title>
<path fill="none" stroke="black" d="M638.43,-593.42C613.98,-590.34 579.68,-583.61 553,-569 495,-537.25 443.57,-477.79 416.88,-443.4"/>
<polygon fill="none" stroke="black" points="419.48,-441.05 410.63,-435.23 413.92,-445.3 419.48,-441.05"/>
</g>
<!-- \\RichWeb\\Algorithms\\Setup\\Setup -->
<g id="node22" class="node">
<title>\\RichWeb\\Algorithms\\Setup\\Setup</title>
<polygon fill="none" stroke="black" points="697.5,-722 643.5,-722 643.5,-686 697.5,-686 697.5,-722"/>
<text text-anchor="middle" x="670.5" y="-701.2" font-family="Courier,monospace" font-size="11.00">Setup</text>
</g>
<!-- \\RichWeb\\Algorithms\\Setup\\Setup&#45;&gt;\\RichWeb\\Algorithms\\Interfaces\\HasRunnerInterface -->
<g id="edge18" class="edge">
<title>\\RichWeb\\Algorithms\\Setup\\Setup&#45;&gt;\\RichWeb\\Algorithms\\Interfaces\\HasRunnerInterface</title>
<path fill="none" stroke="black" stroke-dasharray="1,5" d="M643.35,-704.27C583.36,-704.9 431.22,-706.61 304,-709 275.08,-709.54 243.34,-710.27 215.37,-710.96"/>
<polygon fill="none" stroke="black" points="215.16,-707.46 205.25,-711.21 215.33,-714.46 215.16,-707.46"/>
</g>
<!-- \\RichWeb\\Algorithms\\Traits\\Formatting\\FilePaths -->
<g id="node23" class="node">
<title>\\RichWeb\\Algorithms\\Traits\\Formatting\\FilePaths</title>
<polygon fill="none" stroke="black" points="709,-452 632,-452 632,-416 709,-416 709,-452"/>
<text text-anchor="middle" x="670.5" y="-431.2" font-family="Courier,monospace" font-size="11.00">FilePaths</text>
</g>
<!-- \\RichWeb\\Algorithms\\Traits\\Formatting\\Strings -->
<g id="node24" class="node">
<title>\\RichWeb\\Algorithms\\Traits\\Formatting\\Strings</title>
<polygon fill="none" stroke="black" points="702.5,-398 638.5,-398 638.5,-362 702.5,-362 702.5,-398"/>
<text text-anchor="middle" x="670.5" y="-377.2" font-family="Courier,monospace" font-size="11.00">Strings</text>
</g>
<!-- \\RichWeb\\Algorithms\\AlgorithmPackage -->
<g id="node25" class="node">
<title>\\RichWeb\\Algorithms\\AlgorithmPackage</title>
<polygon fill="none" stroke="black" points="733,-338 608,-338 608,-302 733,-302 733,-338"/>
<text text-anchor="middle" x="670.5" y="-317.2" font-family="Courier,monospace" font-size="11.00">AlgorithmPackage</text>
</g>
<!-- \\RichWeb\\Algorithms\\AlgorithmPackageLoader -->
<g id="node26" class="node">
<title>\\RichWeb\\Algorithms\\AlgorithmPackageLoader</title>
<polygon fill="none" stroke="black" points="479,-759 314,-759 314,-723 479,-723 479,-759"/>
<text text-anchor="middle" x="396.5" y="-738.2" font-family="Courier,monospace" font-size="11.00">AlgorithmPackageLoader</text>
</g>
<!-- \\RichWeb\\Algorithms\\AlgorithmPackageLoader&#45;&gt;\\RichWeb\\Algorithms\\Interfaces\\HasRunnerInterface -->
<g id="edge10" class="edge">
<title>\\RichWeb\\Algorithms\\AlgorithmPackageLoader&#45;&gt;\\RichWeb\\Algorithms\\Interfaces\\HasRunnerInterface</title>
<path fill="none" stroke="black" stroke-dasharray="1,5" d="M313.71,-732.14C282.35,-728.74 246.65,-724.88 215.6,-721.51"/>
<polygon fill="none" stroke="black" points="215.57,-717.99 205.26,-720.39 214.82,-724.95 215.57,-717.99"/>
</g>
<!-- \\RichWeb\\Algorithms\\AlgorithmPackageManager -->
<g id="node27" class="node">
<title>\\RichWeb\\Algorithms\\AlgorithmPackageManager</title>
<polygon fill="none" stroke="black" points="756.5,-284 584.5,-284 584.5,-248 756.5,-248 756.5,-284"/>
<text text-anchor="middle" x="670.5" y="-263.2" font-family="Courier,monospace" font-size="11.00">AlgorithmPackageManager</text>
</g>
<!-- \\RichWeb\\Algorithms\\CodeExample -->
<g id="node28" class="node">
<title>\\RichWeb\\Algorithms\\CodeExample</title>
<polygon fill="none" stroke="black" points="716,-230 625,-230 625,-194 716,-194 716,-230"/>
<text text-anchor="middle" x="670.5" y="-209.2" font-family="Courier,monospace" font-size="11.00">CodeExample</text>
</g>
<!-- Stringable -->
<g id="node32" class="node">
<title>Stringable</title>
<ellipse fill="none" stroke="black" cx="396.5" cy="-1236" rx="46.59" ry="18"/>
<text text-anchor="middle" x="396.5" y="-1232.3" font-family="Times New Roman,serif" font-size="14.00" fill="gray">Stringable</text>
</g>
<!-- \\RichWeb\\Algorithms\\CodeExample&#45;&gt;Stringable -->
<g id="edge11" class="edge">
<title>\\RichWeb\\Algorithms\\CodeExample&#45;&gt;Stringable</title>
<path fill="none" stroke="black" stroke-dasharray="1,5" d="M624.76,-210.29C599.82,-211.92 570.37,-218.62 553,-239 494.19,-308 522.35,-965.96 497,-1053 479.46,-1113.24 439.99,-1175.88 416.38,-1210"/>
<polygon fill="none" stroke="black" points="413.33,-1208.25 410.45,-1218.44 419.06,-1212.27 413.33,-1208.25"/>
</g>
<!-- \\RichWeb\\Algorithms\\Plugin -->
<g id="node29" class="node">
<title>\\RichWeb\\Algorithms\\Plugin</title>
<polygon fill="none" stroke="black" points="699,-176 642,-176 642,-140 699,-140 699,-176"/>
<text text-anchor="middle" x="670.5" y="-155.2" font-family="Courier,monospace" font-size="11.00">Plugin</text>
</g>
<!-- \\RichWeb\\Algorithms\\Plugin&#45;&gt;\\RichWeb\\Algorithms\\Abstracts\\AbstractSingletonPlugin -->
<g id="edge12" class="edge">
<title>\\RichWeb\\Algorithms\\Plugin&#45;&gt;\\RichWeb\\Algorithms\\Abstracts\\AbstractSingletonPlugin</title>
<path fill="none" stroke="black" d="M641.69,-157.33C615.74,-158.19 577.47,-163.47 553,-185 499.27,-232.29 549.84,-287.72 497,-336 495.09,-337.74 493.08,-339.38 490.99,-340.9"/>
<polygon fill="none" stroke="black" points="489.08,-337.97 482.54,-346.3 492.85,-343.87 489.08,-337.97"/>
</g>
<!-- \\RichWeb\\Algorithms\\PrismSyntaxHighlighter -->
<g id="node30" class="node">
<title>\\RichWeb\\Algorithms\\PrismSyntaxHighlighter</title>
<polygon fill="none" stroke="black" points="753,-122 588,-122 588,-86 753,-86 753,-122"/>
<text text-anchor="middle" x="670.5" y="-101.2" font-family="Courier,monospace" font-size="11.00">PrismSyntaxHighlighter</text>
</g>
<!-- \\RichWeb\\Algorithms\\PrismSyntaxHighlighter&#45;&gt;\\RichWeb\\Algorithms\\Abstracts\\AbstractSyntaxHighlighter -->
<g id="edge13" class="edge">
<title>\\RichWeb\\Algorithms\\PrismSyntaxHighlighter&#45;&gt;\\RichWeb\\Algorithms\\Abstracts\\AbstractSyntaxHighlighter</title>
<path fill="none" stroke="black" d="M587.99,-115.98C575.76,-119.71 563.68,-124.59 553,-131 489.31,-169.2 437.95,-242.36 413.32,-281.95"/>
<polygon fill="none" stroke="black" points="410.15,-280.43 407.92,-290.79 416.12,-284.08 410.15,-280.43"/>
</g>
<!-- \\RichWeb\\Algorithms\\Project -->
<g id="node31" class="node">
<title>\\RichWeb\\Algorithms\\Project</title>
<polygon fill="none" stroke="black" points="702.5,-68 638.5,-68 638.5,-32 702.5,-32 702.5,-68"/>
<text text-anchor="middle" x="670.5" y="-47.2" font-family="Courier,monospace" font-size="11.00">Project</text>
</g>
</g>
</svg>
