<?xml version="1.0" encoding="UTF-8" standalone="no"?>
<!DOCTYPE svg PUBLIC "-//W3C//DTD SVG 1.1//EN"
 "http://www.w3.org/Graphics/SVG/1.1/DTD/svg11.dtd">
<!-- Generated by graphviz version 2.50.0 (20211204.2007)
 -->
<!-- Title: G Pages: 1 -->
<svg width="1134pt" height="1262pt"
 viewBox="0.00 0.00 1134.00 1262.00" xmlns="http://www.w3.org/2000/svg" xmlns:xlink="http://www.w3.org/1999/xlink">
<g id="graph0" class="graph" transform="scale(1 1) rotate(0) translate(4 1258)">
<title>G</title>
<polygon fill="white" stroke="transparent" points="-4,4 -4,-1258 1130,-1258 1130,4 -4,4"/>
<g id="clust1" class="cluster">
<title>cluster_Global</title>
<polygon fill="none" stroke="black" points="8,-8 8,-1246 1118,-1246 1118,-8 8,-8"/>
<text text-anchor="middle" x="563" y="-1233.2" font-family="Times New Roman,serif" font-size="11.00" fill="gray">Global</text>
</g>
<g id="clust2" class="cluster">
<title>cluster_\RichWeb</title>
<polygon fill="none" stroke="black" points="16,-16 16,-1174 1110,-1174 1110,-16 16,-16"/>
<text text-anchor="middle" x="563" y="-1161.2" font-family="Times New Roman,serif" font-size="11.00" fill="gray">RichWeb</text>
</g>
<g id="clust3" class="cluster">
<title>cluster_\RichWeb\Algorithms</title>
<polygon fill="none" stroke="black" points="24,-24 24,-1146 1102,-1146 1102,-24 24,-24"/>
<text text-anchor="middle" x="563" y="-1133.2" font-family="Times New Roman,serif" font-size="11.00" fill="gray">Algorithms</text>
</g>
<g id="clust4" class="cluster">
<title>cluster_\RichWeb\Algorithms\Abstracts</title>
<polygon fill="none" stroke="black" points="367.5,-462 367.5,-696 792.5,-696 792.5,-462 367.5,-462"/>
<text text-anchor="middle" x="580" y="-683.2" font-family="Times New Roman,serif" font-size="11.00" fill="gray">Abstracts</text>
</g>
<g id="clust9" class="cluster">
<title>cluster_\RichWeb\Algorithms\Interfaces</title>
<polygon fill="none" stroke="black" points="32,-32 32,-806 281,-806 281,-32 32,-32"/>
<text text-anchor="middle" x="156.5" y="-793.2" font-family="Times New Roman,serif" font-size="11.00" fill="gray">Interfaces</text>
</g>
<g id="clust11" class="cluster">
<title>cluster_\RichWeb\Algorithms\Setup</title>
<polygon fill="none" stroke="black" points="859,-620 859,-854 1094,-854 1094,-620 859,-620"/>
<text text-anchor="middle" x="976.5" y="-841.2" font-family="Times New Roman,serif" font-size="11.00" fill="gray">Setup</text>
</g>
<g id="clust10" class="cluster">
<title>cluster_\RichWeb\Algorithms\Loaders</title>
<polygon fill="none" stroke="black" points="381,-284 381,-410 481,-410 481,-284 381,-284"/>
<text text-anchor="middle" x="431" y="-397.2" font-family="Times New Roman,serif" font-size="11.00" fill="gray">Loaders</text>
</g>
<g id="clust5" class="cluster">
<title>cluster_\RichWeb\Algorithms\Admin</title>
<polygon fill="none" stroke="black" points="75,-814 75,-1074 811,-1074 811,-814 75,-814"/>
<text text-anchor="middle" x="443" y="-1061.2" font-family="Times New Roman,serif" font-size="11.00" fill="gray">Admin</text>
</g>
<g id="clust7" class="cluster">
<title>cluster_\RichWeb\Algorithms\Admin\Interfaces</title>
<polygon fill="none" stroke="black" points="83,-898 83,-1024 230,-1024 230,-898 83,-898"/>
<text text-anchor="middle" x="156.5" y="-1011.2" font-family="Times New Roman,serif" font-size="11.00" fill="gray">Interfaces</text>
</g>
<g id="clust6" class="cluster">
<title>cluster_\RichWeb\Algorithms\Admin\Abstracts</title>
<polygon fill="none" stroke="black" points="360.5,-898 360.5,-1024 501.5,-1024 501.5,-898 360.5,-898"/>
<text text-anchor="middle" x="431" y="-1011.2" font-family="Times New Roman,serif" font-size="11.00" fill="gray">Abstracts</text>
</g>
<g id="clust8" class="cluster">
<title>cluster_\RichWeb\Algorithms\Admin\MetaBoxes</title>
<polygon fill="none" stroke="black" points="581,-822 581,-1002 803,-1002 803,-822 581,-822"/>
<text text-anchor="middle" x="692" y="-989.2" font-family="Times New Roman,serif" font-size="11.00" fill="gray">MetaBoxes</text>
</g>
<g id="clust12" class="cluster">
<title>cluster_\RichWeb\Algorithms\Traits</title>
<polygon fill="none" stroke="black" points="922,-450 922,-612 1031,-612 1031,-450 922,-450"/>
<text text-anchor="middle" x="976.5" y="-599.2" font-family="Times New Roman,serif" font-size="11.00" fill="gray">Traits</text>
</g>
<g id="clust13" class="cluster">
<title>cluster_\RichWeb\Algorithms\Traits\Formatting</title>
<polygon fill="none" stroke="black" points="930,-458 930,-584 1023,-584 1023,-458 930,-458"/>
<text text-anchor="middle" x="976.5" y="-571.2" font-family="Times New Roman,serif" font-size="11.00" fill="gray">Formatting</text>
</g>
<!-- \\RichWeb\\Algorithms\\Abstracts\\AbstractAlgorithm -->
<g id="node1" class="node">
<title>\\RichWeb\\Algorithms\\Abstracts\\AbstractAlgorithm</title>
<polygon fill="none" stroke="black" points="757.5,-560 626.5,-560 626.5,-524 757.5,-524 757.5,-560"/>
<text text-anchor="start" x="658" y="-545.2" font-family="Courier,monospace" font-size="11.00">«abstract»</text>
<text text-anchor="start" x="634.5" y="-533.2" font-family="Courier,monospace" font-size="11.00">AbstractAlgorithm</text>
</g>
<!-- \\RichWeb\\Algorithms\\Interfaces\\AlgorithmInterface -->
<g id="node14" class="node">
<title>\\RichWeb\\Algorithms\\Interfaces\\AlgorithmInterface</title>
<polygon fill="none" stroke="black" points="225.5,-238 87.5,-238 87.5,-202 225.5,-202 225.5,-238"/>
<text text-anchor="middle" x="156.5" y="-217.2" font-family="Courier,monospace" font-size="11.00">AlgorithmInterface</text>
</g>
<!-- \\RichWeb\\Algorithms\\Abstracts\\AbstractAlgorithm&#45;&gt;\\RichWeb\\Algorithms\\Interfaces\\AlgorithmInterface -->
<g id="edge1" class="edge">
<title>\\RichWeb\\Algorithms\\Abstracts\\AbstractAlgorithm&#45;&gt;\\RichWeb\\Algorithms\\Interfaces\\AlgorithmInterface</title>
<path fill="none" stroke="black" stroke-dasharray="1,5" d="M626.39,-538.31C609.67,-534.36 593.02,-527.31 581,-515 488.5,-420.24 619.74,-307.55 517,-224 506.28,-215.28 338.34,-216.71 235.84,-218.42"/>
<polygon fill="none" stroke="black" points="235.76,-214.92 225.82,-218.59 235.88,-221.92 235.76,-214.92"/>
</g>
<!-- \\RichWeb\\Algorithms\\Abstracts\\AbstractPlugin -->
<g id="node2" class="node">
<title>\\RichWeb\\Algorithms\\Abstracts\\AbstractPlugin</title>
<polygon fill="none" stroke="black" points="486.5,-543 375.5,-543 375.5,-507 486.5,-507 486.5,-543"/>
<text text-anchor="start" x="397" y="-528.2" font-family="Courier,monospace" font-size="11.00">«abstract»</text>
<text text-anchor="start" x="383.5" y="-516.2" font-family="Courier,monospace" font-size="11.00">AbstractPlugin</text>
</g>
<!-- \\RichWeb\\Algorithms\\Interfaces\\PluginInterface -->
<g id="node23" class="node">
<title>\\RichWeb\\Algorithms\\Interfaces\\PluginInterface</title>
<polygon fill="none" stroke="black" points="215.5,-508 97.5,-508 97.5,-472 215.5,-472 215.5,-508"/>
<text text-anchor="middle" x="156.5" y="-487.2" font-family="Courier,monospace" font-size="11.00">PluginInterface</text>
</g>
<!-- \\RichWeb\\Algorithms\\Abstracts\\AbstractPlugin&#45;&gt;\\RichWeb\\Algorithms\\Interfaces\\PluginInterface -->
<g id="edge2" class="edge">
<title>\\RichWeb\\Algorithms\\Abstracts\\AbstractPlugin&#45;&gt;\\RichWeb\\Algorithms\\Interfaces\\PluginInterface</title>
<path fill="none" stroke="black" stroke-dasharray="1,5" d="M375.18,-517.96C332.03,-512.42 271.68,-504.66 225.46,-498.73"/>
<polygon fill="none" stroke="black" points="225.89,-495.26 215.52,-497.45 225,-502.2 225.89,-495.26"/>
</g>
<!-- \\RichWeb\\Algorithms\\Abstracts\\AbstractScripts -->
<g id="node3" class="node">
<title>\\RichWeb\\Algorithms\\Abstracts\\AbstractScripts</title>
<polygon fill="none" stroke="black" points="751,-668 633,-668 633,-632 751,-632 751,-668"/>
<text text-anchor="start" x="658" y="-653.2" font-family="Courier,monospace" font-size="11.00">«abstract»</text>
<text text-anchor="start" x="641" y="-641.2" font-family="Courier,monospace" font-size="11.00">AbstractScripts</text>
</g>
<!-- \\RichWeb\\Algorithms\\Interfaces\\HasRunnerInterface -->
<g id="node21" class="node">
<title>\\RichWeb\\Algorithms\\Interfaces\\HasRunnerInterface</title>
<polygon fill="none" stroke="black" points="225.5,-724 87.5,-724 87.5,-688 225.5,-688 225.5,-724"/>
<text text-anchor="middle" x="156.5" y="-703.2" font-family="Courier,monospace" font-size="11.00">HasRunnerInterface</text>
</g>
<!-- \\RichWeb\\Algorithms\\Abstracts\\AbstractScripts&#45;&gt;\\RichWeb\\Algorithms\\Interfaces\\HasRunnerInterface -->
<g id="edge4" class="edge">
<title>\\RichWeb\\Algorithms\\Abstracts\\AbstractScripts&#45;&gt;\\RichWeb\\Algorithms\\Interfaces\\HasRunnerInterface</title>
<path fill="none" stroke="black" stroke-dasharray="1,5" d="M430,-668C364.01,-668.35 289.88,-679.39 235.62,-689.48"/>
<polygon fill="none" stroke="black" points="234.9,-686.05 225.73,-691.35 236.2,-692.93 234.9,-686.05"/>
</g>
<!-- \\RichWeb\\Algorithms\\Interfaces\\ScriptsInterface -->
<g id="node25" class="node">
<title>\\RichWeb\\Algorithms\\Interfaces\\ScriptsInterface</title>
<polygon fill="none" stroke="black" points="219,-616 94,-616 94,-580 219,-580 219,-616"/>
<text text-anchor="middle" x="156.5" y="-595.2" font-family="Courier,monospace" font-size="11.00">ScriptsInterface</text>
</g>
<!-- \\RichWeb\\Algorithms\\Abstracts\\AbstractScripts&#45;&gt;\\RichWeb\\Algorithms\\Interfaces\\ScriptsInterface -->
<g id="edge3" class="edge">
<title>\\RichWeb\\Algorithms\\Abstracts\\AbstractScripts&#45;&gt;\\RichWeb\\Algorithms\\Interfaces\\ScriptsInterface</title>
<path fill="none" stroke="black" stroke-dasharray="1,5" d="M430,-668C361.08,-668.37 347.81,-641.93 281,-625 264.28,-620.77 246.19,-616.59 229.15,-612.83"/>
<polygon fill="none" stroke="black" points="229.77,-609.38 219.25,-610.67 228.27,-616.22 229.77,-609.38"/>
<path fill="none" stroke="black" stroke-dasharray="1,5" d="M632.96,-656.17C580.52,-661.23 501.19,-667.63 432,-668"/>
</g>
<!-- \\RichWeb\\Algorithms\\Abstracts\\AbstractSingletonPlugin -->
<g id="node4" class="node">
<title>\\RichWeb\\Algorithms\\Abstracts\\AbstractSingletonPlugin</title>
<polygon fill="none" stroke="black" points="778,-614 606,-614 606,-578 778,-578 778,-614"/>
<text text-anchor="start" x="658" y="-599.2" font-family="Courier,monospace" font-size="11.00">«abstract»</text>
<text text-anchor="start" x="614" y="-587.2" font-family="Courier,monospace" font-size="11.00">AbstractSingletonPlugin</text>
</g>
<!-- \\RichWeb\\Algorithms\\Abstracts\\AbstractSingletonPlugin&#45;&gt;\\RichWeb\\Algorithms\\Abstracts\\AbstractPlugin -->
<g id="edge5" class="edge">
<title>\\RichWeb\\Algorithms\\Abstracts\\AbstractSingletonPlugin&#45;&gt;\\RichWeb\\Algorithms\\Abstracts\\AbstractPlugin</title>
<path fill="none" stroke="black" d="M615.44,-577.94C603.88,-575.04 592.11,-572 581,-569 553.18,-561.48 522.62,-552.57 496.47,-544.75"/>
<polygon fill="none" stroke="black" points="497.25,-541.33 486.67,-541.81 495.24,-548.03 497.25,-541.33"/>
</g>
<!-- \\RichWeb\\Algorithms\\Interfaces\\SingletonPluginInterface -->
<g id="node26" class="node">
<title>\\RichWeb\\Algorithms\\Interfaces\\SingletonPluginInterface</title>
<polygon fill="none" stroke="black" points="246,-562 67,-562 67,-526 246,-526 246,-562"/>
<text text-anchor="middle" x="156.5" y="-541.2" font-family="Courier,monospace" font-size="11.00">SingletonPluginInterface</text>
</g>
<!-- \\RichWeb\\Algorithms\\Abstracts\\AbstractSingletonPlugin&#45;&gt;\\RichWeb\\Algorithms\\Interfaces\\SingletonPluginInterface -->
<g id="edge6" class="edge">
<title>\\RichWeb\\Algorithms\\Abstracts\\AbstractSingletonPlugin&#45;&gt;\\RichWeb\\Algorithms\\Interfaces\\SingletonPluginInterface</title>
<path fill="none" stroke="black" stroke-dasharray="1,5" d="M605.88,-587.7C510.74,-578.43 356.9,-563.44 256.48,-553.65"/>
<polygon fill="none" stroke="black" points="256.61,-550.14 246.32,-552.66 255.93,-557.11 256.61,-550.14"/>
</g>
<!-- \\RichWeb\\Algorithms\\Abstracts\\AbstractSyntaxHighlighter -->
<g id="node5" class="node">
<title>\\RichWeb\\Algorithms\\Abstracts\\AbstractSyntaxHighlighter</title>
<polygon fill="none" stroke="black" points="784.5,-506 599.5,-506 599.5,-470 784.5,-470 784.5,-506"/>
<text text-anchor="start" x="658" y="-491.2" font-family="Courier,monospace" font-size="11.00">«abstract»</text>
<text text-anchor="start" x="607.5" y="-479.2" font-family="Courier,monospace" font-size="11.00">AbstractSyntaxHighlighter</text>
</g>
<!-- \\RichWeb\\Algorithms\\Interfaces\\SyntaxHighlighterInterface -->
<g id="node27" class="node">
<title>\\RichWeb\\Algorithms\\Interfaces\\SyntaxHighlighterInterface</title>
<polygon fill="none" stroke="black" points="252.5,-76 60.5,-76 60.5,-40 252.5,-40 252.5,-76"/>
<text text-anchor="middle" x="156.5" y="-55.2" font-family="Courier,monospace" font-size="11.00">SyntaxHighlighterInterface</text>
</g>
<!-- \\RichWeb\\Algorithms\\Abstracts\\AbstractSyntaxHighlighter&#45;&gt;\\RichWeb\\Algorithms\\Interfaces\\SyntaxHighlighterInterface -->
<g id="edge7" class="edge">
<title>\\RichWeb\\Algorithms\\Abstracts\\AbstractSyntaxHighlighter&#45;&gt;\\RichWeb\\Algorithms\\Interfaces\\SyntaxHighlighterInterface</title>
<path fill="none" stroke="black" stroke-dasharray="1,5" d="M689.93,-469.6C684.91,-402.3 657.58,-168.38 517,-71 435.03,-14.22 315.46,-23.21 237.08,-38.02"/>
<polygon fill="none" stroke="black" points="236.39,-34.58 227.25,-39.94 237.74,-41.45 236.39,-34.58"/>
</g>
<!-- \\RichWeb\\Algorithms\\Admin\\Abstracts\\AbstractMetaBox -->
<g id="node6" class="node">
<title>\\RichWeb\\Algorithms\\Admin\\Abstracts\\AbstractMetaBox</title>
<polygon fill="none" stroke="black" points="490,-942 372,-942 372,-906 490,-906 490,-942"/>
<text text-anchor="start" x="397" y="-927.2" font-family="Courier,monospace" font-size="11.00">«abstract»</text>
<text text-anchor="start" x="380" y="-915.2" font-family="Courier,monospace" font-size="11.00">AbstractMetaBox</text>
</g>
<!-- \\RichWeb\\Algorithms\\Admin\\Interfaces\\MetaBoxInterface -->
<g id="node8" class="node">
<title>\\RichWeb\\Algorithms\\Admin\\Interfaces\\MetaBoxInterface</title>
<polygon fill="none" stroke="black" points="219,-942 94,-942 94,-906 219,-906 219,-942"/>
<text text-anchor="middle" x="156.5" y="-921.2" font-family="Courier,monospace" font-size="11.00">MetaBoxInterface</text>
</g>
<!-- \\RichWeb\\Algorithms\\Admin\\Abstracts\\AbstractMetaBox&#45;&gt;\\RichWeb\\Algorithms\\Admin\\Interfaces\\MetaBoxInterface -->
<g id="edge8" class="edge">
<title>\\RichWeb\\Algorithms\\Admin\\Abstracts\\AbstractMetaBox&#45;&gt;\\RichWeb\\Algorithms\\Admin\\Interfaces\\MetaBoxInterface</title>
<path fill="none" stroke="black" stroke-dasharray="1,5" d="M371.88,-924C330.26,-924 273.95,-924 229.49,-924"/>
<polygon fill="none" stroke="black" points="229.32,-920.5 219.32,-924 229.32,-927.5 229.32,-920.5"/>
</g>
<!-- \\RichWeb\\Algorithms\\Admin\\Abstracts\\AbstractPostType -->
<g id="node7" class="node">
<title>\\RichWeb\\Algorithms\\Admin\\Abstracts\\AbstractPostType</title>
<polygon fill="none" stroke="black" points="493.5,-996 368.5,-996 368.5,-960 493.5,-960 493.5,-996"/>
<text text-anchor="start" x="397" y="-981.2" font-family="Courier,monospace" font-size="11.00">«abstract»</text>
<text text-anchor="start" x="376.5" y="-969.2" font-family="Courier,monospace" font-size="11.00">AbstractPostType</text>
</g>
<!-- \\RichWeb\\Algorithms\\Admin\\Interfaces\\PostTypeInterface -->
<g id="node9" class="node">
<title>\\RichWeb\\Algorithms\\Admin\\Interfaces\\PostTypeInterface</title>
<polygon fill="none" stroke="black" points="222,-996 91,-996 91,-960 222,-960 222,-996"/>
<text text-anchor="middle" x="156.5" y="-975.2" font-family="Courier,monospace" font-size="11.00">PostTypeInterface</text>
</g>
<!-- \\RichWeb\\Algorithms\\Admin\\Abstracts\\AbstractPostType&#45;&gt;\\RichWeb\\Algorithms\\Admin\\Interfaces\\PostTypeInterface -->
<g id="edge9" class="edge">
<title>\\RichWeb\\Algorithms\\Admin\\Abstracts\\AbstractPostType&#45;&gt;\\RichWeb\\Algorithms\\Admin\\Interfaces\\PostTypeInterface</title>
<path fill="none" stroke="black" stroke-dasharray="1,5" d="M368.17,-978C327.9,-978 275.12,-978 232.46,-978"/>
<polygon fill="none" stroke="black" points="232.41,-974.5 222.41,-978 232.41,-981.5 232.41,-974.5"/>
</g>
<!-- \\RichWeb\\Algorithms\\Admin\\Abstracts\\AbstractPostType&#45;&gt;\\RichWeb\\Algorithms\\Interfaces\\HasRunnerInterface -->
<g id="edge10" class="edge">
<title>\\RichWeb\\Algorithms\\Admin\\Abstracts\\AbstractPostType&#45;&gt;\\RichWeb\\Algorithms\\Interfaces\\HasRunnerInterface</title>
<path fill="none" stroke="black" stroke-dasharray="1,5" d="M368.24,-966.43C359.62,-962.65 351.5,-957.64 345,-951 274.39,-878.82 354.87,-801.85 281,-733 268.52,-721.37 252.23,-714.31 235.59,-710.12"/>
<polygon fill="none" stroke="black" points="236.3,-706.69 225.79,-707.97 234.81,-713.53 236.3,-706.69"/>
</g>
<!-- \\RichWeb\\Algorithms\\Admin\\MetaBoxes\\AlgorithmCodeExamplesMetaBox -->
<g id="node10" class="node">
<title>\\RichWeb\\Algorithms\\Admin\\MetaBoxes\\AlgorithmCodeExamplesMetaBox</title>
<polygon fill="none" stroke="black" points="795,-920 589,-920 589,-884 795,-884 795,-920"/>
<text text-anchor="middle" x="692" y="-899.2" font-family="Courier,monospace" font-size="11.00">AlgorithmCodeExamplesMetaBox</text>
</g>
<!-- \\RichWeb\\Algorithms\\Admin\\MetaBoxes\\AlgorithmCodeExamplesMetaBox&#45;&gt;\\RichWeb\\Algorithms\\Admin\\Abstracts\\AbstractMetaBox -->
<g id="edge12" class="edge">
<title>\\RichWeb\\Algorithms\\Admin\\MetaBoxes\\AlgorithmCodeExamplesMetaBox&#45;&gt;\\RichWeb\\Algorithms\\Admin\\Abstracts\\AbstractMetaBox</title>
<path fill="none" stroke="black" d="M588.64,-910.69C558.92,-913.22 527.21,-915.91 500.15,-918.21"/>
<polygon fill="none" stroke="black" points="499.69,-914.74 490.02,-919.07 500.28,-921.71 499.69,-914.74"/>
</g>
<!-- \\RichWeb\\Algorithms\\Admin\\MetaBoxes\\AlgorithmPackageMetaBox -->
<g id="node11" class="node">
<title>\\RichWeb\\Algorithms\\Admin\\MetaBoxes\\AlgorithmPackageMetaBox</title>
<polygon fill="none" stroke="black" points="778,-974 606,-974 606,-938 778,-938 778,-974"/>
<text text-anchor="middle" x="692" y="-953.2" font-family="Courier,monospace" font-size="11.00">AlgorithmPackageMetaBox</text>
</g>
<!-- \\RichWeb\\Algorithms\\Admin\\MetaBoxes\\AlgorithmPackageMetaBox&#45;&gt;\\RichWeb\\Algorithms\\Admin\\Abstracts\\AbstractMetaBox -->
<g id="edge13" class="edge">
<title>\\RichWeb\\Algorithms\\Admin\\MetaBoxes\\AlgorithmPackageMetaBox&#45;&gt;\\RichWeb\\Algorithms\\Admin\\Abstracts\\AbstractMetaBox</title>
<path fill="none" stroke="black" d="M605.83,-945.48C571.64,-941.25 532.76,-936.45 500.46,-932.46"/>
<polygon fill="none" stroke="black" points="500.56,-928.94 490.21,-931.19 499.71,-935.89 500.56,-928.94"/>
</g>
<!-- \\RichWeb\\Algorithms\\Admin\\MetaBoxes\\MetaBoxes -->
<g id="node12" class="node">
<title>\\RichWeb\\Algorithms\\Admin\\MetaBoxes\\MetaBoxes</title>
<polygon fill="none" stroke="black" points="730.5,-866 653.5,-866 653.5,-830 730.5,-830 730.5,-866"/>
<text text-anchor="middle" x="692" y="-845.2" font-family="Courier,monospace" font-size="11.00">MetaBoxes</text>
</g>
<!-- \\RichWeb\\Algorithms\\Admin\\MetaBoxes\\MetaBoxes&#45;&gt;\\RichWeb\\Algorithms\\Interfaces\\HasRunnerInterface -->
<g id="edge14" class="edge">
<title>\\RichWeb\\Algorithms\\Admin\\MetaBoxes\\MetaBoxes&#45;&gt;\\RichWeb\\Algorithms\\Interfaces\\HasRunnerInterface</title>
<path fill="none" stroke="black" stroke-dasharray="1,5" d="M653.46,-842.96C602.88,-835.9 510.17,-822 432,-805"/>
</g>
<!-- \\RichWeb\\Algorithms\\Admin\\AlgorithmPostType -->
<g id="node13" class="node">
<title>\\RichWeb\\Algorithms\\Admin\\AlgorithmPostType</title>
<polygon fill="none" stroke="black" points="757.5,-1046 626.5,-1046 626.5,-1010 757.5,-1010 757.5,-1046"/>
<text text-anchor="middle" x="692" y="-1025.2" font-family="Courier,monospace" font-size="11.00">AlgorithmPostType</text>
</g>
<!-- \\RichWeb\\Algorithms\\Admin\\AlgorithmPostType&#45;&gt;\\RichWeb\\Algorithms\\Admin\\Abstracts\\AbstractPostType -->
<g id="edge11" class="edge">
<title>\\RichWeb\\Algorithms\\Admin\\AlgorithmPostType&#45;&gt;\\RichWeb\\Algorithms\\Admin\\Abstracts\\AbstractPostType</title>
<path fill="none" stroke="black" d="M626.31,-1015.51C589.04,-1008.32 542.11,-999.26 503.71,-991.84"/>
<polygon fill="none" stroke="black" points="504.12,-988.36 493.64,-989.9 502.79,-995.23 504.12,-988.36"/>
</g>
<!-- \\RichWeb\\Algorithms\\Interfaces\\AlgorithmPackageInterface -->
<g id="node15" class="node">
<title>\\RichWeb\\Algorithms\\Interfaces\\AlgorithmPackageInterface</title>
<polygon fill="none" stroke="black" points="249,-184 64,-184 64,-148 249,-148 249,-184"/>
<text text-anchor="middle" x="156.5" y="-163.2" font-family="Courier,monospace" font-size="11.00">AlgorithmPackageInterface</text>
</g>
<!-- \\RichWeb\\Algorithms\\Interfaces\\AlgorithmPackageLoaderInterface -->
<g id="node16" class="node">
<title>\\RichWeb\\Algorithms\\Interfaces\\AlgorithmPackageLoaderInterface</title>
<polygon fill="none" stroke="black" points="269.5,-292 43.5,-292 43.5,-256 269.5,-256 269.5,-292"/>
<text text-anchor="middle" x="156.5" y="-271.2" font-family="Courier,monospace" font-size="11.00">AlgorithmPackageLoaderInterface</text>
</g>
<!-- \\RichWeb\\Algorithms\\Interfaces\\AlgorithmPackageManagerInterface -->
<g id="node17" class="node">
<title>\\RichWeb\\Algorithms\\Interfaces\\AlgorithmPackageManagerInterface</title>
<polygon fill="none" stroke="black" points="273,-130 40,-130 40,-94 273,-94 273,-130"/>
<text text-anchor="middle" x="156.5" y="-109.2" font-family="Courier,monospace" font-size="11.00">AlgorithmPackageManagerInterface</text>
</g>
<!-- \\RichWeb\\Algorithms\\Interfaces\\AutoloaderInterface -->
<g id="node18" class="node">
<title>\\RichWeb\\Algorithms\\Interfaces\\AutoloaderInterface</title>
<polygon fill="none" stroke="black" points="229,-346 84,-346 84,-310 229,-310 229,-346"/>
<text text-anchor="middle" x="156.5" y="-325.2" font-family="Courier,monospace" font-size="11.00">AutoloaderInterface</text>
</g>
<!-- \\RichWeb\\Algorithms\\Interfaces\\CodeExampleInterface -->
<g id="node19" class="node">
<title>\\RichWeb\\Algorithms\\Interfaces\\CodeExampleInterface</title>
<polygon fill="none" stroke="black" points="232.5,-778 80.5,-778 80.5,-742 232.5,-742 232.5,-778"/>
<text text-anchor="middle" x="156.5" y="-757.2" font-family="Courier,monospace" font-size="11.00">CodeExampleInterface</text>
</g>
<!-- \\RichWeb\\Algorithms\\Interfaces\\FileLoaderInterface -->
<g id="node20" class="node">
<title>\\RichWeb\\Algorithms\\Interfaces\\FileLoaderInterface</title>
<polygon fill="none" stroke="black" points="229,-400 84,-400 84,-364 229,-364 229,-400"/>
<text text-anchor="middle" x="156.5" y="-379.2" font-family="Courier,monospace" font-size="11.00">FileLoaderInterface</text>
</g>
<!-- \\RichWeb\\Algorithms\\Interfaces\\LanguagesInterface -->
<g id="node22" class="node">
<title>\\RichWeb\\Algorithms\\Interfaces\\LanguagesInterface</title>
<polygon fill="none" stroke="black" points="225.5,-670 87.5,-670 87.5,-634 225.5,-634 225.5,-670"/>
<text text-anchor="middle" x="156.5" y="-649.2" font-family="Courier,monospace" font-size="11.00">LanguagesInterface</text>
</g>
<!-- \\RichWeb\\Algorithms\\Interfaces\\ProjectInterface -->
<g id="node24" class="node">
<title>\\RichWeb\\Algorithms\\Interfaces\\ProjectInterface</title>
<polygon fill="none" stroke="black" points="219,-454 94,-454 94,-418 219,-418 219,-454"/>
<text text-anchor="middle" x="156.5" y="-433.2" font-family="Courier,monospace" font-size="11.00">ProjectInterface</text>
</g>
<!-- \\RichWeb\\Algorithms\\Loaders\\Autoloader -->
<g id="node28" class="node">
<title>\\RichWeb\\Algorithms\\Loaders\\Autoloader</title>
<polygon fill="none" stroke="black" points="473,-328 389,-328 389,-292 473,-292 473,-328"/>
<text text-anchor="middle" x="431" y="-307.2" font-family="Courier,monospace" font-size="11.00">Autoloader</text>
</g>
<!-- \\RichWeb\\Algorithms\\Loaders\\Autoloader&#45;&gt;\\RichWeb\\Algorithms\\Interfaces\\AutoloaderInterface -->
<g id="edge21" class="edge">
<title>\\RichWeb\\Algorithms\\Loaders\\Autoloader&#45;&gt;\\RichWeb\\Algorithms\\Interfaces\\AutoloaderInterface</title>
<path fill="none" stroke="black" stroke-dasharray="1,5" d="M388.91,-312.71C349.4,-315.32 288.58,-319.34 239.21,-322.6"/>
<polygon fill="none" stroke="black" points="238.92,-319.11 229.18,-323.27 239.39,-326.1 238.92,-319.11"/>
</g>
<!-- \\RichWeb\\Algorithms\\Loaders\\FileLoader -->
<g id="node29" class="node">
<title>\\RichWeb\\Algorithms\\Loaders\\FileLoader</title>
<polygon fill="none" stroke="black" points="473,-382 389,-382 389,-346 473,-346 473,-382"/>
<text text-anchor="middle" x="431" y="-361.2" font-family="Courier,monospace" font-size="11.00">FileLoader</text>
</g>
<!-- \\RichWeb\\Algorithms\\Loaders\\FileLoader&#45;&gt;\\RichWeb\\Algorithms\\Interfaces\\FileLoaderInterface -->
<g id="edge22" class="edge">
<title>\\RichWeb\\Algorithms\\Loaders\\FileLoader&#45;&gt;\\RichWeb\\Algorithms\\Interfaces\\FileLoaderInterface</title>
<path fill="none" stroke="black" stroke-dasharray="1,5" d="M388.91,-366.71C349.4,-369.32 288.58,-373.34 239.21,-376.6"/>
<polygon fill="none" stroke="black" points="238.92,-373.11 229.18,-377.27 239.39,-380.1 238.92,-373.11"/>
</g>
<!-- \\RichWeb\\Algorithms\\Setup\\Languages -->
<g id="node30" class="node">
<title>\\RichWeb\\Algorithms\\Setup\\Languages</title>
<polygon fill="none" stroke="black" points="1015,-772 938,-772 938,-736 1015,-736 1015,-772"/>
<text text-anchor="middle" x="976.5" y="-751.2" font-family="Courier,monospace" font-size="11.00">Languages</text>
</g>
<!-- \\RichWeb\\Algorithms\\Setup\\Languages&#45;&gt;\\RichWeb\\Algorithms\\Interfaces\\HasRunnerInterface -->
<g id="edge27" class="edge">
<title>\\RichWeb\\Algorithms\\Setup\\Languages&#45;&gt;\\RichWeb\\Algorithms\\Interfaces\\HasRunnerInterface</title>
<path fill="none" stroke="black" stroke-dasharray="1,5" d="M430,-706C364.63,-702.79 290.34,-703.05 235.86,-703.97"/>
<polygon fill="none" stroke="black" points="235.51,-700.47 225.58,-704.15 235.64,-707.47 235.51,-700.47"/>
</g>
<!-- \\RichWeb\\Algorithms\\Setup\\Languages&#45;&gt;\\RichWeb\\Algorithms\\Interfaces\\LanguagesInterface -->
<g id="edge26" class="edge">
<title>\\RichWeb\\Algorithms\\Setup\\Languages&#45;&gt;\\RichWeb\\Algorithms\\Interfaces\\LanguagesInterface</title>
<path fill="none" stroke="black" stroke-dasharray="1,5" d="M937.68,-749.63C849.33,-739.66 622.4,-715.34 432,-706"/>
<path fill="none" stroke="black" stroke-dasharray="1,5" d="M430,-706C392.27,-702.77 382.16,-707.29 345,-700 315.62,-694.24 309.88,-686.87 281,-679 266.41,-675.02 250.73,-671.23 235.59,-667.81"/>
<polygon fill="none" stroke="black" points="236.27,-664.38 225.75,-665.62 234.75,-671.21 236.27,-664.38"/>
</g>
<!-- \\RichWeb\\Algorithms\\Setup\\PrismSyntaxtHighlighterScripts -->
<g id="node31" class="node">
<title>\\RichWeb\\Algorithms\\Setup\\PrismSyntaxtHighlighterScripts</title>
<polygon fill="none" stroke="black" points="1086,-664 867,-664 867,-628 1086,-628 1086,-664"/>
<text text-anchor="middle" x="976.5" y="-643.2" font-family="Courier,monospace" font-size="11.00">PrismSyntaxtHighlighterScripts</text>
</g>
<!-- \\RichWeb\\Algorithms\\Setup\\PrismSyntaxtHighlighterScripts&#45;&gt;\\RichWeb\\Algorithms\\Abstracts\\AbstractScripts -->
<g id="edge28" class="edge">
<title>\\RichWeb\\Algorithms\\Setup\\PrismSyntaxtHighlighterScripts&#45;&gt;\\RichWeb\\Algorithms\\Abstracts\\AbstractScripts</title>
<path fill="none" stroke="black" d="M866.68,-647.54C831.2,-648.04 792.83,-648.59 761.2,-649.03"/>
<polygon fill="none" stroke="black" points="761.13,-645.53 751.18,-649.18 761.23,-652.53 761.13,-645.53"/>
</g>
<!-- \\RichWeb\\Algorithms\\Setup\\Scripts -->
<g id="node32" class="node">
<title>\\RichWeb\\Algorithms\\Setup\\Scripts</title>
<polygon fill="none" stroke="black" points="1008.5,-718 944.5,-718 944.5,-682 1008.5,-682 1008.5,-718"/>
<text text-anchor="middle" x="976.5" y="-697.2" font-family="Courier,monospace" font-size="11.00">Scripts</text>
</g>
<!-- \\RichWeb\\Algorithms\\Setup\\Scripts&#45;&gt;\\RichWeb\\Algorithms\\Abstracts\\AbstractScripts -->
<g id="edge29" class="edge">
<title>\\RichWeb\\Algorithms\\Setup\\Scripts&#45;&gt;\\RichWeb\\Algorithms\\Abstracts\\AbstractScripts</title>
<path fill="none" stroke="black" d="M944.46,-694.51C900.56,-686.74 819.2,-672.34 760.9,-662.02"/>
<polygon fill="none" stroke="black" points="761.49,-658.57 751.03,-660.27 760.27,-665.46 761.49,-658.57"/>
</g>
<!-- \\RichWeb\\Algorithms\\Setup\\Setup -->
<g id="node33" class="node">
<title>\\RichWeb\\Algorithms\\Setup\\Setup</title>
<polygon fill="none" stroke="black" points="1003.5,-826 949.5,-826 949.5,-790 1003.5,-790 1003.5,-826"/>
<text text-anchor="middle" x="976.5" y="-805.2" font-family="Courier,monospace" font-size="11.00">Setup</text>
</g>
<!-- \\RichWeb\\Algorithms\\Setup\\Setup&#45;&gt;\\RichWeb\\Algorithms\\Interfaces\\HasRunnerInterface -->
<g id="edge30" class="edge">
<title>\\RichWeb\\Algorithms\\Setup\\Setup&#45;&gt;\\RichWeb\\Algorithms\\Interfaces\\HasRunnerInterface</title>
<path fill="none" stroke="black" stroke-dasharray="1,5" d="M949.45,-809.28C855.22,-813.7 532.39,-826.83 432,-805"/>
<path fill="none" stroke="black" stroke-dasharray="1,5" d="M430,-805C358.28,-788.69 350.52,-757.02 281,-733 266.54,-728 250.79,-723.72 235.53,-720.14"/>
<polygon fill="none" stroke="black" points="236.12,-716.69 225.59,-717.89 234.57,-723.52 236.12,-716.69"/>
</g>
<!-- \\RichWeb\\Algorithms\\Traits\\Formatting\\FilePaths -->
<g id="node34" class="node">
<title>\\RichWeb\\Algorithms\\Traits\\Formatting\\FilePaths</title>
<polygon fill="none" stroke="black" points="1015,-556 938,-556 938,-520 1015,-520 1015,-556"/>
<text text-anchor="middle" x="976.5" y="-535.2" font-family="Courier,monospace" font-size="11.00">FilePaths</text>
</g>
<!-- \\RichWeb\\Algorithms\\Traits\\Formatting\\Strings -->
<g id="node35" class="node">
<title>\\RichWeb\\Algorithms\\Traits\\Formatting\\Strings</title>
<polygon fill="none" stroke="black" points="1008.5,-502 944.5,-502 944.5,-466 1008.5,-466 1008.5,-502"/>
<text text-anchor="middle" x="976.5" y="-481.2" font-family="Courier,monospace" font-size="11.00">Strings</text>
</g>
<!-- \\RichWeb\\Algorithms\\AlgorithmPackage -->
<g id="node36" class="node">
<title>\\RichWeb\\Algorithms\\AlgorithmPackage</title>
<polygon fill="none" stroke="black" points="493.5,-184 368.5,-184 368.5,-148 493.5,-148 493.5,-184"/>
<text text-anchor="middle" x="431" y="-163.2" font-family="Courier,monospace" font-size="11.00">AlgorithmPackage</text>
</g>
<!-- \\RichWeb\\Algorithms\\AlgorithmPackage&#45;&gt;\\RichWeb\\Algorithms\\Interfaces\\AlgorithmPackageInterface -->
<g id="edge15" class="edge">
<title>\\RichWeb\\Algorithms\\AlgorithmPackage&#45;&gt;\\RichWeb\\Algorithms\\Interfaces\\AlgorithmPackageInterface</title>
<path fill="none" stroke="black" stroke-dasharray="1,5" d="M368.17,-166C336.01,-166 295.89,-166 259.31,-166"/>
<polygon fill="none" stroke="black" points="259.09,-162.5 249.09,-166 259.09,-169.5 259.09,-162.5"/>
</g>
<!-- \\RichWeb\\Algorithms\\AlgorithmPackageLoader -->
<g id="node37" class="node">
<title>\\RichWeb\\Algorithms\\AlgorithmPackageLoader</title>
<polygon fill="none" stroke="black" points="513.5,-274 348.5,-274 348.5,-238 513.5,-238 513.5,-274"/>
<text text-anchor="middle" x="431" y="-253.2" font-family="Courier,monospace" font-size="11.00">AlgorithmPackageLoader</text>
</g>
<!-- \\RichWeb\\Algorithms\\AlgorithmPackageLoader&#45;&gt;\\RichWeb\\Algorithms\\Interfaces\\AlgorithmPackageLoaderInterface -->
<g id="edge16" class="edge">
<title>\\RichWeb\\Algorithms\\AlgorithmPackageLoader&#45;&gt;\\RichWeb\\Algorithms\\Interfaces\\AlgorithmPackageLoaderInterface</title>
<path fill="none" stroke="black" stroke-dasharray="1,5" d="M348.24,-261.4C326.73,-262.82 303.05,-264.39 279.92,-265.91"/>
<polygon fill="none" stroke="black" points="279.43,-262.44 269.69,-266.59 279.9,-269.42 279.43,-262.44"/>
</g>
<!-- \\RichWeb\\Algorithms\\AlgorithmPackageLoader&#45;&gt;\\RichWeb\\Algorithms\\Interfaces\\HasRunnerInterface -->
<g id="edge17" class="edge">
<title>\\RichWeb\\Algorithms\\AlgorithmPackageLoader&#45;&gt;\\RichWeb\\Algorithms\\Interfaces\\HasRunnerInterface</title>
<path fill="none" stroke="black" stroke-dasharray="1,5" d="M351.32,-274.03C349.05,-275.84 346.94,-277.82 345,-280 225.59,-414.15 404.38,-548.49 281,-679 269.03,-691.67 252.6,-699.07 235.63,-703.26"/>
<polygon fill="none" stroke="black" points="234.67,-699.89 225.61,-705.37 236.11,-706.74 234.67,-699.89"/>
</g>
<!-- \\RichWeb\\Algorithms\\AlgorithmPackageManager -->
<g id="node38" class="node">
<title>\\RichWeb\\Algorithms\\AlgorithmPackageManager</title>
<polygon fill="none" stroke="black" points="517,-130 345,-130 345,-94 517,-94 517,-130"/>
<text text-anchor="middle" x="431" y="-109.2" font-family="Courier,monospace" font-size="11.00">AlgorithmPackageManager</text>
</g>
<!-- \\RichWeb\\Algorithms\\AlgorithmPackageManager&#45;&gt;\\RichWeb\\Algorithms\\Interfaces\\AlgorithmPackageManagerInterface -->
<g id="edge18" class="edge">
<title>\\RichWeb\\Algorithms\\AlgorithmPackageManager&#45;&gt;\\RichWeb\\Algorithms\\Interfaces\\AlgorithmPackageManagerInterface</title>
<path fill="none" stroke="black" stroke-dasharray="1,5" d="M344.9,-112C325.44,-112 304.35,-112 283.58,-112"/>
<polygon fill="none" stroke="black" points="283.42,-108.5 273.42,-112 283.42,-115.5 283.42,-108.5"/>
</g>
<!-- \\RichWeb\\Algorithms\\CodeExample -->
<g id="node39" class="node">
<title>\\RichWeb\\Algorithms\\CodeExample</title>
<polygon fill="none" stroke="black" points="476.5,-1118 385.5,-1118 385.5,-1082 476.5,-1082 476.5,-1118"/>
<text text-anchor="middle" x="431" y="-1097.2" font-family="Courier,monospace" font-size="11.00">CodeExample</text>
</g>
<!-- \\RichWeb\\Algorithms\\CodeExample&#45;&gt;\\RichWeb\\Algorithms\\Interfaces\\CodeExampleInterface -->
<g id="edge19" class="edge">
<title>\\RichWeb\\Algorithms\\CodeExample&#45;&gt;\\RichWeb\\Algorithms\\Interfaces\\CodeExampleInterface</title>
<path fill="none" stroke="black" stroke-dasharray="1,5" d="M403.25,-1081.97C385.06,-1068.69 361.41,-1049.29 345,-1028 304.7,-975.73 318,-948.65 281,-894 252.91,-852.51 212.31,-811.07 185.43,-785.5"/>
<polygon fill="none" stroke="black" points="187.58,-782.71 177.9,-778.41 182.78,-787.81 187.58,-782.71"/>
</g>
<!-- Stringable -->
<g id="node43" class="node">
<title>Stringable</title>
<ellipse fill="none" stroke="black" cx="156.5" cy="-1200" rx="46.59" ry="18"/>
<text text-anchor="middle" x="156.5" y="-1196.3" font-family="Times New Roman,serif" font-size="14.00" fill="gray">Stringable</text>
</g>
<!-- \\RichWeb\\Algorithms\\CodeExample&#45;&gt;Stringable -->
<g id="edge20" class="edge">
<title>\\RichWeb\\Algorithms\\CodeExample&#45;&gt;Stringable</title>
<path fill="none" stroke="black" stroke-dasharray="1,5" d="M385.31,-1116.4C334.21,-1135.15 251.12,-1165.64 200.67,-1184.16"/>
<polygon fill="none" stroke="black" points="199.21,-1180.96 191.03,-1187.69 201.63,-1187.53 199.21,-1180.96"/>
</g>
<!-- \\RichWeb\\Algorithms\\Plugin -->
<g id="node40" class="node">
<title>\\RichWeb\\Algorithms\\Plugin</title>
<polygon fill="none" stroke="black" points="1005,-442 948,-442 948,-406 1005,-406 1005,-442"/>
<text text-anchor="middle" x="976.5" y="-421.2" font-family="Courier,monospace" font-size="11.00">Plugin</text>
</g>
<!-- \\RichWeb\\Algorithms\\Plugin&#45;&gt;\\RichWeb\\Algorithms\\Abstracts\\AbstractSingletonPlugin -->
<g id="edge23" class="edge">
<title>\\RichWeb\\Algorithms\\Plugin&#45;&gt;\\RichWeb\\Algorithms\\Abstracts\\AbstractSingletonPlugin</title>
<path fill="none" stroke="black" d="M947.83,-424.36C921.99,-426.11 883.79,-432.53 859,-454 817.13,-490.26 853.35,-533.31 811,-569 804.04,-574.87 796.05,-579.52 787.59,-583.21"/>
<polygon fill="none" stroke="black" points="786.3,-579.95 778.24,-586.83 788.83,-586.48 786.3,-579.95"/>
</g>
<!-- \\RichWeb\\Algorithms\\PrismSyntaxHighlighter -->
<g id="node41" class="node">
<title>\\RichWeb\\Algorithms\\PrismSyntaxHighlighter</title>
<polygon fill="none" stroke="black" points="1059,-388 894,-388 894,-352 1059,-352 1059,-388"/>
<text text-anchor="middle" x="976.5" y="-367.2" font-family="Courier,monospace" font-size="11.00">PrismSyntaxHighlighter</text>
</g>
<!-- \\RichWeb\\Algorithms\\PrismSyntaxHighlighter&#45;&gt;\\RichWeb\\Algorithms\\Abstracts\\AbstractSyntaxHighlighter -->
<g id="edge24" class="edge">
<title>\\RichWeb\\Algorithms\\PrismSyntaxHighlighter&#45;&gt;\\RichWeb\\Algorithms\\Abstracts\\AbstractSyntaxHighlighter</title>
<path fill="none" stroke="black" d="M893.8,-385.93C881.96,-389.1 870.06,-392.78 859,-397 811.99,-414.94 761.83,-443.97 729.11,-464.41"/>
<polygon fill="none" stroke="black" points="726.95,-461.63 720.36,-469.93 730.68,-467.56 726.95,-461.63"/>
</g>
<!-- \\RichWeb\\Algorithms\\Project -->
<g id="node42" class="node">
<title>\\RichWeb\\Algorithms\\Project</title>
<polygon fill="none" stroke="black" points="463,-454 399,-454 399,-418 463,-418 463,-454"/>
<text text-anchor="middle" x="431" y="-433.2" font-family="Courier,monospace" font-size="11.00">Project</text>
</g>
<!-- \\RichWeb\\Algorithms\\Project&#45;&gt;\\RichWeb\\Algorithms\\Interfaces\\ProjectInterface -->
<g id="edge25" class="edge">
<title>\\RichWeb\\Algorithms\\Project&#45;&gt;\\RichWeb\\Algorithms\\Interfaces\\ProjectInterface</title>
<path fill="none" stroke="black" stroke-dasharray="1,5" d="M398.74,-436C357.68,-436 284.34,-436 229.27,-436"/>
<polygon fill="none" stroke="black" points="229.21,-432.5 219.21,-436 229.21,-439.5 229.21,-432.5"/>
</g>
</g>
</svg>
