<?xml version="1.0" encoding="UTF-8" standalone="no"?>
<!DOCTYPE svg PUBLIC "-//W3C//DTD SVG 1.1//EN"
 "http://www.w3.org/Graphics/SVG/1.1/DTD/svg11.dtd">
<!-- Generated by graphviz version 2.50.0 (20211204.2007)
 -->
<!-- Title: G Pages: 1 -->
<svg width="1134pt" height="1326pt"
 viewBox="0.00 0.00 1134.00 1326.00" xmlns="http://www.w3.org/2000/svg" xmlns:xlink="http://www.w3.org/1999/xlink">
<g id="graph0" class="graph" transform="scale(1 1) rotate(0) translate(4 1322)">
<title>G</title>
<polygon fill="white" stroke="transparent" points="-4,4 -4,-1322 1130,-1322 1130,4 -4,4"/>
<g id="clust1" class="cluster">
<title>cluster_Global</title>
<polygon fill="none" stroke="black" points="8,-8 8,-1310 1118,-1310 1118,-8 8,-8"/>
<text text-anchor="middle" x="563" y="-1297.2" font-family="Times New Roman,serif" font-size="11.00" fill="gray">Global</text>
</g>
<g id="clust2" class="cluster">
<title>cluster_\RichWeb</title>
<polygon fill="none" stroke="black" points="16,-16 16,-1238 1110,-1238 1110,-16 16,-16"/>
<text text-anchor="middle" x="563" y="-1225.2" font-family="Times New Roman,serif" font-size="11.00" fill="gray">RichWeb</text>
</g>
<g id="clust3" class="cluster">
<title>cluster_\RichWeb\Algorithms</title>
<polygon fill="none" stroke="black" points="24,-24 24,-1210 1102,-1210 1102,-24 24,-24"/>
<text text-anchor="middle" x="563" y="-1197.2" font-family="Times New Roman,serif" font-size="11.00" fill="gray">Algorithms</text>
</g>
<g id="clust5" class="cluster">
<title>cluster_\RichWeb\Algorithms\Admin</title>
<polygon fill="none" stroke="black" points="75,-922 75,-1182 811,-1182 811,-922 75,-922"/>
<text text-anchor="middle" x="443" y="-1169.2" font-family="Times New Roman,serif" font-size="11.00" fill="gray">Admin</text>
</g>
<g id="clust7" class="cluster">
<title>cluster_\RichWeb\Algorithms\Admin\Interfaces</title>
<polygon fill="none" stroke="black" points="83,-1006 83,-1132 230,-1132 230,-1006 83,-1006"/>
<text text-anchor="middle" x="156.5" y="-1119.2" font-family="Times New Roman,serif" font-size="11.00" fill="gray">Interfaces</text>
</g>
<g id="clust6" class="cluster">
<title>cluster_\RichWeb\Algorithms\Admin\Abstracts</title>
<polygon fill="none" stroke="black" points="360.5,-1006 360.5,-1132 501.5,-1132 501.5,-1006 360.5,-1006"/>
<text text-anchor="middle" x="431" y="-1119.2" font-family="Times New Roman,serif" font-size="11.00" fill="gray">Abstracts</text>
</g>
<g id="clust8" class="cluster">
<title>cluster_\RichWeb\Algorithms\Admin\MetaBoxes</title>
<polygon fill="none" stroke="black" points="581,-930 581,-1110 803,-1110 803,-930 581,-930"/>
<text text-anchor="middle" x="692" y="-1097.2" font-family="Times New Roman,serif" font-size="11.00" fill="gray">MetaBoxes</text>
</g>
<g id="clust4" class="cluster">
<title>cluster_\RichWeb\Algorithms\Abstracts</title>
<polygon fill="none" stroke="black" points="367.5,-272 367.5,-506 792.5,-506 792.5,-272 367.5,-272"/>
<text text-anchor="middle" x="580" y="-493.2" font-family="Times New Roman,serif" font-size="11.00" fill="gray">Abstracts</text>
</g>
<g id="clust10" class="cluster">
<title>cluster_\RichWeb\Algorithms\Interfaces</title>
<polygon fill="none" stroke="black" points="32,-40 32,-868 281,-868 281,-40 32,-40"/>
<text text-anchor="middle" x="156.5" y="-855.2" font-family="Times New Roman,serif" font-size="11.00" fill="gray">Interfaces</text>
</g>
<g id="clust9" class="cluster">
<title>cluster_\RichWeb\Algorithms\CodeExamples</title>
<polygon fill="none" stroke="black" points="354,-788 354,-914 508,-914 508,-788 354,-788"/>
<text text-anchor="middle" x="431" y="-901.2" font-family="Times New Roman,serif" font-size="11.00" fill="gray">CodeExamples</text>
</g>
<g id="clust11" class="cluster">
<title>cluster_\RichWeb\Algorithms\Loaders</title>
<polygon fill="none" stroke="black" points="371,-514 371,-694 491,-694 491,-514 371,-514"/>
<text text-anchor="middle" x="431" y="-681.2" font-family="Times New Roman,serif" font-size="11.00" fill="gray">Loaders</text>
</g>
<g id="clust13" class="cluster">
<title>cluster_\RichWeb\Algorithms\Setup</title>
<polygon fill="none" stroke="black" points="859,-535 859,-823 1094,-823 1094,-535 859,-535"/>
<text text-anchor="middle" x="976.5" y="-810.2" font-family="Times New Roman,serif" font-size="11.00" fill="gray">Setup</text>
</g>
<g id="clust14" class="cluster">
<title>cluster_\RichWeb\Algorithms\Traits</title>
<polygon fill="none" stroke="black" points="898,-285 898,-527 1055,-527 1055,-285 898,-285"/>
<text text-anchor="middle" x="976.5" y="-514.2" font-family="Times New Roman,serif" font-size="11.00" fill="gray">Traits</text>
</g>
<g id="clust16" class="cluster">
<title>cluster_\RichWeb\Algorithms\Traits\Posts</title>
<polygon fill="none" stroke="black" points="906,-427 906,-499 1047,-499 1047,-427 906,-427"/>
<text text-anchor="middle" x="976.5" y="-486.2" font-family="Times New Roman,serif" font-size="11.00" fill="gray">Posts</text>
</g>
<g id="clust15" class="cluster">
<title>cluster_\RichWeb\Algorithms\Traits\Formatting</title>
<polygon fill="none" stroke="black" points="930,-293 930,-419 1023,-419 1023,-293 930,-293"/>
<text text-anchor="middle" x="976.5" y="-406.2" font-family="Times New Roman,serif" font-size="11.00" fill="gray">Formatting</text>
</g>
<g id="clust12" class="cluster">
<title>cluster_\RichWeb\Algorithms\Packages</title>
<polygon fill="none" stroke="black" points="337,-84 337,-264 525,-264 525,-84 337,-84"/>
<text text-anchor="middle" x="431" y="-251.2" font-family="Times New Roman,serif" font-size="11.00" fill="gray">Packages</text>
</g>
<!-- \\RichWeb\\Algorithms\\Abstracts\\AbstractAlgorithm -->
<g id="node1" class="node">
<title>\\RichWeb\\Algorithms\\Abstracts\\AbstractAlgorithm</title>
<polygon fill="none" stroke="black" points="757.5,-370 626.5,-370 626.5,-334 757.5,-334 757.5,-370"/>
<text text-anchor="start" x="658" y="-355.2" font-family="Courier,monospace" font-size="11.00">«abstract»</text>
<text text-anchor="start" x="634.5" y="-343.2" font-family="Courier,monospace" font-size="11.00">AbstractAlgorithm</text>
</g>
<!-- \\RichWeb\\Algorithms\\Interfaces\\AlgorithmInterface -->
<g id="node16" class="node">
<title>\\RichWeb\\Algorithms\\Interfaces\\AlgorithmInterface</title>
<polygon fill="none" stroke="black" points="225.5,-138 87.5,-138 87.5,-102 225.5,-102 225.5,-138"/>
<text text-anchor="middle" x="156.5" y="-117.2" font-family="Courier,monospace" font-size="11.00">AlgorithmInterface</text>
</g>
<!-- \\RichWeb\\Algorithms\\Abstracts\\AbstractAlgorithm&#45;&gt;\\RichWeb\\Algorithms\\Interfaces\\AlgorithmInterface -->
<g id="edge1" class="edge">
<title>\\RichWeb\\Algorithms\\Abstracts\\AbstractAlgorithm&#45;&gt;\\RichWeb\\Algorithms\\Interfaces\\AlgorithmInterface</title>
<path fill="none" stroke="black" stroke-dasharray="1,5" d="M626.37,-348.32C609.66,-344.38 593.01,-337.32 581,-325 499.43,-241.26 609.89,-148.37 525,-68 494.6,-39.21 473.84,-51.5 432,-53"/>
<path fill="none" stroke="black" stroke-dasharray="1,5" d="M430,-53C388.16,-54.5 377.12,-56.03 337,-68 310.88,-75.79 306.89,-84.49 281,-93 266.55,-97.75 250.87,-101.91 235.68,-105.44"/>
<polygon fill="none" stroke="black" points="234.78,-102.06 225.8,-107.68 236.32,-108.89 234.78,-102.06"/>
</g>
<!-- \\RichWeb\\Algorithms\\Interfaces\\HasRunnerInterface -->
<g id="node24" class="node">
<title>\\RichWeb\\Algorithms\\Interfaces\\HasRunnerInterface</title>
<polygon fill="none" stroke="black" points="225.5,-732 87.5,-732 87.5,-696 225.5,-696 225.5,-732"/>
<text text-anchor="middle" x="156.5" y="-711.2" font-family="Courier,monospace" font-size="11.00">HasRunnerInterface</text>
</g>
<!-- \\RichWeb\\Algorithms\\Abstracts\\AbstractAlgorithm&#45;&gt;\\RichWeb\\Algorithms\\Interfaces\\HasRunnerInterface -->
<g id="edge2" class="edge">
<title>\\RichWeb\\Algorithms\\Abstracts\\AbstractAlgorithm&#45;&gt;\\RichWeb\\Algorithms\\Interfaces\\HasRunnerInterface</title>
<path fill="none" stroke="black" stroke-dasharray="1,5" d="M430,-53C388.63,-54.48 366.78,-29.25 337,-58 236.05,-155.47 373.76,-581.7 281,-687 269.36,-700.22 252.88,-707.8 235.74,-711.98"/>
<polygon fill="none" stroke="black" points="234.69,-708.63 225.6,-714.07 236.1,-715.48 234.69,-708.63"/>
</g>
<!-- \\RichWeb\\Algorithms\\Abstracts\\AbstractPlugin -->
<g id="node2" class="node">
<title>\\RichWeb\\Algorithms\\Abstracts\\AbstractPlugin</title>
<polygon fill="none" stroke="black" points="486.5,-362 375.5,-362 375.5,-326 486.5,-326 486.5,-362"/>
<text text-anchor="start" x="397" y="-347.2" font-family="Courier,monospace" font-size="11.00">«abstract»</text>
<text text-anchor="start" x="383.5" y="-335.2" font-family="Courier,monospace" font-size="11.00">AbstractPlugin</text>
</g>
<!-- \\RichWeb\\Algorithms\\Interfaces\\PluginInterface -->
<g id="node26" class="node">
<title>\\RichWeb\\Algorithms\\Interfaces\\PluginInterface</title>
<polygon fill="none" stroke="black" points="215.5,-354 97.5,-354 97.5,-318 215.5,-318 215.5,-354"/>
<text text-anchor="middle" x="156.5" y="-333.2" font-family="Courier,monospace" font-size="11.00">PluginInterface</text>
</g>
<!-- \\RichWeb\\Algorithms\\Abstracts\\AbstractPlugin&#45;&gt;\\RichWeb\\Algorithms\\Interfaces\\PluginInterface -->
<g id="edge3" class="edge">
<title>\\RichWeb\\Algorithms\\Abstracts\\AbstractPlugin&#45;&gt;\\RichWeb\\Algorithms\\Interfaces\\PluginInterface</title>
<path fill="none" stroke="black" stroke-dasharray="1,5" d="M375.18,-342.39C332.13,-341.13 271.93,-339.36 225.75,-338"/>
<polygon fill="none" stroke="black" points="225.62,-334.5 215.52,-337.7 225.42,-341.5 225.62,-334.5"/>
</g>
<!-- \\RichWeb\\Algorithms\\Abstracts\\AbstractScripts -->
<g id="node3" class="node">
<title>\\RichWeb\\Algorithms\\Abstracts\\AbstractScripts</title>
<polygon fill="none" stroke="black" points="751,-478 633,-478 633,-442 751,-442 751,-478"/>
<text text-anchor="start" x="658" y="-463.2" font-family="Courier,monospace" font-size="11.00">«abstract»</text>
<text text-anchor="start" x="641" y="-451.2" font-family="Courier,monospace" font-size="11.00">AbstractScripts</text>
</g>
<!-- \\RichWeb\\Algorithms\\Abstracts\\AbstractScripts&#45;&gt;\\RichWeb\\Algorithms\\Interfaces\\HasRunnerInterface -->
<g id="edge5" class="edge">
<title>\\RichWeb\\Algorithms\\Abstracts\\AbstractScripts&#45;&gt;\\RichWeb\\Algorithms\\Interfaces\\HasRunnerInterface</title>
<path fill="none" stroke="black" stroke-dasharray="1,5" d="M632.79,-458.21C613.81,-454.68 594.25,-447.4 581,-433 473.45,-316.09 645.8,-183.15 525,-80 493.23,-52.87 367.87,-51.85 337,-80 236.91,-171.28 370.71,-585.5 281,-687 269.34,-700.2 252.85,-707.77 235.71,-711.96"/>
<polygon fill="none" stroke="black" points="234.66,-708.6 225.57,-714.04 236.07,-715.45 234.66,-708.6"/>
</g>
<!-- \\RichWeb\\Algorithms\\Interfaces\\ScriptsInterface -->
<g id="node28" class="node">
<title>\\RichWeb\\Algorithms\\Interfaces\\ScriptsInterface</title>
<polygon fill="none" stroke="black" points="219,-462 94,-462 94,-426 219,-426 219,-462"/>
<text text-anchor="middle" x="156.5" y="-441.2" font-family="Courier,monospace" font-size="11.00">ScriptsInterface</text>
</g>
<!-- \\RichWeb\\Algorithms\\Abstracts\\AbstractScripts&#45;&gt;\\RichWeb\\Algorithms\\Interfaces\\ScriptsInterface -->
<g id="edge4" class="edge">
<title>\\RichWeb\\Algorithms\\Abstracts\\AbstractScripts&#45;&gt;\\RichWeb\\Algorithms\\Interfaces\\ScriptsInterface</title>
<path fill="none" stroke="black" stroke-dasharray="1,5" d="M632.89,-458.26C534.65,-455.31 336.04,-449.35 229.27,-446.15"/>
<polygon fill="none" stroke="black" points="229.33,-442.65 219.23,-445.85 229.12,-449.65 229.33,-442.65"/>
</g>
<!-- \\RichWeb\\Algorithms\\Abstracts\\AbstractSingletonPlugin -->
<g id="node4" class="node">
<title>\\RichWeb\\Algorithms\\Abstracts\\AbstractSingletonPlugin</title>
<polygon fill="none" stroke="black" points="778,-424 606,-424 606,-388 778,-388 778,-424"/>
<text text-anchor="start" x="658" y="-409.2" font-family="Courier,monospace" font-size="11.00">«abstract»</text>
<text text-anchor="start" x="614" y="-397.2" font-family="Courier,monospace" font-size="11.00">AbstractSingletonPlugin</text>
</g>
<!-- \\RichWeb\\Algorithms\\Abstracts\\AbstractSingletonPlugin&#45;&gt;\\RichWeb\\Algorithms\\Abstracts\\AbstractPlugin -->
<g id="edge6" class="edge">
<title>\\RichWeb\\Algorithms\\Abstracts\\AbstractSingletonPlugin&#45;&gt;\\RichWeb\\Algorithms\\Abstracts\\AbstractPlugin</title>
<path fill="none" stroke="black" d="M615.74,-387.98C578.06,-378.96 532.9,-368.15 496.78,-359.51"/>
<polygon fill="none" stroke="black" points="497.39,-356.05 486.85,-357.13 495.76,-362.86 497.39,-356.05"/>
</g>
<!-- \\RichWeb\\Algorithms\\Interfaces\\SingletonPluginInterface -->
<g id="node29" class="node">
<title>\\RichWeb\\Algorithms\\Interfaces\\SingletonPluginInterface</title>
<polygon fill="none" stroke="black" points="246,-408 67,-408 67,-372 246,-372 246,-408"/>
<text text-anchor="middle" x="156.5" y="-387.2" font-family="Courier,monospace" font-size="11.00">SingletonPluginInterface</text>
</g>
<!-- \\RichWeb\\Algorithms\\Abstracts\\AbstractSingletonPlugin&#45;&gt;\\RichWeb\\Algorithms\\Interfaces\\SingletonPluginInterface -->
<g id="edge7" class="edge">
<title>\\RichWeb\\Algorithms\\Abstracts\\AbstractSingletonPlugin&#45;&gt;\\RichWeb\\Algorithms\\Interfaces\\SingletonPluginInterface</title>
<path fill="none" stroke="black" stroke-dasharray="1,5" d="M605.88,-403.45C510.74,-400.59 356.9,-395.98 256.48,-392.97"/>
<polygon fill="none" stroke="black" points="256.42,-389.47 246.32,-392.66 256.21,-396.46 256.42,-389.47"/>
</g>
<!-- \\RichWeb\\Algorithms\\Abstracts\\AbstractSyntaxHighlighter -->
<g id="node5" class="node">
<title>\\RichWeb\\Algorithms\\Abstracts\\AbstractSyntaxHighlighter</title>
<polygon fill="none" stroke="black" points="784.5,-316 599.5,-316 599.5,-280 784.5,-280 784.5,-316"/>
<text text-anchor="start" x="658" y="-301.2" font-family="Courier,monospace" font-size="11.00">«abstract»</text>
<text text-anchor="start" x="607.5" y="-289.2" font-family="Courier,monospace" font-size="11.00">AbstractSyntaxHighlighter</text>
</g>
<!-- \\RichWeb\\Algorithms\\Interfaces\\SyntaxHighlighterInterface -->
<g id="node30" class="node">
<title>\\RichWeb\\Algorithms\\Interfaces\\SyntaxHighlighterInterface</title>
<polygon fill="none" stroke="black" points="252.5,-84 60.5,-84 60.5,-48 252.5,-48 252.5,-84"/>
<text text-anchor="middle" x="156.5" y="-63.2" font-family="Courier,monospace" font-size="11.00">SyntaxHighlighterInterface</text>
</g>
<!-- \\RichWeb\\Algorithms\\Abstracts\\AbstractSyntaxHighlighter&#45;&gt;\\RichWeb\\Algorithms\\Interfaces\\SyntaxHighlighterInterface -->
<g id="edge8" class="edge">
<title>\\RichWeb\\Algorithms\\Abstracts\\AbstractSyntaxHighlighter&#45;&gt;\\RichWeb\\Algorithms\\Interfaces\\SyntaxHighlighterInterface</title>
<path fill="none" stroke="black" stroke-dasharray="1,5" d="M685.64,-279.98C670.16,-231.61 620.27,-99.1 525,-48 427.89,4.09 294.79,-22.2 218.29,-44.88"/>
<polygon fill="none" stroke="black" points="216.89,-41.65 208.34,-47.91 218.92,-48.35 216.89,-41.65"/>
</g>
<!-- \\RichWeb\\Algorithms\\Admin\\Abstracts\\AbstractMetaBox -->
<g id="node6" class="node">
<title>\\RichWeb\\Algorithms\\Admin\\Abstracts\\AbstractMetaBox</title>
<polygon fill="none" stroke="black" points="490,-1050 372,-1050 372,-1014 490,-1014 490,-1050"/>
<text text-anchor="start" x="397" y="-1035.2" font-family="Courier,monospace" font-size="11.00">«abstract»</text>
<text text-anchor="start" x="380" y="-1023.2" font-family="Courier,monospace" font-size="11.00">AbstractMetaBox</text>
</g>
<!-- \\RichWeb\\Algorithms\\Admin\\Interfaces\\MetaBoxInterface -->
<g id="node8" class="node">
<title>\\RichWeb\\Algorithms\\Admin\\Interfaces\\MetaBoxInterface</title>
<polygon fill="none" stroke="black" points="219,-1050 94,-1050 94,-1014 219,-1014 219,-1050"/>
<text text-anchor="middle" x="156.5" y="-1029.2" font-family="Courier,monospace" font-size="11.00">MetaBoxInterface</text>
</g>
<!-- \\RichWeb\\Algorithms\\Admin\\Abstracts\\AbstractMetaBox&#45;&gt;\\RichWeb\\Algorithms\\Admin\\Interfaces\\MetaBoxInterface -->
<g id="edge9" class="edge">
<title>\\RichWeb\\Algorithms\\Admin\\Abstracts\\AbstractMetaBox&#45;&gt;\\RichWeb\\Algorithms\\Admin\\Interfaces\\MetaBoxInterface</title>
<path fill="none" stroke="black" stroke-dasharray="1,5" d="M371.88,-1032C330.26,-1032 273.95,-1032 229.49,-1032"/>
<polygon fill="none" stroke="black" points="229.32,-1028.5 219.32,-1032 229.32,-1035.5 229.32,-1028.5"/>
</g>
<!-- \\RichWeb\\Algorithms\\Admin\\Abstracts\\AbstractPostType -->
<g id="node7" class="node">
<title>\\RichWeb\\Algorithms\\Admin\\Abstracts\\AbstractPostType</title>
<polygon fill="none" stroke="black" points="493.5,-1104 368.5,-1104 368.5,-1068 493.5,-1068 493.5,-1104"/>
<text text-anchor="start" x="397" y="-1089.2" font-family="Courier,monospace" font-size="11.00">«abstract»</text>
<text text-anchor="start" x="376.5" y="-1077.2" font-family="Courier,monospace" font-size="11.00">AbstractPostType</text>
</g>
<!-- \\RichWeb\\Algorithms\\Admin\\Interfaces\\PostTypeInterface -->
<g id="node9" class="node">
<title>\\RichWeb\\Algorithms\\Admin\\Interfaces\\PostTypeInterface</title>
<polygon fill="none" stroke="black" points="222,-1104 91,-1104 91,-1068 222,-1068 222,-1104"/>
<text text-anchor="middle" x="156.5" y="-1083.2" font-family="Courier,monospace" font-size="11.00">PostTypeInterface</text>
</g>
<!-- \\RichWeb\\Algorithms\\Admin\\Abstracts\\AbstractPostType&#45;&gt;\\RichWeb\\Algorithms\\Admin\\Interfaces\\PostTypeInterface -->
<g id="edge10" class="edge">
<title>\\RichWeb\\Algorithms\\Admin\\Abstracts\\AbstractPostType&#45;&gt;\\RichWeb\\Algorithms\\Admin\\Interfaces\\PostTypeInterface</title>
<path fill="none" stroke="black" stroke-dasharray="1,5" d="M368.17,-1086C327.9,-1086 275.12,-1086 232.46,-1086"/>
<polygon fill="none" stroke="black" points="232.41,-1082.5 222.41,-1086 232.41,-1089.5 232.41,-1082.5"/>
</g>
<!-- \\RichWeb\\Algorithms\\Admin\\Abstracts\\AbstractPostType&#45;&gt;\\RichWeb\\Algorithms\\Interfaces\\HasRunnerInterface -->
<g id="edge11" class="edge">
<title>\\RichWeb\\Algorithms\\Admin\\Abstracts\\AbstractPostType&#45;&gt;\\RichWeb\\Algorithms\\Interfaces\\HasRunnerInterface</title>
<path fill="none" stroke="black" stroke-dasharray="1,5" d="M368.42,-1078.51C356.58,-1074.42 345.31,-1068.26 337,-1059 241.16,-952.18 380.38,-844.53 281,-741 268.99,-728.49 252.64,-721.13 235.76,-716.94"/>
<polygon fill="none" stroke="black" points="236.3,-713.47 225.79,-714.81 234.84,-720.32 236.3,-713.47"/>
</g>
<!-- \\RichWeb\\Algorithms\\Admin\\MetaBoxes\\AlgorithmCodeExamplesMetaBox -->
<g id="node10" class="node">
<title>\\RichWeb\\Algorithms\\Admin\\MetaBoxes\\AlgorithmCodeExamplesMetaBox</title>
<polygon fill="none" stroke="black" points="795,-1028 589,-1028 589,-992 795,-992 795,-1028"/>
<text text-anchor="middle" x="692" y="-1007.2" font-family="Courier,monospace" font-size="11.00">AlgorithmCodeExamplesMetaBox</text>
</g>
<!-- \\RichWeb\\Algorithms\\Admin\\MetaBoxes\\AlgorithmCodeExamplesMetaBox&#45;&gt;\\RichWeb\\Algorithms\\Admin\\Abstracts\\AbstractMetaBox -->
<g id="edge13" class="edge">
<title>\\RichWeb\\Algorithms\\Admin\\MetaBoxes\\AlgorithmCodeExamplesMetaBox&#45;&gt;\\RichWeb\\Algorithms\\Admin\\Abstracts\\AbstractMetaBox</title>
<path fill="none" stroke="black" d="M588.64,-1018.69C558.92,-1021.22 527.21,-1023.91 500.15,-1026.21"/>
<polygon fill="none" stroke="black" points="499.69,-1022.74 490.02,-1027.07 500.28,-1029.71 499.69,-1022.74"/>
</g>
<!-- \\RichWeb\\Algorithms\\Admin\\MetaBoxes\\AlgorithmPackageMetaBox -->
<g id="node11" class="node">
<title>\\RichWeb\\Algorithms\\Admin\\MetaBoxes\\AlgorithmPackageMetaBox</title>
<polygon fill="none" stroke="black" points="778,-1082 606,-1082 606,-1046 778,-1046 778,-1082"/>
<text text-anchor="middle" x="692" y="-1061.2" font-family="Courier,monospace" font-size="11.00">AlgorithmPackageMetaBox</text>
</g>
<!-- \\RichWeb\\Algorithms\\Admin\\MetaBoxes\\AlgorithmPackageMetaBox&#45;&gt;\\RichWeb\\Algorithms\\Admin\\Abstracts\\AbstractMetaBox -->
<g id="edge14" class="edge">
<title>\\RichWeb\\Algorithms\\Admin\\MetaBoxes\\AlgorithmPackageMetaBox&#45;&gt;\\RichWeb\\Algorithms\\Admin\\Abstracts\\AbstractMetaBox</title>
<path fill="none" stroke="black" d="M605.83,-1053.48C571.64,-1049.25 532.76,-1044.45 500.46,-1040.46"/>
<polygon fill="none" stroke="black" points="500.56,-1036.94 490.21,-1039.19 499.71,-1043.89 500.56,-1036.94"/>
</g>
<!-- \\RichWeb\\Algorithms\\Admin\\MetaBoxes\\MetaBoxes -->
<g id="node12" class="node">
<title>\\RichWeb\\Algorithms\\Admin\\MetaBoxes\\MetaBoxes</title>
<polygon fill="none" stroke="black" points="730.5,-974 653.5,-974 653.5,-938 730.5,-938 730.5,-974"/>
<text text-anchor="middle" x="692" y="-953.2" font-family="Courier,monospace" font-size="11.00">MetaBoxes</text>
</g>
<!-- \\RichWeb\\Algorithms\\Admin\\MetaBoxes\\MetaBoxes&#45;&gt;\\RichWeb\\Algorithms\\Interfaces\\HasRunnerInterface -->
<g id="edge15" class="edge">
<title>\\RichWeb\\Algorithms\\Admin\\MetaBoxes\\MetaBoxes&#45;&gt;\\RichWeb\\Algorithms\\Interfaces\\HasRunnerInterface</title>
<path fill="none" stroke="black" stroke-dasharray="1,5" d="M653.4,-957.3C630.08,-956.16 600.87,-950.92 581,-934 526.82,-887.86 577.16,-832.4 525,-784 493.45,-754.72 474.06,-766.14 432,-757"/>
</g>
<!-- \\RichWeb\\Algorithms\\Admin\\AlgorithmPostType -->
<g id="node13" class="node">
<title>\\RichWeb\\Algorithms\\Admin\\AlgorithmPostType</title>
<polygon fill="none" stroke="black" points="757.5,-1154 626.5,-1154 626.5,-1118 757.5,-1118 757.5,-1154"/>
<text text-anchor="middle" x="692" y="-1133.2" font-family="Courier,monospace" font-size="11.00">AlgorithmPostType</text>
</g>
<!-- \\RichWeb\\Algorithms\\Admin\\AlgorithmPostType&#45;&gt;\\RichWeb\\Algorithms\\Admin\\Abstracts\\AbstractPostType -->
<g id="edge12" class="edge">
<title>\\RichWeb\\Algorithms\\Admin\\AlgorithmPostType&#45;&gt;\\RichWeb\\Algorithms\\Admin\\Abstracts\\AbstractPostType</title>
<path fill="none" stroke="black" d="M626.31,-1123.51C589.04,-1116.32 542.11,-1107.26 503.71,-1099.84"/>
<polygon fill="none" stroke="black" points="504.12,-1096.36 493.64,-1097.9 502.79,-1103.23 504.12,-1096.36"/>
</g>
<!-- \\RichWeb\\Algorithms\\CodeExamples\\CodeExample -->
<g id="node14" class="node">
<title>\\RichWeb\\Algorithms\\CodeExamples\\CodeExample</title>
<polygon fill="none" stroke="black" points="476.5,-886 385.5,-886 385.5,-850 476.5,-850 476.5,-886"/>
<text text-anchor="middle" x="431" y="-865.2" font-family="Courier,monospace" font-size="11.00">CodeExample</text>
</g>
<!-- \\RichWeb\\Algorithms\\Interfaces\\CodeExampleInterface -->
<g id="node21" class="node">
<title>\\RichWeb\\Algorithms\\Interfaces\\CodeExampleInterface</title>
<polygon fill="none" stroke="black" points="232.5,-840 80.5,-840 80.5,-804 232.5,-804 232.5,-840"/>
<text text-anchor="middle" x="156.5" y="-819.2" font-family="Courier,monospace" font-size="11.00">CodeExampleInterface</text>
</g>
<!-- \\RichWeb\\Algorithms\\CodeExamples\\CodeExample&#45;&gt;\\RichWeb\\Algorithms\\Interfaces\\CodeExampleInterface -->
<g id="edge16" class="edge">
<title>\\RichWeb\\Algorithms\\CodeExamples\\CodeExample&#45;&gt;\\RichWeb\\Algorithms\\Interfaces\\CodeExampleInterface</title>
<path fill="none" stroke="black" stroke-dasharray="1,5" d="M385.31,-860.46C346.68,-853.94 289.79,-844.33 242.52,-836.35"/>
<polygon fill="none" stroke="black" points="243.03,-832.89 232.59,-834.68 241.87,-839.79 243.03,-832.89"/>
</g>
<!-- Stringable -->
<g id="node48" class="node">
<title>Stringable</title>
<ellipse fill="none" stroke="black" cx="156.5" cy="-1264" rx="46.59" ry="18"/>
<text text-anchor="middle" x="156.5" y="-1260.3" font-family="Times New Roman,serif" font-size="14.00" fill="gray">Stringable</text>
</g>
<!-- \\RichWeb\\Algorithms\\CodeExamples\\CodeExample&#45;&gt;Stringable -->
<g id="edge17" class="edge">
<title>\\RichWeb\\Algorithms\\CodeExamples\\CodeExample&#45;&gt;Stringable</title>
<path fill="none" stroke="black" stroke-dasharray="1,5" d="M415.45,-886.27C395.93,-911.35 360.95,-958.29 337,-1002 305.98,-1058.61 316.46,-1082.07 281,-1136 253.82,-1177.33 212.3,-1217.05 185.03,-1241"/>
<polygon fill="none" stroke="black" points="182.66,-1238.42 177.4,-1247.62 187.24,-1243.71 182.66,-1238.42"/>
</g>
<!-- \\RichWeb\\Algorithms\\CodeExamples\\CodeExamplesLoader -->
<g id="node15" class="node">
<title>\\RichWeb\\Algorithms\\CodeExamples\\CodeExamplesLoader</title>
<polygon fill="none" stroke="black" points="500,-832 362,-832 362,-796 500,-796 500,-832"/>
<text text-anchor="middle" x="431" y="-811.2" font-family="Courier,monospace" font-size="11.00">CodeExamplesLoader</text>
</g>
<!-- \\RichWeb\\Algorithms\\CodeExamples\\CodeExamplesLoader&#45;&gt;\\RichWeb\\Algorithms\\Interfaces\\HasRunnerInterface -->
<g id="edge18" class="edge">
<title>\\RichWeb\\Algorithms\\CodeExamples\\CodeExamplesLoader&#45;&gt;\\RichWeb\\Algorithms\\Interfaces\\HasRunnerInterface</title>
<path fill="none" stroke="black" stroke-dasharray="1,5" d="M398.7,-795.9C369.19,-779.51 323.3,-755.74 281,-741 266.55,-735.96 250.81,-731.67 235.55,-728.08"/>
<polygon fill="none" stroke="black" points="236.14,-724.63 225.62,-725.83 234.59,-731.45 236.14,-724.63"/>
</g>
<!-- \\RichWeb\\Algorithms\\Interfaces\\AlgorithmPackageInterface -->
<g id="node17" class="node">
<title>\\RichWeb\\Algorithms\\Interfaces\\AlgorithmPackageInterface</title>
<polygon fill="none" stroke="black" points="249,-246 64,-246 64,-210 249,-210 249,-246"/>
<text text-anchor="middle" x="156.5" y="-225.2" font-family="Courier,monospace" font-size="11.00">AlgorithmPackageInterface</text>
</g>
<!-- \\RichWeb\\Algorithms\\Interfaces\\AlgorithmPackageLoaderInterface -->
<g id="node18" class="node">
<title>\\RichWeb\\Algorithms\\Interfaces\\AlgorithmPackageLoaderInterface</title>
<polygon fill="none" stroke="black" points="269.5,-300 43.5,-300 43.5,-264 269.5,-264 269.5,-300"/>
<text text-anchor="middle" x="156.5" y="-279.2" font-family="Courier,monospace" font-size="11.00">AlgorithmPackageLoaderInterface</text>
</g>
<!-- \\RichWeb\\Algorithms\\Interfaces\\AlgorithmPackageManagerInterface -->
<g id="node19" class="node">
<title>\\RichWeb\\Algorithms\\Interfaces\\AlgorithmPackageManagerInterface</title>
<polygon fill="none" stroke="black" points="273,-192 40,-192 40,-156 273,-156 273,-192"/>
<text text-anchor="middle" x="156.5" y="-171.2" font-family="Courier,monospace" font-size="11.00">AlgorithmPackageManagerInterface</text>
</g>
<!-- \\RichWeb\\Algorithms\\Interfaces\\AutoloaderInterface -->
<g id="node20" class="node">
<title>\\RichWeb\\Algorithms\\Interfaces\\AutoloaderInterface</title>
<polygon fill="none" stroke="black" points="229,-570 84,-570 84,-534 229,-534 229,-570"/>
<text text-anchor="middle" x="156.5" y="-549.2" font-family="Courier,monospace" font-size="11.00">AutoloaderInterface</text>
</g>
<!-- \\RichWeb\\Algorithms\\Interfaces\\CodeExamplesLoaderInterface -->
<g id="node22" class="node">
<title>\\RichWeb\\Algorithms\\Interfaces\\CodeExamplesLoaderInterface</title>
<polygon fill="none" stroke="black" points="256,-516 57,-516 57,-480 256,-480 256,-516"/>
<text text-anchor="middle" x="156.5" y="-495.2" font-family="Courier,monospace" font-size="11.00">CodeExamplesLoaderInterface</text>
</g>
<!-- \\RichWeb\\Algorithms\\Interfaces\\FileLoaderInterface -->
<g id="node23" class="node">
<title>\\RichWeb\\Algorithms\\Interfaces\\FileLoaderInterface</title>
<polygon fill="none" stroke="black" points="229,-624 84,-624 84,-588 229,-588 229,-624"/>
<text text-anchor="middle" x="156.5" y="-603.2" font-family="Courier,monospace" font-size="11.00">FileLoaderInterface</text>
</g>
<!-- \\RichWeb\\Algorithms\\Interfaces\\LanguagesInterface -->
<g id="node25" class="node">
<title>\\RichWeb\\Algorithms\\Interfaces\\LanguagesInterface</title>
<polygon fill="none" stroke="black" points="225.5,-786 87.5,-786 87.5,-750 225.5,-750 225.5,-786"/>
<text text-anchor="middle" x="156.5" y="-765.2" font-family="Courier,monospace" font-size="11.00">LanguagesInterface</text>
</g>
<!-- \\RichWeb\\Algorithms\\Interfaces\\ProjectInterface -->
<g id="node27" class="node">
<title>\\RichWeb\\Algorithms\\Interfaces\\ProjectInterface</title>
<polygon fill="none" stroke="black" points="219,-678 94,-678 94,-642 219,-642 219,-678"/>
<text text-anchor="middle" x="156.5" y="-657.2" font-family="Courier,monospace" font-size="11.00">ProjectInterface</text>
</g>
<!-- \\RichWeb\\Algorithms\\Loaders\\Autoloader -->
<g id="node31" class="node">
<title>\\RichWeb\\Algorithms\\Loaders\\Autoloader</title>
<polygon fill="none" stroke="black" points="473,-558 389,-558 389,-522 473,-522 473,-558"/>
<text text-anchor="middle" x="431" y="-537.2" font-family="Courier,monospace" font-size="11.00">Autoloader</text>
</g>
<!-- \\RichWeb\\Algorithms\\Loaders\\Autoloader&#45;&gt;\\RichWeb\\Algorithms\\Interfaces\\AutoloaderInterface -->
<g id="edge19" class="edge">
<title>\\RichWeb\\Algorithms\\Loaders\\Autoloader&#45;&gt;\\RichWeb\\Algorithms\\Interfaces\\AutoloaderInterface</title>
<path fill="none" stroke="black" stroke-dasharray="1,5" d="M388.91,-541.81C349.4,-543.55 288.58,-546.23 239.21,-548.4"/>
<polygon fill="none" stroke="black" points="239.01,-544.91 229.18,-548.84 239.32,-551.9 239.01,-544.91"/>
</g>
<!-- \\RichWeb\\Algorithms\\Loaders\\ContentLoader -->
<g id="node32" class="node">
<title>\\RichWeb\\Algorithms\\Loaders\\ContentLoader</title>
<polygon fill="none" stroke="black" points="483,-612 379,-612 379,-576 483,-576 483,-612"/>
<text text-anchor="middle" x="431" y="-591.2" font-family="Courier,monospace" font-size="11.00">ContentLoader</text>
</g>
<!-- \\RichWeb\\Algorithms\\Loaders\\FileLoader -->
<g id="node33" class="node">
<title>\\RichWeb\\Algorithms\\Loaders\\FileLoader</title>
<polygon fill="none" stroke="black" points="473,-666 389,-666 389,-630 473,-630 473,-666"/>
<text text-anchor="middle" x="431" y="-645.2" font-family="Courier,monospace" font-size="11.00">FileLoader</text>
</g>
<!-- \\RichWeb\\Algorithms\\Loaders\\FileLoader&#45;&gt;\\RichWeb\\Algorithms\\Interfaces\\FileLoaderInterface -->
<g id="edge20" class="edge">
<title>\\RichWeb\\Algorithms\\Loaders\\FileLoader&#45;&gt;\\RichWeb\\Algorithms\\Interfaces\\FileLoaderInterface</title>
<path fill="none" stroke="black" stroke-dasharray="1,5" d="M388.91,-641.67C349.4,-635.58 288.58,-626.2 239.21,-618.59"/>
<polygon fill="none" stroke="black" points="239.59,-615.11 229.18,-617.05 238.53,-622.03 239.59,-615.11"/>
</g>
<!-- \\RichWeb\\Algorithms\\Packages\\AlgorithmPackage -->
<g id="node34" class="node">
<title>\\RichWeb\\Algorithms\\Packages\\AlgorithmPackage</title>
<polygon fill="none" stroke="black" points="493.5,-182 368.5,-182 368.5,-146 493.5,-146 493.5,-182"/>
<text text-anchor="middle" x="431" y="-161.2" font-family="Courier,monospace" font-size="11.00">AlgorithmPackage</text>
</g>
<!-- \\RichWeb\\Algorithms\\Packages\\AlgorithmPackage&#45;&gt;\\RichWeb\\Algorithms\\Interfaces\\AlgorithmPackageInterface -->
<g id="edge21" class="edge">
<title>\\RichWeb\\Algorithms\\Packages\\AlgorithmPackage&#45;&gt;\\RichWeb\\Algorithms\\Interfaces\\AlgorithmPackageInterface</title>
<path fill="none" stroke="black" stroke-dasharray="1,5" d="M368.47,-179.69C341.65,-186.43 309.81,-194.27 281,-201 271.46,-203.23 261.5,-205.5 251.54,-207.73"/>
<polygon fill="none" stroke="black" points="250.61,-204.35 241.61,-209.94 252.13,-211.18 250.61,-204.35"/>
</g>
<!-- \\RichWeb\\Algorithms\\Packages\\AlgorithmPackageLoader -->
<g id="node35" class="node">
<title>\\RichWeb\\Algorithms\\Packages\\AlgorithmPackageLoader</title>
<polygon fill="none" stroke="black" points="513.5,-236 348.5,-236 348.5,-200 513.5,-200 513.5,-236"/>
<text text-anchor="middle" x="431" y="-215.2" font-family="Courier,monospace" font-size="11.00">AlgorithmPackageLoader</text>
</g>
<!-- \\RichWeb\\Algorithms\\Packages\\AlgorithmPackageLoader&#45;&gt;\\RichWeb\\Algorithms\\Interfaces\\AlgorithmPackageLoaderInterface -->
<g id="edge22" class="edge">
<title>\\RichWeb\\Algorithms\\Packages\\AlgorithmPackageLoader&#45;&gt;\\RichWeb\\Algorithms\\Interfaces\\AlgorithmPackageLoaderInterface</title>
<path fill="none" stroke="black" stroke-dasharray="1,5" d="M359.23,-236.01C334.52,-242.18 306.57,-249.03 281,-255 271.46,-257.23 261.5,-259.5 251.54,-261.73"/>
<polygon fill="none" stroke="black" points="250.61,-258.35 241.61,-263.94 252.13,-265.18 250.61,-258.35"/>
</g>
<!-- \\RichWeb\\Algorithms\\Packages\\AlgorithmPackageLoader&#45;&gt;\\RichWeb\\Algorithms\\Interfaces\\HasRunnerInterface -->
<g id="edge23" class="edge">
<title>\\RichWeb\\Algorithms\\Packages\\AlgorithmPackageLoader&#45;&gt;\\RichWeb\\Algorithms\\Interfaces\\HasRunnerInterface</title>
<path fill="none" stroke="black" stroke-dasharray="1,5" d="M376.21,-236.19C361.3,-243.77 346.59,-254.13 337,-268 230.11,-422.51 408.27,-548.79 281,-687 269.13,-699.89 252.66,-707.36 235.6,-711.55"/>
<polygon fill="none" stroke="black" points="234.6,-708.18 225.52,-713.65 236.02,-715.04 234.6,-708.18"/>
</g>
<!-- \\RichWeb\\Algorithms\\Packages\\AlgorithmPackageManager -->
<g id="node36" class="node">
<title>\\RichWeb\\Algorithms\\Packages\\AlgorithmPackageManager</title>
<polygon fill="none" stroke="black" points="517,-128 345,-128 345,-92 517,-92 517,-128"/>
<text text-anchor="middle" x="431" y="-107.2" font-family="Courier,monospace" font-size="11.00">AlgorithmPackageManager</text>
</g>
<!-- \\RichWeb\\Algorithms\\Packages\\AlgorithmPackageManager&#45;&gt;\\RichWeb\\Algorithms\\Interfaces\\AlgorithmPackageManagerInterface -->
<g id="edge24" class="edge">
<title>\\RichWeb\\Algorithms\\Packages\\AlgorithmPackageManager&#45;&gt;\\RichWeb\\Algorithms\\Interfaces\\AlgorithmPackageManagerInterface</title>
<path fill="none" stroke="black" stroke-dasharray="1,5" d="M359.23,-128.01C334.52,-134.18 306.57,-141.03 281,-147 271.46,-149.23 261.5,-151.5 251.54,-153.73"/>
<polygon fill="none" stroke="black" points="250.61,-150.35 241.61,-155.94 252.13,-157.18 250.61,-150.35"/>
</g>
<!-- \\RichWeb\\Algorithms\\Setup\\AlgorithmScripts -->
<g id="node37" class="node">
<title>\\RichWeb\\Algorithms\\Setup\\AlgorithmScripts</title>
<polygon fill="none" stroke="black" points="1039,-633 914,-633 914,-597 1039,-597 1039,-633"/>
<text text-anchor="middle" x="976.5" y="-612.2" font-family="Courier,monospace" font-size="11.00">AlgorithmScripts</text>
</g>
<!-- \\RichWeb\\Algorithms\\Setup\\AlgorithmScripts&#45;&gt;\\RichWeb\\Algorithms\\Abstracts\\AbstractScripts -->
<g id="edge28" class="edge">
<title>\\RichWeb\\Algorithms\\Setup\\AlgorithmScripts&#45;&gt;\\RichWeb\\Algorithms\\Abstracts\\AbstractScripts</title>
<path fill="none" stroke="black" d="M913.98,-605.89C895.73,-601.84 876.08,-596.09 859,-588 803.51,-561.72 749.07,-514.49 718.39,-485.33"/>
<polygon fill="none" stroke="black" points="720.75,-482.75 711.11,-478.34 715.89,-487.79 720.75,-482.75"/>
</g>
<!-- \\RichWeb\\Algorithms\\Setup\\Languages -->
<g id="node38" class="node">
<title>\\RichWeb\\Algorithms\\Setup\\Languages</title>
<polygon fill="none" stroke="black" points="1015,-795 938,-795 938,-759 1015,-759 1015,-795"/>
<text text-anchor="middle" x="976.5" y="-774.2" font-family="Courier,monospace" font-size="11.00">Languages</text>
</g>
<!-- \\RichWeb\\Algorithms\\Setup\\Languages&#45;&gt;\\RichWeb\\Algorithms\\Interfaces\\HasRunnerInterface -->
<g id="edge30" class="edge">
<title>\\RichWeb\\Algorithms\\Setup\\Languages&#45;&gt;\\RichWeb\\Algorithms\\Interfaces\\HasRunnerInterface</title>
<path fill="none" stroke="black" stroke-dasharray="1,5" d="M691,-777C662.14,-776.31 460.22,-763.05 432,-757"/>
<path fill="none" stroke="black" stroke-dasharray="1,5" d="M937.57,-777.58C883.34,-778.27 780.52,-779.09 693,-777"/>
</g>
<!-- \\RichWeb\\Algorithms\\Setup\\Languages&#45;&gt;\\RichWeb\\Algorithms\\Interfaces\\LanguagesInterface -->
<g id="edge29" class="edge">
<title>\\RichWeb\\Algorithms\\Setup\\Languages&#45;&gt;\\RichWeb\\Algorithms\\Interfaces\\LanguagesInterface</title>
<path fill="none" stroke="black" stroke-dasharray="1,5" d="M691,-777C529.21,-773.9 339.82,-770.84 235.82,-769.21"/>
<polygon fill="none" stroke="black" points="235.77,-765.71 225.72,-769.05 235.66,-772.71 235.77,-765.71"/>
</g>
<!-- \\RichWeb\\Algorithms\\Setup\\PrismSyntaxtHighlighterScripts -->
<g id="node39" class="node">
<title>\\RichWeb\\Algorithms\\Setup\\PrismSyntaxtHighlighterScripts</title>
<polygon fill="none" stroke="black" points="1086,-687 867,-687 867,-651 1086,-651 1086,-687"/>
<text text-anchor="middle" x="976.5" y="-666.2" font-family="Courier,monospace" font-size="11.00">PrismSyntaxtHighlighterScripts</text>
</g>
<!-- \\RichWeb\\Algorithms\\Setup\\PrismSyntaxtHighlighterScripts&#45;&gt;\\RichWeb\\Algorithms\\Abstracts\\AbstractScripts -->
<g id="edge31" class="edge">
<title>\\RichWeb\\Algorithms\\Setup\\PrismSyntaxtHighlighterScripts&#45;&gt;\\RichWeb\\Algorithms\\Abstracts\\AbstractScripts</title>
<path fill="none" stroke="black" d="M877.47,-650.99C871.05,-648.39 864.82,-645.41 859,-642 791.57,-602.54 735.85,-526.71 709.46,-486.52"/>
<polygon fill="none" stroke="black" points="712.35,-484.55 703.98,-478.05 706.47,-488.34 712.35,-484.55"/>
</g>
<!-- \\RichWeb\\Algorithms\\Setup\\Scripts -->
<g id="node40" class="node">
<title>\\RichWeb\\Algorithms\\Setup\\Scripts</title>
<polygon fill="none" stroke="black" points="1008.5,-579 944.5,-579 944.5,-543 1008.5,-543 1008.5,-579"/>
<text text-anchor="middle" x="976.5" y="-558.2" font-family="Courier,monospace" font-size="11.00">Scripts</text>
</g>
<!-- \\RichWeb\\Algorithms\\Setup\\Scripts&#45;&gt;\\RichWeb\\Algorithms\\Abstracts\\AbstractScripts -->
<g id="edge32" class="edge">
<title>\\RichWeb\\Algorithms\\Setup\\Scripts&#45;&gt;\\RichWeb\\Algorithms\\Abstracts\\AbstractScripts</title>
<path fill="none" stroke="black" d="M944.46,-549.9C898.57,-533.5 811.74,-502.45 753.12,-481.49"/>
<polygon fill="none" stroke="black" points="754.2,-478.16 743.6,-478.09 751.84,-484.75 754.2,-478.16"/>
</g>
<!-- \\RichWeb\\Algorithms\\Setup\\Setup -->
<g id="node41" class="node">
<title>\\RichWeb\\Algorithms\\Setup\\Setup</title>
<polygon fill="none" stroke="black" points="1003.5,-741 949.5,-741 949.5,-705 1003.5,-705 1003.5,-741"/>
<text text-anchor="middle" x="976.5" y="-720.2" font-family="Courier,monospace" font-size="11.00">Setup</text>
</g>
<!-- \\RichWeb\\Algorithms\\Setup\\Setup&#45;&gt;\\RichWeb\\Algorithms\\Interfaces\\HasRunnerInterface -->
<g id="edge33" class="edge">
<title>\\RichWeb\\Algorithms\\Setup\\Setup&#45;&gt;\\RichWeb\\Algorithms\\Interfaces\\HasRunnerInterface</title>
<path fill="none" stroke="black" stroke-dasharray="1,5" d="M430,-757C389.55,-748.21 378.04,-757.41 337,-752 326.58,-750.63 279.17,-740.56 235.69,-731.14"/>
<polygon fill="none" stroke="black" points="236.43,-727.72 225.91,-729.02 234.94,-734.56 236.43,-727.72"/>
<path fill="none" stroke="black" stroke-dasharray="1,5" d="M949.46,-726.51C855.28,-738.94 532.58,-778.87 432,-757"/>
</g>
<!-- \\RichWeb\\Algorithms\\Traits\\Formatting\\FilePaths -->
<g id="node42" class="node">
<title>\\RichWeb\\Algorithms\\Traits\\Formatting\\FilePaths</title>
<polygon fill="none" stroke="black" points="1015,-391 938,-391 938,-355 1015,-355 1015,-391"/>
<text text-anchor="middle" x="976.5" y="-370.2" font-family="Courier,monospace" font-size="11.00">FilePaths</text>
</g>
<!-- \\RichWeb\\Algorithms\\Traits\\Formatting\\Strings -->
<g id="node43" class="node">
<title>\\RichWeb\\Algorithms\\Traits\\Formatting\\Strings</title>
<polygon fill="none" stroke="black" points="1008.5,-337 944.5,-337 944.5,-301 1008.5,-301 1008.5,-337"/>
<text text-anchor="middle" x="976.5" y="-316.2" font-family="Courier,monospace" font-size="11.00">Strings</text>
</g>
<!-- \\RichWeb\\Algorithms\\Traits\\Posts\\AlgorithmChecker -->
<g id="node44" class="node">
<title>\\RichWeb\\Algorithms\\Traits\\Posts\\AlgorithmChecker</title>
<polygon fill="none" stroke="black" points="1039,-471 914,-471 914,-435 1039,-435 1039,-471"/>
<text text-anchor="middle" x="976.5" y="-450.2" font-family="Courier,monospace" font-size="11.00">AlgorithmChecker</text>
</g>
<!-- \\RichWeb\\Algorithms\\Plugin -->
<g id="node45" class="node">
<title>\\RichWeb\\Algorithms\\Plugin</title>
<polygon fill="none" stroke="black" points="1005,-277 948,-277 948,-241 1005,-241 1005,-277"/>
<text text-anchor="middle" x="976.5" y="-256.2" font-family="Courier,monospace" font-size="11.00">Plugin</text>
</g>
<!-- \\RichWeb\\Algorithms\\Plugin&#45;&gt;\\RichWeb\\Algorithms\\Abstracts\\AbstractSingletonPlugin -->
<g id="edge25" class="edge">
<title>\\RichWeb\\Algorithms\\Plugin&#45;&gt;\\RichWeb\\Algorithms\\Abstracts\\AbstractSingletonPlugin</title>
<path fill="none" stroke="black" d="M947.78,-259.94C922.27,-262.12 884.61,-268.86 859,-289 823.37,-317.02 847.01,-351.46 811,-379 803.97,-384.38 796.05,-388.72 787.73,-392.22"/>
<polygon fill="none" stroke="black" points="786.32,-389.01 778.2,-395.82 788.79,-395.56 786.32,-389.01"/>
</g>
<!-- \\RichWeb\\Algorithms\\PrismSyntaxHighlighter -->
<g id="node46" class="node">
<title>\\RichWeb\\Algorithms\\PrismSyntaxHighlighter</title>
<polygon fill="none" stroke="black" points="1059,-223 894,-223 894,-187 1059,-187 1059,-223"/>
<text text-anchor="middle" x="976.5" y="-202.2" font-family="Courier,monospace" font-size="11.00">PrismSyntaxHighlighter</text>
</g>
<!-- \\RichWeb\\Algorithms\\PrismSyntaxHighlighter&#45;&gt;\\RichWeb\\Algorithms\\Abstracts\\AbstractSyntaxHighlighter -->
<g id="edge26" class="edge">
<title>\\RichWeb\\Algorithms\\PrismSyntaxHighlighter&#45;&gt;\\RichWeb\\Algorithms\\Abstracts\\AbstractSyntaxHighlighter</title>
<path fill="none" stroke="black" d="M893.92,-222.26C882.12,-225.23 870.2,-228.5 859,-232 819.13,-244.47 775.26,-262.09 742.63,-275.99"/>
<polygon fill="none" stroke="black" points="741.12,-272.83 733.31,-279.99 743.88,-279.26 741.12,-272.83"/>
</g>
<!-- \\RichWeb\\Algorithms\\Project -->
<g id="node47" class="node">
<title>\\RichWeb\\Algorithms\\Project</title>
<polygon fill="none" stroke="black" points="463,-738 399,-738 399,-702 463,-702 463,-738"/>
<text text-anchor="middle" x="431" y="-717.2" font-family="Courier,monospace" font-size="11.00">Project</text>
</g>
<!-- \\RichWeb\\Algorithms\\Project&#45;&gt;\\RichWeb\\Algorithms\\Interfaces\\ProjectInterface -->
<g id="edge27" class="edge">
<title>\\RichWeb\\Algorithms\\Project&#45;&gt;\\RichWeb\\Algorithms\\Interfaces\\ProjectInterface</title>
<path fill="none" stroke="black" stroke-dasharray="1,5" d="M398.9,-713.09C368.76,-706.39 321.75,-695.97 281,-687 264.16,-683.29 246.02,-679.32 228.97,-675.59"/>
<polygon fill="none" stroke="black" points="229.59,-672.14 219.07,-673.43 228.09,-678.98 229.59,-672.14"/>
</g>
</g>
</svg>
