<?xml version="1.0" encoding="UTF-8" standalone="no"?>
<!DOCTYPE svg PUBLIC "-//W3C//DTD SVG 1.1//EN"
 "http://www.w3.org/Graphics/SVG/1.1/DTD/svg11.dtd">
<!-- Generated by graphviz version 2.50.0 (20211204.2007)
 -->
<!-- Title: G Pages: 1 -->
<svg width="1134pt" height="1262pt"
 viewBox="0.00 0.00 1134.00 1262.00" xmlns="http://www.w3.org/2000/svg" xmlns:xlink="http://www.w3.org/1999/xlink">
<g id="graph0" class="graph" transform="scale(1 1) rotate(0) translate(4 1258)">
<title>G</title>
<polygon fill="white" stroke="transparent" points="-4,4 -4,-1258 1130,-1258 1130,4 -4,4"/>
<g id="clust1" class="cluster">
<title>cluster_Global</title>
<polygon fill="none" stroke="black" points="8,-8 8,-1246 1118,-1246 1118,-8 8,-8"/>
<text text-anchor="middle" x="563" y="-1233.2" font-family="Times New Roman,serif" font-size="11.00" fill="gray">Global</text>
</g>
<g id="clust2" class="cluster">
<title>cluster_\RichWeb</title>
<polygon fill="none" stroke="black" points="16,-16 16,-1174 1110,-1174 1110,-16 16,-16"/>
<text text-anchor="middle" x="563" y="-1161.2" font-family="Times New Roman,serif" font-size="11.00" fill="gray">RichWeb</text>
</g>
<g id="clust3" class="cluster">
<title>cluster_\RichWeb\Algorithms</title>
<polygon fill="none" stroke="black" points="24,-24 24,-1146 1102,-1146 1102,-24 24,-24"/>
<text text-anchor="middle" x="563" y="-1133.2" font-family="Times New Roman,serif" font-size="11.00" fill="gray">Algorithms</text>
</g>
<g id="clust5" class="cluster">
<title>cluster_\RichWeb\Algorithms\Admin</title>
<polygon fill="none" stroke="black" points="75,-814 75,-1074 811,-1074 811,-814 75,-814"/>
<text text-anchor="middle" x="443" y="-1061.2" font-family="Times New Roman,serif" font-size="11.00" fill="gray">Admin</text>
</g>
<g id="clust8" class="cluster">
<title>cluster_\RichWeb\Algorithms\Admin\MetaBoxes</title>
<polygon fill="none" stroke="black" points="581,-822 581,-1002 803,-1002 803,-822 581,-822"/>
<text text-anchor="middle" x="692" y="-989.2" font-family="Times New Roman,serif" font-size="11.00" fill="gray">MetaBoxes</text>
</g>
<g id="clust6" class="cluster">
<title>cluster_\RichWeb\Algorithms\Admin\Abstracts</title>
<polygon fill="none" stroke="black" points="360.5,-898 360.5,-1024 501.5,-1024 501.5,-898 360.5,-898"/>
<text text-anchor="middle" x="431" y="-1011.2" font-family="Times New Roman,serif" font-size="11.00" fill="gray">Abstracts</text>
</g>
<g id="clust7" class="cluster">
<title>cluster_\RichWeb\Algorithms\Admin\Interfaces</title>
<polygon fill="none" stroke="black" points="83,-898 83,-1024 230,-1024 230,-898 83,-898"/>
<text text-anchor="middle" x="156.5" y="-1011.2" font-family="Times New Roman,serif" font-size="11.00" fill="gray">Interfaces</text>
</g>
<g id="clust4" class="cluster">
<title>cluster_\RichWeb\Algorithms\Abstracts</title>
<polygon fill="none" stroke="black" points="367.5,-436 367.5,-670 792.5,-670 792.5,-436 367.5,-436"/>
<text text-anchor="middle" x="580" y="-657.2" font-family="Times New Roman,serif" font-size="11.00" fill="gray">Abstracts</text>
</g>
<g id="clust9" class="cluster">
<title>cluster_\RichWeb\Algorithms\Interfaces</title>
<polygon fill="none" stroke="black" points="32,-32 32,-806 281,-806 281,-32 32,-32"/>
<text text-anchor="middle" x="156.5" y="-793.2" font-family="Times New Roman,serif" font-size="11.00" fill="gray">Interfaces</text>
</g>
<g id="clust11" class="cluster">
<title>cluster_\RichWeb\Algorithms\Setup</title>
<polygon fill="none" stroke="black" points="859,-608 859,-842 1094,-842 1094,-608 859,-608"/>
<text text-anchor="middle" x="976.5" y="-829.2" font-family="Times New Roman,serif" font-size="11.00" fill="gray">Setup</text>
</g>
<g id="clust12" class="cluster">
<title>cluster_\RichWeb\Algorithms\Traits</title>
<polygon fill="none" stroke="black" points="922,-438 922,-600 1031,-600 1031,-438 922,-438"/>
<text text-anchor="middle" x="976.5" y="-587.2" font-family="Times New Roman,serif" font-size="11.00" fill="gray">Traits</text>
</g>
<g id="clust13" class="cluster">
<title>cluster_\RichWeb\Algorithms\Traits\Formatting</title>
<polygon fill="none" stroke="black" points="930,-446 930,-572 1023,-572 1023,-446 930,-446"/>
<text text-anchor="middle" x="976.5" y="-559.2" font-family="Times New Roman,serif" font-size="11.00" fill="gray">Formatting</text>
</g>
<g id="clust10" class="cluster">
<title>cluster_\RichWeb\Algorithms\Loaders</title>
<polygon fill="none" stroke="black" points="381,-302 381,-428 481,-428 481,-302 381,-302"/>
<text text-anchor="middle" x="431" y="-415.2" font-family="Times New Roman,serif" font-size="11.00" fill="gray">Loaders</text>
</g>
<!-- \\RichWeb\\Algorithms\\Abstracts\\AbstractAlgorithm -->
<g id="node1" class="node">
<title>\\RichWeb\\Algorithms\\Abstracts\\AbstractAlgorithm</title>
<polygon fill="none" stroke="black" points="757.5,-480 626.5,-480 626.5,-444 757.5,-444 757.5,-480"/>
<text text-anchor="start" x="658" y="-465.2" font-family="Courier,monospace" font-size="11.00">«abstract»</text>
<text text-anchor="start" x="634.5" y="-453.2" font-family="Courier,monospace" font-size="11.00">AbstractAlgorithm</text>
</g>
<!-- \\RichWeb\\Algorithms\\Interfaces\\AlgorithmInterface -->
<g id="node14" class="node">
<title>\\RichWeb\\Algorithms\\Interfaces\\AlgorithmInterface</title>
<polygon fill="none" stroke="black" points="225.5,-76 87.5,-76 87.5,-40 225.5,-40 225.5,-76"/>
<text text-anchor="middle" x="156.5" y="-55.2" font-family="Courier,monospace" font-size="11.00">AlgorithmInterface</text>
</g>
<!-- \\RichWeb\\Algorithms\\Abstracts\\AbstractAlgorithm&#45;&gt;\\RichWeb\\Algorithms\\Interfaces\\AlgorithmInterface -->
<g id="edge1" class="edge">
<title>\\RichWeb\\Algorithms\\Abstracts\\AbstractAlgorithm&#45;&gt;\\RichWeb\\Algorithms\\Interfaces\\AlgorithmInterface</title>
<path fill="none" stroke="black" stroke-dasharray="1,5" d="M688.26,-443.64C678.19,-383.37 637.4,-190.47 517,-104 434.95,-45.07 314.43,-41.96 235.95,-47.84"/>
<polygon fill="none" stroke="black" points="235.33,-44.38 225.65,-48.68 235.9,-51.35 235.33,-44.38"/>
</g>
<!-- \\RichWeb\\Algorithms\\Abstracts\\AbstractPlugin -->
<g id="node2" class="node">
<title>\\RichWeb\\Algorithms\\Abstracts\\AbstractPlugin</title>
<polygon fill="none" stroke="black" points="486.5,-513 375.5,-513 375.5,-477 486.5,-477 486.5,-513"/>
<text text-anchor="start" x="397" y="-498.2" font-family="Courier,monospace" font-size="11.00">«abstract»</text>
<text text-anchor="start" x="383.5" y="-486.2" font-family="Courier,monospace" font-size="11.00">AbstractPlugin</text>
</g>
<!-- \\RichWeb\\Algorithms\\Interfaces\\PluginInterface -->
<g id="node23" class="node">
<title>\\RichWeb\\Algorithms\\Interfaces\\PluginInterface</title>
<polygon fill="none" stroke="black" points="215.5,-454 97.5,-454 97.5,-418 215.5,-418 215.5,-454"/>
<text text-anchor="middle" x="156.5" y="-433.2" font-family="Courier,monospace" font-size="11.00">PluginInterface</text>
</g>
<!-- \\RichWeb\\Algorithms\\Abstracts\\AbstractPlugin&#45;&gt;\\RichWeb\\Algorithms\\Interfaces\\PluginInterface -->
<g id="edge2" class="edge">
<title>\\RichWeb\\Algorithms\\Abstracts\\AbstractPlugin&#45;&gt;\\RichWeb\\Algorithms\\Interfaces\\PluginInterface</title>
<path fill="none" stroke="black" stroke-dasharray="1,5" d="M375.18,-483.13C332.03,-473.79 271.68,-460.72 225.46,-450.71"/>
<polygon fill="none" stroke="black" points="226.04,-447.26 215.52,-448.56 224.56,-454.1 226.04,-447.26"/>
</g>
<!-- \\RichWeb\\Algorithms\\Abstracts\\AbstractScripts -->
<g id="node3" class="node">
<title>\\RichWeb\\Algorithms\\Abstracts\\AbstractScripts</title>
<polygon fill="none" stroke="black" points="751,-534 633,-534 633,-498 751,-498 751,-534"/>
<text text-anchor="start" x="658" y="-519.2" font-family="Courier,monospace" font-size="11.00">«abstract»</text>
<text text-anchor="start" x="641" y="-507.2" font-family="Courier,monospace" font-size="11.00">AbstractScripts</text>
</g>
<!-- \\RichWeb\\Algorithms\\Interfaces\\HasRunnerInterface -->
<g id="node21" class="node">
<title>\\RichWeb\\Algorithms\\Interfaces\\HasRunnerInterface</title>
<polygon fill="none" stroke="black" points="225.5,-670 87.5,-670 87.5,-634 225.5,-634 225.5,-670"/>
<text text-anchor="middle" x="156.5" y="-649.2" font-family="Courier,monospace" font-size="11.00">HasRunnerInterface</text>
</g>
<!-- \\RichWeb\\Algorithms\\Abstracts\\AbstractScripts&#45;&gt;\\RichWeb\\Algorithms\\Interfaces\\HasRunnerInterface -->
<g id="edge4" class="edge">
<title>\\RichWeb\\Algorithms\\Abstracts\\AbstractScripts&#45;&gt;\\RichWeb\\Algorithms\\Interfaces\\HasRunnerInterface</title>
<path fill="none" stroke="black" stroke-dasharray="1,5" d="M632.94,-512.7C614.42,-509 595.11,-501.99 581,-489 515.13,-428.36 589.67,-350.29 517,-298 501.49,-286.84 359.75,-285.85 345,-298 230.67,-392.12 384.56,-519.14 281,-625 268.88,-637.39 252.47,-644.71 235.59,-648.9"/>
<polygon fill="none" stroke="black" points="234.67,-645.52 225.62,-651.02 236.13,-652.36 234.67,-645.52"/>
</g>
<!-- \\RichWeb\\Algorithms\\Interfaces\\ScriptsInterface -->
<g id="node25" class="node">
<title>\\RichWeb\\Algorithms\\Interfaces\\ScriptsInterface</title>
<polygon fill="none" stroke="black" points="219,-130 94,-130 94,-94 219,-94 219,-130"/>
<text text-anchor="middle" x="156.5" y="-109.2" font-family="Courier,monospace" font-size="11.00">ScriptsInterface</text>
</g>
<!-- \\RichWeb\\Algorithms\\Abstracts\\AbstractScripts&#45;&gt;\\RichWeb\\Algorithms\\Interfaces\\ScriptsInterface -->
<g id="edge3" class="edge">
<title>\\RichWeb\\Algorithms\\Abstracts\\AbstractScripts&#45;&gt;\\RichWeb\\Algorithms\\Interfaces\\ScriptsInterface</title>
<path fill="none" stroke="black" stroke-dasharray="1,5" d="M632.88,-514.12C613.92,-510.59 594.33,-503.32 581,-489 465.8,-365.24 645.92,-223.39 517,-114 475.2,-78.53 321.49,-90.8 229.14,-101.99"/>
<polygon fill="none" stroke="black" points="228.52,-98.54 219.02,-103.24 229.37,-105.49 228.52,-98.54"/>
</g>
<!-- \\RichWeb\\Algorithms\\Abstracts\\AbstractSingletonPlugin -->
<g id="node4" class="node">
<title>\\RichWeb\\Algorithms\\Abstracts\\AbstractSingletonPlugin</title>
<polygon fill="none" stroke="black" points="778,-588 606,-588 606,-552 778,-552 778,-588"/>
<text text-anchor="start" x="658" y="-573.2" font-family="Courier,monospace" font-size="11.00">«abstract»</text>
<text text-anchor="start" x="614" y="-561.2" font-family="Courier,monospace" font-size="11.00">AbstractSingletonPlugin</text>
</g>
<!-- \\RichWeb\\Algorithms\\Abstracts\\AbstractSingletonPlugin&#45;&gt;\\RichWeb\\Algorithms\\Abstracts\\AbstractPlugin -->
<g id="edge5" class="edge">
<title>\\RichWeb\\Algorithms\\Abstracts\\AbstractSingletonPlugin&#45;&gt;\\RichWeb\\Algorithms\\Abstracts\\AbstractPlugin</title>
<path fill="none" stroke="black" d="M614.48,-551.96C603.22,-549.09 591.78,-546.06 581,-543 552.36,-534.88 520.94,-524.92 494.38,-516.18"/>
<polygon fill="none" stroke="black" points="495.41,-512.84 484.82,-513.02 493.22,-519.49 495.41,-512.84"/>
</g>
<!-- \\RichWeb\\Algorithms\\Interfaces\\SingletonPluginInterface -->
<g id="node26" class="node">
<title>\\RichWeb\\Algorithms\\Interfaces\\SingletonPluginInterface</title>
<polygon fill="none" stroke="black" points="246,-508 67,-508 67,-472 246,-472 246,-508"/>
<text text-anchor="middle" x="156.5" y="-487.2" font-family="Courier,monospace" font-size="11.00">SingletonPluginInterface</text>
</g>
<!-- \\RichWeb\\Algorithms\\Abstracts\\AbstractSingletonPlugin&#45;&gt;\\RichWeb\\Algorithms\\Interfaces\\SingletonPluginInterface -->
<g id="edge6" class="edge">
<title>\\RichWeb\\Algorithms\\Abstracts\\AbstractSingletonPlugin&#45;&gt;\\RichWeb\\Algorithms\\Interfaces\\SingletonPluginInterface</title>
<path fill="none" stroke="black" stroke-dasharray="1,5" d="M605.93,-558.95C535.83,-549.66 433.85,-535.74 345,-522 316.1,-517.53 284.76,-512.32 256.12,-507.42"/>
<polygon fill="none" stroke="black" points="256.56,-503.95 246.11,-505.71 255.37,-510.85 256.56,-503.95"/>
</g>
<!-- \\RichWeb\\Algorithms\\Abstracts\\AbstractSyntaxHighlighter -->
<g id="node5" class="node">
<title>\\RichWeb\\Algorithms\\Abstracts\\AbstractSyntaxHighlighter</title>
<polygon fill="none" stroke="black" points="784.5,-642 599.5,-642 599.5,-606 784.5,-606 784.5,-642"/>
<text text-anchor="start" x="658" y="-627.2" font-family="Courier,monospace" font-size="11.00">«abstract»</text>
<text text-anchor="start" x="607.5" y="-615.2" font-family="Courier,monospace" font-size="11.00">AbstractSyntaxHighlighter</text>
</g>
<!-- \\RichWeb\\Algorithms\\Interfaces\\SyntaxHighlighterInterface -->
<g id="node27" class="node">
<title>\\RichWeb\\Algorithms\\Interfaces\\SyntaxHighlighterInterface</title>
<polygon fill="none" stroke="black" points="252.5,-562 60.5,-562 60.5,-526 252.5,-526 252.5,-562"/>
<text text-anchor="middle" x="156.5" y="-541.2" font-family="Courier,monospace" font-size="11.00">SyntaxHighlighterInterface</text>
</g>
<!-- \\RichWeb\\Algorithms\\Abstracts\\AbstractSyntaxHighlighter&#45;&gt;\\RichWeb\\Algorithms\\Interfaces\\SyntaxHighlighterInterface -->
<g id="edge7" class="edge">
<title>\\RichWeb\\Algorithms\\Abstracts\\AbstractSyntaxHighlighter&#45;&gt;\\RichWeb\\Algorithms\\Interfaces\\SyntaxHighlighterInterface</title>
<path fill="none" stroke="black" stroke-dasharray="1,5" d="M613.83,-606C602.77,-603.14 591.56,-600.11 581,-597 552.14,-588.52 546.43,-581.23 517,-575 432.56,-557.13 334.89,-549.52 262.68,-546.29"/>
<polygon fill="none" stroke="black" points="262.81,-542.8 252.67,-545.87 262.51,-549.79 262.81,-542.8"/>
</g>
<!-- \\RichWeb\\Algorithms\\Admin\\Abstracts\\AbstractMetaBox -->
<g id="node6" class="node">
<title>\\RichWeb\\Algorithms\\Admin\\Abstracts\\AbstractMetaBox</title>
<polygon fill="none" stroke="black" points="490,-942 372,-942 372,-906 490,-906 490,-942"/>
<text text-anchor="start" x="397" y="-927.2" font-family="Courier,monospace" font-size="11.00">«abstract»</text>
<text text-anchor="start" x="380" y="-915.2" font-family="Courier,monospace" font-size="11.00">AbstractMetaBox</text>
</g>
<!-- \\RichWeb\\Algorithms\\Admin\\Interfaces\\MetaBoxInterface -->
<g id="node8" class="node">
<title>\\RichWeb\\Algorithms\\Admin\\Interfaces\\MetaBoxInterface</title>
<polygon fill="none" stroke="black" points="219,-942 94,-942 94,-906 219,-906 219,-942"/>
<text text-anchor="middle" x="156.5" y="-921.2" font-family="Courier,monospace" font-size="11.00">MetaBoxInterface</text>
</g>
<!-- \\RichWeb\\Algorithms\\Admin\\Abstracts\\AbstractMetaBox&#45;&gt;\\RichWeb\\Algorithms\\Admin\\Interfaces\\MetaBoxInterface -->
<g id="edge8" class="edge">
<title>\\RichWeb\\Algorithms\\Admin\\Abstracts\\AbstractMetaBox&#45;&gt;\\RichWeb\\Algorithms\\Admin\\Interfaces\\MetaBoxInterface</title>
<path fill="none" stroke="black" stroke-dasharray="1,5" d="M371.88,-924C330.26,-924 273.95,-924 229.49,-924"/>
<polygon fill="none" stroke="black" points="229.32,-920.5 219.32,-924 229.32,-927.5 229.32,-920.5"/>
</g>
<!-- \\RichWeb\\Algorithms\\Admin\\Abstracts\\AbstractPostType -->
<g id="node7" class="node">
<title>\\RichWeb\\Algorithms\\Admin\\Abstracts\\AbstractPostType</title>
<polygon fill="none" stroke="black" points="493.5,-996 368.5,-996 368.5,-960 493.5,-960 493.5,-996"/>
<text text-anchor="start" x="397" y="-981.2" font-family="Courier,monospace" font-size="11.00">«abstract»</text>
<text text-anchor="start" x="376.5" y="-969.2" font-family="Courier,monospace" font-size="11.00">AbstractPostType</text>
</g>
<!-- \\RichWeb\\Algorithms\\Admin\\Interfaces\\PostTypeInterface -->
<g id="node9" class="node">
<title>\\RichWeb\\Algorithms\\Admin\\Interfaces\\PostTypeInterface</title>
<polygon fill="none" stroke="black" points="222,-996 91,-996 91,-960 222,-960 222,-996"/>
<text text-anchor="middle" x="156.5" y="-975.2" font-family="Courier,monospace" font-size="11.00">PostTypeInterface</text>
</g>
<!-- \\RichWeb\\Algorithms\\Admin\\Abstracts\\AbstractPostType&#45;&gt;\\RichWeb\\Algorithms\\Admin\\Interfaces\\PostTypeInterface -->
<g id="edge9" class="edge">
<title>\\RichWeb\\Algorithms\\Admin\\Abstracts\\AbstractPostType&#45;&gt;\\RichWeb\\Algorithms\\Admin\\Interfaces\\PostTypeInterface</title>
<path fill="none" stroke="black" stroke-dasharray="1,5" d="M368.17,-978C327.9,-978 275.12,-978 232.46,-978"/>
<polygon fill="none" stroke="black" points="232.41,-974.5 222.41,-978 232.41,-981.5 232.41,-974.5"/>
</g>
<!-- \\RichWeb\\Algorithms\\Admin\\Abstracts\\AbstractPostType&#45;&gt;\\RichWeb\\Algorithms\\Interfaces\\HasRunnerInterface -->
<g id="edge10" class="edge">
<title>\\RichWeb\\Algorithms\\Admin\\Abstracts\\AbstractPostType&#45;&gt;\\RichWeb\\Algorithms\\Interfaces\\HasRunnerInterface</title>
<path fill="none" stroke="black" stroke-dasharray="1,5" d="M368.35,-966.93C359.6,-963.09 351.42,-957.93 345,-951 260.61,-859.89 369.51,-766.12 281,-679 268.71,-666.9 252.33,-659.69 235.53,-655.5"/>
<polygon fill="none" stroke="black" points="236.12,-652.05 225.61,-653.37 234.65,-658.89 236.12,-652.05"/>
</g>
<!-- \\RichWeb\\Algorithms\\Admin\\MetaBoxes\\AlgorithmCodeExamplesMetaBox -->
<g id="node10" class="node">
<title>\\RichWeb\\Algorithms\\Admin\\MetaBoxes\\AlgorithmCodeExamplesMetaBox</title>
<polygon fill="none" stroke="black" points="795,-920 589,-920 589,-884 795,-884 795,-920"/>
<text text-anchor="middle" x="692" y="-899.2" font-family="Courier,monospace" font-size="11.00">AlgorithmCodeExamplesMetaBox</text>
</g>
<!-- \\RichWeb\\Algorithms\\Admin\\MetaBoxes\\AlgorithmCodeExamplesMetaBox&#45;&gt;\\RichWeb\\Algorithms\\Admin\\Abstracts\\AbstractMetaBox -->
<g id="edge12" class="edge">
<title>\\RichWeb\\Algorithms\\Admin\\MetaBoxes\\AlgorithmCodeExamplesMetaBox&#45;&gt;\\RichWeb\\Algorithms\\Admin\\Abstracts\\AbstractMetaBox</title>
<path fill="none" stroke="black" d="M588.64,-910.69C558.92,-913.22 527.21,-915.91 500.15,-918.21"/>
<polygon fill="none" stroke="black" points="499.69,-914.74 490.02,-919.07 500.28,-921.71 499.69,-914.74"/>
</g>
<!-- \\RichWeb\\Algorithms\\Admin\\MetaBoxes\\AlgorithmPackageMetaBox -->
<g id="node11" class="node">
<title>\\RichWeb\\Algorithms\\Admin\\MetaBoxes\\AlgorithmPackageMetaBox</title>
<polygon fill="none" stroke="black" points="778,-974 606,-974 606,-938 778,-938 778,-974"/>
<text text-anchor="middle" x="692" y="-953.2" font-family="Courier,monospace" font-size="11.00">AlgorithmPackageMetaBox</text>
</g>
<!-- \\RichWeb\\Algorithms\\Admin\\MetaBoxes\\AlgorithmPackageMetaBox&#45;&gt;\\RichWeb\\Algorithms\\Admin\\Abstracts\\AbstractMetaBox -->
<g id="edge13" class="edge">
<title>\\RichWeb\\Algorithms\\Admin\\MetaBoxes\\AlgorithmPackageMetaBox&#45;&gt;\\RichWeb\\Algorithms\\Admin\\Abstracts\\AbstractMetaBox</title>
<path fill="none" stroke="black" d="M605.83,-945.48C571.64,-941.25 532.76,-936.45 500.46,-932.46"/>
<polygon fill="none" stroke="black" points="500.56,-928.94 490.21,-931.19 499.71,-935.89 500.56,-928.94"/>
</g>
<!-- \\RichWeb\\Algorithms\\Admin\\MetaBoxes\\MetaBoxes -->
<g id="node12" class="node">
<title>\\RichWeb\\Algorithms\\Admin\\MetaBoxes\\MetaBoxes</title>
<polygon fill="none" stroke="black" points="730.5,-866 653.5,-866 653.5,-830 730.5,-830 730.5,-866"/>
<text text-anchor="middle" x="692" y="-845.2" font-family="Courier,monospace" font-size="11.00">MetaBoxes</text>
</g>
<!-- \\RichWeb\\Algorithms\\Admin\\MetaBoxes\\MetaBoxes&#45;&gt;\\RichWeb\\Algorithms\\Interfaces\\HasRunnerInterface -->
<g id="edge14" class="edge">
<title>\\RichWeb\\Algorithms\\Admin\\MetaBoxes\\MetaBoxes&#45;&gt;\\RichWeb\\Algorithms\\Interfaces\\HasRunnerInterface</title>
<path fill="none" stroke="black" stroke-dasharray="1,5" d="M653.3,-842.62C631.81,-839.02 604.55,-833.54 581,-826 511.85,-803.85 502.26,-777.32 432,-759"/>
</g>
<!-- \\RichWeb\\Algorithms\\Admin\\AlgorithmPostType -->
<g id="node13" class="node">
<title>\\RichWeb\\Algorithms\\Admin\\AlgorithmPostType</title>
<polygon fill="none" stroke="black" points="757.5,-1046 626.5,-1046 626.5,-1010 757.5,-1010 757.5,-1046"/>
<text text-anchor="middle" x="692" y="-1025.2" font-family="Courier,monospace" font-size="11.00">AlgorithmPostType</text>
</g>
<!-- \\RichWeb\\Algorithms\\Admin\\AlgorithmPostType&#45;&gt;\\RichWeb\\Algorithms\\Admin\\Abstracts\\AbstractPostType -->
<g id="edge11" class="edge">
<title>\\RichWeb\\Algorithms\\Admin\\AlgorithmPostType&#45;&gt;\\RichWeb\\Algorithms\\Admin\\Abstracts\\AbstractPostType</title>
<path fill="none" stroke="black" d="M626.31,-1015.51C589.04,-1008.32 542.11,-999.26 503.71,-991.84"/>
<polygon fill="none" stroke="black" points="504.12,-988.36 493.64,-989.9 502.79,-995.23 504.12,-988.36"/>
</g>
<!-- \\RichWeb\\Algorithms\\Interfaces\\AlgorithmPackageInterface -->
<g id="node15" class="node">
<title>\\RichWeb\\Algorithms\\Interfaces\\AlgorithmPackageInterface</title>
<polygon fill="none" stroke="black" points="249,-238 64,-238 64,-202 249,-202 249,-238"/>
<text text-anchor="middle" x="156.5" y="-217.2" font-family="Courier,monospace" font-size="11.00">AlgorithmPackageInterface</text>
</g>
<!-- \\RichWeb\\Algorithms\\Interfaces\\AlgorithmPackageLoaderInterface -->
<g id="node16" class="node">
<title>\\RichWeb\\Algorithms\\Interfaces\\AlgorithmPackageLoaderInterface</title>
<polygon fill="none" stroke="black" points="269.5,-292 43.5,-292 43.5,-256 269.5,-256 269.5,-292"/>
<text text-anchor="middle" x="156.5" y="-271.2" font-family="Courier,monospace" font-size="11.00">AlgorithmPackageLoaderInterface</text>
</g>
<!-- \\RichWeb\\Algorithms\\Interfaces\\AlgorithmPackageManagerInterface -->
<g id="node17" class="node">
<title>\\RichWeb\\Algorithms\\Interfaces\\AlgorithmPackageManagerInterface</title>
<polygon fill="none" stroke="black" points="273,-184 40,-184 40,-148 273,-148 273,-184"/>
<text text-anchor="middle" x="156.5" y="-163.2" font-family="Courier,monospace" font-size="11.00">AlgorithmPackageManagerInterface</text>
</g>
<!-- \\RichWeb\\Algorithms\\Interfaces\\AutoloaderInterface -->
<g id="node18" class="node">
<title>\\RichWeb\\Algorithms\\Interfaces\\AutoloaderInterface</title>
<polygon fill="none" stroke="black" points="229,-346 84,-346 84,-310 229,-310 229,-346"/>
<text text-anchor="middle" x="156.5" y="-325.2" font-family="Courier,monospace" font-size="11.00">AutoloaderInterface</text>
</g>
<!-- \\RichWeb\\Algorithms\\Interfaces\\CodeExampleInterface -->
<g id="node19" class="node">
<title>\\RichWeb\\Algorithms\\Interfaces\\CodeExampleInterface</title>
<polygon fill="none" stroke="black" points="232.5,-778 80.5,-778 80.5,-742 232.5,-742 232.5,-778"/>
<text text-anchor="middle" x="156.5" y="-757.2" font-family="Courier,monospace" font-size="11.00">CodeExampleInterface</text>
</g>
<!-- \\RichWeb\\Algorithms\\Interfaces\\FileLoaderInterface -->
<g id="node20" class="node">
<title>\\RichWeb\\Algorithms\\Interfaces\\FileLoaderInterface</title>
<polygon fill="none" stroke="black" points="229,-400 84,-400 84,-364 229,-364 229,-400"/>
<text text-anchor="middle" x="156.5" y="-379.2" font-family="Courier,monospace" font-size="11.00">FileLoaderInterface</text>
</g>
<!-- \\RichWeb\\Algorithms\\Interfaces\\LanguagesInterface -->
<g id="node22" class="node">
<title>\\RichWeb\\Algorithms\\Interfaces\\LanguagesInterface</title>
<polygon fill="none" stroke="black" points="225.5,-724 87.5,-724 87.5,-688 225.5,-688 225.5,-724"/>
<text text-anchor="middle" x="156.5" y="-703.2" font-family="Courier,monospace" font-size="11.00">LanguagesInterface</text>
</g>
<!-- \\RichWeb\\Algorithms\\Interfaces\\ProjectInterface -->
<g id="node24" class="node">
<title>\\RichWeb\\Algorithms\\Interfaces\\ProjectInterface</title>
<polygon fill="none" stroke="black" points="219,-616 94,-616 94,-580 219,-580 219,-616"/>
<text text-anchor="middle" x="156.5" y="-595.2" font-family="Courier,monospace" font-size="11.00">ProjectInterface</text>
</g>
<!-- \\RichWeb\\Algorithms\\Loaders\\Autoloader -->
<g id="node28" class="node">
<title>\\RichWeb\\Algorithms\\Loaders\\Autoloader</title>
<polygon fill="none" stroke="black" points="473,-346 389,-346 389,-310 473,-310 473,-346"/>
<text text-anchor="middle" x="431" y="-325.2" font-family="Courier,monospace" font-size="11.00">Autoloader</text>
</g>
<!-- \\RichWeb\\Algorithms\\Loaders\\Autoloader&#45;&gt;\\RichWeb\\Algorithms\\Interfaces\\AutoloaderInterface -->
<g id="edge21" class="edge">
<title>\\RichWeb\\Algorithms\\Loaders\\Autoloader&#45;&gt;\\RichWeb\\Algorithms\\Interfaces\\AutoloaderInterface</title>
<path fill="none" stroke="black" stroke-dasharray="1,5" d="M388.91,-328C349.4,-328 288.58,-328 239.21,-328"/>
<polygon fill="none" stroke="black" points="239.18,-324.5 229.18,-328 239.18,-331.5 239.18,-324.5"/>
</g>
<!-- \\RichWeb\\Algorithms\\Loaders\\FileLoader -->
<g id="node29" class="node">
<title>\\RichWeb\\Algorithms\\Loaders\\FileLoader</title>
<polygon fill="none" stroke="black" points="473,-400 389,-400 389,-364 473,-364 473,-400"/>
<text text-anchor="middle" x="431" y="-379.2" font-family="Courier,monospace" font-size="11.00">FileLoader</text>
</g>
<!-- \\RichWeb\\Algorithms\\Loaders\\FileLoader&#45;&gt;\\RichWeb\\Algorithms\\Interfaces\\FileLoaderInterface -->
<g id="edge22" class="edge">
<title>\\RichWeb\\Algorithms\\Loaders\\FileLoader&#45;&gt;\\RichWeb\\Algorithms\\Interfaces\\FileLoaderInterface</title>
<path fill="none" stroke="black" stroke-dasharray="1,5" d="M388.91,-382C349.4,-382 288.58,-382 239.21,-382"/>
<polygon fill="none" stroke="black" points="239.18,-378.5 229.18,-382 239.18,-385.5 239.18,-378.5"/>
</g>
<!-- \\RichWeb\\Algorithms\\Setup\\Languages -->
<g id="node30" class="node">
<title>\\RichWeb\\Algorithms\\Setup\\Languages</title>
<polygon fill="none" stroke="black" points="1015,-814 938,-814 938,-778 1015,-778 1015,-814"/>
<text text-anchor="middle" x="976.5" y="-793.2" font-family="Courier,monospace" font-size="11.00">Languages</text>
</g>
<!-- \\RichWeb\\Algorithms\\Setup\\Languages&#45;&gt;\\RichWeb\\Algorithms\\Interfaces\\HasRunnerInterface -->
<g id="edge27" class="edge">
<title>\\RichWeb\\Algorithms\\Setup\\Languages&#45;&gt;\\RichWeb\\Algorithms\\Interfaces\\HasRunnerInterface</title>
<path fill="none" stroke="black" stroke-dasharray="1,5" d="M937.58,-793.59C883.37,-790.17 780.57,-783.8 693,-779"/>
<path fill="none" stroke="black" stroke-dasharray="1,5" d="M691,-779C613.5,-774.75 594.42,-769.61 517,-764 498.13,-762.63 450.32,-763.75 432,-759"/>
</g>
<!-- \\RichWeb\\Algorithms\\Setup\\Languages&#45;&gt;\\RichWeb\\Algorithms\\Interfaces\\LanguagesInterface -->
<g id="edge26" class="edge">
<title>\\RichWeb\\Algorithms\\Setup\\Languages&#45;&gt;\\RichWeb\\Algorithms\\Interfaces\\LanguagesInterface</title>
<path fill="none" stroke="black" stroke-dasharray="1,5" d="M691,-779C537.26,-771.46 494.24,-801.66 345,-764 314.36,-756.27 310.87,-743.34 281,-733 266.54,-728 250.79,-723.71 235.54,-720.13"/>
<polygon fill="none" stroke="black" points="236.12,-716.68 225.6,-717.88 234.58,-723.5 236.12,-716.68"/>
</g>
<!-- \\RichWeb\\Algorithms\\Setup\\PrismSyntaxtHighlighterScripts -->
<g id="node31" class="node">
<title>\\RichWeb\\Algorithms\\Setup\\PrismSyntaxtHighlighterScripts</title>
<polygon fill="none" stroke="black" points="1086,-652 867,-652 867,-616 1086,-616 1086,-652"/>
<text text-anchor="middle" x="976.5" y="-631.2" font-family="Courier,monospace" font-size="11.00">PrismSyntaxtHighlighterScripts</text>
</g>
<!-- \\RichWeb\\Algorithms\\Setup\\PrismSyntaxtHighlighterScripts&#45;&gt;\\RichWeb\\Algorithms\\Abstracts\\AbstractScripts -->
<g id="edge28" class="edge">
<title>\\RichWeb\\Algorithms\\Setup\\PrismSyntaxtHighlighterScripts&#45;&gt;\\RichWeb\\Algorithms\\Abstracts\\AbstractScripts</title>
<path fill="none" stroke="black" d="M935.67,-615.88C912.82,-605.06 883.82,-590.62 859,-576 836.69,-562.87 834.71,-553.41 811,-543 795.46,-536.18 777.99,-530.98 761.34,-527.05"/>
<polygon fill="none" stroke="black" points="761.63,-523.53 751.11,-524.76 760.11,-530.36 761.63,-523.53"/>
</g>
<!-- \\RichWeb\\Algorithms\\Setup\\Scripts -->
<g id="node32" class="node">
<title>\\RichWeb\\Algorithms\\Setup\\Scripts</title>
<polygon fill="none" stroke="black" points="1008.5,-706 944.5,-706 944.5,-670 1008.5,-670 1008.5,-706"/>
<text text-anchor="middle" x="976.5" y="-685.2" font-family="Courier,monospace" font-size="11.00">Scripts</text>
</g>
<!-- \\RichWeb\\Algorithms\\Setup\\Scripts&#45;&gt;\\RichWeb\\Algorithms\\Abstracts\\AbstractScripts -->
<g id="edge29" class="edge">
<title>\\RichWeb\\Algorithms\\Setup\\Scripts&#45;&gt;\\RichWeb\\Algorithms\\Abstracts\\AbstractScripts</title>
<path fill="none" stroke="black" d="M944.31,-688.34C918.62,-687 882.7,-681.21 859,-661 815.92,-624.26 854.13,-579.68 811,-543 797.02,-531.11 778.85,-524.19 760.97,-520.23"/>
<polygon fill="none" stroke="black" points="761.57,-516.79 751.09,-518.33 760.25,-523.66 761.57,-516.79"/>
</g>
<!-- \\RichWeb\\Algorithms\\Setup\\Setup -->
<g id="node33" class="node">
<title>\\RichWeb\\Algorithms\\Setup\\Setup</title>
<polygon fill="none" stroke="black" points="1003.5,-760 949.5,-760 949.5,-724 1003.5,-724 1003.5,-760"/>
<text text-anchor="middle" x="976.5" y="-739.2" font-family="Courier,monospace" font-size="11.00">Setup</text>
</g>
<!-- \\RichWeb\\Algorithms\\Setup\\Setup&#45;&gt;\\RichWeb\\Algorithms\\Interfaces\\HasRunnerInterface -->
<g id="edge30" class="edge">
<title>\\RichWeb\\Algorithms\\Setup\\Setup&#45;&gt;\\RichWeb\\Algorithms\\Interfaces\\HasRunnerInterface</title>
<path fill="none" stroke="black" stroke-dasharray="1,5" d="M430,-759C393.38,-749.45 378.88,-770.85 345,-754 305.77,-734.48 318.59,-701.52 281,-679 267.2,-670.73 251.18,-664.99 235.34,-660.99"/>
<polygon fill="none" stroke="black" points="236.06,-657.57 225.53,-658.73 234.48,-664.39 236.06,-657.57"/>
<path fill="none" stroke="black" stroke-dasharray="1,5" d="M949.26,-743.69C847.52,-750.13 482.24,-772.1 432,-759"/>
</g>
<!-- \\RichWeb\\Algorithms\\Traits\\Formatting\\FilePaths -->
<g id="node34" class="node">
<title>\\RichWeb\\Algorithms\\Traits\\Formatting\\FilePaths</title>
<polygon fill="none" stroke="black" points="1015,-544 938,-544 938,-508 1015,-508 1015,-544"/>
<text text-anchor="middle" x="976.5" y="-523.2" font-family="Courier,monospace" font-size="11.00">FilePaths</text>
</g>
<!-- \\RichWeb\\Algorithms\\Traits\\Formatting\\Strings -->
<g id="node35" class="node">
<title>\\RichWeb\\Algorithms\\Traits\\Formatting\\Strings</title>
<polygon fill="none" stroke="black" points="1008.5,-490 944.5,-490 944.5,-454 1008.5,-454 1008.5,-490"/>
<text text-anchor="middle" x="976.5" y="-469.2" font-family="Courier,monospace" font-size="11.00">Strings</text>
</g>
<!-- \\RichWeb\\Algorithms\\AlgorithmPackage -->
<g id="node36" class="node">
<title>\\RichWeb\\Algorithms\\AlgorithmPackage</title>
<polygon fill="none" stroke="black" points="493.5,-218 368.5,-218 368.5,-182 493.5,-182 493.5,-218"/>
<text text-anchor="middle" x="431" y="-197.2" font-family="Courier,monospace" font-size="11.00">AlgorithmPackage</text>
</g>
<!-- \\RichWeb\\Algorithms\\AlgorithmPackage&#45;&gt;\\RichWeb\\Algorithms\\Interfaces\\AlgorithmPackageInterface -->
<g id="edge15" class="edge">
<title>\\RichWeb\\Algorithms\\AlgorithmPackage&#45;&gt;\\RichWeb\\Algorithms\\Interfaces\\AlgorithmPackageInterface</title>
<path fill="none" stroke="black" stroke-dasharray="1,5" d="M368.17,-204.54C336.01,-206.9 295.89,-209.84 259.31,-212.53"/>
<polygon fill="none" stroke="black" points="258.81,-209.06 249.09,-213.28 259.32,-216.04 258.81,-209.06"/>
</g>
<!-- \\RichWeb\\Algorithms\\AlgorithmPackageLoader -->
<g id="node37" class="node">
<title>\\RichWeb\\Algorithms\\AlgorithmPackageLoader</title>
<polygon fill="none" stroke="black" points="513.5,-272 348.5,-272 348.5,-236 513.5,-236 513.5,-272"/>
<text text-anchor="middle" x="431" y="-251.2" font-family="Courier,monospace" font-size="11.00">AlgorithmPackageLoader</text>
</g>
<!-- \\RichWeb\\Algorithms\\AlgorithmPackageLoader&#45;&gt;\\RichWeb\\Algorithms\\Interfaces\\AlgorithmPackageLoaderInterface -->
<g id="edge16" class="edge">
<title>\\RichWeb\\Algorithms\\AlgorithmPackageLoader&#45;&gt;\\RichWeb\\Algorithms\\Interfaces\\AlgorithmPackageLoaderInterface</title>
<path fill="none" stroke="black" stroke-dasharray="1,5" d="M348.24,-260C326.73,-261.58 303.05,-263.32 279.92,-265.02"/>
<polygon fill="none" stroke="black" points="279.4,-261.54 269.69,-265.77 279.92,-268.52 279.4,-261.54"/>
</g>
<!-- \\RichWeb\\Algorithms\\AlgorithmPackageLoader&#45;&gt;\\RichWeb\\Algorithms\\Interfaces\\HasRunnerInterface -->
<g id="edge17" class="edge">
<title>\\RichWeb\\Algorithms\\AlgorithmPackageLoader&#45;&gt;\\RichWeb\\Algorithms\\Interfaces\\HasRunnerInterface</title>
<path fill="none" stroke="black" stroke-dasharray="1,5" d="M361.67,-272.06C355.4,-275.85 349.67,-280.45 345,-286 246.38,-403.4 387.86,-515.04 281,-625 268.92,-637.43 252.53,-644.76 235.65,-648.96"/>
<polygon fill="none" stroke="black" points="234.73,-645.58 225.68,-651.08 236.19,-652.42 234.73,-645.58"/>
</g>
<!-- \\RichWeb\\Algorithms\\AlgorithmPackageManager -->
<g id="node38" class="node">
<title>\\RichWeb\\Algorithms\\AlgorithmPackageManager</title>
<polygon fill="none" stroke="black" points="517,-164 345,-164 345,-128 517,-128 517,-164"/>
<text text-anchor="middle" x="431" y="-143.2" font-family="Courier,monospace" font-size="11.00">AlgorithmPackageManager</text>
</g>
<!-- \\RichWeb\\Algorithms\\AlgorithmPackageManager&#45;&gt;\\RichWeb\\Algorithms\\Interfaces\\AlgorithmPackageManagerInterface -->
<g id="edge18" class="edge">
<title>\\RichWeb\\Algorithms\\AlgorithmPackageManager&#45;&gt;\\RichWeb\\Algorithms\\Interfaces\\AlgorithmPackageManagerInterface</title>
<path fill="none" stroke="black" stroke-dasharray="1,5" d="M344.9,-152.25C325.44,-153.67 304.35,-155.22 283.58,-156.75"/>
<polygon fill="none" stroke="black" points="283.14,-153.27 273.42,-157.49 283.65,-160.25 283.14,-153.27"/>
</g>
<!-- \\RichWeb\\Algorithms\\CodeExample -->
<g id="node39" class="node">
<title>\\RichWeb\\Algorithms\\CodeExample</title>
<polygon fill="none" stroke="black" points="476.5,-1118 385.5,-1118 385.5,-1082 476.5,-1082 476.5,-1118"/>
<text text-anchor="middle" x="431" y="-1097.2" font-family="Courier,monospace" font-size="11.00">CodeExample</text>
</g>
<!-- \\RichWeb\\Algorithms\\CodeExample&#45;&gt;\\RichWeb\\Algorithms\\Interfaces\\CodeExampleInterface -->
<g id="edge19" class="edge">
<title>\\RichWeb\\Algorithms\\CodeExample&#45;&gt;\\RichWeb\\Algorithms\\Interfaces\\CodeExampleInterface</title>
<path fill="none" stroke="black" stroke-dasharray="1,5" d="M403.25,-1081.97C385.06,-1068.69 361.41,-1049.29 345,-1028 304.7,-975.73 318,-948.65 281,-894 252.91,-852.51 212.31,-811.07 185.43,-785.5"/>
<polygon fill="none" stroke="black" points="187.58,-782.71 177.9,-778.41 182.78,-787.81 187.58,-782.71"/>
</g>
<!-- Stringable -->
<g id="node43" class="node">
<title>Stringable</title>
<ellipse fill="none" stroke="black" cx="156.5" cy="-1200" rx="46.59" ry="18"/>
<text text-anchor="middle" x="156.5" y="-1196.3" font-family="Times New Roman,serif" font-size="14.00" fill="gray">Stringable</text>
</g>
<!-- \\RichWeb\\Algorithms\\CodeExample&#45;&gt;Stringable -->
<g id="edge20" class="edge">
<title>\\RichWeb\\Algorithms\\CodeExample&#45;&gt;Stringable</title>
<path fill="none" stroke="black" stroke-dasharray="1,5" d="M385.31,-1116.4C334.21,-1135.15 251.12,-1165.64 200.67,-1184.16"/>
<polygon fill="none" stroke="black" points="199.21,-1180.96 191.03,-1187.69 201.63,-1187.53 199.21,-1180.96"/>
</g>
<!-- \\RichWeb\\Algorithms\\Plugin -->
<g id="node40" class="node">
<title>\\RichWeb\\Algorithms\\Plugin</title>
<polygon fill="none" stroke="black" points="1005,-376 948,-376 948,-340 1005,-340 1005,-376"/>
<text text-anchor="middle" x="976.5" y="-355.2" font-family="Courier,monospace" font-size="11.00">Plugin</text>
</g>
<!-- \\RichWeb\\Algorithms\\Plugin&#45;&gt;\\RichWeb\\Algorithms\\Abstracts\\AbstractSingletonPlugin -->
<g id="edge23" class="edge">
<title>\\RichWeb\\Algorithms\\Plugin&#45;&gt;\\RichWeb\\Algorithms\\Abstracts\\AbstractSingletonPlugin</title>
<path fill="none" stroke="black" d="M947.89,-356.99C921.72,-357.56 882.96,-362.6 859,-385 805.39,-435.12 864.68,-492.95 811,-543 804.17,-549.37 796.16,-554.34 787.58,-558.2"/>
<polygon fill="none" stroke="black" points="786.07,-555.04 778.07,-561.98 788.66,-561.54 786.07,-555.04"/>
</g>
<!-- \\RichWeb\\Algorithms\\PrismSyntaxHighlighter -->
<g id="node41" class="node">
<title>\\RichWeb\\Algorithms\\PrismSyntaxHighlighter</title>
<polygon fill="none" stroke="black" points="1059,-430 894,-430 894,-394 1059,-394 1059,-430"/>
<text text-anchor="middle" x="976.5" y="-409.2" font-family="Courier,monospace" font-size="11.00">PrismSyntaxHighlighter</text>
</g>
<!-- \\RichWeb\\Algorithms\\PrismSyntaxHighlighter&#45;&gt;\\RichWeb\\Algorithms\\Abstracts\\AbstractSyntaxHighlighter -->
<g id="edge24" class="edge">
<title>\\RichWeb\\Algorithms\\PrismSyntaxHighlighter&#45;&gt;\\RichWeb\\Algorithms\\Abstracts\\AbstractSyntaxHighlighter</title>
<path fill="none" stroke="black" d="M893.83,-421.65C880.99,-426.19 868.75,-432.71 859,-442 806.79,-491.75 863.88,-547.96 811,-597 805.88,-601.75 800.09,-605.73 793.9,-609.04"/>
<polygon fill="none" stroke="black" points="792.13,-606.01 784.58,-613.45 795.12,-612.34 792.13,-606.01"/>
</g>
<!-- \\RichWeb\\Algorithms\\Project -->
<g id="node42" class="node">
<title>\\RichWeb\\Algorithms\\Project</title>
<polygon fill="none" stroke="black" points="463,-714 399,-714 399,-678 463,-678 463,-714"/>
<text text-anchor="middle" x="431" y="-693.2" font-family="Courier,monospace" font-size="11.00">Project</text>
</g>
<!-- \\RichWeb\\Algorithms\\Project&#45;&gt;\\RichWeb\\Algorithms\\Interfaces\\ProjectInterface -->
<g id="edge25" class="edge">
<title>\\RichWeb\\Algorithms\\Project&#45;&gt;\\RichWeb\\Algorithms\\Interfaces\\ProjectInterface</title>
<path fill="none" stroke="black" stroke-dasharray="1,5" d="M398.66,-691.01C382.14,-687.61 361.86,-682.21 345,-674 312.79,-658.31 313.5,-640.07 281,-625 264.94,-617.55 246.74,-612.11 229.34,-608.16"/>
<polygon fill="none" stroke="black" points="229.72,-604.67 219.21,-606 228.26,-611.51 229.72,-604.67"/>
</g>
</g>
</svg>
