<?xml version="1.0" encoding="UTF-8" standalone="no"?>
<!DOCTYPE svg PUBLIC "-//W3C//DTD SVG 1.1//EN"
 "http://www.w3.org/Graphics/SVG/1.1/DTD/svg11.dtd">
<!-- Generated by graphviz version 2.50.0 (20211204.2007)
 -->
<!-- Title: G Pages: 1 -->
<svg width="1134pt" height="1472pt"
 viewBox="0.00 0.00 1134.00 1472.00" xmlns="http://www.w3.org/2000/svg" xmlns:xlink="http://www.w3.org/1999/xlink">
<g id="graph0" class="graph" transform="scale(1 1) rotate(0) translate(4 1468)">
<title>G</title>
<polygon fill="white" stroke="transparent" points="-4,4 -4,-1468 1130,-1468 1130,4 -4,4"/>
<g id="clust1" class="cluster">
<title>cluster_Global</title>
<polygon fill="none" stroke="black" points="8,-8 8,-1456 1118,-1456 1118,-8 8,-8"/>
<text text-anchor="middle" x="563" y="-1443.2" font-family="Times New Roman,serif" font-size="11.00" fill="gray">Global</text>
</g>
<g id="clust2" class="cluster">
<title>cluster_\RichWeb</title>
<polygon fill="none" stroke="black" points="16,-16 16,-1384 1110,-1384 1110,-16 16,-16"/>
<text text-anchor="middle" x="563" y="-1371.2" font-family="Times New Roman,serif" font-size="11.00" fill="gray">RichWeb</text>
</g>
<g id="clust3" class="cluster">
<title>cluster_\RichWeb\Algorithms</title>
<polygon fill="none" stroke="black" points="24,-24 24,-1356 1102,-1356 1102,-24 24,-24"/>
<text text-anchor="middle" x="563" y="-1343.2" font-family="Times New Roman,serif" font-size="11.00" fill="gray">Algorithms</text>
</g>
<g id="clust4" class="cluster">
<title>cluster_\RichWeb\Algorithms\Abstracts</title>
<polygon fill="none" stroke="black" points="367.5,-460 367.5,-694 792.5,-694 792.5,-460 367.5,-460"/>
<text text-anchor="middle" x="580" y="-681.2" font-family="Times New Roman,serif" font-size="11.00" fill="gray">Abstracts</text>
</g>
<g id="clust10" class="cluster">
<title>cluster_\RichWeb\Algorithms\Events</title>
<polygon fill="none" stroke="black" points="357.5,-714 357.5,-840 504.5,-840 504.5,-714 357.5,-714"/>
<text text-anchor="middle" x="431" y="-827.2" font-family="Times New Roman,serif" font-size="11.00" fill="gray">Events</text>
</g>
<g id="clust9" class="cluster">
<title>cluster_\RichWeb\Algorithms\CodeExamples</title>
<polygon fill="none" stroke="black" points="354,-934 354,-1060 508,-1060 508,-934 354,-934"/>
<text text-anchor="middle" x="431" y="-1047.2" font-family="Times New Roman,serif" font-size="11.00" fill="gray">CodeExamples</text>
</g>
<g id="clust5" class="cluster">
<title>cluster_\RichWeb\Algorithms\Admin</title>
<polygon fill="none" stroke="black" points="75,-1068 75,-1328 811,-1328 811,-1068 75,-1068"/>
<text text-anchor="middle" x="443" y="-1315.2" font-family="Times New Roman,serif" font-size="11.00" fill="gray">Admin</text>
</g>
<g id="clust8" class="cluster">
<title>cluster_\RichWeb\Algorithms\Admin\MetaBoxes</title>
<polygon fill="none" stroke="black" points="581,-1076 581,-1256 803,-1256 803,-1076 581,-1076"/>
<text text-anchor="middle" x="692" y="-1243.2" font-family="Times New Roman,serif" font-size="11.00" fill="gray">MetaBoxes</text>
</g>
<g id="clust7" class="cluster">
<title>cluster_\RichWeb\Algorithms\Admin\Interfaces</title>
<polygon fill="none" stroke="black" points="83,-1152 83,-1278 230,-1278 230,-1152 83,-1152"/>
<text text-anchor="middle" x="156.5" y="-1265.2" font-family="Times New Roman,serif" font-size="11.00" fill="gray">Interfaces</text>
</g>
<g id="clust6" class="cluster">
<title>cluster_\RichWeb\Algorithms\Admin\Abstracts</title>
<polygon fill="none" stroke="black" points="360.5,-1152 360.5,-1278 501.5,-1278 501.5,-1152 360.5,-1152"/>
<text text-anchor="middle" x="431" y="-1265.2" font-family="Times New Roman,serif" font-size="11.00" fill="gray">Abstracts</text>
</g>
<g id="clust16" class="cluster">
<title>cluster_\RichWeb\Algorithms\Traits</title>
<polygon fill="none" stroke="black" points="898,-1016 898,-1258 1055,-1258 1055,-1016 898,-1016"/>
<text text-anchor="middle" x="976.5" y="-1245.2" font-family="Times New Roman,serif" font-size="11.00" fill="gray">Traits</text>
</g>
<g id="clust18" class="cluster">
<title>cluster_\RichWeb\Algorithms\Traits\Posts</title>
<polygon fill="none" stroke="black" points="906,-1158 906,-1230 1047,-1230 1047,-1158 906,-1158"/>
<text text-anchor="middle" x="976.5" y="-1217.2" font-family="Times New Roman,serif" font-size="11.00" fill="gray">Posts</text>
</g>
<g id="clust17" class="cluster">
<title>cluster_\RichWeb\Algorithms\Traits\Formatting</title>
<polygon fill="none" stroke="black" points="913,-1024 913,-1150 1040,-1150 1040,-1024 913,-1024"/>
<text text-anchor="middle" x="976.5" y="-1137.2" font-family="Times New Roman,serif" font-size="11.00" fill="gray">Formatting</text>
</g>
<g id="clust11" class="cluster">
<title>cluster_\RichWeb\Algorithms\Interfaces</title>
<polygon fill="none" stroke="black" points="32,-51 32,-1041 281,-1041 281,-51 32,-51"/>
<text text-anchor="middle" x="156.5" y="-1028.2" font-family="Times New Roman,serif" font-size="11.00" fill="gray">Interfaces</text>
</g>
<g id="clust14" class="cluster">
<title>cluster_\RichWeb\Algorithms\Setup</title>
<polygon fill="none" stroke="black" points="859,-568 859,-938 1094,-938 1094,-568 859,-568"/>
<text text-anchor="middle" x="976.5" y="-925.2" font-family="Times New Roman,serif" font-size="11.00" fill="gray">Setup</text>
</g>
<g id="clust15" class="cluster">
<title>cluster_\RichWeb\Algorithms\Setup\Scripts</title>
<polygon fill="none" stroke="black" points="892.5,-838 892.5,-910 1060.5,-910 1060.5,-838 892.5,-838"/>
<text text-anchor="middle" x="976.5" y="-897.2" font-family="Times New Roman,serif" font-size="11.00" fill="gray">Scripts</text>
</g>
<g id="clust12" class="cluster">
<title>cluster_\RichWeb\Algorithms\Loaders</title>
<polygon fill="none" stroke="black" points="371,-272 371,-452 491,-452 491,-272 371,-272"/>
<text text-anchor="middle" x="431" y="-439.2" font-family="Times New Roman,serif" font-size="11.00" fill="gray">Loaders</text>
</g>
<g id="clust13" class="cluster">
<title>cluster_\RichWeb\Algorithms\Packages</title>
<polygon fill="none" stroke="black" points="337,-84 337,-264 525,-264 525,-84 337,-84"/>
<text text-anchor="middle" x="431" y="-251.2" font-family="Times New Roman,serif" font-size="11.00" fill="gray">Packages</text>
</g>
<!-- \\RichWeb\\Algorithms\\Abstracts\\AbstractAlgorithm -->
<g id="node1" class="node">
<title>\\RichWeb\\Algorithms\\Abstracts\\AbstractAlgorithm</title>
<polygon fill="none" stroke="black" points="757.5,-666 626.5,-666 626.5,-630 757.5,-630 757.5,-666"/>
<text text-anchor="start" x="658" y="-651.2" font-family="Courier,monospace" font-size="11.00">«abstract»</text>
<text text-anchor="start" x="634.5" y="-639.2" font-family="Courier,monospace" font-size="11.00">AbstractAlgorithm</text>
</g>
<!-- \\RichWeb\\Algorithms\\Interfaces\\AlgorithmInterface -->
<g id="node18" class="node">
<title>\\RichWeb\\Algorithms\\Interfaces\\AlgorithmInterface</title>
<polygon fill="none" stroke="black" points="225.5,-581 87.5,-581 87.5,-545 225.5,-545 225.5,-581"/>
<text text-anchor="middle" x="156.5" y="-560.2" font-family="Courier,monospace" font-size="11.00">AlgorithmInterface</text>
</g>
<!-- \\RichWeb\\Algorithms\\Abstracts\\AbstractAlgorithm&#45;&gt;\\RichWeb\\Algorithms\\Interfaces\\AlgorithmInterface -->
<g id="edge1" class="edge">
<title>\\RichWeb\\Algorithms\\Abstracts\\AbstractAlgorithm&#45;&gt;\\RichWeb\\Algorithms\\Interfaces\\AlgorithmInterface</title>
<path fill="none" stroke="black" stroke-dasharray="1,5" d="M626.38,-639.87C574.01,-633.37 498.29,-624.2 432,-617"/>
<path fill="none" stroke="black" stroke-dasharray="1,5" d="M430,-617C393.17,-613 302.42,-594.36 235.73,-580.09"/>
<polygon fill="none" stroke="black" points="236.17,-576.6 225.66,-577.92 234.7,-583.44 236.17,-576.6"/>
</g>
<!-- \\RichWeb\\Algorithms\\Interfaces\\HasRunnerInterface -->
<g id="node28" class="node">
<title>\\RichWeb\\Algorithms\\Interfaces\\HasRunnerInterface</title>
<polygon fill="none" stroke="black" points="225.5,-635 87.5,-635 87.5,-599 225.5,-599 225.5,-635"/>
<text text-anchor="middle" x="156.5" y="-614.2" font-family="Courier,monospace" font-size="11.00">HasRunnerInterface</text>
</g>
<!-- \\RichWeb\\Algorithms\\Abstracts\\AbstractAlgorithm&#45;&gt;\\RichWeb\\Algorithms\\Interfaces\\HasRunnerInterface -->
<g id="edge2" class="edge">
<title>\\RichWeb\\Algorithms\\Abstracts\\AbstractAlgorithm&#45;&gt;\\RichWeb\\Algorithms\\Interfaces\\HasRunnerInterface</title>
<path fill="none" stroke="black" stroke-dasharray="1,5" d="M430,-617C364.94,-609.94 290.62,-610.51 236.05,-612.52"/>
<polygon fill="none" stroke="black" points="235.61,-609.04 225.75,-612.93 235.88,-616.03 235.61,-609.04"/>
</g>
<!-- \\RichWeb\\Algorithms\\Abstracts\\AbstractPlugin -->
<g id="node2" class="node">
<title>\\RichWeb\\Algorithms\\Abstracts\\AbstractPlugin</title>
<polygon fill="none" stroke="black" points="486.5,-558 375.5,-558 375.5,-522 486.5,-522 486.5,-558"/>
<text text-anchor="start" x="397" y="-543.2" font-family="Courier,monospace" font-size="11.00">«abstract»</text>
<text text-anchor="start" x="383.5" y="-531.2" font-family="Courier,monospace" font-size="11.00">AbstractPlugin</text>
</g>
<!-- \\RichWeb\\Algorithms\\Interfaces\\PluginInterface -->
<g id="node30" class="node">
<title>\\RichWeb\\Algorithms\\Interfaces\\PluginInterface</title>
<polygon fill="none" stroke="black" points="215.5,-527 97.5,-527 97.5,-491 215.5,-491 215.5,-527"/>
<text text-anchor="middle" x="156.5" y="-506.2" font-family="Courier,monospace" font-size="11.00">PluginInterface</text>
</g>
<!-- \\RichWeb\\Algorithms\\Abstracts\\AbstractPlugin&#45;&gt;\\RichWeb\\Algorithms\\Interfaces\\PluginInterface -->
<g id="edge3" class="edge">
<title>\\RichWeb\\Algorithms\\Abstracts\\AbstractPlugin&#45;&gt;\\RichWeb\\Algorithms\\Interfaces\\PluginInterface</title>
<path fill="none" stroke="black" stroke-dasharray="1,5" d="M375.18,-533.76C332.13,-528.87 271.93,-522.02 225.75,-516.76"/>
<polygon fill="none" stroke="black" points="225.85,-513.25 215.52,-515.6 225.06,-520.21 225.85,-513.25"/>
</g>
<!-- \\RichWeb\\Algorithms\\Interfaces\\SubscribesToEventsInterface -->
<g id="node34" class="node">
<title>\\RichWeb\\Algorithms\\Interfaces\\SubscribesToEventsInterface</title>
<polygon fill="none" stroke="black" points="256,-905 57,-905 57,-869 256,-869 256,-905"/>
<text text-anchor="middle" x="156.5" y="-884.2" font-family="Courier,monospace" font-size="11.00">SubscribesToEventsInterface</text>
</g>
<!-- \\RichWeb\\Algorithms\\Abstracts\\AbstractPlugin&#45;&gt;\\RichWeb\\Algorithms\\Interfaces\\SubscribesToEventsInterface -->
<g id="edge4" class="edge">
<title>\\RichWeb\\Algorithms\\Abstracts\\AbstractPlugin&#45;&gt;\\RichWeb\\Algorithms\\Interfaces\\SubscribesToEventsInterface</title>
<path fill="none" stroke="black" stroke-dasharray="1,5" d="M396.33,-558.03C376.12,-570.55 351.59,-589.09 337,-612 276.31,-707.31 361.17,-780.37 281,-860 276.3,-864.67 270.99,-868.61 265.28,-871.94"/>
<polygon fill="none" stroke="black" points="263.33,-869 256.01,-876.66 266.51,-875.24 263.33,-869"/>
</g>
<!-- \\RichWeb\\Algorithms\\Abstracts\\AbstractScripts -->
<g id="node3" class="node">
<title>\\RichWeb\\Algorithms\\Abstracts\\AbstractScripts</title>
<polygon fill="none" stroke="black" points="751,-612 633,-612 633,-576 751,-576 751,-612"/>
<text text-anchor="start" x="658" y="-597.2" font-family="Courier,monospace" font-size="11.00">«abstract»</text>
<text text-anchor="start" x="641" y="-585.2" font-family="Courier,monospace" font-size="11.00">AbstractScripts</text>
</g>
<!-- \\RichWeb\\Algorithms\\Abstracts\\AbstractScripts&#45;&gt;\\RichWeb\\Algorithms\\Interfaces\\HasRunnerInterface -->
<g id="edge6" class="edge">
<title>\\RichWeb\\Algorithms\\Abstracts\\AbstractScripts&#45;&gt;\\RichWeb\\Algorithms\\Interfaces\\HasRunnerInterface</title>
<path fill="none" stroke="black" stroke-dasharray="1,5" d="M430,-73C388.83,-68.19 366.81,-51.2 337,-80 255.01,-159.23 357.24,-505.23 281,-590 269.28,-603.03 252.86,-610.56 235.82,-614.75"/>
<polygon fill="none" stroke="black" points="234.81,-611.38 225.74,-616.85 236.24,-618.23 234.81,-611.38"/>
</g>
<!-- \\RichWeb\\Algorithms\\Interfaces\\ScriptsInterface -->
<g id="node32" class="node">
<title>\\RichWeb\\Algorithms\\Interfaces\\ScriptsInterface</title>
<polygon fill="none" stroke="black" points="219,-203 94,-203 94,-167 219,-167 219,-203"/>
<text text-anchor="middle" x="156.5" y="-182.2" font-family="Courier,monospace" font-size="11.00">ScriptsInterface</text>
</g>
<!-- \\RichWeb\\Algorithms\\Abstracts\\AbstractScripts&#45;&gt;\\RichWeb\\Algorithms\\Interfaces\\ScriptsInterface -->
<g id="edge5" class="edge">
<title>\\RichWeb\\Algorithms\\Abstracts\\AbstractScripts&#45;&gt;\\RichWeb\\Algorithms\\Interfaces\\ScriptsInterface</title>
<path fill="none" stroke="black" stroke-dasharray="1,5" d="M632.72,-592.58C613.63,-589.1 594,-581.75 581,-567 436.96,-403.53 682.06,-231 525,-80 495.12,-51.27 473.17,-77.81 432,-73"/>
<path fill="none" stroke="black" stroke-dasharray="1,5" d="M430,-73C388.83,-68.19 373.14,-59.71 337,-80 299.79,-100.89 316.66,-134.55 281,-158 265.6,-168.12 247.03,-174.51 229.01,-178.52"/>
<polygon fill="none" stroke="black" points="228.19,-175.12 219.08,-180.52 229.57,-181.98 228.19,-175.12"/>
</g>
<!-- \\RichWeb\\Algorithms\\Abstracts\\AbstractSingletonPlugin -->
<g id="node4" class="node">
<title>\\RichWeb\\Algorithms\\Abstracts\\AbstractSingletonPlugin</title>
<polygon fill="none" stroke="black" points="778,-558 606,-558 606,-522 778,-522 778,-558"/>
<text text-anchor="start" x="658" y="-543.2" font-family="Courier,monospace" font-size="11.00">«abstract»</text>
<text text-anchor="start" x="614" y="-531.2" font-family="Courier,monospace" font-size="11.00">AbstractSingletonPlugin</text>
</g>
<!-- \\RichWeb\\Algorithms\\Abstracts\\AbstractSingletonPlugin&#45;&gt;\\RichWeb\\Algorithms\\Abstracts\\AbstractPlugin -->
<g id="edge7" class="edge">
<title>\\RichWeb\\Algorithms\\Abstracts\\AbstractSingletonPlugin&#45;&gt;\\RichWeb\\Algorithms\\Abstracts\\AbstractPlugin</title>
<path fill="none" stroke="black" d="M605.83,-540C570.45,-540 530.03,-540 497.09,-540"/>
<polygon fill="none" stroke="black" points="496.67,-536.5 486.67,-540 496.67,-543.5 496.67,-536.5"/>
</g>
<!-- \\RichWeb\\Algorithms\\Interfaces\\SingletonPluginInterface -->
<g id="node33" class="node">
<title>\\RichWeb\\Algorithms\\Interfaces\\SingletonPluginInterface</title>
<polygon fill="none" stroke="black" points="246,-149 67,-149 67,-113 246,-113 246,-149"/>
<text text-anchor="middle" x="156.5" y="-128.2" font-family="Courier,monospace" font-size="11.00">SingletonPluginInterface</text>
</g>
<!-- \\RichWeb\\Algorithms\\Abstracts\\AbstractSingletonPlugin&#45;&gt;\\RichWeb\\Algorithms\\Interfaces\\SingletonPluginInterface -->
<g id="edge8" class="edge">
<title>\\RichWeb\\Algorithms\\Abstracts\\AbstractSingletonPlugin&#45;&gt;\\RichWeb\\Algorithms\\Interfaces\\SingletonPluginInterface</title>
<path fill="none" stroke="black" stroke-dasharray="1,5" d="M606,-530.56C596.54,-526.39 587.87,-520.71 581,-513 448.42,-364.15 674.49,-199.86 525,-68 493.67,-40.36 377.08,-56.23 337,-68 308.61,-76.34 308.33,-92.66 281,-104 272.97,-107.33 264.47,-110.28 255.84,-112.88"/>
<polygon fill="none" stroke="black" points="254.71,-109.56 246.06,-115.67 256.63,-116.29 254.71,-109.56"/>
</g>
<!-- \\RichWeb\\Algorithms\\Abstracts\\AbstractSyntaxHighlighter -->
<g id="node5" class="node">
<title>\\RichWeb\\Algorithms\\Abstracts\\AbstractSyntaxHighlighter</title>
<polygon fill="none" stroke="black" points="784.5,-504 599.5,-504 599.5,-468 784.5,-468 784.5,-504"/>
<text text-anchor="start" x="658" y="-489.2" font-family="Courier,monospace" font-size="11.00">«abstract»</text>
<text text-anchor="start" x="607.5" y="-477.2" font-family="Courier,monospace" font-size="11.00">AbstractSyntaxHighlighter</text>
</g>
<!-- \\RichWeb\\Algorithms\\Interfaces\\SyntaxHighlighterInterface -->
<g id="node35" class="node">
<title>\\RichWeb\\Algorithms\\Interfaces\\SyntaxHighlighterInterface</title>
<polygon fill="none" stroke="black" points="252.5,-95 60.5,-95 60.5,-59 252.5,-59 252.5,-95"/>
<text text-anchor="middle" x="156.5" y="-74.2" font-family="Courier,monospace" font-size="11.00">SyntaxHighlighterInterface</text>
</g>
<!-- \\RichWeb\\Algorithms\\Abstracts\\AbstractSyntaxHighlighter&#45;&gt;\\RichWeb\\Algorithms\\Interfaces\\SyntaxHighlighterInterface -->
<g id="edge9" class="edge">
<title>\\RichWeb\\Algorithms\\Abstracts\\AbstractSyntaxHighlighter&#45;&gt;\\RichWeb\\Algorithms\\Interfaces\\SyntaxHighlighterInterface</title>
<path fill="none" stroke="black" stroke-dasharray="1,5" d="M690.78,-467.54C688.85,-397.79 671.55,-149.18 525,-48 428.53,18.6 281.97,-24.95 206.39,-55.12"/>
<polygon fill="none" stroke="black" points="205.03,-51.89 197.09,-58.91 207.67,-58.38 205.03,-51.89"/>
</g>
<!-- \\RichWeb\\Algorithms\\Admin\\Abstracts\\AbstractMetaBox -->
<g id="node6" class="node">
<title>\\RichWeb\\Algorithms\\Admin\\Abstracts\\AbstractMetaBox</title>
<polygon fill="none" stroke="black" points="490,-1196 372,-1196 372,-1160 490,-1160 490,-1196"/>
<text text-anchor="start" x="397" y="-1181.2" font-family="Courier,monospace" font-size="11.00">«abstract»</text>
<text text-anchor="start" x="380" y="-1169.2" font-family="Courier,monospace" font-size="11.00">AbstractMetaBox</text>
</g>
<!-- \\RichWeb\\Algorithms\\Admin\\Interfaces\\MetaBoxInterface -->
<g id="node8" class="node">
<title>\\RichWeb\\Algorithms\\Admin\\Interfaces\\MetaBoxInterface</title>
<polygon fill="none" stroke="black" points="219,-1196 94,-1196 94,-1160 219,-1160 219,-1196"/>
<text text-anchor="middle" x="156.5" y="-1175.2" font-family="Courier,monospace" font-size="11.00">MetaBoxInterface</text>
</g>
<!-- \\RichWeb\\Algorithms\\Admin\\Abstracts\\AbstractMetaBox&#45;&gt;\\RichWeb\\Algorithms\\Admin\\Interfaces\\MetaBoxInterface -->
<g id="edge10" class="edge">
<title>\\RichWeb\\Algorithms\\Admin\\Abstracts\\AbstractMetaBox&#45;&gt;\\RichWeb\\Algorithms\\Admin\\Interfaces\\MetaBoxInterface</title>
<path fill="none" stroke="black" stroke-dasharray="1,5" d="M371.88,-1178C330.26,-1178 273.95,-1178 229.49,-1178"/>
<polygon fill="none" stroke="black" points="229.32,-1174.5 219.32,-1178 229.32,-1181.5 229.32,-1174.5"/>
</g>
<!-- \\RichWeb\\Algorithms\\Admin\\Abstracts\\AbstractPostType -->
<g id="node7" class="node">
<title>\\RichWeb\\Algorithms\\Admin\\Abstracts\\AbstractPostType</title>
<polygon fill="none" stroke="black" points="493.5,-1250 368.5,-1250 368.5,-1214 493.5,-1214 493.5,-1250"/>
<text text-anchor="start" x="397" y="-1235.2" font-family="Courier,monospace" font-size="11.00">«abstract»</text>
<text text-anchor="start" x="376.5" y="-1223.2" font-family="Courier,monospace" font-size="11.00">AbstractPostType</text>
</g>
<!-- \\RichWeb\\Algorithms\\Admin\\Interfaces\\PostTypeInterface -->
<g id="node9" class="node">
<title>\\RichWeb\\Algorithms\\Admin\\Interfaces\\PostTypeInterface</title>
<polygon fill="none" stroke="black" points="222,-1250 91,-1250 91,-1214 222,-1214 222,-1250"/>
<text text-anchor="middle" x="156.5" y="-1229.2" font-family="Courier,monospace" font-size="11.00">PostTypeInterface</text>
</g>
<!-- \\RichWeb\\Algorithms\\Admin\\Abstracts\\AbstractPostType&#45;&gt;\\RichWeb\\Algorithms\\Admin\\Interfaces\\PostTypeInterface -->
<g id="edge11" class="edge">
<title>\\RichWeb\\Algorithms\\Admin\\Abstracts\\AbstractPostType&#45;&gt;\\RichWeb\\Algorithms\\Admin\\Interfaces\\PostTypeInterface</title>
<path fill="none" stroke="black" stroke-dasharray="1,5" d="M368.17,-1232C327.9,-1232 275.12,-1232 232.46,-1232"/>
<polygon fill="none" stroke="black" points="232.41,-1228.5 222.41,-1232 232.41,-1235.5 232.41,-1228.5"/>
</g>
<!-- \\RichWeb\\Algorithms\\Admin\\Abstracts\\AbstractPostType&#45;&gt;\\RichWeb\\Algorithms\\Interfaces\\HasRunnerInterface -->
<g id="edge12" class="edge">
<title>\\RichWeb\\Algorithms\\Admin\\Abstracts\\AbstractPostType&#45;&gt;\\RichWeb\\Algorithms\\Interfaces\\HasRunnerInterface</title>
<path fill="none" stroke="black" stroke-dasharray="1,5" d="M368.36,-1225.13C356.39,-1221.03 345.06,-1214.69 337,-1205 256.88,-1108.68 364.32,-737.57 281,-644 269.29,-630.85 252.78,-623.29 235.64,-619.11"/>
<polygon fill="none" stroke="black" points="236,-615.61 225.5,-617.02 234.59,-622.46 236,-615.61"/>
</g>
<!-- \\RichWeb\\Algorithms\\Admin\\MetaBoxes\\AlgorithmCodeExamplesMetaBox -->
<g id="node10" class="node">
<title>\\RichWeb\\Algorithms\\Admin\\MetaBoxes\\AlgorithmCodeExamplesMetaBox</title>
<polygon fill="none" stroke="black" points="795,-1174 589,-1174 589,-1138 795,-1138 795,-1174"/>
<text text-anchor="middle" x="692" y="-1153.2" font-family="Courier,monospace" font-size="11.00">AlgorithmCodeExamplesMetaBox</text>
</g>
<!-- \\RichWeb\\Algorithms\\Admin\\MetaBoxes\\AlgorithmCodeExamplesMetaBox&#45;&gt;\\RichWeb\\Algorithms\\Admin\\Abstracts\\AbstractMetaBox -->
<g id="edge14" class="edge">
<title>\\RichWeb\\Algorithms\\Admin\\MetaBoxes\\AlgorithmCodeExamplesMetaBox&#45;&gt;\\RichWeb\\Algorithms\\Admin\\Abstracts\\AbstractMetaBox</title>
<path fill="none" stroke="black" d="M588.64,-1164.69C558.92,-1167.22 527.21,-1169.91 500.15,-1172.21"/>
<polygon fill="none" stroke="black" points="499.69,-1168.74 490.02,-1173.07 500.28,-1175.71 499.69,-1168.74"/>
</g>
<!-- \\RichWeb\\Algorithms\\Admin\\MetaBoxes\\AlgorithmPackageMetaBox -->
<g id="node11" class="node">
<title>\\RichWeb\\Algorithms\\Admin\\MetaBoxes\\AlgorithmPackageMetaBox</title>
<polygon fill="none" stroke="black" points="778,-1228 606,-1228 606,-1192 778,-1192 778,-1228"/>
<text text-anchor="middle" x="692" y="-1207.2" font-family="Courier,monospace" font-size="11.00">AlgorithmPackageMetaBox</text>
</g>
<!-- \\RichWeb\\Algorithms\\Admin\\MetaBoxes\\AlgorithmPackageMetaBox&#45;&gt;\\RichWeb\\Algorithms\\Admin\\Abstracts\\AbstractMetaBox -->
<g id="edge15" class="edge">
<title>\\RichWeb\\Algorithms\\Admin\\MetaBoxes\\AlgorithmPackageMetaBox&#45;&gt;\\RichWeb\\Algorithms\\Admin\\Abstracts\\AbstractMetaBox</title>
<path fill="none" stroke="black" d="M605.83,-1199.48C571.64,-1195.25 532.76,-1190.45 500.46,-1186.46"/>
<polygon fill="none" stroke="black" points="500.56,-1182.94 490.21,-1185.19 499.71,-1189.89 500.56,-1182.94"/>
</g>
<!-- \\RichWeb\\Algorithms\\Admin\\MetaBoxes\\MetaBoxes -->
<g id="node12" class="node">
<title>\\RichWeb\\Algorithms\\Admin\\MetaBoxes\\MetaBoxes</title>
<polygon fill="none" stroke="black" points="730.5,-1120 653.5,-1120 653.5,-1084 730.5,-1084 730.5,-1120"/>
<text text-anchor="middle" x="692" y="-1099.2" font-family="Courier,monospace" font-size="11.00">MetaBoxes</text>
</g>
<!-- \\RichWeb\\Algorithms\\Admin\\MetaBoxes\\MetaBoxes&#45;&gt;\\RichWeb\\Algorithms\\Interfaces\\HasRunnerInterface -->
<g id="edge16" class="edge">
<title>\\RichWeb\\Algorithms\\Admin\\MetaBoxes\\MetaBoxes&#45;&gt;\\RichWeb\\Algorithms\\Interfaces\\HasRunnerInterface</title>
<path fill="none" stroke="black" stroke-dasharray="1,5" d="M685.21,-1083.7C668.97,-1035.83 617.99,-906.91 525,-854 507.01,-843.76 449.35,-860.28 432,-849"/>
</g>
<!-- \\RichWeb\\Algorithms\\Admin\\AlgorithmPostType -->
<g id="node13" class="node">
<title>\\RichWeb\\Algorithms\\Admin\\AlgorithmPostType</title>
<polygon fill="none" stroke="black" points="757.5,-1300 626.5,-1300 626.5,-1264 757.5,-1264 757.5,-1300"/>
<text text-anchor="middle" x="692" y="-1279.2" font-family="Courier,monospace" font-size="11.00">AlgorithmPostType</text>
</g>
<!-- \\RichWeb\\Algorithms\\Admin\\AlgorithmPostType&#45;&gt;\\RichWeb\\Algorithms\\Admin\\Abstracts\\AbstractPostType -->
<g id="edge13" class="edge">
<title>\\RichWeb\\Algorithms\\Admin\\AlgorithmPostType&#45;&gt;\\RichWeb\\Algorithms\\Admin\\Abstracts\\AbstractPostType</title>
<path fill="none" stroke="black" d="M626.31,-1269.51C589.04,-1262.32 542.11,-1253.26 503.71,-1245.84"/>
<polygon fill="none" stroke="black" points="504.12,-1242.36 493.64,-1243.9 502.79,-1249.23 504.12,-1242.36"/>
</g>
<!-- \\RichWeb\\Algorithms\\CodeExamples\\CodeExample -->
<g id="node14" class="node">
<title>\\RichWeb\\Algorithms\\CodeExamples\\CodeExample</title>
<polygon fill="none" stroke="black" points="476.5,-1032 385.5,-1032 385.5,-996 476.5,-996 476.5,-1032"/>
<text text-anchor="middle" x="431" y="-1011.2" font-family="Courier,monospace" font-size="11.00">CodeExample</text>
</g>
<!-- \\RichWeb\\Algorithms\\Interfaces\\CodeExampleInterface -->
<g id="node23" class="node">
<title>\\RichWeb\\Algorithms\\Interfaces\\CodeExampleInterface</title>
<polygon fill="none" stroke="black" points="232.5,-1013 80.5,-1013 80.5,-977 232.5,-977 232.5,-1013"/>
<text text-anchor="middle" x="156.5" y="-992.2" font-family="Courier,monospace" font-size="11.00">CodeExampleInterface</text>
</g>
<!-- \\RichWeb\\Algorithms\\CodeExamples\\CodeExample&#45;&gt;\\RichWeb\\Algorithms\\Interfaces\\CodeExampleInterface -->
<g id="edge17" class="edge">
<title>\\RichWeb\\Algorithms\\CodeExamples\\CodeExample&#45;&gt;\\RichWeb\\Algorithms\\Interfaces\\CodeExampleInterface</title>
<path fill="none" stroke="black" stroke-dasharray="1,5" d="M385.31,-1010.88C346.76,-1008.2 290.03,-1004.24 242.82,-1000.95"/>
<polygon fill="none" stroke="black" points="242.81,-997.44 232.59,-1000.24 242.32,-1004.42 242.81,-997.44"/>
</g>
<!-- Stringable -->
<g id="node54" class="node">
<title>Stringable</title>
<ellipse fill="none" stroke="black" cx="156.5" cy="-1410" rx="46.59" ry="18"/>
<text text-anchor="middle" x="156.5" y="-1406.3" font-family="Times New Roman,serif" font-size="14.00" fill="gray">Stringable</text>
</g>
<!-- \\RichWeb\\Algorithms\\CodeExamples\\CodeExample&#45;&gt;Stringable -->
<g id="edge18" class="edge">
<title>\\RichWeb\\Algorithms\\CodeExamples\\CodeExample&#45;&gt;Stringable</title>
<path fill="none" stroke="black" stroke-dasharray="1,5" d="M415.45,-1032.27C395.93,-1057.35 360.95,-1104.29 337,-1148 305.98,-1204.61 316.46,-1228.07 281,-1282 253.82,-1323.33 212.3,-1363.05 185.03,-1387"/>
<polygon fill="none" stroke="black" points="182.66,-1384.42 177.4,-1393.62 187.24,-1389.71 182.66,-1384.42"/>
</g>
<!-- \\RichWeb\\Algorithms\\CodeExamples\\CodeExamplesLoader -->
<g id="node15" class="node">
<title>\\RichWeb\\Algorithms\\CodeExamples\\CodeExamplesLoader</title>
<polygon fill="none" stroke="black" points="500,-978 362,-978 362,-942 500,-942 500,-978"/>
<text text-anchor="middle" x="431" y="-957.2" font-family="Courier,monospace" font-size="11.00">CodeExamplesLoader</text>
</g>
<!-- \\RichWeb\\Algorithms\\Interfaces\\CodeExamplesLoaderInterface -->
<g id="node24" class="node">
<title>\\RichWeb\\Algorithms\\Interfaces\\CodeExamplesLoaderInterface</title>
<polygon fill="none" stroke="black" points="256,-959 57,-959 57,-923 256,-923 256,-959"/>
<text text-anchor="middle" x="156.5" y="-938.2" font-family="Courier,monospace" font-size="11.00">CodeExamplesLoaderInterface</text>
</g>
<!-- \\RichWeb\\Algorithms\\CodeExamples\\CodeExamplesLoader&#45;&gt;\\RichWeb\\Algorithms\\Interfaces\\CodeExamplesLoaderInterface -->
<g id="edge19" class="edge">
<title>\\RichWeb\\Algorithms\\CodeExamples\\CodeExamplesLoader&#45;&gt;\\RichWeb\\Algorithms\\Interfaces\\CodeExamplesLoaderInterface</title>
<path fill="none" stroke="black" stroke-dasharray="1,5" d="M361.94,-955.25C333.06,-953.24 298.68,-950.84 266.43,-948.6"/>
<polygon fill="none" stroke="black" points="266.26,-945.07 256.04,-947.87 265.78,-952.06 266.26,-945.07"/>
</g>
<!-- \\RichWeb\\Algorithms\\CodeExamples\\CodeExamplesLoader&#45;&gt;\\RichWeb\\Algorithms\\Interfaces\\SubscribesToEventsInterface -->
<g id="edge20" class="edge">
<title>\\RichWeb\\Algorithms\\CodeExamples\\CodeExamplesLoader&#45;&gt;\\RichWeb\\Algorithms\\Interfaces\\SubscribesToEventsInterface</title>
<path fill="none" stroke="black" stroke-dasharray="1,5" d="M375.48,-941.96C347.41,-932.98 312.55,-922.3 281,-914 272.35,-911.72 263.32,-909.49 254.26,-907.34"/>
<polygon fill="none" stroke="black" points="254.96,-903.91 244.43,-905.04 253.37,-910.72 254.96,-903.91"/>
</g>
<!-- \\RichWeb\\Algorithms\\Events\\WPEventCreator -->
<g id="node16" class="node">
<title>\\RichWeb\\Algorithms\\Events\\WPEventCreator</title>
<polygon fill="none" stroke="black" points="486.5,-812 375.5,-812 375.5,-776 486.5,-776 486.5,-812"/>
<text text-anchor="middle" x="431" y="-791.2" font-family="Courier,monospace" font-size="11.00">WPEventCreator</text>
</g>
<!-- \\RichWeb\\Algorithms\\Interfaces\\EventCreatorInterface -->
<g id="node25" class="node">
<title>\\RichWeb\\Algorithms\\Interfaces\\EventCreatorInterface</title>
<polygon fill="none" stroke="black" points="235.5,-743 77.5,-743 77.5,-707 235.5,-707 235.5,-743"/>
<text text-anchor="middle" x="156.5" y="-722.2" font-family="Courier,monospace" font-size="11.00">EventCreatorInterface</text>
</g>
<!-- \\RichWeb\\Algorithms\\Events\\WPEventCreator&#45;&gt;\\RichWeb\\Algorithms\\Interfaces\\EventCreatorInterface -->
<g id="edge21" class="edge">
<title>\\RichWeb\\Algorithms\\Events\\WPEventCreator&#45;&gt;\\RichWeb\\Algorithms\\Interfaces\\EventCreatorInterface</title>
<path fill="none" stroke="black" stroke-dasharray="1,5" d="M375.3,-778.21C340.58,-768.27 298.93,-756.48 281,-752 269.61,-749.15 257.58,-746.31 245.68,-743.61"/>
<polygon fill="none" stroke="black" points="246.26,-740.15 235.73,-741.37 244.72,-746.98 246.26,-740.15"/>
</g>
<!-- \\RichWeb\\Algorithms\\Events\\WPEventSubscriber -->
<g id="node17" class="node">
<title>\\RichWeb\\Algorithms\\Events\\WPEventSubscriber</title>
<polygon fill="none" stroke="black" points="496.5,-758 365.5,-758 365.5,-722 496.5,-722 496.5,-758"/>
<text text-anchor="middle" x="431" y="-737.2" font-family="Courier,monospace" font-size="11.00">WPEventSubscriber</text>
</g>
<!-- \\RichWeb\\Algorithms\\Interfaces\\EventSubscriberInterface -->
<g id="node26" class="node">
<title>\\RichWeb\\Algorithms\\Interfaces\\EventSubscriberInterface</title>
<polygon fill="none" stroke="black" points="246,-689 67,-689 67,-653 246,-653 246,-689"/>
<text text-anchor="middle" x="156.5" y="-668.2" font-family="Courier,monospace" font-size="11.00">EventSubscriberInterface</text>
</g>
<!-- \\RichWeb\\Algorithms\\Events\\WPEventSubscriber&#45;&gt;\\RichWeb\\Algorithms\\Interfaces\\EventSubscriberInterface -->
<g id="edge22" class="edge">
<title>\\RichWeb\\Algorithms\\Events\\WPEventSubscriber&#45;&gt;\\RichWeb\\Algorithms\\Interfaces\\EventSubscriberInterface</title>
<path fill="none" stroke="black" stroke-dasharray="1,5" d="M368.96,-721.91C342.09,-714.17 310.07,-705.27 281,-698 271.91,-695.73 262.42,-693.46 252.92,-691.27"/>
<polygon fill="none" stroke="black" points="253.55,-687.82 243.02,-689 251.99,-694.65 253.55,-687.82"/>
</g>
<!-- \\RichWeb\\Algorithms\\Interfaces\\AlgorithmPackageInterface -->
<g id="node19" class="node">
<title>\\RichWeb\\Algorithms\\Interfaces\\AlgorithmPackageInterface</title>
<polygon fill="none" stroke="black" points="249,-257 64,-257 64,-221 249,-221 249,-257"/>
<text text-anchor="middle" x="156.5" y="-236.2" font-family="Courier,monospace" font-size="11.00">AlgorithmPackageInterface</text>
</g>
<!-- \\RichWeb\\Algorithms\\Interfaces\\AlgorithmPackageLoaderInterface -->
<g id="node20" class="node">
<title>\\RichWeb\\Algorithms\\Interfaces\\AlgorithmPackageLoaderInterface</title>
<polygon fill="none" stroke="black" points="269.5,-365 43.5,-365 43.5,-329 269.5,-329 269.5,-365"/>
<text text-anchor="middle" x="156.5" y="-344.2" font-family="Courier,monospace" font-size="11.00">AlgorithmPackageLoaderInterface</text>
</g>
<!-- \\RichWeb\\Algorithms\\Interfaces\\AlgorithmPackageManagerInterface -->
<g id="node21" class="node">
<title>\\RichWeb\\Algorithms\\Interfaces\\AlgorithmPackageManagerInterface</title>
<polygon fill="none" stroke="black" points="273,-311 40,-311 40,-275 273,-275 273,-311"/>
<text text-anchor="middle" x="156.5" y="-290.2" font-family="Courier,monospace" font-size="11.00">AlgorithmPackageManagerInterface</text>
</g>
<!-- \\RichWeb\\Algorithms\\Interfaces\\AutoloaderInterface -->
<g id="node22" class="node">
<title>\\RichWeb\\Algorithms\\Interfaces\\AutoloaderInterface</title>
<polygon fill="none" stroke="black" points="229,-419 84,-419 84,-383 229,-383 229,-419"/>
<text text-anchor="middle" x="156.5" y="-398.2" font-family="Courier,monospace" font-size="11.00">AutoloaderInterface</text>
</g>
<!-- \\RichWeb\\Algorithms\\Interfaces\\FileLoaderInterface -->
<g id="node27" class="node">
<title>\\RichWeb\\Algorithms\\Interfaces\\FileLoaderInterface</title>
<polygon fill="none" stroke="black" points="229,-473 84,-473 84,-437 229,-437 229,-473"/>
<text text-anchor="middle" x="156.5" y="-452.2" font-family="Courier,monospace" font-size="11.00">FileLoaderInterface</text>
</g>
<!-- \\RichWeb\\Algorithms\\Interfaces\\LanguagesInterface -->
<g id="node29" class="node">
<title>\\RichWeb\\Algorithms\\Interfaces\\LanguagesInterface</title>
<polygon fill="none" stroke="black" points="225.5,-851 87.5,-851 87.5,-815 225.5,-815 225.5,-851"/>
<text text-anchor="middle" x="156.5" y="-830.2" font-family="Courier,monospace" font-size="11.00">LanguagesInterface</text>
</g>
<!-- \\RichWeb\\Algorithms\\Interfaces\\ProjectInterface -->
<g id="node31" class="node">
<title>\\RichWeb\\Algorithms\\Interfaces\\ProjectInterface</title>
<polygon fill="none" stroke="black" points="219,-797 94,-797 94,-761 219,-761 219,-797"/>
<text text-anchor="middle" x="156.5" y="-776.2" font-family="Courier,monospace" font-size="11.00">ProjectInterface</text>
</g>
<!-- \\RichWeb\\Algorithms\\Loaders\\Autoloader -->
<g id="node36" class="node">
<title>\\RichWeb\\Algorithms\\Loaders\\Autoloader</title>
<polygon fill="none" stroke="black" points="473,-316 389,-316 389,-280 473,-280 473,-316"/>
<text text-anchor="middle" x="431" y="-295.2" font-family="Courier,monospace" font-size="11.00">Autoloader</text>
</g>
<!-- \\RichWeb\\Algorithms\\Loaders\\Autoloader&#45;&gt;\\RichWeb\\Algorithms\\Interfaces\\AutoloaderInterface -->
<g id="edge23" class="edge">
<title>\\RichWeb\\Algorithms\\Loaders\\Autoloader&#45;&gt;\\RichWeb\\Algorithms\\Interfaces\\AutoloaderInterface</title>
<path fill="none" stroke="black" stroke-dasharray="1,5" d="M388.66,-305.9C371.97,-310.12 352.93,-316.28 337,-325 307.99,-340.88 310.53,-359.11 281,-374 268.02,-380.54 253.5,-385.51 239.09,-389.27"/>
<polygon fill="none" stroke="black" points="238.04,-385.93 229.16,-391.69 239.7,-392.73 238.04,-385.93"/>
</g>
<!-- \\RichWeb\\Algorithms\\Loaders\\ContentLoader -->
<g id="node37" class="node">
<title>\\RichWeb\\Algorithms\\Loaders\\ContentLoader</title>
<polygon fill="none" stroke="black" points="483,-370 379,-370 379,-334 483,-334 483,-370"/>
<text text-anchor="middle" x="431" y="-349.2" font-family="Courier,monospace" font-size="11.00">ContentLoader</text>
</g>
<!-- \\RichWeb\\Algorithms\\Loaders\\FileLoader -->
<g id="node38" class="node">
<title>\\RichWeb\\Algorithms\\Loaders\\FileLoader</title>
<polygon fill="none" stroke="black" points="473,-424 389,-424 389,-388 473,-388 473,-424"/>
<text text-anchor="middle" x="431" y="-403.2" font-family="Courier,monospace" font-size="11.00">FileLoader</text>
</g>
<!-- \\RichWeb\\Algorithms\\Loaders\\FileLoader&#45;&gt;\\RichWeb\\Algorithms\\Interfaces\\FileLoaderInterface -->
<g id="edge24" class="edge">
<title>\\RichWeb\\Algorithms\\Loaders\\FileLoader&#45;&gt;\\RichWeb\\Algorithms\\Interfaces\\FileLoaderInterface</title>
<path fill="none" stroke="black" stroke-dasharray="1,5" d="M388.91,-413.39C349.4,-420.49 288.58,-431.43 239.21,-440.31"/>
<polygon fill="none" stroke="black" points="238.4,-436.9 229.18,-442.11 239.64,-443.79 238.4,-436.9"/>
</g>
<!-- \\RichWeb\\Algorithms\\Packages\\AlgorithmPackage -->
<g id="node39" class="node">
<title>\\RichWeb\\Algorithms\\Packages\\AlgorithmPackage</title>
<polygon fill="none" stroke="black" points="493.5,-128 368.5,-128 368.5,-92 493.5,-92 493.5,-128"/>
<text text-anchor="middle" x="431" y="-107.2" font-family="Courier,monospace" font-size="11.00">AlgorithmPackage</text>
</g>
<!-- \\RichWeb\\Algorithms\\Packages\\AlgorithmPackage&#45;&gt;\\RichWeb\\Algorithms\\Interfaces\\AlgorithmPackageInterface -->
<g id="edge25" class="edge">
<title>\\RichWeb\\Algorithms\\Packages\\AlgorithmPackage&#45;&gt;\\RichWeb\\Algorithms\\Interfaces\\AlgorithmPackageInterface</title>
<path fill="none" stroke="black" stroke-dasharray="1,5" d="M368.4,-121.76C357.36,-125.53 346.4,-130.49 337,-137 302.81,-160.69 315.97,-189.47 281,-212 274.11,-216.44 266.61,-220.15 258.82,-223.27"/>
<polygon fill="none" stroke="black" points="257.39,-220.06 249.19,-226.77 259.78,-226.64 257.39,-220.06"/>
</g>
<!-- \\RichWeb\\Algorithms\\Packages\\AlgorithmPackageLoader -->
<g id="node40" class="node">
<title>\\RichWeb\\Algorithms\\Packages\\AlgorithmPackageLoader</title>
<polygon fill="none" stroke="black" points="513.5,-236 348.5,-236 348.5,-200 513.5,-200 513.5,-236"/>
<text text-anchor="middle" x="431" y="-215.2" font-family="Courier,monospace" font-size="11.00">AlgorithmPackageLoader</text>
</g>
<!-- \\RichWeb\\Algorithms\\Packages\\AlgorithmPackageLoader&#45;&gt;\\RichWeb\\Algorithms\\Interfaces\\AlgorithmPackageLoaderInterface -->
<g id="edge26" class="edge">
<title>\\RichWeb\\Algorithms\\Packages\\AlgorithmPackageLoader&#45;&gt;\\RichWeb\\Algorithms\\Interfaces\\AlgorithmPackageLoaderInterface</title>
<path fill="none" stroke="black" stroke-dasharray="1,5" d="M391.14,-236.09C373.94,-244.8 353.85,-255.95 337,-268 309.37,-287.76 311.1,-304.26 281,-320 277.44,-321.86 273.75,-323.6 269.98,-325.21"/>
<polygon fill="none" stroke="black" points="268.45,-322.05 260.44,-328.99 271.03,-328.56 268.45,-322.05"/>
</g>
<!-- \\RichWeb\\Algorithms\\Packages\\AlgorithmPackageLoader&#45;&gt;\\RichWeb\\Algorithms\\Interfaces\\HasRunnerInterface -->
<g id="edge27" class="edge">
<title>\\RichWeb\\Algorithms\\Packages\\AlgorithmPackageLoader&#45;&gt;\\RichWeb\\Algorithms\\Interfaces\\HasRunnerInterface</title>
<path fill="none" stroke="black" stroke-dasharray="1,5" d="M377.03,-236.18C361.97,-243.79 346.97,-254.17 337,-268 252.03,-385.81 381.48,-485.1 281,-590 269.01,-602.52 252.66,-609.88 235.78,-614.08"/>
<polygon fill="none" stroke="black" points="234.86,-610.7 225.81,-616.2 236.32,-617.55 234.86,-610.7"/>
</g>
<!-- \\RichWeb\\Algorithms\\Packages\\AlgorithmPackageManager -->
<g id="node41" class="node">
<title>\\RichWeb\\Algorithms\\Packages\\AlgorithmPackageManager</title>
<polygon fill="none" stroke="black" points="517,-182 345,-182 345,-146 517,-146 517,-182"/>
<text text-anchor="middle" x="431" y="-161.2" font-family="Courier,monospace" font-size="11.00">AlgorithmPackageManager</text>
</g>
<!-- \\RichWeb\\Algorithms\\Packages\\AlgorithmPackageManager&#45;&gt;\\RichWeb\\Algorithms\\Interfaces\\AlgorithmPackageManagerInterface -->
<g id="edge28" class="edge">
<title>\\RichWeb\\Algorithms\\Packages\\AlgorithmPackageManager&#45;&gt;\\RichWeb\\Algorithms\\Interfaces\\AlgorithmPackageManagerInterface</title>
<path fill="none" stroke="black" stroke-dasharray="1,5" d="M352.55,-182.13C347.09,-184.71 341.84,-187.65 337,-191 302.81,-214.69 315.97,-243.47 281,-266 278.54,-267.59 275.99,-269.08 273.38,-270.49"/>
<polygon fill="none" stroke="black" points="271.73,-267.41 264.29,-274.96 274.81,-273.69 271.73,-267.41"/>
</g>
<!-- \\RichWeb\\Algorithms\\Setup\\Scripts\\FrontendScriptLoader -->
<g id="node42" class="node">
<title>\\RichWeb\\Algorithms\\Setup\\Scripts\\FrontendScriptLoader</title>
<polygon fill="none" stroke="black" points="1052.5,-882 900.5,-882 900.5,-846 1052.5,-846 1052.5,-882"/>
<text text-anchor="middle" x="976.5" y="-861.2" font-family="Courier,monospace" font-size="11.00">FrontendScriptLoader</text>
</g>
<!-- \\RichWeb\\Algorithms\\Setup\\AlgorithmScripts -->
<g id="node43" class="node">
<title>\\RichWeb\\Algorithms\\Setup\\AlgorithmScripts</title>
<polygon fill="none" stroke="black" points="1039,-666 914,-666 914,-630 1039,-630 1039,-666"/>
<text text-anchor="middle" x="976.5" y="-645.2" font-family="Courier,monospace" font-size="11.00">AlgorithmScripts</text>
</g>
<!-- \\RichWeb\\Algorithms\\Setup\\AlgorithmScripts&#45;&gt;\\RichWeb\\Algorithms\\Abstracts\\AbstractScripts -->
<g id="edge32" class="edge">
<title>\\RichWeb\\Algorithms\\Setup\\AlgorithmScripts&#45;&gt;\\RichWeb\\Algorithms\\Abstracts\\AbstractScripts</title>
<path fill="none" stroke="black" d="M913.85,-636.22C868.78,-627.6 807.65,-615.92 761.13,-607.02"/>
<polygon fill="none" stroke="black" points="761.62,-603.55 751.14,-605.11 760.3,-610.43 761.62,-603.55"/>
</g>
<!-- \\RichWeb\\Algorithms\\Setup\\Languages -->
<g id="node44" class="node">
<title>\\RichWeb\\Algorithms\\Setup\\Languages</title>
<polygon fill="none" stroke="black" points="1015,-828 938,-828 938,-792 1015,-792 1015,-828"/>
<text text-anchor="middle" x="976.5" y="-807.2" font-family="Courier,monospace" font-size="11.00">Languages</text>
</g>
<!-- \\RichWeb\\Algorithms\\Setup\\Languages&#45;&gt;\\RichWeb\\Algorithms\\Interfaces\\HasRunnerInterface -->
<g id="edge34" class="edge">
<title>\\RichWeb\\Algorithms\\Setup\\Languages&#45;&gt;\\RichWeb\\Algorithms\\Interfaces\\HasRunnerInterface</title>
<path fill="none" stroke="black" stroke-dasharray="1,5" d="M937.91,-801.31C837.22,-778.06 566.2,-715.85 525,-710 483.55,-704.11 375.3,-714.9 337,-698 305.37,-684.04 311.49,-660.31 281,-644 267.11,-636.57 251.3,-631.18 235.74,-627.28"/>
<polygon fill="none" stroke="black" points="236.1,-623.77 225.57,-624.92 234.52,-630.59 236.1,-623.77"/>
</g>
<!-- \\RichWeb\\Algorithms\\Setup\\Languages&#45;&gt;\\RichWeb\\Algorithms\\Interfaces\\LanguagesInterface -->
<g id="edge33" class="edge">
<title>\\RichWeb\\Algorithms\\Setup\\Languages&#45;&gt;\\RichWeb\\Algorithms\\Interfaces\\LanguagesInterface</title>
<path fill="none" stroke="black" stroke-dasharray="1,5" d="M937.79,-815.88C914.75,-819.93 884.85,-826.03 859,-834 836.91,-840.81 833.03,-847.01 811,-854 686.85,-893.42 654.47,-903.69 525,-918 483.48,-922.59 375.46,-934.33 337,-918 304.02,-904 312.29,-877.46 281,-860 267.24,-852.32 251.49,-846.83 235.95,-842.89"/>
<polygon fill="none" stroke="black" points="236.32,-839.39 225.78,-840.53 234.73,-846.2 236.32,-839.39"/>
</g>
<!-- \\RichWeb\\Algorithms\\Setup\\PrismSyntaxtHighlighterScripts -->
<g id="node45" class="node">
<title>\\RichWeb\\Algorithms\\Setup\\PrismSyntaxtHighlighterScripts</title>
<polygon fill="none" stroke="black" points="1086,-720 867,-720 867,-684 1086,-684 1086,-720"/>
<text text-anchor="middle" x="976.5" y="-699.2" font-family="Courier,monospace" font-size="11.00">PrismSyntaxtHighlighterScripts</text>
</g>
<!-- \\RichWeb\\Algorithms\\Setup\\PrismSyntaxtHighlighterScripts&#45;&gt;\\RichWeb\\Algorithms\\Abstracts\\AbstractScripts -->
<g id="edge35" class="edge">
<title>\\RichWeb\\Algorithms\\Setup\\PrismSyntaxtHighlighterScripts&#45;&gt;\\RichWeb\\Algorithms\\Abstracts\\AbstractScripts</title>
<path fill="none" stroke="black" d="M877.13,-683.95C870.82,-681.36 864.71,-678.39 859,-675 831.39,-658.6 838.63,-637.36 811,-621 795.96,-612.09 778.23,-606.13 761.16,-602.13"/>
<polygon fill="none" stroke="black" points="761.72,-598.67 751.21,-599.99 760.25,-605.51 761.72,-598.67"/>
</g>
<!-- \\RichWeb\\Algorithms\\Setup\\Scripts -->
<g id="node46" class="node">
<title>\\RichWeb\\Algorithms\\Setup\\Scripts</title>
<polygon fill="none" stroke="black" points="1008.5,-612 944.5,-612 944.5,-576 1008.5,-576 1008.5,-612"/>
<text text-anchor="middle" x="976.5" y="-591.2" font-family="Courier,monospace" font-size="11.00">Scripts</text>
</g>
<!-- \\RichWeb\\Algorithms\\Setup\\Scripts&#45;&gt;\\RichWeb\\Algorithms\\Abstracts\\AbstractScripts -->
<g id="edge36" class="edge">
<title>\\RichWeb\\Algorithms\\Setup\\Scripts&#45;&gt;\\RichWeb\\Algorithms\\Abstracts\\AbstractScripts</title>
<path fill="none" stroke="black" d="M944.46,-594C900.65,-594 819.53,-594 761.26,-594"/>
<polygon fill="none" stroke="black" points="761.03,-590.5 751.03,-594 761.03,-597.5 761.03,-590.5"/>
</g>
<!-- \\RichWeb\\Algorithms\\Setup\\Setup -->
<g id="node47" class="node">
<title>\\RichWeb\\Algorithms\\Setup\\Setup</title>
<polygon fill="none" stroke="black" points="1003.5,-774 949.5,-774 949.5,-738 1003.5,-738 1003.5,-774"/>
<text text-anchor="middle" x="976.5" y="-753.2" font-family="Courier,monospace" font-size="11.00">Setup</text>
</g>
<!-- \\RichWeb\\Algorithms\\Setup\\Setup&#45;&gt;\\RichWeb\\Algorithms\\Interfaces\\HasRunnerInterface -->
<g id="edge37" class="edge">
<title>\\RichWeb\\Algorithms\\Setup\\Setup&#45;&gt;\\RichWeb\\Algorithms\\Interfaces\\HasRunnerInterface</title>
<path fill="none" stroke="black" stroke-dasharray="1,5" d="M949.35,-761.61C866.37,-779.32 609.42,-833.54 525,-844 504.46,-846.55 449.35,-860.28 432,-849"/>
<path fill="none" stroke="black" stroke-dasharray="1,5" d="M430,-849C412.33,-838.22 353.15,-856.95 337,-844 264.98,-786.26 348.13,-707.36 281,-644 268.52,-632.23 252.16,-625.12 235.43,-620.94"/>
<polygon fill="none" stroke="black" points="236.09,-617.5 225.57,-618.8 234.6,-624.34 236.09,-617.5"/>
</g>
<!-- \\RichWeb\\Algorithms\\Traits\\Formatting\\FilePathsTrait -->
<g id="node48" class="node">
<title>\\RichWeb\\Algorithms\\Traits\\Formatting\\FilePathsTrait</title>
<polygon fill="none" stroke="black" points="1032,-1122 921,-1122 921,-1086 1032,-1086 1032,-1122"/>
<text text-anchor="middle" x="976.5" y="-1101.2" font-family="Courier,monospace" font-size="11.00">FilePathsTrait</text>
</g>
<!-- \\RichWeb\\Algorithms\\Traits\\Formatting\\Strings -->
<g id="node49" class="node">
<title>\\RichWeb\\Algorithms\\Traits\\Formatting\\Strings</title>
<polygon fill="none" stroke="black" points="1008.5,-1068 944.5,-1068 944.5,-1032 1008.5,-1032 1008.5,-1068"/>
<text text-anchor="middle" x="976.5" y="-1047.2" font-family="Courier,monospace" font-size="11.00">Strings</text>
</g>
<!-- \\RichWeb\\Algorithms\\Traits\\Posts\\AlgorithmChecker -->
<g id="node50" class="node">
<title>\\RichWeb\\Algorithms\\Traits\\Posts\\AlgorithmChecker</title>
<polygon fill="none" stroke="black" points="1039,-1202 914,-1202 914,-1166 1039,-1166 1039,-1202"/>
<text text-anchor="middle" x="976.5" y="-1181.2" font-family="Courier,monospace" font-size="11.00">AlgorithmChecker</text>
</g>
<!-- \\RichWeb\\Algorithms\\Plugin -->
<g id="node51" class="node">
<title>\\RichWeb\\Algorithms\\Plugin</title>
<polygon fill="none" stroke="black" points="1005,-558 948,-558 948,-522 1005,-522 1005,-558"/>
<text text-anchor="middle" x="976.5" y="-537.2" font-family="Courier,monospace" font-size="11.00">Plugin</text>
</g>
<!-- \\RichWeb\\Algorithms\\Plugin&#45;&gt;\\RichWeb\\Algorithms\\Abstracts\\AbstractSingletonPlugin -->
<g id="edge29" class="edge">
<title>\\RichWeb\\Algorithms\\Plugin&#45;&gt;\\RichWeb\\Algorithms\\Abstracts\\AbstractSingletonPlugin</title>
<path fill="none" stroke="black" d="M947.9,-540C911.17,-540 844.35,-540 788.34,-540"/>
<polygon fill="none" stroke="black" points="788.02,-536.5 778.02,-540 788.02,-543.5 788.02,-536.5"/>
</g>
<!-- \\RichWeb\\Algorithms\\PrismSyntaxHighlighter -->
<g id="node52" class="node">
<title>\\RichWeb\\Algorithms\\PrismSyntaxHighlighter</title>
<polygon fill="none" stroke="black" points="1059,-504 894,-504 894,-468 1059,-468 1059,-504"/>
<text text-anchor="middle" x="976.5" y="-483.2" font-family="Courier,monospace" font-size="11.00">PrismSyntaxHighlighter</text>
</g>
<!-- \\RichWeb\\Algorithms\\PrismSyntaxHighlighter&#45;&gt;\\RichWeb\\Algorithms\\Abstracts\\AbstractSyntaxHighlighter -->
<g id="edge30" class="edge">
<title>\\RichWeb\\Algorithms\\PrismSyntaxHighlighter&#45;&gt;\\RichWeb\\Algorithms\\Abstracts\\AbstractSyntaxHighlighter</title>
<path fill="none" stroke="black" d="M893.79,-486C862.98,-486 827.55,-486 795.11,-486"/>
<polygon fill="none" stroke="black" points="794.7,-482.5 784.7,-486 794.7,-489.5 794.7,-482.5"/>
</g>
<!-- \\RichWeb\\Algorithms\\Project -->
<g id="node53" class="node">
<title>\\RichWeb\\Algorithms\\Project</title>
<polygon fill="none" stroke="black" points="463,-904 399,-904 399,-868 463,-868 463,-904"/>
<text text-anchor="middle" x="431" y="-883.2" font-family="Courier,monospace" font-size="11.00">Project</text>
</g>
<!-- \\RichWeb\\Algorithms\\Project&#45;&gt;\\RichWeb\\Algorithms\\Interfaces\\ProjectInterface -->
<g id="edge31" class="edge">
<title>\\RichWeb\\Algorithms\\Project&#45;&gt;\\RichWeb\\Algorithms\\Interfaces\\ProjectInterface</title>
<path fill="none" stroke="black" stroke-dasharray="1,5" d="M398.59,-878.39C379.94,-873.11 356.26,-865.03 337,-854 308.55,-837.71 310.34,-820.61 281,-806 265.07,-798.07 246.84,-792.45 229.37,-788.48"/>
<polygon fill="none" stroke="black" points="229.7,-784.97 219.19,-786.33 228.25,-791.82 229.7,-784.97"/>
</g>
</g>
</svg>
