<?xml version="1.0" encoding="UTF-8" standalone="no"?>
<!DOCTYPE svg PUBLIC "-//W3C//DTD SVG 1.1//EN"
 "http://www.w3.org/Graphics/SVG/1.1/DTD/svg11.dtd">
<!-- Generated by graphviz version 2.50.0 (20211204.2007)
 -->
<!-- Title: G Pages: 1 -->
<svg width="777pt" height="1200pt"
 viewBox="0.00 0.00 777.00 1200.00" xmlns="http://www.w3.org/2000/svg" xmlns:xlink="http://www.w3.org/1999/xlink">
<g id="graph0" class="graph" transform="scale(1 1) rotate(0) translate(4 1196)">
<title>G</title>
<polygon fill="white" stroke="transparent" points="-4,4 -4,-1196 773,-1196 773,4 -4,4"/>
<g id="clust1" class="cluster">
<title>cluster_Global</title>
<polygon fill="none" stroke="black" points="8,-8 8,-1184 761,-1184 761,-8 8,-8"/>
<text text-anchor="middle" x="384.5" y="-1171.2" font-family="Times New Roman,serif" font-size="11.00" fill="gray">Global</text>
</g>
<g id="clust2" class="cluster">
<title>cluster_\RichWeb</title>
<polygon fill="none" stroke="black" points="16,-16 16,-1156 753,-1156 753,-16 16,-16"/>
<text text-anchor="middle" x="384.5" y="-1143.2" font-family="Times New Roman,serif" font-size="11.00" fill="gray">RichWeb</text>
</g>
<g id="clust3" class="cluster">
<title>cluster_\RichWeb\Algorithms</title>
<polygon fill="none" stroke="black" points="24,-24 24,-1128 745,-1128 745,-24 24,-24"/>
<text text-anchor="middle" x="384.5" y="-1115.2" font-family="Times New Roman,serif" font-size="11.00" fill="gray">Algorithms</text>
</g>
<g id="clust4" class="cluster">
<title>cluster_\RichWeb\Algorithms\Abstracts</title>
<polygon fill="none" stroke="black" points="47,-408 47,-588 444.5,-588 444.5,-408 47,-408"/>
<text text-anchor="middle" x="245.75" y="-575.2" font-family="Times New Roman,serif" font-size="11.00" fill="gray">Abstracts</text>
</g>
<g id="clust5" class="cluster">
<title>cluster_\RichWeb\Algorithms\Admin</title>
<polygon fill="none" stroke="black" points="32,-838 32,-1100 737,-1100 737,-838 32,-838"/>
<text text-anchor="middle" x="384.5" y="-1087.2" font-family="Times New Roman,serif" font-size="11.00" fill="gray">Admin</text>
</g>
<g id="clust6" class="cluster">
<title>cluster_\RichWeb\Algorithms\Admin\Abstracts</title>
<polygon fill="none" stroke="black" points="273.5,-869 273.5,-995 414.5,-995 414.5,-869 273.5,-869"/>
<text text-anchor="middle" x="344" y="-982.2" font-family="Times New Roman,serif" font-size="11.00" fill="gray">Abstracts</text>
</g>
<g id="clust8" class="cluster">
<title>cluster_\RichWeb\Algorithms\Admin\MetaBoxes</title>
<polygon fill="none" stroke="black" points="507,-892 507,-1072 729,-1072 729,-892 507,-892"/>
<text text-anchor="middle" x="618" y="-1059.2" font-family="Times New Roman,serif" font-size="11.00" fill="gray">MetaBoxes</text>
</g>
<g id="clust7" class="cluster">
<title>cluster_\RichWeb\Algorithms\Admin\Interfaces</title>
<polygon fill="none" stroke="black" points="40,-923 40,-995 181,-995 181,-923 40,-923"/>
<text text-anchor="middle" x="110.5" y="-982.2" font-family="Times New Roman,serif" font-size="11.00" fill="gray">Interfaces</text>
</g>
<g id="clust11" class="cluster">
<title>cluster_\RichWeb\Algorithms\Setup</title>
<polygon fill="none" stroke="black" points="500.5,-596 500.5,-830 735.5,-830 735.5,-596 500.5,-596"/>
<text text-anchor="middle" x="618" y="-817.2" font-family="Times New Roman,serif" font-size="11.00" fill="gray">Setup</text>
</g>
<g id="clust9" class="cluster">
<title>cluster_\RichWeb\Algorithms\Interfaces</title>
<polygon fill="none" stroke="black" points="33.5,-596 33.5,-830 187.5,-830 187.5,-596 33.5,-596"/>
<text text-anchor="middle" x="110.5" y="-817.2" font-family="Times New Roman,serif" font-size="11.00" fill="gray">Interfaces</text>
</g>
<g id="clust10" class="cluster">
<title>cluster_\RichWeb\Algorithms\Loaders</title>
<polygon fill="none" stroke="black" points="568,-462 568,-588 668,-588 668,-462 568,-462"/>
<text text-anchor="middle" x="618" y="-575.2" font-family="Times New Roman,serif" font-size="11.00" fill="gray">Loaders</text>
</g>
<g id="clust12" class="cluster">
<title>cluster_\RichWeb\Algorithms\Traits</title>
<polygon fill="none" stroke="black" points="563.5,-292 563.5,-454 672.5,-454 672.5,-292 563.5,-292"/>
<text text-anchor="middle" x="618" y="-441.2" font-family="Times New Roman,serif" font-size="11.00" fill="gray">Traits</text>
</g>
<g id="clust13" class="cluster">
<title>cluster_\RichWeb\Algorithms\Traits\Formatting</title>
<polygon fill="none" stroke="black" points="571.5,-300 571.5,-426 664.5,-426 664.5,-300 571.5,-300"/>
<text text-anchor="middle" x="618" y="-413.2" font-family="Times New Roman,serif" font-size="11.00" fill="gray">Formatting</text>
</g>
<!-- \\RichWeb\\Algorithms\\Abstracts\\AbstractPlugin -->
<g id="node1" class="node">
<title>\\RichWeb\\Algorithms\\Abstracts\\AbstractPlugin</title>
<polygon fill="none" stroke="black" points="166,-506 55,-506 55,-470 166,-470 166,-506"/>
<text text-anchor="start" x="76.5" y="-491.2" font-family="Courier,monospace" font-size="11.00">«abstract»</text>
<text text-anchor="start" x="63" y="-479.2" font-family="Courier,monospace" font-size="11.00">AbstractPlugin</text>
</g>
<!-- \\RichWeb\\Algorithms\\Abstracts\\AbstractScripts -->
<g id="node2" class="node">
<title>\\RichWeb\\Algorithms\\Abstracts\\AbstractScripts</title>
<polygon fill="none" stroke="black" points="403,-560 285,-560 285,-524 403,-524 403,-560"/>
<text text-anchor="start" x="310" y="-545.2" font-family="Courier,monospace" font-size="11.00">«abstract»</text>
<text text-anchor="start" x="293" y="-533.2" font-family="Courier,monospace" font-size="11.00">AbstractScripts</text>
</g>
<!-- \\RichWeb\\Algorithms\\Interfaces\\ScriptsInterface -->
<g id="node14" class="node">
<title>\\RichWeb\\Algorithms\\Interfaces\\ScriptsInterface</title>
<polygon fill="none" stroke="black" points="173,-694 48,-694 48,-658 173,-658 173,-694"/>
<text text-anchor="middle" x="110.5" y="-673.2" font-family="Courier,monospace" font-size="11.00">ScriptsInterface</text>
</g>
<!-- \\RichWeb\\Algorithms\\Abstracts\\AbstractScripts&#45;&gt;\\RichWeb\\Algorithms\\Interfaces\\ScriptsInterface -->
<g id="edge1" class="edge">
<title>\\RichWeb\\Algorithms\\Abstracts\\AbstractScripts&#45;&gt;\\RichWeb\\Algorithms\\Interfaces\\ScriptsInterface</title>
<path fill="none" stroke="black" stroke-dasharray="1,5" d="M320.74,-560.12C291.56,-583.19 238.14,-623.15 187.5,-649 184.19,-650.69 180.74,-652.32 177.23,-653.89"/>
<polygon fill="none" stroke="black" points="175.67,-650.75 167.82,-657.87 178.4,-657.2 175.67,-650.75"/>
</g>
<!-- \\RichWeb\\Algorithms\\Abstracts\\AbstractSingletonPlugin -->
<g id="node3" class="node">
<title>\\RichWeb\\Algorithms\\Abstracts\\AbstractSingletonPlugin</title>
<polygon fill="none" stroke="black" points="430,-506 258,-506 258,-470 430,-470 430,-506"/>
<text text-anchor="start" x="310" y="-491.2" font-family="Courier,monospace" font-size="11.00">«abstract»</text>
<text text-anchor="start" x="266" y="-479.2" font-family="Courier,monospace" font-size="11.00">AbstractSingletonPlugin</text>
</g>
<!-- \\RichWeb\\Algorithms\\Abstracts\\AbstractSingletonPlugin&#45;&gt;\\RichWeb\\Algorithms\\Abstracts\\AbstractPlugin -->
<g id="edge2" class="edge">
<title>\\RichWeb\\Algorithms\\Abstracts\\AbstractSingletonPlugin&#45;&gt;\\RichWeb\\Algorithms\\Abstracts\\AbstractPlugin</title>
<path fill="none" stroke="black" d="M257.78,-488C230.93,-488 201.71,-488 176.5,-488"/>
<polygon fill="none" stroke="black" points="176.33,-484.5 166.33,-488 176.33,-491.5 176.33,-484.5"/>
</g>
<!-- \\RichWeb\\Algorithms\\Interfaces\\SingletonInterface -->
<g id="node15" class="node">
<title>\\RichWeb\\Algorithms\\Interfaces\\SingletonInterface</title>
<polygon fill="none" stroke="black" points="179.5,-640 41.5,-640 41.5,-604 179.5,-604 179.5,-640"/>
<text text-anchor="middle" x="110.5" y="-619.2" font-family="Courier,monospace" font-size="11.00">SingletonInterface</text>
</g>
<!-- \\RichWeb\\Algorithms\\Abstracts\\AbstractSingletonPlugin&#45;&gt;\\RichWeb\\Algorithms\\Interfaces\\SingletonInterface -->
<g id="edge3" class="edge">
<title>\\RichWeb\\Algorithms\\Abstracts\\AbstractSingletonPlugin&#45;&gt;\\RichWeb\\Algorithms\\Interfaces\\SingletonInterface</title>
<path fill="none" stroke="black" stroke-dasharray="1,5" d="M267.92,-506.07C262.17,-508.67 256.62,-511.63 251.5,-515 214.33,-539.47 223.54,-565.9 187.5,-592 183.91,-594.6 180.07,-597.01 176.09,-599.24"/>
<polygon fill="none" stroke="black" points="174.47,-596.13 167.19,-603.83 177.68,-602.35 174.47,-596.13"/>
</g>
<!-- \\RichWeb\\Algorithms\\Abstracts\\AbstractSyntaxHighlighter -->
<g id="node4" class="node">
<title>\\RichWeb\\Algorithms\\Abstracts\\AbstractSyntaxHighlighter</title>
<polygon fill="none" stroke="black" points="436.5,-452 251.5,-452 251.5,-416 436.5,-416 436.5,-452"/>
<text text-anchor="start" x="310" y="-437.2" font-family="Courier,monospace" font-size="11.00">«abstract»</text>
<text text-anchor="start" x="259.5" y="-425.2" font-family="Courier,monospace" font-size="11.00">AbstractSyntaxHighlighter</text>
</g>
<!-- \\RichWeb\\Algorithms\\Admin\\Abstracts\\AbstractMetaBox -->
<g id="node5" class="node">
<title>\\RichWeb\\Algorithms\\Admin\\Abstracts\\AbstractMetaBox</title>
<polygon fill="none" stroke="black" points="403,-967 285,-967 285,-931 403,-931 403,-967"/>
<text text-anchor="start" x="310" y="-952.2" font-family="Courier,monospace" font-size="11.00">«abstract»</text>
<text text-anchor="start" x="293" y="-940.2" font-family="Courier,monospace" font-size="11.00">AbstractMetaBox</text>
</g>
<!-- \\RichWeb\\Algorithms\\Admin\\Interfaces\\MetaBoxInterface -->
<g id="node7" class="node">
<title>\\RichWeb\\Algorithms\\Admin\\Interfaces\\MetaBoxInterface</title>
<polygon fill="none" stroke="black" points="173,-967 48,-967 48,-931 173,-931 173,-967"/>
<text text-anchor="middle" x="110.5" y="-946.2" font-family="Courier,monospace" font-size="11.00">MetaBoxInterface</text>
</g>
<!-- \\RichWeb\\Algorithms\\Admin\\Abstracts\\AbstractMetaBox&#45;&gt;\\RichWeb\\Algorithms\\Admin\\Interfaces\\MetaBoxInterface -->
<g id="edge4" class="edge">
<title>\\RichWeb\\Algorithms\\Admin\\Abstracts\\AbstractMetaBox&#45;&gt;\\RichWeb\\Algorithms\\Admin\\Interfaces\\MetaBoxInterface</title>
<path fill="none" stroke="black" stroke-dasharray="1,5" d="M284.88,-949C254.18,-949 216.23,-949 183.66,-949"/>
<polygon fill="none" stroke="black" points="183.29,-945.5 173.29,-949 183.29,-952.5 183.29,-945.5"/>
</g>
<!-- \\RichWeb\\Algorithms\\Admin\\Abstracts\\AbstractPostType -->
<g id="node6" class="node">
<title>\\RichWeb\\Algorithms\\Admin\\Abstracts\\AbstractPostType</title>
<polygon fill="none" stroke="black" points="406.5,-913 281.5,-913 281.5,-877 406.5,-877 406.5,-913"/>
<text text-anchor="start" x="310" y="-898.2" font-family="Courier,monospace" font-size="11.00">«abstract»</text>
<text text-anchor="start" x="289.5" y="-886.2" font-family="Courier,monospace" font-size="11.00">AbstractPostType</text>
</g>
<!-- \\RichWeb\\Algorithms\\Interfaces\\HasRunnerInterface -->
<g id="node12" class="node">
<title>\\RichWeb\\Algorithms\\Interfaces\\HasRunnerInterface</title>
<polygon fill="none" stroke="black" points="179.5,-802 41.5,-802 41.5,-766 179.5,-766 179.5,-802"/>
<text text-anchor="middle" x="110.5" y="-781.2" font-family="Courier,monospace" font-size="11.00">HasRunnerInterface</text>
</g>
<!-- \\RichWeb\\Algorithms\\Admin\\Abstracts\\AbstractPostType&#45;&gt;\\RichWeb\\Algorithms\\Interfaces\\HasRunnerInterface -->
<g id="edge5" class="edge">
<title>\\RichWeb\\Algorithms\\Admin\\Abstracts\\AbstractPostType&#45;&gt;\\RichWeb\\Algorithms\\Interfaces\\HasRunnerInterface</title>
<path fill="none" stroke="black" stroke-dasharray="1,5" d="M305.29,-876.92C265.18,-857.69 201.68,-827.24 158.38,-806.48"/>
<polygon fill="none" stroke="black" points="159.72,-803.24 149.19,-802.07 156.7,-809.55 159.72,-803.24"/>
</g>
<!-- \\RichWeb\\Algorithms\\Admin\\MetaBoxes\\AlgorithmCodeExamplesMetaBox -->
<g id="node8" class="node">
<title>\\RichWeb\\Algorithms\\Admin\\MetaBoxes\\AlgorithmCodeExamplesMetaBox</title>
<polygon fill="none" stroke="black" points="721,-1044 515,-1044 515,-1008 721,-1008 721,-1044"/>
<text text-anchor="middle" x="618" y="-1023.2" font-family="Courier,monospace" font-size="11.00">AlgorithmCodeExamplesMetaBox</text>
</g>
<!-- \\RichWeb\\Algorithms\\Admin\\MetaBoxes\\AlgorithmCodeExamplesMetaBox&#45;&gt;\\RichWeb\\Algorithms\\Admin\\Abstracts\\AbstractMetaBox -->
<g id="edge7" class="edge">
<title>\\RichWeb\\Algorithms\\Admin\\MetaBoxes\\AlgorithmCodeExamplesMetaBox&#45;&gt;\\RichWeb\\Algorithms\\Admin\\Abstracts\\AbstractMetaBox</title>
<path fill="none" stroke="black" d="M535.31,-1007.98C523.59,-1005.13 511.71,-1002.09 500.5,-999 469.57,-990.46 435.6,-979.7 407.32,-970.35"/>
<polygon fill="none" stroke="black" points="408.16,-966.94 397.57,-967.11 405.96,-973.59 408.16,-966.94"/>
</g>
<!-- \\RichWeb\\Algorithms\\Admin\\MetaBoxes\\AlgorithmPackageMetaBox -->
<g id="node9" class="node">
<title>\\RichWeb\\Algorithms\\Admin\\MetaBoxes\\AlgorithmPackageMetaBox</title>
<polygon fill="none" stroke="black" points="704,-990 532,-990 532,-954 704,-954 704,-990"/>
<text text-anchor="middle" x="618" y="-969.2" font-family="Courier,monospace" font-size="11.00">AlgorithmPackageMetaBox</text>
</g>
<!-- \\RichWeb\\Algorithms\\Admin\\MetaBoxes\\AlgorithmPackageMetaBox&#45;&gt;\\RichWeb\\Algorithms\\Admin\\Abstracts\\AbstractMetaBox -->
<g id="edge8" class="edge">
<title>\\RichWeb\\Algorithms\\Admin\\MetaBoxes\\AlgorithmPackageMetaBox&#45;&gt;\\RichWeb\\Algorithms\\Admin\\Abstracts\\AbstractMetaBox</title>
<path fill="none" stroke="black" d="M531.68,-964.79C493.68,-961.57 449.52,-957.84 413.69,-954.81"/>
<polygon fill="none" stroke="black" points="413.59,-951.29 403.34,-953.93 413,-958.26 413.59,-951.29"/>
</g>
<!-- \\RichWeb\\Algorithms\\Admin\\MetaBoxes\\MetaBoxes -->
<g id="node10" class="node">
<title>\\RichWeb\\Algorithms\\Admin\\MetaBoxes\\MetaBoxes</title>
<polygon fill="none" stroke="black" points="656.5,-936 579.5,-936 579.5,-900 656.5,-900 656.5,-936"/>
<text text-anchor="middle" x="618" y="-915.2" font-family="Courier,monospace" font-size="11.00">MetaBoxes</text>
</g>
<!-- \\RichWeb\\Algorithms\\Admin\\AlgorithmPostType -->
<g id="node11" class="node">
<title>\\RichWeb\\Algorithms\\Admin\\AlgorithmPostType</title>
<polygon fill="none" stroke="black" points="683.5,-882 552.5,-882 552.5,-846 683.5,-846 683.5,-882"/>
<text text-anchor="middle" x="618" y="-861.2" font-family="Courier,monospace" font-size="11.00">AlgorithmPostType</text>
</g>
<!-- \\RichWeb\\Algorithms\\Admin\\AlgorithmPostType&#45;&gt;\\RichWeb\\Algorithms\\Admin\\Abstracts\\AbstractPostType -->
<g id="edge6" class="edge">
<title>\\RichWeb\\Algorithms\\Admin\\AlgorithmPostType&#45;&gt;\\RichWeb\\Algorithms\\Admin\\Abstracts\\AbstractPostType</title>
<path fill="none" stroke="black" d="M552.19,-871.39C511.4,-876.03 458.71,-882.04 416.68,-886.83"/>
<polygon fill="none" stroke="black" points="416.05,-883.38 406.51,-887.99 416.84,-890.34 416.05,-883.38"/>
</g>
<!-- \\RichWeb\\Algorithms\\Interfaces\\LanguagesInterface -->
<g id="node13" class="node">
<title>\\RichWeb\\Algorithms\\Interfaces\\LanguagesInterface</title>
<polygon fill="none" stroke="black" points="179.5,-748 41.5,-748 41.5,-712 179.5,-712 179.5,-748"/>
<text text-anchor="middle" x="110.5" y="-727.2" font-family="Courier,monospace" font-size="11.00">LanguagesInterface</text>
</g>
<!-- \\RichWeb\\Algorithms\\Loaders\\Autoloader -->
<g id="node16" class="node">
<title>\\RichWeb\\Algorithms\\Loaders\\Autoloader</title>
<polygon fill="none" stroke="black" points="660,-560 576,-560 576,-524 660,-524 660,-560"/>
<text text-anchor="middle" x="618" y="-539.2" font-family="Courier,monospace" font-size="11.00">Autoloader</text>
</g>
<!-- \\RichWeb\\Algorithms\\Loaders\\FileLoader -->
<g id="node17" class="node">
<title>\\RichWeb\\Algorithms\\Loaders\\FileLoader</title>
<polygon fill="none" stroke="black" points="660,-506 576,-506 576,-470 660,-470 660,-506"/>
<text text-anchor="middle" x="618" y="-485.2" font-family="Courier,monospace" font-size="11.00">FileLoader</text>
</g>
<!-- \\RichWeb\\Algorithms\\Setup\\Languages -->
<g id="node18" class="node">
<title>\\RichWeb\\Algorithms\\Setup\\Languages</title>
<polygon fill="none" stroke="black" points="656.5,-748 579.5,-748 579.5,-712 656.5,-712 656.5,-748"/>
<text text-anchor="middle" x="618" y="-727.2" font-family="Courier,monospace" font-size="11.00">Languages</text>
</g>
<!-- \\RichWeb\\Algorithms\\Setup\\Languages&#45;&gt;\\RichWeb\\Algorithms\\Interfaces\\HasRunnerInterface -->
<g id="edge12" class="edge">
<title>\\RichWeb\\Algorithms\\Setup\\Languages&#45;&gt;\\RichWeb\\Algorithms\\Interfaces\\HasRunnerInterface</title>
<path fill="none" stroke="black" stroke-dasharray="1,5" d="M343,-747C291.51,-749.7 234.3,-758.79 189.63,-767.28"/>
<polygon fill="none" stroke="black" points="188.88,-763.86 179.72,-769.19 190.2,-770.73 188.88,-763.86"/>
</g>
<!-- \\RichWeb\\Algorithms\\Setup\\Languages&#45;&gt;\\RichWeb\\Algorithms\\Interfaces\\LanguagesInterface -->
<g id="edge11" class="edge">
<title>\\RichWeb\\Algorithms\\Setup\\Languages&#45;&gt;\\RichWeb\\Algorithms\\Interfaces\\LanguagesInterface</title>
<path fill="none" stroke="black" stroke-dasharray="1,5" d="M579.17,-732.6C526.64,-736.17 428.63,-742.62 345,-747"/>
<path fill="none" stroke="black" stroke-dasharray="1,5" d="M343,-747C291.84,-749.68 234.39,-745.51 189.53,-740.63"/>
<polygon fill="none" stroke="black" points="189.9,-737.15 179.57,-739.51 189.12,-744.1 189.9,-737.15"/>
</g>
<!-- \\RichWeb\\Algorithms\\Setup\\PrismSyntaxtHighlighterScripts -->
<g id="node19" class="node">
<title>\\RichWeb\\Algorithms\\Setup\\PrismSyntaxtHighlighterScripts</title>
<polygon fill="none" stroke="black" points="727.5,-640 508.5,-640 508.5,-604 727.5,-604 727.5,-640"/>
<text text-anchor="middle" x="618" y="-619.2" font-family="Courier,monospace" font-size="11.00">PrismSyntaxtHighlighterScripts</text>
</g>
<!-- \\RichWeb\\Algorithms\\Setup\\PrismSyntaxtHighlighterScripts&#45;&gt;\\RichWeb\\Algorithms\\Abstracts\\AbstractScripts -->
<g id="edge13" class="edge">
<title>\\RichWeb\\Algorithms\\Setup\\PrismSyntaxtHighlighterScripts&#45;&gt;\\RichWeb\\Algorithms\\Abstracts\\AbstractScripts</title>
<path fill="none" stroke="black" d="M544.11,-603.94C529.62,-600.15 514.54,-596.06 500.5,-592 469.92,-583.15 436.25,-572.45 408.09,-563.22"/>
<polygon fill="none" stroke="black" points="408.97,-559.82 398.38,-560.02 406.78,-566.47 408.97,-559.82"/>
</g>
<!-- \\RichWeb\\Algorithms\\Setup\\Scripts -->
<g id="node20" class="node">
<title>\\RichWeb\\Algorithms\\Setup\\Scripts</title>
<polygon fill="none" stroke="black" points="650,-694 586,-694 586,-658 650,-658 650,-694"/>
<text text-anchor="middle" x="618" y="-673.2" font-family="Courier,monospace" font-size="11.00">Scripts</text>
</g>
<!-- \\RichWeb\\Algorithms\\Setup\\Scripts&#45;&gt;\\RichWeb\\Algorithms\\Abstracts\\AbstractScripts -->
<g id="edge14" class="edge">
<title>\\RichWeb\\Algorithms\\Setup\\Scripts&#45;&gt;\\RichWeb\\Algorithms\\Abstracts\\AbstractScripts</title>
<path fill="none" stroke="black" d="M585.82,-672.02C561.76,-668.19 528.05,-661.14 500.5,-649 452.26,-627.73 403.24,-590.94 373.47,-566.53"/>
<polygon fill="none" stroke="black" points="375.53,-563.7 365.6,-560 371.06,-569.08 375.53,-563.7"/>
</g>
<!-- \\RichWeb\\Algorithms\\Setup\\Setup -->
<g id="node21" class="node">
<title>\\RichWeb\\Algorithms\\Setup\\Setup</title>
<polygon fill="none" stroke="black" points="645,-802 591,-802 591,-766 645,-766 645,-802"/>
<text text-anchor="middle" x="618" y="-781.2" font-family="Courier,monospace" font-size="11.00">Setup</text>
</g>
<!-- \\RichWeb\\Algorithms\\Setup\\Setup&#45;&gt;\\RichWeb\\Algorithms\\Interfaces\\HasRunnerInterface -->
<g id="edge15" class="edge">
<title>\\RichWeb\\Algorithms\\Setup\\Setup&#45;&gt;\\RichWeb\\Algorithms\\Interfaces\\HasRunnerInterface</title>
<path fill="none" stroke="black" stroke-dasharray="1,5" d="M590.89,-784C517.29,-784 306.03,-784 190.05,-784"/>
<polygon fill="none" stroke="black" points="189.82,-780.5 179.82,-784 189.82,-787.5 189.82,-780.5"/>
</g>
<!-- \\RichWeb\\Algorithms\\Traits\\Formatting\\FilePaths -->
<g id="node22" class="node">
<title>\\RichWeb\\Algorithms\\Traits\\Formatting\\FilePaths</title>
<polygon fill="none" stroke="black" points="656.5,-398 579.5,-398 579.5,-362 656.5,-362 656.5,-398"/>
<text text-anchor="middle" x="618" y="-377.2" font-family="Courier,monospace" font-size="11.00">FilePaths</text>
</g>
<!-- \\RichWeb\\Algorithms\\Traits\\Formatting\\Strings -->
<g id="node23" class="node">
<title>\\RichWeb\\Algorithms\\Traits\\Formatting\\Strings</title>
<polygon fill="none" stroke="black" points="650,-344 586,-344 586,-308 650,-308 650,-344"/>
<text text-anchor="middle" x="618" y="-323.2" font-family="Courier,monospace" font-size="11.00">Strings</text>
</g>
<!-- \\RichWeb\\Algorithms\\AlgorithmPackage -->
<g id="node24" class="node">
<title>\\RichWeb\\Algorithms\\AlgorithmPackage</title>
<polygon fill="none" stroke="black" points="680.5,-284 555.5,-284 555.5,-248 680.5,-248 680.5,-284"/>
<text text-anchor="middle" x="618" y="-263.2" font-family="Courier,monospace" font-size="11.00">AlgorithmPackage</text>
</g>
<!-- \\RichWeb\\Algorithms\\AlgorithmPackageManager -->
<g id="node25" class="node">
<title>\\RichWeb\\Algorithms\\AlgorithmPackageManager</title>
<polygon fill="none" stroke="black" points="704,-230 532,-230 532,-194 704,-194 704,-230"/>
<text text-anchor="middle" x="618" y="-209.2" font-family="Courier,monospace" font-size="11.00">AlgorithmPackageManager</text>
</g>
<!-- \\RichWeb\\Algorithms\\Plugin -->
<g id="node26" class="node">
<title>\\RichWeb\\Algorithms\\Plugin</title>
<polygon fill="none" stroke="black" points="646.5,-176 589.5,-176 589.5,-140 646.5,-140 646.5,-176"/>
<text text-anchor="middle" x="618" y="-155.2" font-family="Courier,monospace" font-size="11.00">Plugin</text>
</g>
<!-- \\RichWeb\\Algorithms\\Plugin&#45;&gt;\\RichWeb\\Algorithms\\Abstracts\\AbstractSingletonPlugin -->
<g id="edge9" class="edge">
<title>\\RichWeb\\Algorithms\\Plugin&#45;&gt;\\RichWeb\\Algorithms\\Abstracts\\AbstractSingletonPlugin</title>
<path fill="none" stroke="black" d="M589.41,-156.5C562.88,-156.65 523.52,-161.34 500.5,-185 413.22,-274.72 530.09,-369.67 444.5,-461 442.68,-462.94 440.73,-464.75 438.69,-466.43"/>
<polygon fill="none" stroke="black" points="436.48,-463.71 430.31,-472.32 440.51,-469.43 436.48,-463.71"/>
</g>
<!-- \\RichWeb\\Algorithms\\PrismSyntaxHighlighter -->
<g id="node27" class="node">
<title>\\RichWeb\\Algorithms\\PrismSyntaxHighlighter</title>
<polygon fill="none" stroke="black" points="700.5,-122 535.5,-122 535.5,-86 700.5,-86 700.5,-122"/>
<text text-anchor="middle" x="618" y="-101.2" font-family="Courier,monospace" font-size="11.00">PrismSyntaxHighlighter</text>
</g>
<!-- \\RichWeb\\Algorithms\\PrismSyntaxHighlighter&#45;&gt;\\RichWeb\\Algorithms\\Abstracts\\AbstractSyntaxHighlighter -->
<g id="edge10" class="edge">
<title>\\RichWeb\\Algorithms\\PrismSyntaxHighlighter&#45;&gt;\\RichWeb\\Algorithms\\Abstracts\\AbstractSyntaxHighlighter</title>
<path fill="none" stroke="black" d="M535.48,-113.28C522.91,-117.33 510.73,-123.02 500.5,-131 407.9,-203.19 365.4,-345.7 350.98,-406"/>
<polygon fill="none" stroke="black" points="347.53,-405.41 348.69,-415.94 354.35,-406.98 347.53,-405.41"/>
</g>
<!-- \\RichWeb\\Algorithms\\Project -->
<g id="node28" class="node">
<title>\\RichWeb\\Algorithms\\Project</title>
<polygon fill="none" stroke="black" points="650,-68 586,-68 586,-32 650,-32 650,-68"/>
<text text-anchor="middle" x="618" y="-47.2" font-family="Courier,monospace" font-size="11.00">Project</text>
</g>
</g>
</svg>
