<?xml version="1.0" encoding="UTF-8" standalone="no"?>
<!DOCTYPE svg PUBLIC "-//W3C//DTD SVG 1.1//EN"
 "http://www.w3.org/Graphics/SVG/1.1/DTD/svg11.dtd">
<!-- Generated by graphviz version 2.50.0 (20211204.2007)
 -->
<!-- Title: G Pages: 1 -->
<svg width="1134pt" height="1262pt"
 viewBox="0.00 0.00 1134.00 1262.00" xmlns="http://www.w3.org/2000/svg" xmlns:xlink="http://www.w3.org/1999/xlink">
<g id="graph0" class="graph" transform="scale(1 1) rotate(0) translate(4 1258)">
<title>G</title>
<polygon fill="white" stroke="transparent" points="-4,4 -4,-1258 1130,-1258 1130,4 -4,4"/>
<g id="clust1" class="cluster">
<title>cluster_Global</title>
<polygon fill="none" stroke="black" points="8,-8 8,-1246 1118,-1246 1118,-8 8,-8"/>
<text text-anchor="middle" x="563" y="-1233.2" font-family="Times New Roman,serif" font-size="11.00" fill="gray">Global</text>
</g>
<g id="clust2" class="cluster">
<title>cluster_\RichWeb</title>
<polygon fill="none" stroke="black" points="16,-16 16,-1174 1110,-1174 1110,-16 16,-16"/>
<text text-anchor="middle" x="563" y="-1161.2" font-family="Times New Roman,serif" font-size="11.00" fill="gray">RichWeb</text>
</g>
<g id="clust3" class="cluster">
<title>cluster_\RichWeb\Algorithms</title>
<polygon fill="none" stroke="black" points="24,-24 24,-1146 1102,-1146 1102,-24 24,-24"/>
<text text-anchor="middle" x="563" y="-1133.2" font-family="Times New Roman,serif" font-size="11.00" fill="gray">Algorithms</text>
</g>
<g id="clust5" class="cluster">
<title>cluster_\RichWeb\Algorithms\Admin</title>
<polygon fill="none" stroke="black" points="75,-814 75,-1074 811,-1074 811,-814 75,-814"/>
<text text-anchor="middle" x="443" y="-1061.2" font-family="Times New Roman,serif" font-size="11.00" fill="gray">Admin</text>
</g>
<g id="clust6" class="cluster">
<title>cluster_\RichWeb\Algorithms\Admin\Abstracts</title>
<polygon fill="none" stroke="black" points="360.5,-898 360.5,-1024 501.5,-1024 501.5,-898 360.5,-898"/>
<text text-anchor="middle" x="431" y="-1011.2" font-family="Times New Roman,serif" font-size="11.00" fill="gray">Abstracts</text>
</g>
<g id="clust8" class="cluster">
<title>cluster_\RichWeb\Algorithms\Admin\MetaBoxes</title>
<polygon fill="none" stroke="black" points="581,-822 581,-1002 803,-1002 803,-822 581,-822"/>
<text text-anchor="middle" x="692" y="-989.2" font-family="Times New Roman,serif" font-size="11.00" fill="gray">MetaBoxes</text>
</g>
<g id="clust7" class="cluster">
<title>cluster_\RichWeb\Algorithms\Admin\Interfaces</title>
<polygon fill="none" stroke="black" points="83,-898 83,-1024 230,-1024 230,-898 83,-898"/>
<text text-anchor="middle" x="156.5" y="-1011.2" font-family="Times New Roman,serif" font-size="11.00" fill="gray">Interfaces</text>
</g>
<g id="clust4" class="cluster">
<title>cluster_\RichWeb\Algorithms\Abstracts</title>
<polygon fill="none" stroke="black" points="367.5,-32 367.5,-266 792.5,-266 792.5,-32 367.5,-32"/>
<text text-anchor="middle" x="580" y="-253.2" font-family="Times New Roman,serif" font-size="11.00" fill="gray">Abstracts</text>
</g>
<g id="clust10" class="cluster">
<title>cluster_\RichWeb\Algorithms\Loaders</title>
<polygon fill="none" stroke="black" points="381,-519 381,-645 481,-645 481,-519 381,-519"/>
<text text-anchor="middle" x="431" y="-632.2" font-family="Times New Roman,serif" font-size="11.00" fill="gray">Loaders</text>
</g>
<g id="clust11" class="cluster">
<title>cluster_\RichWeb\Algorithms\Setup</title>
<polygon fill="none" stroke="black" points="859,-317 859,-551 1094,-551 1094,-317 859,-317"/>
<text text-anchor="middle" x="976.5" y="-538.2" font-family="Times New Roman,serif" font-size="11.00" fill="gray">Setup</text>
</g>
<g id="clust9" class="cluster">
<title>cluster_\RichWeb\Algorithms\Interfaces</title>
<polygon fill="none" stroke="black" points="32,-32 32,-806 281,-806 281,-32 32,-32"/>
<text text-anchor="middle" x="156.5" y="-793.2" font-family="Times New Roman,serif" font-size="11.00" fill="gray">Interfaces</text>
</g>
<g id="clust12" class="cluster">
<title>cluster_\RichWeb\Algorithms\Traits</title>
<polygon fill="none" stroke="black" points="922,-142 922,-304 1031,-304 1031,-142 922,-142"/>
<text text-anchor="middle" x="976.5" y="-291.2" font-family="Times New Roman,serif" font-size="11.00" fill="gray">Traits</text>
</g>
<g id="clust13" class="cluster">
<title>cluster_\RichWeb\Algorithms\Traits\Formatting</title>
<polygon fill="none" stroke="black" points="930,-150 930,-276 1023,-276 1023,-150 930,-150"/>
<text text-anchor="middle" x="976.5" y="-263.2" font-family="Times New Roman,serif" font-size="11.00" fill="gray">Formatting</text>
</g>
<!-- \\RichWeb\\Algorithms\\Abstracts\\AbstractAlgorithm -->
<g id="node1" class="node">
<title>\\RichWeb\\Algorithms\\Abstracts\\AbstractAlgorithm</title>
<polygon fill="none" stroke="black" points="757.5,-184 626.5,-184 626.5,-148 757.5,-148 757.5,-184"/>
<text text-anchor="start" x="658" y="-169.2" font-family="Courier,monospace" font-size="11.00">«abstract»</text>
<text text-anchor="start" x="634.5" y="-157.2" font-family="Courier,monospace" font-size="11.00">AbstractAlgorithm</text>
</g>
<!-- \\RichWeb\\Algorithms\\Interfaces\\AlgorithmInterface -->
<g id="node14" class="node">
<title>\\RichWeb\\Algorithms\\Interfaces\\AlgorithmInterface</title>
<polygon fill="none" stroke="black" points="225.5,-184 87.5,-184 87.5,-148 225.5,-148 225.5,-184"/>
<text text-anchor="middle" x="156.5" y="-163.2" font-family="Courier,monospace" font-size="11.00">AlgorithmInterface</text>
</g>
<!-- \\RichWeb\\Algorithms\\Abstracts\\AbstractAlgorithm&#45;&gt;\\RichWeb\\Algorithms\\Interfaces\\AlgorithmInterface -->
<g id="edge1" class="edge">
<title>\\RichWeb\\Algorithms\\Abstracts\\AbstractAlgorithm&#45;&gt;\\RichWeb\\Algorithms\\Interfaces\\AlgorithmInterface</title>
<path fill="none" stroke="black" stroke-dasharray="1,5" d="M626.38,-166C528.25,-166 341.92,-166 236.09,-166"/>
<polygon fill="none" stroke="black" points="235.79,-162.5 225.79,-166 235.79,-169.5 235.79,-162.5"/>
</g>
<!-- \\RichWeb\\Algorithms\\Abstracts\\AbstractPlugin -->
<g id="node2" class="node">
<title>\\RichWeb\\Algorithms\\Abstracts\\AbstractPlugin</title>
<polygon fill="none" stroke="black" points="486.5,-130 375.5,-130 375.5,-94 486.5,-94 486.5,-130"/>
<text text-anchor="start" x="397" y="-115.2" font-family="Courier,monospace" font-size="11.00">«abstract»</text>
<text text-anchor="start" x="383.5" y="-103.2" font-family="Courier,monospace" font-size="11.00">AbstractPlugin</text>
</g>
<!-- \\RichWeb\\Algorithms\\Interfaces\\PluginInterface -->
<g id="node23" class="node">
<title>\\RichWeb\\Algorithms\\Interfaces\\PluginInterface</title>
<polygon fill="none" stroke="black" points="215.5,-130 97.5,-130 97.5,-94 215.5,-94 215.5,-130"/>
<text text-anchor="middle" x="156.5" y="-109.2" font-family="Courier,monospace" font-size="11.00">PluginInterface</text>
</g>
<!-- \\RichWeb\\Algorithms\\Abstracts\\AbstractPlugin&#45;&gt;\\RichWeb\\Algorithms\\Interfaces\\PluginInterface -->
<g id="edge2" class="edge">
<title>\\RichWeb\\Algorithms\\Abstracts\\AbstractPlugin&#45;&gt;\\RichWeb\\Algorithms\\Interfaces\\PluginInterface</title>
<path fill="none" stroke="black" stroke-dasharray="1,5" d="M375.18,-112C332.13,-112 271.93,-112 225.75,-112"/>
<polygon fill="none" stroke="black" points="225.52,-108.5 215.52,-112 225.52,-115.5 225.52,-108.5"/>
</g>
<!-- \\RichWeb\\Algorithms\\Abstracts\\AbstractScripts -->
<g id="node3" class="node">
<title>\\RichWeb\\Algorithms\\Abstracts\\AbstractScripts</title>
<polygon fill="none" stroke="black" points="751,-238 633,-238 633,-202 751,-202 751,-238"/>
<text text-anchor="start" x="658" y="-223.2" font-family="Courier,monospace" font-size="11.00">«abstract»</text>
<text text-anchor="start" x="641" y="-211.2" font-family="Courier,monospace" font-size="11.00">AbstractScripts</text>
</g>
<!-- \\RichWeb\\Algorithms\\Interfaces\\HasRunnerInterface -->
<g id="node21" class="node">
<title>\\RichWeb\\Algorithms\\Interfaces\\HasRunnerInterface</title>
<polygon fill="none" stroke="black" points="225.5,-670 87.5,-670 87.5,-634 225.5,-634 225.5,-670"/>
<text text-anchor="middle" x="156.5" y="-649.2" font-family="Courier,monospace" font-size="11.00">HasRunnerInterface</text>
</g>
<!-- \\RichWeb\\Algorithms\\Abstracts\\AbstractScripts&#45;&gt;\\RichWeb\\Algorithms\\Interfaces\\HasRunnerInterface -->
<g id="edge4" class="edge">
<title>\\RichWeb\\Algorithms\\Abstracts\\AbstractScripts&#45;&gt;\\RichWeb\\Algorithms\\Interfaces\\HasRunnerInterface</title>
<path fill="none" stroke="black" stroke-dasharray="1,5" d="M430,-508C396.62,-525.96 377.06,-494.77 345,-515 297.17,-545.19 326.72,-591.7 281,-625 267.78,-634.63 251.79,-640.94 235.76,-645.05"/>
<polygon fill="none" stroke="black" points="234.77,-641.69 225.8,-647.34 236.33,-648.51 234.77,-641.69"/>
<path fill="none" stroke="black" stroke-dasharray="1,5" d="M686.23,-238.11C671.44,-290.22 620.94,-440.82 517,-503 500.76,-512.71 448.66,-499.03 432,-508"/>
</g>
<!-- \\RichWeb\\Algorithms\\Interfaces\\ScriptsInterface -->
<g id="node25" class="node">
<title>\\RichWeb\\Algorithms\\Interfaces\\ScriptsInterface</title>
<polygon fill="none" stroke="black" points="219,-238 94,-238 94,-202 219,-202 219,-238"/>
<text text-anchor="middle" x="156.5" y="-217.2" font-family="Courier,monospace" font-size="11.00">ScriptsInterface</text>
</g>
<!-- \\RichWeb\\Algorithms\\Abstracts\\AbstractScripts&#45;&gt;\\RichWeb\\Algorithms\\Interfaces\\ScriptsInterface -->
<g id="edge3" class="edge">
<title>\\RichWeb\\Algorithms\\Abstracts\\AbstractScripts&#45;&gt;\\RichWeb\\Algorithms\\Interfaces\\ScriptsInterface</title>
<path fill="none" stroke="black" stroke-dasharray="1,5" d="M632.89,-220C534.65,-220 336.04,-220 229.27,-220"/>
<polygon fill="none" stroke="black" points="229.23,-216.5 219.23,-220 229.23,-223.5 229.23,-216.5"/>
</g>
<!-- \\RichWeb\\Algorithms\\Abstracts\\AbstractSingletonPlugin -->
<g id="node4" class="node">
<title>\\RichWeb\\Algorithms\\Abstracts\\AbstractSingletonPlugin</title>
<polygon fill="none" stroke="black" points="778,-130 606,-130 606,-94 778,-94 778,-130"/>
<text text-anchor="start" x="658" y="-115.2" font-family="Courier,monospace" font-size="11.00">«abstract»</text>
<text text-anchor="start" x="614" y="-103.2" font-family="Courier,monospace" font-size="11.00">AbstractSingletonPlugin</text>
</g>
<!-- \\RichWeb\\Algorithms\\Abstracts\\AbstractSingletonPlugin&#45;&gt;\\RichWeb\\Algorithms\\Abstracts\\AbstractPlugin -->
<g id="edge5" class="edge">
<title>\\RichWeb\\Algorithms\\Abstracts\\AbstractSingletonPlugin&#45;&gt;\\RichWeb\\Algorithms\\Abstracts\\AbstractPlugin</title>
<path fill="none" stroke="black" d="M605.83,-112C570.45,-112 530.03,-112 497.09,-112"/>
<polygon fill="none" stroke="black" points="496.67,-108.5 486.67,-112 496.67,-115.5 496.67,-108.5"/>
</g>
<!-- \\RichWeb\\Algorithms\\Interfaces\\SingletonPluginInterface -->
<g id="node26" class="node">
<title>\\RichWeb\\Algorithms\\Interfaces\\SingletonPluginInterface</title>
<polygon fill="none" stroke="black" points="246,-400 67,-400 67,-364 246,-364 246,-400"/>
<text text-anchor="middle" x="156.5" y="-379.2" font-family="Courier,monospace" font-size="11.00">SingletonPluginInterface</text>
</g>
<!-- \\RichWeb\\Algorithms\\Abstracts\\AbstractSingletonPlugin&#45;&gt;\\RichWeb\\Algorithms\\Interfaces\\SingletonPluginInterface -->
<g id="edge6" class="edge">
<title>\\RichWeb\\Algorithms\\Abstracts\\AbstractSingletonPlugin&#45;&gt;\\RichWeb\\Algorithms\\Interfaces\\SingletonPluginInterface</title>
<path fill="none" stroke="black" stroke-dasharray="1,5" d="M605.87,-122.83C596.67,-126.79 588.09,-132.05 581,-139 502.43,-215.94 603.86,-310.57 517,-378 477.79,-408.44 348.55,-402.6 256.28,-393.81"/>
<polygon fill="none" stroke="black" points="256.36,-390.3 246.06,-392.81 255.68,-397.27 256.36,-390.3"/>
</g>
<!-- \\RichWeb\\Algorithms\\Abstracts\\AbstractSyntaxHighlighter -->
<g id="node5" class="node">
<title>\\RichWeb\\Algorithms\\Abstracts\\AbstractSyntaxHighlighter</title>
<polygon fill="none" stroke="black" points="784.5,-76 599.5,-76 599.5,-40 784.5,-40 784.5,-76"/>
<text text-anchor="start" x="658" y="-61.2" font-family="Courier,monospace" font-size="11.00">«abstract»</text>
<text text-anchor="start" x="607.5" y="-49.2" font-family="Courier,monospace" font-size="11.00">AbstractSyntaxHighlighter</text>
</g>
<!-- \\RichWeb\\Algorithms\\Interfaces\\SyntaxHighlighterInterface -->
<g id="node27" class="node">
<title>\\RichWeb\\Algorithms\\Interfaces\\SyntaxHighlighterInterface</title>
<polygon fill="none" stroke="black" points="252.5,-76 60.5,-76 60.5,-40 252.5,-40 252.5,-76"/>
<text text-anchor="middle" x="156.5" y="-55.2" font-family="Courier,monospace" font-size="11.00">SyntaxHighlighterInterface</text>
</g>
<!-- \\RichWeb\\Algorithms\\Abstracts\\AbstractSyntaxHighlighter&#45;&gt;\\RichWeb\\Algorithms\\Interfaces\\SyntaxHighlighterInterface -->
<g id="edge7" class="edge">
<title>\\RichWeb\\Algorithms\\Abstracts\\AbstractSyntaxHighlighter&#45;&gt;\\RichWeb\\Algorithms\\Interfaces\\SyntaxHighlighterInterface</title>
<path fill="none" stroke="black" stroke-dasharray="1,5" d="M599.29,-58C505.77,-58 360.87,-58 262.74,-58"/>
<polygon fill="none" stroke="black" points="262.5,-54.5 252.5,-58 262.5,-61.5 262.5,-54.5"/>
</g>
<!-- \\RichWeb\\Algorithms\\Admin\\Abstracts\\AbstractMetaBox -->
<g id="node6" class="node">
<title>\\RichWeb\\Algorithms\\Admin\\Abstracts\\AbstractMetaBox</title>
<polygon fill="none" stroke="black" points="490,-942 372,-942 372,-906 490,-906 490,-942"/>
<text text-anchor="start" x="397" y="-927.2" font-family="Courier,monospace" font-size="11.00">«abstract»</text>
<text text-anchor="start" x="380" y="-915.2" font-family="Courier,monospace" font-size="11.00">AbstractMetaBox</text>
</g>
<!-- \\RichWeb\\Algorithms\\Admin\\Interfaces\\MetaBoxInterface -->
<g id="node8" class="node">
<title>\\RichWeb\\Algorithms\\Admin\\Interfaces\\MetaBoxInterface</title>
<polygon fill="none" stroke="black" points="219,-942 94,-942 94,-906 219,-906 219,-942"/>
<text text-anchor="middle" x="156.5" y="-921.2" font-family="Courier,monospace" font-size="11.00">MetaBoxInterface</text>
</g>
<!-- \\RichWeb\\Algorithms\\Admin\\Abstracts\\AbstractMetaBox&#45;&gt;\\RichWeb\\Algorithms\\Admin\\Interfaces\\MetaBoxInterface -->
<g id="edge8" class="edge">
<title>\\RichWeb\\Algorithms\\Admin\\Abstracts\\AbstractMetaBox&#45;&gt;\\RichWeb\\Algorithms\\Admin\\Interfaces\\MetaBoxInterface</title>
<path fill="none" stroke="black" stroke-dasharray="1,5" d="M371.88,-924C330.26,-924 273.95,-924 229.49,-924"/>
<polygon fill="none" stroke="black" points="229.32,-920.5 219.32,-924 229.32,-927.5 229.32,-920.5"/>
</g>
<!-- \\RichWeb\\Algorithms\\Admin\\Abstracts\\AbstractPostType -->
<g id="node7" class="node">
<title>\\RichWeb\\Algorithms\\Admin\\Abstracts\\AbstractPostType</title>
<polygon fill="none" stroke="black" points="493.5,-996 368.5,-996 368.5,-960 493.5,-960 493.5,-996"/>
<text text-anchor="start" x="397" y="-981.2" font-family="Courier,monospace" font-size="11.00">«abstract»</text>
<text text-anchor="start" x="376.5" y="-969.2" font-family="Courier,monospace" font-size="11.00">AbstractPostType</text>
</g>
<!-- \\RichWeb\\Algorithms\\Admin\\Interfaces\\PostTypeInterface -->
<g id="node9" class="node">
<title>\\RichWeb\\Algorithms\\Admin\\Interfaces\\PostTypeInterface</title>
<polygon fill="none" stroke="black" points="222,-996 91,-996 91,-960 222,-960 222,-996"/>
<text text-anchor="middle" x="156.5" y="-975.2" font-family="Courier,monospace" font-size="11.00">PostTypeInterface</text>
</g>
<!-- \\RichWeb\\Algorithms\\Admin\\Abstracts\\AbstractPostType&#45;&gt;\\RichWeb\\Algorithms\\Admin\\Interfaces\\PostTypeInterface -->
<g id="edge9" class="edge">
<title>\\RichWeb\\Algorithms\\Admin\\Abstracts\\AbstractPostType&#45;&gt;\\RichWeb\\Algorithms\\Admin\\Interfaces\\PostTypeInterface</title>
<path fill="none" stroke="black" stroke-dasharray="1,5" d="M368.17,-978C327.9,-978 275.12,-978 232.46,-978"/>
<polygon fill="none" stroke="black" points="232.41,-974.5 222.41,-978 232.41,-981.5 232.41,-974.5"/>
</g>
<!-- \\RichWeb\\Algorithms\\Admin\\Abstracts\\AbstractPostType&#45;&gt;\\RichWeb\\Algorithms\\Interfaces\\HasRunnerInterface -->
<g id="edge10" class="edge">
<title>\\RichWeb\\Algorithms\\Admin\\Abstracts\\AbstractPostType&#45;&gt;\\RichWeb\\Algorithms\\Interfaces\\HasRunnerInterface</title>
<path fill="none" stroke="black" stroke-dasharray="1,5" d="M368.35,-966.93C359.6,-963.09 351.42,-957.93 345,-951 260.61,-859.89 369.51,-766.12 281,-679 268.71,-666.9 252.33,-659.69 235.53,-655.5"/>
<polygon fill="none" stroke="black" points="236.12,-652.05 225.61,-653.37 234.65,-658.89 236.12,-652.05"/>
</g>
<!-- \\RichWeb\\Algorithms\\Admin\\MetaBoxes\\AlgorithmCodeExamplesMetaBox -->
<g id="node10" class="node">
<title>\\RichWeb\\Algorithms\\Admin\\MetaBoxes\\AlgorithmCodeExamplesMetaBox</title>
<polygon fill="none" stroke="black" points="795,-920 589,-920 589,-884 795,-884 795,-920"/>
<text text-anchor="middle" x="692" y="-899.2" font-family="Courier,monospace" font-size="11.00">AlgorithmCodeExamplesMetaBox</text>
</g>
<!-- \\RichWeb\\Algorithms\\Admin\\MetaBoxes\\AlgorithmCodeExamplesMetaBox&#45;&gt;\\RichWeb\\Algorithms\\Admin\\Abstracts\\AbstractMetaBox -->
<g id="edge12" class="edge">
<title>\\RichWeb\\Algorithms\\Admin\\MetaBoxes\\AlgorithmCodeExamplesMetaBox&#45;&gt;\\RichWeb\\Algorithms\\Admin\\Abstracts\\AbstractMetaBox</title>
<path fill="none" stroke="black" d="M588.64,-910.69C558.92,-913.22 527.21,-915.91 500.15,-918.21"/>
<polygon fill="none" stroke="black" points="499.69,-914.74 490.02,-919.07 500.28,-921.71 499.69,-914.74"/>
</g>
<!-- \\RichWeb\\Algorithms\\Admin\\MetaBoxes\\AlgorithmPackageMetaBox -->
<g id="node11" class="node">
<title>\\RichWeb\\Algorithms\\Admin\\MetaBoxes\\AlgorithmPackageMetaBox</title>
<polygon fill="none" stroke="black" points="778,-974 606,-974 606,-938 778,-938 778,-974"/>
<text text-anchor="middle" x="692" y="-953.2" font-family="Courier,monospace" font-size="11.00">AlgorithmPackageMetaBox</text>
</g>
<!-- \\RichWeb\\Algorithms\\Admin\\MetaBoxes\\AlgorithmPackageMetaBox&#45;&gt;\\RichWeb\\Algorithms\\Admin\\Abstracts\\AbstractMetaBox -->
<g id="edge13" class="edge">
<title>\\RichWeb\\Algorithms\\Admin\\MetaBoxes\\AlgorithmPackageMetaBox&#45;&gt;\\RichWeb\\Algorithms\\Admin\\Abstracts\\AbstractMetaBox</title>
<path fill="none" stroke="black" d="M605.83,-945.48C571.64,-941.25 532.76,-936.45 500.46,-932.46"/>
<polygon fill="none" stroke="black" points="500.56,-928.94 490.21,-931.19 499.71,-935.89 500.56,-928.94"/>
</g>
<!-- \\RichWeb\\Algorithms\\Admin\\MetaBoxes\\MetaBoxes -->
<g id="node12" class="node">
<title>\\RichWeb\\Algorithms\\Admin\\MetaBoxes\\MetaBoxes</title>
<polygon fill="none" stroke="black" points="730.5,-866 653.5,-866 653.5,-830 730.5,-830 730.5,-866"/>
<text text-anchor="middle" x="692" y="-845.2" font-family="Courier,monospace" font-size="11.00">MetaBoxes</text>
</g>
<!-- \\RichWeb\\Algorithms\\Admin\\MetaBoxes\\MetaBoxes&#45;&gt;\\RichWeb\\Algorithms\\Interfaces\\HasRunnerInterface -->
<g id="edge14" class="edge">
<title>\\RichWeb\\Algorithms\\Admin\\MetaBoxes\\MetaBoxes&#45;&gt;\\RichWeb\\Algorithms\\Interfaces\\HasRunnerInterface</title>
<path fill="none" stroke="black" stroke-dasharray="1,5" d="M653.45,-849.24C630.15,-848.07 600.94,-842.83 581,-826 520.26,-774.73 581.14,-705.94 517,-659 501.73,-647.83 450.92,-654.21 432,-654"/>
</g>
<!-- \\RichWeb\\Algorithms\\Admin\\AlgorithmPostType -->
<g id="node13" class="node">
<title>\\RichWeb\\Algorithms\\Admin\\AlgorithmPostType</title>
<polygon fill="none" stroke="black" points="757.5,-1046 626.5,-1046 626.5,-1010 757.5,-1010 757.5,-1046"/>
<text text-anchor="middle" x="692" y="-1025.2" font-family="Courier,monospace" font-size="11.00">AlgorithmPostType</text>
</g>
<!-- \\RichWeb\\Algorithms\\Admin\\AlgorithmPostType&#45;&gt;\\RichWeb\\Algorithms\\Admin\\Abstracts\\AbstractPostType -->
<g id="edge11" class="edge">
<title>\\RichWeb\\Algorithms\\Admin\\AlgorithmPostType&#45;&gt;\\RichWeb\\Algorithms\\Admin\\Abstracts\\AbstractPostType</title>
<path fill="none" stroke="black" d="M626.31,-1015.51C589.04,-1008.32 542.11,-999.26 503.71,-991.84"/>
<polygon fill="none" stroke="black" points="504.12,-988.36 493.64,-989.9 502.79,-995.23 504.12,-988.36"/>
</g>
<!-- \\RichWeb\\Algorithms\\Interfaces\\AlgorithmPackageInterface -->
<g id="node15" class="node">
<title>\\RichWeb\\Algorithms\\Interfaces\\AlgorithmPackageInterface</title>
<polygon fill="none" stroke="black" points="249,-346 64,-346 64,-310 249,-310 249,-346"/>
<text text-anchor="middle" x="156.5" y="-325.2" font-family="Courier,monospace" font-size="11.00">AlgorithmPackageInterface</text>
</g>
<!-- \\RichWeb\\Algorithms\\Interfaces\\AlgorithmPackageLoaderInterface -->
<g id="node16" class="node">
<title>\\RichWeb\\Algorithms\\Interfaces\\AlgorithmPackageLoaderInterface</title>
<polygon fill="none" stroke="black" points="269.5,-508 43.5,-508 43.5,-472 269.5,-472 269.5,-508"/>
<text text-anchor="middle" x="156.5" y="-487.2" font-family="Courier,monospace" font-size="11.00">AlgorithmPackageLoaderInterface</text>
</g>
<!-- \\RichWeb\\Algorithms\\Interfaces\\AlgorithmPackageManagerInterface -->
<g id="node17" class="node">
<title>\\RichWeb\\Algorithms\\Interfaces\\AlgorithmPackageManagerInterface</title>
<polygon fill="none" stroke="black" points="273,-292 40,-292 40,-256 273,-256 273,-292"/>
<text text-anchor="middle" x="156.5" y="-271.2" font-family="Courier,monospace" font-size="11.00">AlgorithmPackageManagerInterface</text>
</g>
<!-- \\RichWeb\\Algorithms\\Interfaces\\AutoloaderInterface -->
<g id="node18" class="node">
<title>\\RichWeb\\Algorithms\\Interfaces\\AutoloaderInterface</title>
<polygon fill="none" stroke="black" points="229,-616 84,-616 84,-580 229,-580 229,-616"/>
<text text-anchor="middle" x="156.5" y="-595.2" font-family="Courier,monospace" font-size="11.00">AutoloaderInterface</text>
</g>
<!-- \\RichWeb\\Algorithms\\Interfaces\\CodeExampleInterface -->
<g id="node19" class="node">
<title>\\RichWeb\\Algorithms\\Interfaces\\CodeExampleInterface</title>
<polygon fill="none" stroke="black" points="232.5,-778 80.5,-778 80.5,-742 232.5,-742 232.5,-778"/>
<text text-anchor="middle" x="156.5" y="-757.2" font-family="Courier,monospace" font-size="11.00">CodeExampleInterface</text>
</g>
<!-- \\RichWeb\\Algorithms\\Interfaces\\FileLoaderInterface -->
<g id="node20" class="node">
<title>\\RichWeb\\Algorithms\\Interfaces\\FileLoaderInterface</title>
<polygon fill="none" stroke="black" points="229,-562 84,-562 84,-526 229,-526 229,-562"/>
<text text-anchor="middle" x="156.5" y="-541.2" font-family="Courier,monospace" font-size="11.00">FileLoaderInterface</text>
</g>
<!-- \\RichWeb\\Algorithms\\Interfaces\\LanguagesInterface -->
<g id="node22" class="node">
<title>\\RichWeb\\Algorithms\\Interfaces\\LanguagesInterface</title>
<polygon fill="none" stroke="black" points="225.5,-454 87.5,-454 87.5,-418 225.5,-418 225.5,-454"/>
<text text-anchor="middle" x="156.5" y="-433.2" font-family="Courier,monospace" font-size="11.00">LanguagesInterface</text>
</g>
<!-- \\RichWeb\\Algorithms\\Interfaces\\ProjectInterface -->
<g id="node24" class="node">
<title>\\RichWeb\\Algorithms\\Interfaces\\ProjectInterface</title>
<polygon fill="none" stroke="black" points="219,-724 94,-724 94,-688 219,-688 219,-724"/>
<text text-anchor="middle" x="156.5" y="-703.2" font-family="Courier,monospace" font-size="11.00">ProjectInterface</text>
</g>
<!-- \\RichWeb\\Algorithms\\Loaders\\Autoloader -->
<g id="node28" class="node">
<title>\\RichWeb\\Algorithms\\Loaders\\Autoloader</title>
<polygon fill="none" stroke="black" points="473,-617 389,-617 389,-581 473,-581 473,-617"/>
<text text-anchor="middle" x="431" y="-596.2" font-family="Courier,monospace" font-size="11.00">Autoloader</text>
</g>
<!-- \\RichWeb\\Algorithms\\Loaders\\Autoloader&#45;&gt;\\RichWeb\\Algorithms\\Interfaces\\AutoloaderInterface -->
<g id="edge21" class="edge">
<title>\\RichWeb\\Algorithms\\Loaders\\Autoloader&#45;&gt;\\RichWeb\\Algorithms\\Interfaces\\AutoloaderInterface</title>
<path fill="none" stroke="black" stroke-dasharray="1,5" d="M388.91,-598.85C349.4,-598.7 288.58,-598.48 239.21,-598.3"/>
<polygon fill="none" stroke="black" points="239.19,-594.8 229.18,-598.26 239.16,-601.8 239.19,-594.8"/>
</g>
<!-- \\RichWeb\\Algorithms\\Loaders\\FileLoader -->
<g id="node29" class="node">
<title>\\RichWeb\\Algorithms\\Loaders\\FileLoader</title>
<polygon fill="none" stroke="black" points="473,-563 389,-563 389,-527 473,-527 473,-563"/>
<text text-anchor="middle" x="431" y="-542.2" font-family="Courier,monospace" font-size="11.00">FileLoader</text>
</g>
<!-- \\RichWeb\\Algorithms\\Loaders\\FileLoader&#45;&gt;\\RichWeb\\Algorithms\\Interfaces\\FileLoaderInterface -->
<g id="edge22" class="edge">
<title>\\RichWeb\\Algorithms\\Loaders\\FileLoader&#45;&gt;\\RichWeb\\Algorithms\\Interfaces\\FileLoaderInterface</title>
<path fill="none" stroke="black" stroke-dasharray="1,5" d="M388.91,-544.85C349.4,-544.7 288.58,-544.48 239.21,-544.3"/>
<polygon fill="none" stroke="black" points="239.19,-540.8 229.18,-544.26 239.16,-547.8 239.19,-540.8"/>
</g>
<!-- \\RichWeb\\Algorithms\\Setup\\Languages -->
<g id="node30" class="node">
<title>\\RichWeb\\Algorithms\\Setup\\Languages</title>
<polygon fill="none" stroke="black" points="1015,-469 938,-469 938,-433 1015,-433 1015,-469"/>
<text text-anchor="middle" x="976.5" y="-448.2" font-family="Courier,monospace" font-size="11.00">Languages</text>
</g>
<!-- \\RichWeb\\Algorithms\\Setup\\Languages&#45;&gt;\\RichWeb\\Algorithms\\Interfaces\\HasRunnerInterface -->
<g id="edge27" class="edge">
<title>\\RichWeb\\Algorithms\\Setup\\Languages&#45;&gt;\\RichWeb\\Algorithms\\Interfaces\\HasRunnerInterface</title>
<path fill="none" stroke="black" stroke-dasharray="1,5" d="M691,-468C581.07,-487.14 618.34,-602.29 517,-649 482.63,-664.84 469.84,-654.43 432,-654"/>
<path fill="none" stroke="black" stroke-dasharray="1,5" d="M430,-654C364.56,-653.26 290.27,-652.74 235.81,-652.41"/>
<polygon fill="none" stroke="black" points="235.55,-648.91 225.53,-652.35 235.51,-655.91 235.55,-648.91"/>
</g>
<!-- \\RichWeb\\Algorithms\\Setup\\Languages&#45;&gt;\\RichWeb\\Algorithms\\Interfaces\\LanguagesInterface -->
<g id="edge26" class="edge">
<title>\\RichWeb\\Algorithms\\Setup\\Languages&#45;&gt;\\RichWeb\\Algorithms\\Interfaces\\LanguagesInterface</title>
<path fill="none" stroke="black" stroke-dasharray="1,5" d="M937.72,-450.61C883.25,-450.66 779.66,-452.99 693,-468"/>
<path fill="none" stroke="black" stroke-dasharray="1,5" d="M691,-468C613.75,-481.38 595.11,-445.79 517,-439 420.35,-430.59 308.53,-431.29 235.59,-433.13"/>
<polygon fill="none" stroke="black" points="235.47,-429.64 225.57,-433.4 235.66,-436.63 235.47,-429.64"/>
</g>
<!-- \\RichWeb\\Algorithms\\Setup\\PrismSyntaxtHighlighterScripts -->
<g id="node31" class="node">
<title>\\RichWeb\\Algorithms\\Setup\\PrismSyntaxtHighlighterScripts</title>
<polygon fill="none" stroke="black" points="1086,-361 867,-361 867,-325 1086,-325 1086,-361"/>
<text text-anchor="middle" x="976.5" y="-340.2" font-family="Courier,monospace" font-size="11.00">PrismSyntaxtHighlighterScripts</text>
</g>
<!-- \\RichWeb\\Algorithms\\Setup\\PrismSyntaxtHighlighterScripts&#45;&gt;\\RichWeb\\Algorithms\\Abstracts\\AbstractScripts -->
<g id="edge28" class="edge">
<title>\\RichWeb\\Algorithms\\Setup\\PrismSyntaxtHighlighterScripts&#45;&gt;\\RichWeb\\Algorithms\\Abstracts\\AbstractScripts</title>
<path fill="none" stroke="black" d="M934.12,-324.98C883.66,-303.01 798.4,-265.89 743.95,-242.18"/>
<polygon fill="none" stroke="black" points="745.06,-238.85 734.49,-238.07 742.26,-245.27 745.06,-238.85"/>
</g>
<!-- \\RichWeb\\Algorithms\\Setup\\Scripts -->
<g id="node32" class="node">
<title>\\RichWeb\\Algorithms\\Setup\\Scripts</title>
<polygon fill="none" stroke="black" points="1008.5,-415 944.5,-415 944.5,-379 1008.5,-379 1008.5,-415"/>
<text text-anchor="middle" x="976.5" y="-394.2" font-family="Courier,monospace" font-size="11.00">Scripts</text>
</g>
<!-- \\RichWeb\\Algorithms\\Setup\\Scripts&#45;&gt;\\RichWeb\\Algorithms\\Abstracts\\AbstractScripts -->
<g id="edge29" class="edge">
<title>\\RichWeb\\Algorithms\\Setup\\Scripts&#45;&gt;\\RichWeb\\Algorithms\\Abstracts\\AbstractScripts</title>
<path fill="none" stroke="black" d="M944.34,-394.1C919.98,-390.84 885.87,-384.03 859,-370 798.85,-338.59 743.49,-280.2 714.4,-246.27"/>
<polygon fill="none" stroke="black" points="716.71,-243.59 707.58,-238.21 711.36,-248.11 716.71,-243.59"/>
</g>
<!-- \\RichWeb\\Algorithms\\Setup\\Setup -->
<g id="node33" class="node">
<title>\\RichWeb\\Algorithms\\Setup\\Setup</title>
<polygon fill="none" stroke="black" points="1003.5,-523 949.5,-523 949.5,-487 1003.5,-487 1003.5,-523"/>
<text text-anchor="middle" x="976.5" y="-502.2" font-family="Courier,monospace" font-size="11.00">Setup</text>
</g>
<!-- \\RichWeb\\Algorithms\\Setup\\Setup&#45;&gt;\\RichWeb\\Algorithms\\Interfaces\\HasRunnerInterface -->
<g id="edge30" class="edge">
<title>\\RichWeb\\Algorithms\\Setup\\Setup&#45;&gt;\\RichWeb\\Algorithms\\Interfaces\\HasRunnerInterface</title>
<path fill="none" stroke="black" stroke-dasharray="1,5" d="M949.17,-504.81C841.98,-504.09 443.5,-501.81 432,-508"/>
</g>
<!-- \\RichWeb\\Algorithms\\Traits\\Formatting\\FilePaths -->
<g id="node34" class="node">
<title>\\RichWeb\\Algorithms\\Traits\\Formatting\\FilePaths</title>
<polygon fill="none" stroke="black" points="1015,-248 938,-248 938,-212 1015,-212 1015,-248"/>
<text text-anchor="middle" x="976.5" y="-227.2" font-family="Courier,monospace" font-size="11.00">FilePaths</text>
</g>
<!-- \\RichWeb\\Algorithms\\Traits\\Formatting\\Strings -->
<g id="node35" class="node">
<title>\\RichWeb\\Algorithms\\Traits\\Formatting\\Strings</title>
<polygon fill="none" stroke="black" points="1008.5,-194 944.5,-194 944.5,-158 1008.5,-158 1008.5,-194"/>
<text text-anchor="middle" x="976.5" y="-173.2" font-family="Courier,monospace" font-size="11.00">Strings</text>
</g>
<!-- \\RichWeb\\Algorithms\\AlgorithmPackage -->
<g id="node36" class="node">
<title>\\RichWeb\\Algorithms\\AlgorithmPackage</title>
<polygon fill="none" stroke="black" points="493.5,-364 368.5,-364 368.5,-328 493.5,-328 493.5,-364"/>
<text text-anchor="middle" x="431" y="-343.2" font-family="Courier,monospace" font-size="11.00">AlgorithmPackage</text>
</g>
<!-- \\RichWeb\\Algorithms\\AlgorithmPackage&#45;&gt;\\RichWeb\\Algorithms\\Interfaces\\AlgorithmPackageInterface -->
<g id="edge15" class="edge">
<title>\\RichWeb\\Algorithms\\AlgorithmPackage&#45;&gt;\\RichWeb\\Algorithms\\Interfaces\\AlgorithmPackageInterface</title>
<path fill="none" stroke="black" stroke-dasharray="1,5" d="M368.17,-341.92C336.01,-339.79 295.89,-337.14 259.31,-334.72"/>
<polygon fill="none" stroke="black" points="259.3,-331.22 249.09,-334.05 258.84,-338.2 259.3,-331.22"/>
</g>
<!-- \\RichWeb\\Algorithms\\AlgorithmPackageLoader -->
<g id="node37" class="node">
<title>\\RichWeb\\Algorithms\\AlgorithmPackageLoader</title>
<polygon fill="none" stroke="black" points="513.5,-489 348.5,-489 348.5,-453 513.5,-453 513.5,-489"/>
<text text-anchor="middle" x="431" y="-468.2" font-family="Courier,monospace" font-size="11.00">AlgorithmPackageLoader</text>
</g>
<!-- \\RichWeb\\Algorithms\\AlgorithmPackageLoader&#45;&gt;\\RichWeb\\Algorithms\\Interfaces\\AlgorithmPackageLoaderInterface -->
<g id="edge16" class="edge">
<title>\\RichWeb\\Algorithms\\AlgorithmPackageLoader&#45;&gt;\\RichWeb\\Algorithms\\Interfaces\\AlgorithmPackageLoaderInterface</title>
<path fill="none" stroke="black" stroke-dasharray="1,5" d="M348.24,-476.7C326.73,-478.2 303.05,-479.85 279.92,-481.46"/>
<polygon fill="none" stroke="black" points="279.42,-477.99 269.69,-482.18 279.91,-484.97 279.42,-477.99"/>
</g>
<!-- \\RichWeb\\Algorithms\\AlgorithmPackageLoader&#45;&gt;\\RichWeb\\Algorithms\\Interfaces\\HasRunnerInterface -->
<g id="edge17" class="edge">
<title>\\RichWeb\\Algorithms\\AlgorithmPackageLoader&#45;&gt;\\RichWeb\\Algorithms\\Interfaces\\HasRunnerInterface</title>
<path fill="none" stroke="black" stroke-dasharray="1,5" d="M366.23,-489.01C358.57,-492.85 351.26,-497.47 345,-503 299.12,-543.55 329.69,-587.87 281,-625 267.92,-634.97 251.91,-641.42 235.82,-645.55"/>
<polygon fill="none" stroke="black" points="234.78,-642.2 225.81,-647.84 236.33,-649.02 234.78,-642.2"/>
</g>
<!-- \\RichWeb\\Algorithms\\AlgorithmPackageManager -->
<g id="node38" class="node">
<title>\\RichWeb\\Algorithms\\AlgorithmPackageManager</title>
<polygon fill="none" stroke="black" points="517,-310 345,-310 345,-274 517,-274 517,-310"/>
<text text-anchor="middle" x="431" y="-289.2" font-family="Courier,monospace" font-size="11.00">AlgorithmPackageManager</text>
</g>
<!-- \\RichWeb\\Algorithms\\AlgorithmPackageManager&#45;&gt;\\RichWeb\\Algorithms\\Interfaces\\AlgorithmPackageManagerInterface -->
<g id="edge18" class="edge">
<title>\\RichWeb\\Algorithms\\AlgorithmPackageManager&#45;&gt;\\RichWeb\\Algorithms\\Interfaces\\AlgorithmPackageManagerInterface</title>
<path fill="none" stroke="black" stroke-dasharray="1,5" d="M344.9,-286.38C325.44,-285.09 304.35,-283.7 283.58,-282.33"/>
<polygon fill="none" stroke="black" points="283.63,-278.82 273.42,-281.66 283.17,-285.81 283.63,-278.82"/>
</g>
<!-- \\RichWeb\\Algorithms\\CodeExample -->
<g id="node39" class="node">
<title>\\RichWeb\\Algorithms\\CodeExample</title>
<polygon fill="none" stroke="black" points="476.5,-1118 385.5,-1118 385.5,-1082 476.5,-1082 476.5,-1118"/>
<text text-anchor="middle" x="431" y="-1097.2" font-family="Courier,monospace" font-size="11.00">CodeExample</text>
</g>
<!-- \\RichWeb\\Algorithms\\CodeExample&#45;&gt;\\RichWeb\\Algorithms\\Interfaces\\CodeExampleInterface -->
<g id="edge19" class="edge">
<title>\\RichWeb\\Algorithms\\CodeExample&#45;&gt;\\RichWeb\\Algorithms\\Interfaces\\CodeExampleInterface</title>
<path fill="none" stroke="black" stroke-dasharray="1,5" d="M403.25,-1081.97C385.06,-1068.69 361.41,-1049.29 345,-1028 304.7,-975.73 318,-948.65 281,-894 252.91,-852.51 212.31,-811.07 185.43,-785.5"/>
<polygon fill="none" stroke="black" points="187.58,-782.71 177.9,-778.41 182.78,-787.81 187.58,-782.71"/>
</g>
<!-- Stringable -->
<g id="node43" class="node">
<title>Stringable</title>
<ellipse fill="none" stroke="black" cx="156.5" cy="-1200" rx="46.59" ry="18"/>
<text text-anchor="middle" x="156.5" y="-1196.3" font-family="Times New Roman,serif" font-size="14.00" fill="gray">Stringable</text>
</g>
<!-- \\RichWeb\\Algorithms\\CodeExample&#45;&gt;Stringable -->
<g id="edge20" class="edge">
<title>\\RichWeb\\Algorithms\\CodeExample&#45;&gt;Stringable</title>
<path fill="none" stroke="black" stroke-dasharray="1,5" d="M385.31,-1116.4C334.21,-1135.15 251.12,-1165.64 200.67,-1184.16"/>
<polygon fill="none" stroke="black" points="199.21,-1180.96 191.03,-1187.69 201.63,-1187.53 199.21,-1180.96"/>
</g>
<!-- \\RichWeb\\Algorithms\\Plugin -->
<g id="node40" class="node">
<title>\\RichWeb\\Algorithms\\Plugin</title>
<polygon fill="none" stroke="black" points="1005,-130 948,-130 948,-94 1005,-94 1005,-130"/>
<text text-anchor="middle" x="976.5" y="-109.2" font-family="Courier,monospace" font-size="11.00">Plugin</text>
</g>
<!-- \\RichWeb\\Algorithms\\Plugin&#45;&gt;\\RichWeb\\Algorithms\\Abstracts\\AbstractSingletonPlugin -->
<g id="edge23" class="edge">
<title>\\RichWeb\\Algorithms\\Plugin&#45;&gt;\\RichWeb\\Algorithms\\Abstracts\\AbstractSingletonPlugin</title>
<path fill="none" stroke="black" d="M947.9,-112C911.17,-112 844.35,-112 788.34,-112"/>
<polygon fill="none" stroke="black" points="788.02,-108.5 778.02,-112 788.02,-115.5 788.02,-108.5"/>
</g>
<!-- \\RichWeb\\Algorithms\\PrismSyntaxHighlighter -->
<g id="node41" class="node">
<title>\\RichWeb\\Algorithms\\PrismSyntaxHighlighter</title>
<polygon fill="none" stroke="black" points="1059,-76 894,-76 894,-40 1059,-40 1059,-76"/>
<text text-anchor="middle" x="976.5" y="-55.2" font-family="Courier,monospace" font-size="11.00">PrismSyntaxHighlighter</text>
</g>
<!-- \\RichWeb\\Algorithms\\PrismSyntaxHighlighter&#45;&gt;\\RichWeb\\Algorithms\\Abstracts\\AbstractSyntaxHighlighter -->
<g id="edge24" class="edge">
<title>\\RichWeb\\Algorithms\\PrismSyntaxHighlighter&#45;&gt;\\RichWeb\\Algorithms\\Abstracts\\AbstractSyntaxHighlighter</title>
<path fill="none" stroke="black" d="M893.79,-58C862.98,-58 827.55,-58 795.11,-58"/>
<polygon fill="none" stroke="black" points="794.7,-54.5 784.7,-58 794.7,-61.5 794.7,-54.5"/>
</g>
<!-- \\RichWeb\\Algorithms\\Project -->
<g id="node42" class="node">
<title>\\RichWeb\\Algorithms\\Project</title>
<polygon fill="none" stroke="black" points="463,-724 399,-724 399,-688 463,-688 463,-724"/>
<text text-anchor="middle" x="431" y="-703.2" font-family="Courier,monospace" font-size="11.00">Project</text>
</g>
<!-- \\RichWeb\\Algorithms\\Project&#45;&gt;\\RichWeb\\Algorithms\\Interfaces\\ProjectInterface -->
<g id="edge25" class="edge">
<title>\\RichWeb\\Algorithms\\Project&#45;&gt;\\RichWeb\\Algorithms\\Interfaces\\ProjectInterface</title>
<path fill="none" stroke="black" stroke-dasharray="1,5" d="M398.74,-706C357.68,-706 284.34,-706 229.27,-706"/>
<polygon fill="none" stroke="black" points="229.21,-702.5 219.21,-706 229.21,-709.5 229.21,-702.5"/>
</g>
</g>
</svg>
