<?xml version="1.0" encoding="UTF-8" standalone="no"?>
<!DOCTYPE svg PUBLIC "-//W3C//DTD SVG 1.1//EN"
 "http://www.w3.org/Graphics/SVG/1.1/DTD/svg11.dtd">
<!-- Generated by graphviz version 2.50.0 (20211204.2007)
 -->
<!-- Title: G Pages: 1 -->
<svg width="830pt" height="1154pt"
 viewBox="0.00 0.00 829.50 1154.00" xmlns="http://www.w3.org/2000/svg" xmlns:xlink="http://www.w3.org/1999/xlink">
<g id="graph0" class="graph" transform="scale(1 1) rotate(0) translate(4 1150)">
<title>G</title>
<polygon fill="white" stroke="transparent" points="-4,4 -4,-1150 825.5,-1150 825.5,4 -4,4"/>
<g id="clust1" class="cluster">
<title>cluster_Global</title>
<polygon fill="none" stroke="black" points="8,-8 8,-1138 813.5,-1138 813.5,-8 8,-8"/>
<text text-anchor="middle" x="410.75" y="-1125.2" font-family="Times New Roman,serif" font-size="11.00" fill="gray">Global</text>
</g>
<g id="clust2" class="cluster">
<title>cluster_\RichWeb</title>
<polygon fill="none" stroke="black" points="16,-16 16,-1066 805.5,-1066 805.5,-16 16,-16"/>
<text text-anchor="middle" x="410.75" y="-1053.2" font-family="Times New Roman,serif" font-size="11.00" fill="gray">RichWeb</text>
</g>
<g id="clust3" class="cluster">
<title>cluster_\RichWeb\Algorithms</title>
<polygon fill="none" stroke="black" points="24,-24 24,-1038 797.5,-1038 797.5,-24 24,-24"/>
<text text-anchor="middle" x="410.75" y="-1025.2" font-family="Times New Roman,serif" font-size="11.00" fill="gray">Algorithms</text>
</g>
<g id="clust4" class="cluster">
<title>cluster_\RichWeb\Algorithms\Abstracts</title>
<polygon fill="none" stroke="black" points="72.5,-32 72.5,-266 497,-266 497,-32 72.5,-32"/>
<text text-anchor="middle" x="284.75" y="-253.2" font-family="Times New Roman,serif" font-size="11.00" fill="gray">Abstracts</text>
</g>
<g id="clust5" class="cluster">
<title>cluster_\RichWeb\Algorithms\Admin</title>
<polygon fill="none" stroke="black" points="57.5,-750 57.5,-1010 789.5,-1010 789.5,-750 57.5,-750"/>
<text text-anchor="middle" x="423.5" y="-997.2" font-family="Times New Roman,serif" font-size="11.00" fill="gray">Admin</text>
</g>
<g id="clust6" class="cluster">
<title>cluster_\RichWeb\Algorithms\Admin\Abstracts</title>
<polygon fill="none" stroke="black" points="326,-834 326,-960 467,-960 467,-834 326,-834"/>
<text text-anchor="middle" x="396.5" y="-947.2" font-family="Times New Roman,serif" font-size="11.00" fill="gray">Abstracts</text>
</g>
<g id="clust8" class="cluster">
<title>cluster_\RichWeb\Algorithms\Admin\MetaBoxes</title>
<polygon fill="none" stroke="black" points="559.5,-758 559.5,-938 781.5,-938 781.5,-758 559.5,-758"/>
<text text-anchor="middle" x="670.5" y="-925.2" font-family="Times New Roman,serif" font-size="11.00" fill="gray">MetaBoxes</text>
</g>
<g id="clust7" class="cluster">
<title>cluster_\RichWeb\Algorithms\Admin\Interfaces</title>
<polygon fill="none" stroke="black" points="65.5,-834 65.5,-906 206.5,-906 206.5,-834 65.5,-834"/>
<text text-anchor="middle" x="136" y="-893.2" font-family="Times New Roman,serif" font-size="11.00" fill="gray">Interfaces</text>
</g>
<g id="clust10" class="cluster">
<title>cluster_\RichWeb\Algorithms\Loaders</title>
<polygon fill="none" stroke="black" points="346.5,-598 346.5,-724 446.5,-724 446.5,-598 346.5,-598"/>
<text text-anchor="middle" x="396.5" y="-711.2" font-family="Times New Roman,serif" font-size="11.00" fill="gray">Loaders</text>
</g>
<g id="clust12" class="cluster">
<title>cluster_\RichWeb\Algorithms\Traits</title>
<polygon fill="none" stroke="black" points="616,-580 616,-742 725,-742 725,-580 616,-580"/>
<text text-anchor="middle" x="670.5" y="-729.2" font-family="Times New Roman,serif" font-size="11.00" fill="gray">Traits</text>
</g>
<g id="clust13" class="cluster">
<title>cluster_\RichWeb\Algorithms\Traits\Formatting</title>
<polygon fill="none" stroke="black" points="624,-588 624,-714 717,-714 717,-588 624,-588"/>
<text text-anchor="middle" x="670.5" y="-701.2" font-family="Times New Roman,serif" font-size="11.00" fill="gray">Formatting</text>
</g>
<g id="clust9" class="cluster">
<title>cluster_\RichWeb\Algorithms\Interfaces</title>
<polygon fill="none" stroke="black" points="32,-274 32,-724 240,-724 240,-274 32,-274"/>
<text text-anchor="middle" x="136" y="-711.2" font-family="Times New Roman,serif" font-size="11.00" fill="gray">Interfaces</text>
</g>
<g id="clust11" class="cluster">
<title>cluster_\RichWeb\Algorithms\Setup</title>
<polygon fill="none" stroke="black" points="553,-186 553,-420 788,-420 788,-186 553,-186"/>
<text text-anchor="middle" x="670.5" y="-407.2" font-family="Times New Roman,serif" font-size="11.00" fill="gray">Setup</text>
</g>
<!-- \\RichWeb\\Algorithms\\Abstracts\\AbstractAlgorithm -->
<g id="node1" class="node">
<title>\\RichWeb\\Algorithms\\Abstracts\\AbstractAlgorithm</title>
<polygon fill="none" stroke="black" points="462,-130 331,-130 331,-94 462,-94 462,-130"/>
<text text-anchor="start" x="362.5" y="-115.2" font-family="Courier,monospace" font-size="11.00">«abstract»</text>
<text text-anchor="start" x="339" y="-103.2" font-family="Courier,monospace" font-size="11.00">AbstractAlgorithm</text>
</g>
<!-- \\RichWeb\\Algorithms\\Interfaces\\AlgorithmInterface -->
<g id="node13" class="node">
<title>\\RichWeb\\Algorithms\\Interfaces\\AlgorithmInterface</title>
<polygon fill="none" stroke="black" points="205,-372 67,-372 67,-336 205,-336 205,-372"/>
<text text-anchor="middle" x="136" y="-351.2" font-family="Courier,monospace" font-size="11.00">AlgorithmInterface</text>
</g>
<!-- \\RichWeb\\Algorithms\\Abstracts\\AbstractAlgorithm&#45;&gt;\\RichWeb\\Algorithms\\Interfaces\\AlgorithmInterface -->
<g id="edge1" class="edge">
<title>\\RichWeb\\Algorithms\\Abstracts\\AbstractAlgorithm&#45;&gt;\\RichWeb\\Algorithms\\Interfaces\\AlgorithmInterface</title>
<path fill="none" stroke="black" stroke-dasharray="1,5" d="M330.73,-122.58C320.89,-126.47 311.53,-131.78 304,-139 240.32,-200.11 304.61,-266.87 240,-327 232.69,-333.8 223.89,-338.93 214.54,-342.8"/>
<polygon fill="none" stroke="black" points="213.24,-339.55 205.04,-346.26 215.63,-346.13 213.24,-339.55"/>
</g>
<!-- \\RichWeb\\Algorithms\\Abstracts\\AbstractPlugin -->
<g id="node2" class="node">
<title>\\RichWeb\\Algorithms\\Abstracts\\AbstractPlugin</title>
<polygon fill="none" stroke="black" points="191.5,-76 80.5,-76 80.5,-40 191.5,-40 191.5,-76"/>
<text text-anchor="start" x="102" y="-61.2" font-family="Courier,monospace" font-size="11.00">«abstract»</text>
<text text-anchor="start" x="88.5" y="-49.2" font-family="Courier,monospace" font-size="11.00">AbstractPlugin</text>
</g>
<!-- \\RichWeb\\Algorithms\\Abstracts\\AbstractScripts -->
<g id="node3" class="node">
<title>\\RichWeb\\Algorithms\\Abstracts\\AbstractScripts</title>
<polygon fill="none" stroke="black" points="455.5,-238 337.5,-238 337.5,-202 455.5,-202 455.5,-238"/>
<text text-anchor="start" x="362.5" y="-223.2" font-family="Courier,monospace" font-size="11.00">«abstract»</text>
<text text-anchor="start" x="345.5" y="-211.2" font-family="Courier,monospace" font-size="11.00">AbstractScripts</text>
</g>
<!-- \\RichWeb\\Algorithms\\Interfaces\\HasRunnerInterface -->
<g id="node16" class="node">
<title>\\RichWeb\\Algorithms\\Interfaces\\HasRunnerInterface</title>
<polygon fill="none" stroke="black" points="205,-588 67,-588 67,-552 205,-552 205,-588"/>
<text text-anchor="middle" x="136" y="-567.2" font-family="Courier,monospace" font-size="11.00">HasRunnerInterface</text>
</g>
<!-- \\RichWeb\\Algorithms\\Abstracts\\AbstractScripts&#45;&gt;\\RichWeb\\Algorithms\\Interfaces\\HasRunnerInterface -->
<g id="edge3" class="edge">
<title>\\RichWeb\\Algorithms\\Abstracts\\AbstractScripts&#45;&gt;\\RichWeb\\Algorithms\\Interfaces\\HasRunnerInterface</title>
<path fill="none" stroke="black" stroke-dasharray="1,5" d="M337.2,-223.88C324.86,-227.26 312.89,-232.87 304,-242 208.58,-339.98 334.42,-444.05 240,-543 232.97,-550.37 224.18,-555.82 214.73,-559.83"/>
<polygon fill="none" stroke="black" points="213.27,-556.64 205.1,-563.39 215.7,-563.21 213.27,-556.64"/>
</g>
<!-- \\RichWeb\\Algorithms\\Interfaces\\ScriptsInterface -->
<g id="node18" class="node">
<title>\\RichWeb\\Algorithms\\Interfaces\\ScriptsInterface</title>
<polygon fill="none" stroke="black" points="198.5,-480 73.5,-480 73.5,-444 198.5,-444 198.5,-480"/>
<text text-anchor="middle" x="136" y="-459.2" font-family="Courier,monospace" font-size="11.00">ScriptsInterface</text>
</g>
<!-- \\RichWeb\\Algorithms\\Abstracts\\AbstractScripts&#45;&gt;\\RichWeb\\Algorithms\\Interfaces\\ScriptsInterface -->
<g id="edge2" class="edge">
<title>\\RichWeb\\Algorithms\\Abstracts\\AbstractScripts&#45;&gt;\\RichWeb\\Algorithms\\Interfaces\\ScriptsInterface</title>
<path fill="none" stroke="black" stroke-dasharray="1,5" d="M374.89,-238.24C355.14,-256.4 325.27,-285.73 304,-315 268.47,-363.9 287.43,-397.53 240,-435 230.71,-442.34 219.62,-447.7 208.21,-451.61"/>
<polygon fill="none" stroke="black" points="207.12,-448.28 198.58,-454.56 209.17,-454.97 207.12,-448.28"/>
</g>
<!-- \\RichWeb\\Algorithms\\Abstracts\\AbstractSingletonPlugin -->
<g id="node4" class="node">
<title>\\RichWeb\\Algorithms\\Abstracts\\AbstractSingletonPlugin</title>
<polygon fill="none" stroke="black" points="482.5,-76 310.5,-76 310.5,-40 482.5,-40 482.5,-76"/>
<text text-anchor="start" x="362.5" y="-61.2" font-family="Courier,monospace" font-size="11.00">«abstract»</text>
<text text-anchor="start" x="318.5" y="-49.2" font-family="Courier,monospace" font-size="11.00">AbstractSingletonPlugin</text>
</g>
<!-- \\RichWeb\\Algorithms\\Abstracts\\AbstractSingletonPlugin&#45;&gt;\\RichWeb\\Algorithms\\Abstracts\\AbstractPlugin -->
<g id="edge4" class="edge">
<title>\\RichWeb\\Algorithms\\Abstracts\\AbstractSingletonPlugin&#45;&gt;\\RichWeb\\Algorithms\\Abstracts\\AbstractPlugin</title>
<path fill="none" stroke="black" d="M310.5,-58C275.18,-58 234.84,-58 201.96,-58"/>
<polygon fill="none" stroke="black" points="201.56,-54.5 191.56,-58 201.56,-61.5 201.56,-54.5"/>
</g>
<!-- \\RichWeb\\Algorithms\\Interfaces\\SingletonInterface -->
<g id="node19" class="node">
<title>\\RichWeb\\Algorithms\\Interfaces\\SingletonInterface</title>
<polygon fill="none" stroke="black" points="205,-318 67,-318 67,-282 205,-282 205,-318"/>
<text text-anchor="middle" x="136" y="-297.2" font-family="Courier,monospace" font-size="11.00">SingletonInterface</text>
</g>
<!-- \\RichWeb\\Algorithms\\Abstracts\\AbstractSingletonPlugin&#45;&gt;\\RichWeb\\Algorithms\\Interfaces\\SingletonInterface -->
<g id="edge5" class="edge">
<title>\\RichWeb\\Algorithms\\Abstracts\\AbstractSingletonPlugin&#45;&gt;\\RichWeb\\Algorithms\\Interfaces\\SingletonInterface</title>
<path fill="none" stroke="black" stroke-dasharray="1,5" d="M315.45,-76.21C311.33,-78.77 307.47,-81.68 304,-85 241.08,-145.09 303.03,-210.03 240,-270 232.71,-276.93 223.92,-282.28 214.58,-286.39"/>
<polygon fill="none" stroke="black" points="213.12,-283.2 205.08,-290.11 215.67,-289.72 213.12,-283.2"/>
</g>
<!-- \\RichWeb\\Algorithms\\Abstracts\\AbstractSyntaxHighlighter -->
<g id="node5" class="node">
<title>\\RichWeb\\Algorithms\\Abstracts\\AbstractSyntaxHighlighter</title>
<polygon fill="none" stroke="black" points="489,-184 304,-184 304,-148 489,-148 489,-184"/>
<text text-anchor="start" x="362.5" y="-169.2" font-family="Courier,monospace" font-size="11.00">«abstract»</text>
<text text-anchor="start" x="312" y="-157.2" font-family="Courier,monospace" font-size="11.00">AbstractSyntaxHighlighter</text>
</g>
<!-- \\RichWeb\\Algorithms\\Interfaces\\SyntaxHighlighterInterface -->
<g id="node20" class="node">
<title>\\RichWeb\\Algorithms\\Interfaces\\SyntaxHighlighterInterface</title>
<polygon fill="none" stroke="black" points="232,-426 40,-426 40,-390 232,-390 232,-426"/>
<text text-anchor="middle" x="136" y="-405.2" font-family="Courier,monospace" font-size="11.00">SyntaxHighlighterInterface</text>
</g>
<!-- \\RichWeb\\Algorithms\\Abstracts\\AbstractSyntaxHighlighter&#45;&gt;\\RichWeb\\Algorithms\\Interfaces\\SyntaxHighlighterInterface -->
<g id="edge6" class="edge">
<title>\\RichWeb\\Algorithms\\Abstracts\\AbstractSyntaxHighlighter&#45;&gt;\\RichWeb\\Algorithms\\Interfaces\\SyntaxHighlighterInterface</title>
<path fill="none" stroke="black" stroke-dasharray="1,5" d="M315.43,-184.19C311.32,-186.76 307.47,-189.67 304,-193 240.32,-254.11 304.61,-320.87 240,-381 239.01,-381.92 237.99,-382.81 236.95,-383.67"/>
<polygon fill="none" stroke="black" points="234.61,-381.05 228.51,-389.71 238.68,-386.74 234.61,-381.05"/>
</g>
<!-- \\RichWeb\\Algorithms\\Admin\\Abstracts\\AbstractMetaBox -->
<g id="node6" class="node">
<title>\\RichWeb\\Algorithms\\Admin\\Abstracts\\AbstractMetaBox</title>
<polygon fill="none" stroke="black" points="455.5,-878 337.5,-878 337.5,-842 455.5,-842 455.5,-878"/>
<text text-anchor="start" x="362.5" y="-863.2" font-family="Courier,monospace" font-size="11.00">«abstract»</text>
<text text-anchor="start" x="345.5" y="-851.2" font-family="Courier,monospace" font-size="11.00">AbstractMetaBox</text>
</g>
<!-- \\RichWeb\\Algorithms\\Admin\\Interfaces\\MetaBoxInterface -->
<g id="node8" class="node">
<title>\\RichWeb\\Algorithms\\Admin\\Interfaces\\MetaBoxInterface</title>
<polygon fill="none" stroke="black" points="198.5,-878 73.5,-878 73.5,-842 198.5,-842 198.5,-878"/>
<text text-anchor="middle" x="136" y="-857.2" font-family="Courier,monospace" font-size="11.00">MetaBoxInterface</text>
</g>
<!-- \\RichWeb\\Algorithms\\Admin\\Abstracts\\AbstractMetaBox&#45;&gt;\\RichWeb\\Algorithms\\Admin\\Interfaces\\MetaBoxInterface -->
<g id="edge7" class="edge">
<title>\\RichWeb\\Algorithms\\Admin\\Abstracts\\AbstractMetaBox&#45;&gt;\\RichWeb\\Algorithms\\Admin\\Interfaces\\MetaBoxInterface</title>
<path fill="none" stroke="black" stroke-dasharray="1,5" d="M337.49,-860C299.48,-860 249.51,-860 208.97,-860"/>
<polygon fill="none" stroke="black" points="208.88,-856.5 198.88,-860 208.88,-863.5 208.88,-856.5"/>
</g>
<!-- \\RichWeb\\Algorithms\\Admin\\Abstracts\\AbstractPostType -->
<g id="node7" class="node">
<title>\\RichWeb\\Algorithms\\Admin\\Abstracts\\AbstractPostType</title>
<polygon fill="none" stroke="black" points="459,-932 334,-932 334,-896 459,-896 459,-932"/>
<text text-anchor="start" x="362.5" y="-917.2" font-family="Courier,monospace" font-size="11.00">«abstract»</text>
<text text-anchor="start" x="342" y="-905.2" font-family="Courier,monospace" font-size="11.00">AbstractPostType</text>
</g>
<!-- \\RichWeb\\Algorithms\\Admin\\Abstracts\\AbstractPostType&#45;&gt;\\RichWeb\\Algorithms\\Interfaces\\HasRunnerInterface -->
<g id="edge8" class="edge">
<title>\\RichWeb\\Algorithms\\Admin\\Abstracts\\AbstractPostType&#45;&gt;\\RichWeb\\Algorithms\\Interfaces\\HasRunnerInterface</title>
<path fill="none" stroke="black" stroke-dasharray="1,5" d="M333.78,-905.55C322.63,-901.51 312.02,-895.6 304,-887 213.98,-790.47 331.49,-692.14 240,-597 232.94,-589.65 224.14,-584.22 214.68,-580.22"/>
<polygon fill="none" stroke="black" points="215.64,-576.84 205.05,-576.67 213.22,-583.41 215.64,-576.84"/>
</g>
<!-- \\RichWeb\\Algorithms\\Admin\\MetaBoxes\\AlgorithmCodeExamplesMetaBox -->
<g id="node9" class="node">
<title>\\RichWeb\\Algorithms\\Admin\\MetaBoxes\\AlgorithmCodeExamplesMetaBox</title>
<polygon fill="none" stroke="black" points="773.5,-910 567.5,-910 567.5,-874 773.5,-874 773.5,-910"/>
<text text-anchor="middle" x="670.5" y="-889.2" font-family="Courier,monospace" font-size="11.00">AlgorithmCodeExamplesMetaBox</text>
</g>
<!-- \\RichWeb\\Algorithms\\Admin\\MetaBoxes\\AlgorithmCodeExamplesMetaBox&#45;&gt;\\RichWeb\\Algorithms\\Admin\\Abstracts\\AbstractMetaBox -->
<g id="edge10" class="edge">
<title>\\RichWeb\\Algorithms\\Admin\\MetaBoxes\\AlgorithmCodeExamplesMetaBox&#45;&gt;\\RichWeb\\Algorithms\\Admin\\Abstracts\\AbstractMetaBox</title>
<path fill="none" stroke="black" d="M567.44,-879.99C533.58,-876.01 496.73,-871.67 466.02,-868.06"/>
<polygon fill="none" stroke="black" points="466.19,-864.56 455.85,-866.87 465.38,-871.51 466.19,-864.56"/>
</g>
<!-- \\RichWeb\\Algorithms\\Admin\\MetaBoxes\\AlgorithmPackageMetaBox -->
<g id="node10" class="node">
<title>\\RichWeb\\Algorithms\\Admin\\MetaBoxes\\AlgorithmPackageMetaBox</title>
<polygon fill="none" stroke="black" points="756.5,-856 584.5,-856 584.5,-820 756.5,-820 756.5,-856"/>
<text text-anchor="middle" x="670.5" y="-835.2" font-family="Courier,monospace" font-size="11.00">AlgorithmPackageMetaBox</text>
</g>
<!-- \\RichWeb\\Algorithms\\Admin\\MetaBoxes\\AlgorithmPackageMetaBox&#45;&gt;\\RichWeb\\Algorithms\\Admin\\Abstracts\\AbstractMetaBox -->
<g id="edge11" class="edge">
<title>\\RichWeb\\Algorithms\\Admin\\MetaBoxes\\AlgorithmPackageMetaBox&#45;&gt;\\RichWeb\\Algorithms\\Admin\\Abstracts\\AbstractMetaBox</title>
<path fill="none" stroke="black" d="M584.18,-844.9C546.18,-847.97 502.02,-851.55 466.19,-854.44"/>
<polygon fill="none" stroke="black" points="465.52,-850.99 455.84,-855.28 466.08,-857.96 465.52,-850.99"/>
</g>
<!-- \\RichWeb\\Algorithms\\Admin\\MetaBoxes\\MetaBoxes -->
<g id="node11" class="node">
<title>\\RichWeb\\Algorithms\\Admin\\MetaBoxes\\MetaBoxes</title>
<polygon fill="none" stroke="black" points="709,-802 632,-802 632,-766 709,-766 709,-802"/>
<text text-anchor="middle" x="670.5" y="-781.2" font-family="Courier,monospace" font-size="11.00">MetaBoxes</text>
</g>
<!-- \\RichWeb\\Algorithms\\Admin\\MetaBoxes\\MetaBoxes&#45;&gt;\\RichWeb\\Algorithms\\Interfaces\\HasRunnerInterface -->
<g id="edge12" class="edge">
<title>\\RichWeb\\Algorithms\\Admin\\MetaBoxes\\MetaBoxes&#45;&gt;\\RichWeb\\Algorithms\\Interfaces\\HasRunnerInterface</title>
<path fill="none" stroke="black" stroke-dasharray="1,5" d="M631.84,-788.86C560.46,-795.98 403.68,-801.32 304,-728 251.8,-689.6 290.13,-638.06 240,-597 232.57,-590.91 223.91,-586.19 214.84,-582.52"/>
<polygon fill="none" stroke="black" points="215.85,-579.16 205.26,-579.06 213.48,-585.75 215.85,-579.16"/>
</g>
<!-- \\RichWeb\\Algorithms\\Admin\\AlgorithmPostType -->
<g id="node12" class="node">
<title>\\RichWeb\\Algorithms\\Admin\\AlgorithmPostType</title>
<polygon fill="none" stroke="black" points="736,-982 605,-982 605,-946 736,-946 736,-982"/>
<text text-anchor="middle" x="670.5" y="-961.2" font-family="Courier,monospace" font-size="11.00">AlgorithmPostType</text>
</g>
<!-- \\RichWeb\\Algorithms\\Admin\\AlgorithmPostType&#45;&gt;\\RichWeb\\Algorithms\\Admin\\Abstracts\\AbstractPostType -->
<g id="edge9" class="edge">
<title>\\RichWeb\\Algorithms\\Admin\\AlgorithmPostType&#45;&gt;\\RichWeb\\Algorithms\\Admin\\Abstracts\\AbstractPostType</title>
<path fill="none" stroke="black" d="M604.69,-952.09C563.82,-944.57 510.99,-934.86 468.91,-927.13"/>
<polygon fill="none" stroke="black" points="469.47,-923.67 459.01,-925.31 468.21,-930.56 469.47,-923.67"/>
</g>
<!-- \\RichWeb\\Algorithms\\Interfaces\\AutoloaderInterface -->
<g id="node14" class="node">
<title>\\RichWeb\\Algorithms\\Interfaces\\AutoloaderInterface</title>
<polygon fill="none" stroke="black" points="208.5,-696 63.5,-696 63.5,-660 208.5,-660 208.5,-696"/>
<text text-anchor="middle" x="136" y="-675.2" font-family="Courier,monospace" font-size="11.00">AutoloaderInterface</text>
</g>
<!-- \\RichWeb\\Algorithms\\Interfaces\\FileLoaderInterface -->
<g id="node15" class="node">
<title>\\RichWeb\\Algorithms\\Interfaces\\FileLoaderInterface</title>
<polygon fill="none" stroke="black" points="208.5,-642 63.5,-642 63.5,-606 208.5,-606 208.5,-642"/>
<text text-anchor="middle" x="136" y="-621.2" font-family="Courier,monospace" font-size="11.00">FileLoaderInterface</text>
</g>
<!-- \\RichWeb\\Algorithms\\Interfaces\\LanguagesInterface -->
<g id="node17" class="node">
<title>\\RichWeb\\Algorithms\\Interfaces\\LanguagesInterface</title>
<polygon fill="none" stroke="black" points="205,-534 67,-534 67,-498 205,-498 205,-534"/>
<text text-anchor="middle" x="136" y="-513.2" font-family="Courier,monospace" font-size="11.00">LanguagesInterface</text>
</g>
<!-- \\RichWeb\\Algorithms\\Loaders\\Autoloader -->
<g id="node21" class="node">
<title>\\RichWeb\\Algorithms\\Loaders\\Autoloader</title>
<polygon fill="none" stroke="black" points="438.5,-696 354.5,-696 354.5,-660 438.5,-660 438.5,-696"/>
<text text-anchor="middle" x="396.5" y="-675.2" font-family="Courier,monospace" font-size="11.00">Autoloader</text>
</g>
<!-- \\RichWeb\\Algorithms\\Loaders\\Autoloader&#45;&gt;\\RichWeb\\Algorithms\\Interfaces\\AutoloaderInterface -->
<g id="edge15" class="edge">
<title>\\RichWeb\\Algorithms\\Loaders\\Autoloader&#45;&gt;\\RichWeb\\Algorithms\\Interfaces\\AutoloaderInterface</title>
<path fill="none" stroke="black" stroke-dasharray="1,5" d="M354.25,-678C317.88,-678 263.79,-678 218.68,-678"/>
<polygon fill="none" stroke="black" points="218.61,-674.5 208.61,-678 218.61,-681.5 218.61,-674.5"/>
</g>
<!-- \\RichWeb\\Algorithms\\Loaders\\FileLoader -->
<g id="node22" class="node">
<title>\\RichWeb\\Algorithms\\Loaders\\FileLoader</title>
<polygon fill="none" stroke="black" points="438.5,-642 354.5,-642 354.5,-606 438.5,-606 438.5,-642"/>
<text text-anchor="middle" x="396.5" y="-621.2" font-family="Courier,monospace" font-size="11.00">FileLoader</text>
</g>
<!-- \\RichWeb\\Algorithms\\Loaders\\FileLoader&#45;&gt;\\RichWeb\\Algorithms\\Interfaces\\FileLoaderInterface -->
<g id="edge16" class="edge">
<title>\\RichWeb\\Algorithms\\Loaders\\FileLoader&#45;&gt;\\RichWeb\\Algorithms\\Interfaces\\FileLoaderInterface</title>
<path fill="none" stroke="black" stroke-dasharray="1,5" d="M354.25,-624C317.88,-624 263.79,-624 218.68,-624"/>
<polygon fill="none" stroke="black" points="218.61,-620.5 208.61,-624 218.61,-627.5 218.61,-620.5"/>
</g>
<!-- \\RichWeb\\Algorithms\\Setup\\Languages -->
<g id="node23" class="node">
<title>\\RichWeb\\Algorithms\\Setup\\Languages</title>
<polygon fill="none" stroke="black" points="709,-338 632,-338 632,-302 709,-302 709,-338"/>
<text text-anchor="middle" x="670.5" y="-317.2" font-family="Courier,monospace" font-size="11.00">Languages</text>
</g>
<!-- \\RichWeb\\Algorithms\\Setup\\Languages&#45;&gt;\\RichWeb\\Algorithms\\Interfaces\\HasRunnerInterface -->
<g id="edge20" class="edge">
<title>\\RichWeb\\Algorithms\\Setup\\Languages&#45;&gt;\\RichWeb\\Algorithms\\Interfaces\\HasRunnerInterface</title>
<path fill="none" stroke="black" stroke-dasharray="1,5" d="M632,-324.64C608.5,-328.52 578.03,-335.35 553,-347 524.79,-360.13 526.26,-378.42 497,-389 476.18,-396.53 418.04,-385.75 397.5,-394"/>
<path fill="none" stroke="black" stroke-dasharray="1,5" d="M395.5,-394C306.68,-429.68 323.53,-496.26 240,-543 232.12,-547.41 223.5,-551.12 214.71,-554.23"/>
<polygon fill="none" stroke="black" points="213.53,-550.94 205.13,-557.39 215.72,-557.59 213.53,-550.94"/>
</g>
<!-- \\RichWeb\\Algorithms\\Setup\\Languages&#45;&gt;\\RichWeb\\Algorithms\\Interfaces\\LanguagesInterface -->
<g id="edge19" class="edge">
<title>\\RichWeb\\Algorithms\\Setup\\Languages&#45;&gt;\\RichWeb\\Algorithms\\Interfaces\\LanguagesInterface</title>
<path fill="none" stroke="black" stroke-dasharray="1,5" d="M631.86,-315.39C549.42,-306.09 356.09,-288.89 304,-325 239.7,-369.58 298.43,-436.97 240,-489 232.6,-495.59 223.78,-500.61 214.46,-504.42"/>
<polygon fill="none" stroke="black" points="213.21,-501.14 205,-507.84 215.6,-507.73 213.21,-501.14"/>
</g>
<!-- \\RichWeb\\Algorithms\\Setup\\PrismSyntaxtHighlighterScripts -->
<g id="node24" class="node">
<title>\\RichWeb\\Algorithms\\Setup\\PrismSyntaxtHighlighterScripts</title>
<polygon fill="none" stroke="black" points="780,-230 561,-230 561,-194 780,-194 780,-230"/>
<text text-anchor="middle" x="670.5" y="-209.2" font-family="Courier,monospace" font-size="11.00">PrismSyntaxtHighlighterScripts</text>
</g>
<!-- \\RichWeb\\Algorithms\\Setup\\PrismSyntaxtHighlighterScripts&#45;&gt;\\RichWeb\\Algorithms\\Abstracts\\AbstractScripts -->
<g id="edge21" class="edge">
<title>\\RichWeb\\Algorithms\\Setup\\PrismSyntaxtHighlighterScripts&#45;&gt;\\RichWeb\\Algorithms\\Abstracts\\AbstractScripts</title>
<path fill="none" stroke="black" d="M560.83,-215.2C528.8,-216.14 494.67,-217.14 465.93,-217.99"/>
<polygon fill="none" stroke="black" points="465.49,-214.5 455.6,-218.29 465.7,-221.5 465.49,-214.5"/>
</g>
<!-- \\RichWeb\\Algorithms\\Setup\\Scripts -->
<g id="node25" class="node">
<title>\\RichWeb\\Algorithms\\Setup\\Scripts</title>
<polygon fill="none" stroke="black" points="702.5,-284 638.5,-284 638.5,-248 702.5,-248 702.5,-284"/>
<text text-anchor="middle" x="670.5" y="-263.2" font-family="Courier,monospace" font-size="11.00">Scripts</text>
</g>
<!-- \\RichWeb\\Algorithms\\Setup\\Scripts&#45;&gt;\\RichWeb\\Algorithms\\Abstracts\\AbstractScripts -->
<g id="edge22" class="edge">
<title>\\RichWeb\\Algorithms\\Setup\\Scripts&#45;&gt;\\RichWeb\\Algorithms\\Abstracts\\AbstractScripts</title>
<path fill="none" stroke="black" d="M638.3,-260.72C596.46,-253.65 521.04,-240.89 465.72,-231.54"/>
<polygon fill="none" stroke="black" points="466.08,-228.05 455.64,-229.83 464.92,-234.95 466.08,-228.05"/>
</g>
<!-- \\RichWeb\\Algorithms\\Setup\\Setup -->
<g id="node26" class="node">
<title>\\RichWeb\\Algorithms\\Setup\\Setup</title>
<polygon fill="none" stroke="black" points="697.5,-392 643.5,-392 643.5,-356 697.5,-356 697.5,-392"/>
<text text-anchor="middle" x="670.5" y="-371.2" font-family="Courier,monospace" font-size="11.00">Setup</text>
</g>
<!-- \\RichWeb\\Algorithms\\Setup\\Setup&#45;&gt;\\RichWeb\\Algorithms\\Interfaces\\HasRunnerInterface -->
<g id="edge23" class="edge">
<title>\\RichWeb\\Algorithms\\Setup\\Setup&#45;&gt;\\RichWeb\\Algorithms\\Interfaces\\HasRunnerInterface</title>
<path fill="none" stroke="black" stroke-dasharray="1,5" d="M643.22,-376.59C609.42,-379.84 548.88,-385.44 497,-389 485.96,-389.76 407.77,-389.87 397.5,-394"/>
</g>
<!-- \\RichWeb\\Algorithms\\Traits\\Formatting\\FilePaths -->
<g id="node27" class="node">
<title>\\RichWeb\\Algorithms\\Traits\\Formatting\\FilePaths</title>
<polygon fill="none" stroke="black" points="709,-686 632,-686 632,-650 709,-650 709,-686"/>
<text text-anchor="middle" x="670.5" y="-665.2" font-family="Courier,monospace" font-size="11.00">FilePaths</text>
</g>
<!-- \\RichWeb\\Algorithms\\Traits\\Formatting\\Strings -->
<g id="node28" class="node">
<title>\\RichWeb\\Algorithms\\Traits\\Formatting\\Strings</title>
<polygon fill="none" stroke="black" points="702.5,-632 638.5,-632 638.5,-596 702.5,-596 702.5,-632"/>
<text text-anchor="middle" x="670.5" y="-611.2" font-family="Courier,monospace" font-size="11.00">Strings</text>
</g>
<!-- \\RichWeb\\Algorithms\\AlgorithmPackage -->
<g id="node29" class="node">
<title>\\RichWeb\\Algorithms\\AlgorithmPackage</title>
<polygon fill="none" stroke="black" points="733,-518 608,-518 608,-482 733,-482 733,-518"/>
<text text-anchor="middle" x="670.5" y="-497.2" font-family="Courier,monospace" font-size="11.00">AlgorithmPackage</text>
</g>
<!-- \\RichWeb\\Algorithms\\AlgorithmPackageLoader -->
<g id="node30" class="node">
<title>\\RichWeb\\Algorithms\\AlgorithmPackageLoader</title>
<polygon fill="none" stroke="black" points="479,-375 314,-375 314,-339 479,-339 479,-375"/>
<text text-anchor="middle" x="396.5" y="-354.2" font-family="Courier,monospace" font-size="11.00">AlgorithmPackageLoader</text>
</g>
<!-- \\RichWeb\\Algorithms\\AlgorithmPackageLoader&#45;&gt;\\RichWeb\\Algorithms\\Interfaces\\HasRunnerInterface -->
<g id="edge13" class="edge">
<title>\\RichWeb\\Algorithms\\AlgorithmPackageLoader&#45;&gt;\\RichWeb\\Algorithms\\Interfaces\\HasRunnerInterface</title>
<path fill="none" stroke="black" stroke-dasharray="1,5" d="M324.08,-375.06C316.76,-378.86 309.87,-383.45 304,-389 250.11,-439.88 295.89,-494.31 240,-543 232.65,-549.4 223.97,-554.31 214.81,-558.07"/>
<polygon fill="none" stroke="black" points="213.33,-554.88 205.12,-561.59 215.72,-561.46 213.33,-554.88"/>
</g>
<!-- \\RichWeb\\Algorithms\\AlgorithmPackageManager -->
<g id="node31" class="node">
<title>\\RichWeb\\Algorithms\\AlgorithmPackageManager</title>
<polygon fill="none" stroke="black" points="756.5,-464 584.5,-464 584.5,-428 756.5,-428 756.5,-464"/>
<text text-anchor="middle" x="670.5" y="-443.2" font-family="Courier,monospace" font-size="11.00">AlgorithmPackageManager</text>
</g>
<!-- \\RichWeb\\Algorithms\\CodeExample -->
<g id="node32" class="node">
<title>\\RichWeb\\Algorithms\\CodeExample</title>
<polygon fill="none" stroke="black" points="716,-572 625,-572 625,-536 716,-536 716,-572"/>
<text text-anchor="middle" x="670.5" y="-551.2" font-family="Courier,monospace" font-size="11.00">CodeExample</text>
</g>
<!-- Stringable -->
<g id="node36" class="node">
<title>Stringable</title>
<ellipse fill="none" stroke="black" cx="396.5" cy="-1092" rx="46.59" ry="18"/>
<text text-anchor="middle" x="396.5" y="-1088.3" font-family="Times New Roman,serif" font-size="14.00" fill="gray">Stringable</text>
</g>
<!-- \\RichWeb\\Algorithms\\CodeExample&#45;&gt;Stringable -->
<g id="edge14" class="edge">
<title>\\RichWeb\\Algorithms\\CodeExample&#45;&gt;Stringable</title>
<path fill="none" stroke="black" stroke-dasharray="1,5" d="M624.95,-554.06C600.23,-556.57 570.95,-564.05 553,-584 438.83,-710.92 564.04,-807 497,-964 479.55,-1004.88 445.77,-1044.03 422.44,-1068.03"/>
<polygon fill="none" stroke="black" points="419.82,-1065.7 415.27,-1075.27 424.79,-1070.63 419.82,-1065.7"/>
</g>
<!-- \\RichWeb\\Algorithms\\Plugin -->
<g id="node33" class="node">
<title>\\RichWeb\\Algorithms\\Plugin</title>
<polygon fill="none" stroke="black" points="699,-122 642,-122 642,-86 699,-86 699,-122"/>
<text text-anchor="middle" x="670.5" y="-101.2" font-family="Courier,monospace" font-size="11.00">Plugin</text>
</g>
<!-- \\RichWeb\\Algorithms\\Plugin&#45;&gt;\\RichWeb\\Algorithms\\Abstracts\\AbstractSingletonPlugin -->
<g id="edge17" class="edge">
<title>\\RichWeb\\Algorithms\\Plugin&#45;&gt;\\RichWeb\\Algorithms\\Abstracts\\AbstractSingletonPlugin</title>
<path fill="none" stroke="black" d="M641.92,-99.34C607.09,-93.45 545.34,-83 492.63,-74.09"/>
<polygon fill="none" stroke="black" points="493,-70.6 482.55,-72.38 491.83,-77.5 493,-70.6"/>
</g>
<!-- \\RichWeb\\Algorithms\\PrismSyntaxHighlighter -->
<g id="node34" class="node">
<title>\\RichWeb\\Algorithms\\PrismSyntaxHighlighter</title>
<polygon fill="none" stroke="black" points="753,-176 588,-176 588,-140 753,-140 753,-176"/>
<text text-anchor="middle" x="670.5" y="-155.2" font-family="Courier,monospace" font-size="11.00">PrismSyntaxHighlighter</text>
</g>
<!-- \\RichWeb\\Algorithms\\PrismSyntaxHighlighter&#45;&gt;\\RichWeb\\Algorithms\\Abstracts\\AbstractSyntaxHighlighter -->
<g id="edge18" class="edge">
<title>\\RichWeb\\Algorithms\\PrismSyntaxHighlighter&#45;&gt;\\RichWeb\\Algorithms\\Abstracts\\AbstractSyntaxHighlighter</title>
<path fill="none" stroke="black" d="M587.89,-160.4C560.04,-161.22 528.53,-162.15 499.29,-163.01"/>
<polygon fill="none" stroke="black" points="498.94,-159.51 489.05,-163.31 499.15,-166.51 498.94,-159.51"/>
</g>
<!-- \\RichWeb\\Algorithms\\Project -->
<g id="node35" class="node">
<title>\\RichWeb\\Algorithms\\Project</title>
<polygon fill="none" stroke="black" points="702.5,-68 638.5,-68 638.5,-32 702.5,-32 702.5,-68"/>
<text text-anchor="middle" x="670.5" y="-47.2" font-family="Courier,monospace" font-size="11.00">Project</text>
</g>
</g>
</svg>
