<?xml version="1.0" encoding="UTF-8" standalone="no"?>
<!DOCTYPE svg PUBLIC "-//W3C//DTD SVG 1.1//EN"
 "http://www.w3.org/Graphics/SVG/1.1/DTD/svg11.dtd">
<!-- Generated by graphviz version 2.50.0 (20211204.2007)
 -->
<!-- Title: G Pages: 1 -->
<svg width="426pt" height="1050pt"
 viewBox="0.00 0.00 426.00 1050.00" xmlns="http://www.w3.org/2000/svg" xmlns:xlink="http://www.w3.org/1999/xlink">
<g id="graph0" class="graph" transform="scale(1 1) rotate(0) translate(4 1046)">
<title>G</title>
<polygon fill="white" stroke="transparent" points="-4,4 -4,-1046 422,-1046 422,4 -4,4"/>
<g id="clust1" class="cluster">
<title>cluster_Global</title>
<polygon fill="none" stroke="black" points="8,-8 8,-1034 410,-1034 410,-8 8,-8"/>
<text text-anchor="middle" x="209" y="-1021.2" font-family="Times New Roman,serif" font-size="11.00" fill="gray">Global</text>
</g>
<g id="clust2" class="cluster">
<title>cluster_\RichPHPTests</title>
<polygon fill="none" stroke="black" points="16,-16 16,-1006 402,-1006 402,-16 16,-16"/>
<text text-anchor="middle" x="209" y="-993.2" font-family="Times New Roman,serif" font-size="11.00" fill="gray">RichPHPTests</text>
</g>
<g id="clust3" class="cluster">
<title>cluster_\RichPHPTests\Abstracts</title>
<polygon fill="none" stroke="black" points="51,-502 51,-574 165,-574 165,-502 51,-502"/>
<text text-anchor="middle" x="108" y="-561.2" font-family="Times New Roman,serif" font-size="11.00" fill="gray">Abstracts</text>
</g>
<g id="clust5" class="cluster">
<title>cluster_\RichPHPTests\Autoload</title>
<polygon fill="none" stroke="black" points="275,-906 275,-978 375,-978 375,-906 275,-906"/>
<text text-anchor="middle" x="325" y="-965.2" font-family="Times New Roman,serif" font-size="11.00" fill="gray">Autoload</text>
</g>
<g id="clust6" class="cluster">
<title>cluster_\RichPHPTests\Interfaces</title>
<polygon fill="none" stroke="black" points="24,-259 24,-385 192,-385 192,-259 24,-259"/>
<text text-anchor="middle" x="108" y="-372.2" font-family="Times New Roman,serif" font-size="11.00" fill="gray">Interfaces</text>
</g>
<g id="clust4" class="cluster">
<title>cluster_\RichPHPTests\Attributes</title>
<polygon fill="none" stroke="black" points="265,-664 265,-898 385,-898 385,-664 265,-664"/>
<text text-anchor="middle" x="325" y="-885.2" font-family="Times New Roman,serif" font-size="11.00" fill="gray">Attributes</text>
</g>
<!-- \\RichPHPTests\\Abstracts\\AbstractTest -->
<g id="node1" class="node">
<title>\\RichPHPTests\\Abstracts\\AbstractTest</title>
<polygon fill="none" stroke="black" points="157,-546 59,-546 59,-510 157,-510 157,-546"/>
<text text-anchor="start" x="74" y="-531.2" font-family="Courier,monospace" font-size="11.00">«abstract»</text>
<text text-anchor="start" x="67" y="-519.2" font-family="Courier,monospace" font-size="11.00">AbstractTest</text>
</g>
<!-- \\RichPHPTests\\Attributes\\Run -->
<g id="node2" class="node">
<title>\\RichPHPTests\\Attributes\\Run</title>
<polygon fill="none" stroke="black" points="352,-870 298,-870 298,-834 352,-834 352,-870"/>
<text text-anchor="middle" x="325" y="-849.2" font-family="Courier,monospace" font-size="11.00">Run</text>
</g>
<!-- \\RichPHPTests\\Attributes\\Skip -->
<g id="node3" class="node">
<title>\\RichPHPTests\\Attributes\\Skip</title>
<polygon fill="none" stroke="black" points="352,-816 298,-816 298,-780 352,-780 352,-816"/>
<text text-anchor="middle" x="325" y="-795.2" font-family="Courier,monospace" font-size="11.00">Skip</text>
</g>
<!-- \\RichPHPTests\\Attributes\\TestHasAfter -->
<g id="node4" class="node">
<title>\\RichPHPTests\\Attributes\\TestHasAfter</title>
<polygon fill="none" stroke="black" points="374,-762 276,-762 276,-726 374,-726 374,-762"/>
<text text-anchor="middle" x="325" y="-741.2" font-family="Courier,monospace" font-size="11.00">TestHasAfter</text>
</g>
<!-- \\RichPHPTests\\Attributes\\TestHasBefore -->
<g id="node5" class="node">
<title>\\RichPHPTests\\Attributes\\TestHasBefore</title>
<polygon fill="none" stroke="black" points="377,-708 273,-708 273,-672 377,-672 377,-708"/>
<text text-anchor="middle" x="325" y="-687.2" font-family="Courier,monospace" font-size="11.00">TestHasBefore</text>
</g>
<!-- \\RichPHPTests\\Autoload\\Autoloader -->
<g id="node6" class="node">
<title>\\RichPHPTests\\Autoload\\Autoloader</title>
<polygon fill="none" stroke="black" points="367,-950 283,-950 283,-914 367,-914 367,-950"/>
<text text-anchor="middle" x="325" y="-929.2" font-family="Courier,monospace" font-size="11.00">Autoloader</text>
</g>
<!-- \\RichPHPTests\\Interfaces\\ProjectInterface -->
<g id="node7" class="node">
<title>\\RichPHPTests\\Interfaces\\ProjectInterface</title>
<polygon fill="none" stroke="black" points="170.5,-303 45.5,-303 45.5,-267 170.5,-267 170.5,-303"/>
<text text-anchor="middle" x="108" y="-282.2" font-family="Courier,monospace" font-size="11.00">ProjectInterface</text>
</g>
<!-- \\RichPHPTests\\Interfaces\\TestResultsInterface -->
<g id="node8" class="node">
<title>\\RichPHPTests\\Interfaces\\TestResultsInterface</title>
<polygon fill="none" stroke="black" points="184,-357 32,-357 32,-321 184,-321 184,-357"/>
<text text-anchor="middle" x="108" y="-336.2" font-family="Courier,monospace" font-size="11.00">TestResultsInterface</text>
</g>
<!-- \\RichPHPTests\\Application -->
<g id="node9" class="node">
<title>\\RichPHPTests\\Application</title>
<polygon fill="none" stroke="black" points="370.5,-654 279.5,-654 279.5,-618 370.5,-618 370.5,-654"/>
<text text-anchor="middle" x="325" y="-633.2" font-family="Courier,monospace" font-size="11.00">Application</text>
</g>
<!-- \\RichPHPTests\\FileLoader -->
<g id="node10" class="node">
<title>\\RichPHPTests\\FileLoader</title>
<polygon fill="none" stroke="black" points="367,-600 283,-600 283,-564 367,-564 367,-600"/>
<text text-anchor="middle" x="325" y="-579.2" font-family="Courier,monospace" font-size="11.00">FileLoader</text>
</g>
<!-- \\RichPHPTests\\Project -->
<g id="node11" class="node">
<title>\\RichPHPTests\\Project</title>
<polygon fill="none" stroke="black" points="357,-222 293,-222 293,-186 357,-186 357,-222"/>
<text text-anchor="middle" x="325" y="-201.2" font-family="Courier,monospace" font-size="11.00">Project</text>
</g>
<!-- \\RichPHPTests\\Project&#45;&gt;\\RichPHPTests\\Interfaces\\ProjectInterface -->
<g id="edge1" class="edge">
<title>\\RichPHPTests\\Project&#45;&gt;\\RichPHPTests\\Interfaces\\ProjectInterface</title>
<path fill="none" stroke="black" stroke-dasharray="1,5" d="M292.74,-215.78C259.74,-228.21 207.01,-248.07 166.48,-263.34"/>
<polygon fill="none" stroke="black" points="165.11,-260.12 156.99,-266.92 167.58,-266.67 165.11,-260.12"/>
</g>
<!-- \\RichPHPTests\\SourceChecker -->
<g id="node12" class="node">
<title>\\RichPHPTests\\SourceChecker</title>
<polygon fill="none" stroke="black" points="377,-492 273,-492 273,-456 377,-456 377,-492"/>
<text text-anchor="middle" x="325" y="-471.2" font-family="Courier,monospace" font-size="11.00">SourceChecker</text>
</g>
<!-- \\RichPHPTests\\Test -->
<g id="node13" class="node">
<title>\\RichPHPTests\\Test</title>
<polygon fill="none" stroke="black" points="352,-546 298,-546 298,-510 352,-510 352,-546"/>
<text text-anchor="middle" x="325" y="-525.2" font-family="Courier,monospace" font-size="11.00">Test</text>
</g>
<!-- \\RichPHPTests\\Test&#45;&gt;\\RichPHPTests\\Abstracts\\AbstractTest -->
<g id="edge2" class="edge">
<title>\\RichPHPTests\\Test&#45;&gt;\\RichPHPTests\\Abstracts\\AbstractTest</title>
<path fill="none" stroke="black" d="M297.64,-528C265.42,-528 209.96,-528 167.49,-528"/>
<polygon fill="none" stroke="black" points="167.27,-524.5 157.27,-528 167.27,-531.5 167.27,-524.5"/>
</g>
<!-- \\RichPHPTests\\TestCase -->
<g id="node14" class="node">
<title>\\RichPHPTests\\TestCase</title>
<polygon fill="none" stroke="black" points="367,-384 283,-384 283,-348 367,-348 367,-384"/>
<text text-anchor="start" x="291" y="-369.2" font-family="Courier,monospace" font-size="11.00">«abstract»</text>
<text text-anchor="start" x="297.5" y="-357.2" font-family="Courier,monospace" font-size="11.00">TestCase</text>
</g>
<!-- \\RichPHPTests\\TestClass -->
<g id="node15" class="node">
<title>\\RichPHPTests\\TestClass</title>
<polygon fill="none" stroke="black" points="363.5,-330 286.5,-330 286.5,-294 363.5,-294 363.5,-330"/>
<text text-anchor="middle" x="325" y="-309.2" font-family="Courier,monospace" font-size="11.00">TestClass</text>
</g>
<!-- \\RichPHPTests\\TestResult -->
<g id="node16" class="node">
<title>\\RichPHPTests\\TestResult</title>
<polygon fill="none" stroke="black" points="367,-276 283,-276 283,-240 367,-240 367,-276"/>
<text text-anchor="middle" x="325" y="-255.2" font-family="Courier,monospace" font-size="11.00">TestResult</text>
</g>
<!-- \\RichPHPTests\\TestResults -->
<g id="node17" class="node">
<title>\\RichPHPTests\\TestResults</title>
<polygon fill="none" stroke="black" points="370.5,-438 279.5,-438 279.5,-402 370.5,-402 370.5,-438"/>
<text text-anchor="middle" x="325" y="-417.2" font-family="Courier,monospace" font-size="11.00">TestResults</text>
</g>
<!-- \\RichPHPTests\\TestResults&#45;&gt;\\RichPHPTests\\Interfaces\\TestResultsInterface -->
<g id="edge3" class="edge">
<title>\\RichPHPTests\\TestResults&#45;&gt;\\RichPHPTests\\Interfaces\\TestResultsInterface</title>
<path fill="none" stroke="black" stroke-dasharray="1,5" d="M279.45,-403.22C246.74,-390.89 202.01,-374.04 166.58,-360.69"/>
<polygon fill="none" stroke="black" points="167.44,-357.28 156.85,-357.03 164.98,-363.83 167.44,-357.28"/>
</g>
<!-- \\RichPHPTests\\TestsConfiguration -->
<g id="node18" class="node">
<title>\\RichPHPTests\\TestsConfiguration</title>
<polygon fill="none" stroke="black" points="394,-168 256,-168 256,-132 394,-132 394,-168"/>
<text text-anchor="middle" x="325" y="-147.2" font-family="Courier,monospace" font-size="11.00">TestsConfiguration</text>
</g>
<!-- \\RichPHPTests\\TestSuite -->
<g id="node19" class="node">
<title>\\RichPHPTests\\TestSuite</title>
<polygon fill="none" stroke="black" points="363.5,-114 286.5,-114 286.5,-78 363.5,-78 363.5,-114"/>
<text text-anchor="middle" x="325" y="-93.2" font-family="Courier,monospace" font-size="11.00">TestSuite</text>
</g>
<!-- \\RichPHPTests\\TestUtil -->
<g id="node20" class="node">
<title>\\RichPHPTests\\TestUtil</title>
<polygon fill="none" stroke="black" points="360.5,-60 289.5,-60 289.5,-24 360.5,-24 360.5,-60"/>
<text text-anchor="middle" x="325" y="-39.2" font-family="Courier,monospace" font-size="11.00">TestUtil</text>
</g>
</g>
</svg>
