<?xml version="1.0" encoding="UTF-8" standalone="no"?>
<!DOCTYPE svg PUBLIC "-//W3C//DTD SVG 1.1//EN"
 "http://www.w3.org/Graphics/SVG/1.1/DTD/svg11.dtd">
<!-- Generated by graphviz version 2.50.0 (20211204.2007)
 -->
<!-- Title: G Pages: 1 -->
<svg width="431pt" height="672pt"
 viewBox="0.00 0.00 430.50 672.00" xmlns="http://www.w3.org/2000/svg" xmlns:xlink="http://www.w3.org/1999/xlink">
<g id="graph0" class="graph" transform="scale(1 1) rotate(0) translate(4 668)">
<title>G</title>
<polygon fill="white" stroke="transparent" points="-4,4 -4,-668 426.5,-668 426.5,4 -4,4"/>
<g id="clust1" class="cluster">
<title>cluster_Global</title>
<polygon fill="none" stroke="black" points="8,-8 8,-656 414.5,-656 414.5,-8 8,-8"/>
<text text-anchor="middle" x="211.25" y="-643.2" font-family="Times New Roman,serif" font-size="11.00" fill="gray">Global</text>
</g>
<g id="clust2" class="cluster">
<title>cluster_\RichPHPTests</title>
<polygon fill="none" stroke="black" points="16,-16 16,-628 406.5,-628 406.5,-16 16,-16"/>
<text text-anchor="middle" x="211.25" y="-615.2" font-family="Times New Roman,serif" font-size="11.00" fill="gray">RichPHPTests</text>
</g>
<g id="clust6" class="cluster">
<title>cluster_\RichPHPTests\Interfaces</title>
<polygon fill="none" stroke="black" points="28.5,-96 28.5,-168 196.5,-168 196.5,-96 28.5,-96"/>
<text text-anchor="middle" x="112.5" y="-155.2" font-family="Times New Roman,serif" font-size="11.00" fill="gray">Interfaces</text>
</g>
<g id="clust3" class="cluster">
<title>cluster_\RichPHPTests\Assert</title>
<polygon fill="none" stroke="black" points="24,-176 24,-600 201,-600 201,-176 24,-176"/>
<text text-anchor="middle" x="112.5" y="-587.2" font-family="Times New Roman,serif" font-size="11.00" fill="gray">Assert</text>
</g>
<g id="clust4" class="cluster">
<title>cluster_\RichPHPTests\Assert\Traits</title>
<polygon fill="none" stroke="black" points="32,-230 32,-572 193,-572 193,-230 32,-230"/>
<text text-anchor="middle" x="112.5" y="-559.2" font-family="Times New Roman,serif" font-size="11.00" fill="gray">Traits</text>
</g>
<!-- \\RichPHPTests\\Assert\\Traits\\AssertArrayTrait -->
<g id="node1" class="node">
<title>\\RichPHPTests\\Assert\\Traits\\AssertArrayTrait</title>
<polygon fill="none" stroke="black" points="175,-544 50,-544 50,-508 175,-508 175,-544"/>
<text text-anchor="middle" x="112.5" y="-523.2" font-family="Courier,monospace" font-size="11.00">AssertArrayTrait</text>
</g>
<!-- \\RichPHPTests\\Assert\\Traits\\AssertBoolTrait -->
<g id="node2" class="node">
<title>\\RichPHPTests\\Assert\\Traits\\AssertBoolTrait</title>
<polygon fill="none" stroke="black" points="171.5,-490 53.5,-490 53.5,-454 171.5,-454 171.5,-490"/>
<text text-anchor="middle" x="112.5" y="-469.2" font-family="Courier,monospace" font-size="11.00">AssertBoolTrait</text>
</g>
<!-- \\RichPHPTests\\Assert\\Traits\\AssertEqualityTrait -->
<g id="node3" class="node">
<title>\\RichPHPTests\\Assert\\Traits\\AssertEqualityTrait</title>
<polygon fill="none" stroke="black" points="185,-436 40,-436 40,-400 185,-400 185,-436"/>
<text text-anchor="middle" x="112.5" y="-415.2" font-family="Courier,monospace" font-size="11.00">AssertEqualityTrait</text>
</g>
<!-- \\RichPHPTests\\Assert\\Traits\\AssertNumericTrait -->
<g id="node4" class="node">
<title>\\RichPHPTests\\Assert\\Traits\\AssertNumericTrait</title>
<polygon fill="none" stroke="black" points="181.5,-382 43.5,-382 43.5,-346 181.5,-346 181.5,-382"/>
<text text-anchor="middle" x="112.5" y="-361.2" font-family="Courier,monospace" font-size="11.00">AssertNumericTrait</text>
</g>
<!-- \\RichPHPTests\\Assert\\Traits\\AssertObjectTrait -->
<g id="node5" class="node">
<title>\\RichPHPTests\\Assert\\Traits\\AssertObjectTrait</title>
<polygon fill="none" stroke="black" points="178,-328 47,-328 47,-292 178,-292 178,-328"/>
<text text-anchor="middle" x="112.5" y="-307.2" font-family="Courier,monospace" font-size="11.00">AssertObjectTrait</text>
</g>
<!-- \\RichPHPTests\\Assert\\Traits\\AssertStringTrait -->
<g id="node6" class="node">
<title>\\RichPHPTests\\Assert\\Traits\\AssertStringTrait</title>
<polygon fill="none" stroke="black" points="178,-274 47,-274 47,-238 178,-238 178,-274"/>
<text text-anchor="middle" x="112.5" y="-253.2" font-family="Courier,monospace" font-size="11.00">AssertStringTrait</text>
</g>
<!-- \\RichPHPTests\\Assert\\Assert -->
<g id="node7" class="node">
<title>\\RichPHPTests\\Assert\\Assert</title>
<polygon fill="none" stroke="black" points="154.5,-220 70.5,-220 70.5,-184 154.5,-184 154.5,-220"/>
<text text-anchor="start" x="78.5" y="-205.2" font-family="Courier,monospace" font-size="11.00">«abstract»</text>
<text text-anchor="start" x="92" y="-193.2" font-family="Courier,monospace" font-size="11.00">Assert</text>
</g>
<!-- \\RichPHPTests\\Interfaces\\TestResultsInterface -->
<g id="node8" class="node">
<title>\\RichPHPTests\\Interfaces\\TestResultsInterface</title>
<polygon fill="none" stroke="black" points="188.5,-140 36.5,-140 36.5,-104 188.5,-104 188.5,-140"/>
<text text-anchor="middle" x="112.5" y="-119.2" font-family="Courier,monospace" font-size="11.00">TestResultsInterface</text>
</g>
<!-- \\RichPHPTests\\Application -->
<g id="node9" class="node">
<title>\\RichPHPTests\\Application</title>
<polygon fill="none" stroke="black" points="375,-600 284,-600 284,-564 375,-564 375,-600"/>
<text text-anchor="middle" x="329.5" y="-579.2" font-family="Courier,monospace" font-size="11.00">Application</text>
</g>
<!-- \\RichPHPTests\\Autoloader -->
<g id="node10" class="node">
<title>\\RichPHPTests\\Autoloader</title>
<polygon fill="none" stroke="black" points="371.5,-546 287.5,-546 287.5,-510 371.5,-510 371.5,-546"/>
<text text-anchor="middle" x="329.5" y="-525.2" font-family="Courier,monospace" font-size="11.00">Autoloader</text>
</g>
<!-- \\RichPHPTests\\FileLoader -->
<g id="node11" class="node">
<title>\\RichPHPTests\\FileLoader</title>
<polygon fill="none" stroke="black" points="371.5,-492 287.5,-492 287.5,-456 371.5,-456 371.5,-492"/>
<text text-anchor="middle" x="329.5" y="-471.2" font-family="Courier,monospace" font-size="11.00">FileLoader</text>
</g>
<!-- \\RichPHPTests\\SourceChecker -->
<g id="node12" class="node">
<title>\\RichPHPTests\\SourceChecker</title>
<polygon fill="none" stroke="black" points="381.5,-438 277.5,-438 277.5,-402 381.5,-402 381.5,-438"/>
<text text-anchor="middle" x="329.5" y="-417.2" font-family="Courier,monospace" font-size="11.00">SourceChecker</text>
</g>
<!-- \\RichPHPTests\\TestCase -->
<g id="node13" class="node">
<title>\\RichPHPTests\\TestCase</title>
<polygon fill="none" stroke="black" points="371.5,-384 287.5,-384 287.5,-348 371.5,-348 371.5,-384"/>
<text text-anchor="start" x="295.5" y="-369.2" font-family="Courier,monospace" font-size="11.00">«abstract»</text>
<text text-anchor="start" x="302" y="-357.2" font-family="Courier,monospace" font-size="11.00">TestCase</text>
</g>
<!-- \\RichPHPTests\\TestCase&#45;&gt;\\RichPHPTests\\Assert\\Assert -->
<g id="edge1" class="edge">
<title>\\RichPHPTests\\TestCase&#45;&gt;\\RichPHPTests\\Assert\\Assert</title>
<path fill="none" stroke="black" d="M287.34,-355.04C277.77,-351.11 268.15,-345.88 260.5,-339 218.28,-301.06 245.24,-261.55 201,-226 190.53,-217.59 177.33,-212.12 164.38,-208.56"/>
<polygon fill="none" stroke="black" points="165.11,-205.14 154.57,-206.2 163.47,-211.94 165.11,-205.14"/>
</g>
<!-- \\RichPHPTests\\TestClass -->
<g id="node14" class="node">
<title>\\RichPHPTests\\TestClass</title>
<polygon fill="none" stroke="black" points="368,-330 291,-330 291,-294 368,-294 368,-330"/>
<text text-anchor="middle" x="329.5" y="-309.2" font-family="Courier,monospace" font-size="11.00">TestClass</text>
</g>
<!-- \\RichPHPTests\\TestResult -->
<g id="node15" class="node">
<title>\\RichPHPTests\\TestResult</title>
<polygon fill="none" stroke="black" points="371.5,-276 287.5,-276 287.5,-240 371.5,-240 371.5,-276"/>
<text text-anchor="middle" x="329.5" y="-255.2" font-family="Courier,monospace" font-size="11.00">TestResult</text>
</g>
<!-- \\RichPHPTests\\TestResults -->
<g id="node16" class="node">
<title>\\RichPHPTests\\TestResults</title>
<polygon fill="none" stroke="black" points="375,-222 284,-222 284,-186 375,-186 375,-222"/>
<text text-anchor="middle" x="329.5" y="-201.2" font-family="Courier,monospace" font-size="11.00">TestResults</text>
</g>
<!-- \\RichPHPTests\\TestResults&#45;&gt;\\RichPHPTests\\Interfaces\\TestResultsInterface -->
<g id="edge2" class="edge">
<title>\\RichPHPTests\\TestResults&#45;&gt;\\RichPHPTests\\Interfaces\\TestResultsInterface</title>
<path fill="none" stroke="black" stroke-dasharray="1,5" d="M283.95,-187.01C251.12,-174.49 206.2,-157.36 170.71,-143.82"/>
<polygon fill="none" stroke="black" points="171.56,-140.4 160.97,-140.11 169.07,-146.94 171.56,-140.4"/>
</g>
<!-- \\RichPHPTests\\TestsConfiguration -->
<g id="node17" class="node">
<title>\\RichPHPTests\\TestsConfiguration</title>
<polygon fill="none" stroke="black" points="398.5,-168 260.5,-168 260.5,-132 398.5,-132 398.5,-168"/>
<text text-anchor="middle" x="329.5" y="-147.2" font-family="Courier,monospace" font-size="11.00">TestsConfiguration</text>
</g>
<!-- \\RichPHPTests\\TestSuite -->
<g id="node18" class="node">
<title>\\RichPHPTests\\TestSuite</title>
<polygon fill="none" stroke="black" points="368,-114 291,-114 291,-78 368,-78 368,-114"/>
<text text-anchor="middle" x="329.5" y="-93.2" font-family="Courier,monospace" font-size="11.00">TestSuite</text>
</g>
<!-- \\RichPHPTests\\TestUtil -->
<g id="node19" class="node">
<title>\\RichPHPTests\\TestUtil</title>
<polygon fill="none" stroke="black" points="365,-60 294,-60 294,-24 365,-24 365,-60"/>
<text text-anchor="middle" x="329.5" y="-39.2" font-family="Courier,monospace" font-size="11.00">TestUtil</text>
</g>
</g>
</svg>
