<?xml version="1.0" encoding="UTF-8" standalone="no"?>
<!DOCTYPE svg PUBLIC "-//W3C//DTD SVG 1.1//EN"
 "http://www.w3.org/Graphics/SVG/1.1/DTD/svg11.dtd">
<!-- Generated by graphviz version 2.50.0 (20211204.2007)
 -->
<!-- Title: G Pages: 1 -->
<svg width="426pt" height="916pt"
 viewBox="0.00 0.00 426.00 916.00" xmlns="http://www.w3.org/2000/svg" xmlns:xlink="http://www.w3.org/1999/xlink">
<g id="graph0" class="graph" transform="scale(1 1) rotate(0) translate(4 912)">
<title>G</title>
<polygon fill="white" stroke="transparent" points="-4,4 -4,-912 422,-912 422,4 -4,4"/>
<g id="clust1" class="cluster">
<title>cluster_Global</title>
<polygon fill="none" stroke="black" points="8,-8 8,-900 410,-900 410,-8 8,-8"/>
<text text-anchor="middle" x="209" y="-887.2" font-family="Times New Roman,serif" font-size="11.00" fill="gray">Global</text>
</g>
<g id="clust2" class="cluster">
<title>cluster_\RichPHPTests</title>
<polygon fill="none" stroke="black" points="16,-16 16,-872 402,-872 402,-16 16,-16"/>
<text text-anchor="middle" x="209" y="-859.2" font-family="Times New Roman,serif" font-size="11.00" fill="gray">RichPHPTests</text>
</g>
<g id="clust3" class="cluster">
<title>cluster_\RichPHPTests\Abstracts</title>
<polygon fill="none" stroke="black" points="51,-394 51,-466 165,-466 165,-394 51,-394"/>
<text text-anchor="middle" x="108" y="-453.2" font-family="Times New Roman,serif" font-size="11.00" fill="gray">Abstracts</text>
</g>
<g id="clust4" class="cluster">
<title>cluster_\RichPHPTests\Attributes</title>
<polygon fill="none" stroke="black" points="265,-664 265,-844 385,-844 385,-664 265,-664"/>
<text text-anchor="middle" x="325" y="-831.2" font-family="Times New Roman,serif" font-size="11.00" fill="gray">Attributes</text>
</g>
<g id="clust5" class="cluster">
<title>cluster_\RichPHPTests\Interfaces</title>
<polygon fill="none" stroke="black" points="24,-178 24,-250 192,-250 192,-178 24,-178"/>
<text text-anchor="middle" x="108" y="-237.2" font-family="Times New Roman,serif" font-size="11.00" fill="gray">Interfaces</text>
</g>
<!-- \\RichPHPTests\\Abstracts\\AbstractTest -->
<g id="node1" class="node">
<title>\\RichPHPTests\\Abstracts\\AbstractTest</title>
<polygon fill="none" stroke="black" points="157,-438 59,-438 59,-402 157,-402 157,-438"/>
<text text-anchor="start" x="74" y="-423.2" font-family="Courier,monospace" font-size="11.00">«abstract»</text>
<text text-anchor="start" x="67" y="-411.2" font-family="Courier,monospace" font-size="11.00">AbstractTest</text>
</g>
<!-- \\RichPHPTests\\Attributes\\Skip -->
<g id="node2" class="node">
<title>\\RichPHPTests\\Attributes\\Skip</title>
<polygon fill="none" stroke="black" points="352,-816 298,-816 298,-780 352,-780 352,-816"/>
<text text-anchor="middle" x="325" y="-795.2" font-family="Courier,monospace" font-size="11.00">Skip</text>
</g>
<!-- \\RichPHPTests\\Attributes\\TestHasAfter -->
<g id="node3" class="node">
<title>\\RichPHPTests\\Attributes\\TestHasAfter</title>
<polygon fill="none" stroke="black" points="374,-762 276,-762 276,-726 374,-726 374,-762"/>
<text text-anchor="middle" x="325" y="-741.2" font-family="Courier,monospace" font-size="11.00">TestHasAfter</text>
</g>
<!-- \\RichPHPTests\\Attributes\\TestHasBefore -->
<g id="node4" class="node">
<title>\\RichPHPTests\\Attributes\\TestHasBefore</title>
<polygon fill="none" stroke="black" points="377,-708 273,-708 273,-672 377,-672 377,-708"/>
<text text-anchor="middle" x="325" y="-687.2" font-family="Courier,monospace" font-size="11.00">TestHasBefore</text>
</g>
<!-- \\RichPHPTests\\Interfaces\\TestResultsInterface -->
<g id="node5" class="node">
<title>\\RichPHPTests\\Interfaces\\TestResultsInterface</title>
<polygon fill="none" stroke="black" points="184,-222 32,-222 32,-186 184,-186 184,-222"/>
<text text-anchor="middle" x="108" y="-201.2" font-family="Courier,monospace" font-size="11.00">TestResultsInterface</text>
</g>
<!-- \\RichPHPTests\\Application -->
<g id="node6" class="node">
<title>\\RichPHPTests\\Application</title>
<polygon fill="none" stroke="black" points="370.5,-654 279.5,-654 279.5,-618 370.5,-618 370.5,-654"/>
<text text-anchor="middle" x="325" y="-633.2" font-family="Courier,monospace" font-size="11.00">Application</text>
</g>
<!-- \\RichPHPTests\\Autoloader -->
<g id="node7" class="node">
<title>\\RichPHPTests\\Autoloader</title>
<polygon fill="none" stroke="black" points="367,-600 283,-600 283,-564 367,-564 367,-600"/>
<text text-anchor="middle" x="325" y="-579.2" font-family="Courier,monospace" font-size="11.00">Autoloader</text>
</g>
<!-- \\RichPHPTests\\FileLoader -->
<g id="node8" class="node">
<title>\\RichPHPTests\\FileLoader</title>
<polygon fill="none" stroke="black" points="367,-546 283,-546 283,-510 367,-510 367,-546"/>
<text text-anchor="middle" x="325" y="-525.2" font-family="Courier,monospace" font-size="11.00">FileLoader</text>
</g>
<!-- \\RichPHPTests\\SourceChecker -->
<g id="node9" class="node">
<title>\\RichPHPTests\\SourceChecker</title>
<polygon fill="none" stroke="black" points="377,-492 273,-492 273,-456 377,-456 377,-492"/>
<text text-anchor="middle" x="325" y="-471.2" font-family="Courier,monospace" font-size="11.00">SourceChecker</text>
</g>
<!-- \\RichPHPTests\\Test -->
<g id="node10" class="node">
<title>\\RichPHPTests\\Test</title>
<polygon fill="none" stroke="black" points="352,-438 298,-438 298,-402 352,-402 352,-438"/>
<text text-anchor="middle" x="325" y="-417.2" font-family="Courier,monospace" font-size="11.00">Test</text>
</g>
<!-- \\RichPHPTests\\Test&#45;&gt;\\RichPHPTests\\Abstracts\\AbstractTest -->
<g id="edge1" class="edge">
<title>\\RichPHPTests\\Test&#45;&gt;\\RichPHPTests\\Abstracts\\AbstractTest</title>
<path fill="none" stroke="black" d="M297.64,-420C265.42,-420 209.96,-420 167.49,-420"/>
<polygon fill="none" stroke="black" points="167.27,-416.5 157.27,-420 167.27,-423.5 167.27,-416.5"/>
</g>
<!-- \\RichPHPTests\\TestCase -->
<g id="node11" class="node">
<title>\\RichPHPTests\\TestCase</title>
<polygon fill="none" stroke="black" points="367,-384 283,-384 283,-348 367,-348 367,-384"/>
<text text-anchor="start" x="291" y="-369.2" font-family="Courier,monospace" font-size="11.00">«abstract»</text>
<text text-anchor="start" x="297.5" y="-357.2" font-family="Courier,monospace" font-size="11.00">TestCase</text>
</g>
<!-- \\RichPHPTests\\TestClass -->
<g id="node12" class="node">
<title>\\RichPHPTests\\TestClass</title>
<polygon fill="none" stroke="black" points="363.5,-330 286.5,-330 286.5,-294 363.5,-294 363.5,-330"/>
<text text-anchor="middle" x="325" y="-309.2" font-family="Courier,monospace" font-size="11.00">TestClass</text>
</g>
<!-- \\RichPHPTests\\TestResult -->
<g id="node13" class="node">
<title>\\RichPHPTests\\TestResult</title>
<polygon fill="none" stroke="black" points="367,-276 283,-276 283,-240 367,-240 367,-276"/>
<text text-anchor="middle" x="325" y="-255.2" font-family="Courier,monospace" font-size="11.00">TestResult</text>
</g>
<!-- \\RichPHPTests\\TestResults -->
<g id="node14" class="node">
<title>\\RichPHPTests\\TestResults</title>
<polygon fill="none" stroke="black" points="370.5,-222 279.5,-222 279.5,-186 370.5,-186 370.5,-222"/>
<text text-anchor="middle" x="325" y="-201.2" font-family="Courier,monospace" font-size="11.00">TestResults</text>
</g>
<!-- \\RichPHPTests\\TestResults&#45;&gt;\\RichPHPTests\\Interfaces\\TestResultsInterface -->
<g id="edge2" class="edge">
<title>\\RichPHPTests\\TestResults&#45;&gt;\\RichPHPTests\\Interfaces\\TestResultsInterface</title>
<path fill="none" stroke="black" stroke-dasharray="1,5" d="M279.45,-204C254.92,-204 223.63,-204 194.57,-204"/>
<polygon fill="none" stroke="black" points="194.4,-200.5 184.4,-204 194.4,-207.5 194.4,-200.5"/>
</g>
<!-- \\RichPHPTests\\TestsConfiguration -->
<g id="node15" class="node">
<title>\\RichPHPTests\\TestsConfiguration</title>
<polygon fill="none" stroke="black" points="394,-168 256,-168 256,-132 394,-132 394,-168"/>
<text text-anchor="middle" x="325" y="-147.2" font-family="Courier,monospace" font-size="11.00">TestsConfiguration</text>
</g>
<!-- \\RichPHPTests\\TestSuite -->
<g id="node16" class="node">
<title>\\RichPHPTests\\TestSuite</title>
<polygon fill="none" stroke="black" points="363.5,-114 286.5,-114 286.5,-78 363.5,-78 363.5,-114"/>
<text text-anchor="middle" x="325" y="-93.2" font-family="Courier,monospace" font-size="11.00">TestSuite</text>
</g>
<!-- \\RichPHPTests\\TestUtil -->
<g id="node17" class="node">
<title>\\RichPHPTests\\TestUtil</title>
<polygon fill="none" stroke="black" points="360.5,-60 289.5,-60 289.5,-24 360.5,-24 360.5,-60"/>
<text text-anchor="middle" x="325" y="-39.2" font-family="Courier,monospace" font-size="11.00">TestUtil</text>
</g>
</g>
</svg>
