<?xml version="1.0" encoding="UTF-8" standalone="no"?>
<!DOCTYPE svg PUBLIC "-//W3C//DTD SVG 1.1//EN"
 "http://www.w3.org/Graphics/SVG/1.1/DTD/svg11.dtd">
<!-- Generated by graphviz version 2.50.0 (20211204.2007)
 -->
<!-- Title: G Pages: 1 -->
<svg width="426pt" height="672pt"
 viewBox="0.00 0.00 426.00 672.00" xmlns="http://www.w3.org/2000/svg" xmlns:xlink="http://www.w3.org/1999/xlink">
<g id="graph0" class="graph" transform="scale(1 1) rotate(0) translate(4 668)">
<title>G</title>
<polygon fill="white" stroke="transparent" points="-4,4 -4,-668 422,-668 422,4 -4,4"/>
<g id="clust1" class="cluster">
<title>cluster_Global</title>
<polygon fill="none" stroke="black" points="8,-8 8,-656 410,-656 410,-8 8,-8"/>
<text text-anchor="middle" x="209" y="-643.2" font-family="Times New Roman,serif" font-size="11.00" fill="gray">Global</text>
</g>
<g id="clust2" class="cluster">
<title>cluster_\RichPHPTests</title>
<polygon fill="none" stroke="black" points="16,-16 16,-628 402,-628 402,-16 16,-16"/>
<text text-anchor="middle" x="209" y="-615.2" font-family="Times New Roman,serif" font-size="11.00" fill="gray">RichPHPTests</text>
</g>
<g id="clust3" class="cluster">
<title>cluster_\RichPHPTests\Assert</title>
<polygon fill="none" stroke="black" points="58,-340 58,-412 158,-412 158,-340 58,-340"/>
<text text-anchor="middle" x="108" y="-399.2" font-family="Times New Roman,serif" font-size="11.00" fill="gray">Assert</text>
</g>
<g id="clust5" class="cluster">
<title>cluster_\RichPHPTests\Interfaces</title>
<polygon fill="none" stroke="black" points="24,-178 24,-250 192,-250 192,-178 24,-178"/>
<text text-anchor="middle" x="108" y="-237.2" font-family="Times New Roman,serif" font-size="11.00" fill="gray">Interfaces</text>
</g>
<!-- \\RichPHPTests\\Assert\\Assert -->
<g id="node1" class="node">
<title>\\RichPHPTests\\Assert\\Assert</title>
<polygon fill="none" stroke="black" points="150,-384 66,-384 66,-348 150,-348 150,-384"/>
<text text-anchor="start" x="74" y="-369.2" font-family="Courier,monospace" font-size="11.00">«abstract»</text>
<text text-anchor="start" x="87.5" y="-357.2" font-family="Courier,monospace" font-size="11.00">Assert</text>
</g>
<!-- \\RichPHPTests\\Interfaces\\TestResultsInterface -->
<g id="node2" class="node">
<title>\\RichPHPTests\\Interfaces\\TestResultsInterface</title>
<polygon fill="none" stroke="black" points="184,-222 32,-222 32,-186 184,-186 184,-222"/>
<text text-anchor="middle" x="108" y="-201.2" font-family="Courier,monospace" font-size="11.00">TestResultsInterface</text>
</g>
<!-- \\RichPHPTests\\Application -->
<g id="node3" class="node">
<title>\\RichPHPTests\\Application</title>
<polygon fill="none" stroke="black" points="370.5,-600 279.5,-600 279.5,-564 370.5,-564 370.5,-600"/>
<text text-anchor="middle" x="325" y="-579.2" font-family="Courier,monospace" font-size="11.00">Application</text>
</g>
<!-- \\RichPHPTests\\Autoloader -->
<g id="node4" class="node">
<title>\\RichPHPTests\\Autoloader</title>
<polygon fill="none" stroke="black" points="367,-546 283,-546 283,-510 367,-510 367,-546"/>
<text text-anchor="middle" x="325" y="-525.2" font-family="Courier,monospace" font-size="11.00">Autoloader</text>
</g>
<!-- \\RichPHPTests\\FileLoader -->
<g id="node5" class="node">
<title>\\RichPHPTests\\FileLoader</title>
<polygon fill="none" stroke="black" points="367,-492 283,-492 283,-456 367,-456 367,-492"/>
<text text-anchor="middle" x="325" y="-471.2" font-family="Courier,monospace" font-size="11.00">FileLoader</text>
</g>
<!-- \\RichPHPTests\\SourceChecker -->
<g id="node6" class="node">
<title>\\RichPHPTests\\SourceChecker</title>
<polygon fill="none" stroke="black" points="377,-438 273,-438 273,-402 377,-402 377,-438"/>
<text text-anchor="middle" x="325" y="-417.2" font-family="Courier,monospace" font-size="11.00">SourceChecker</text>
</g>
<!-- \\RichPHPTests\\TestCase -->
<g id="node7" class="node">
<title>\\RichPHPTests\\TestCase</title>
<polygon fill="none" stroke="black" points="367,-384 283,-384 283,-348 367,-348 367,-384"/>
<text text-anchor="start" x="291" y="-369.2" font-family="Courier,monospace" font-size="11.00">«abstract»</text>
<text text-anchor="start" x="297.5" y="-357.2" font-family="Courier,monospace" font-size="11.00">TestCase</text>
</g>
<!-- \\RichPHPTests\\TestCase&#45;&gt;\\RichPHPTests\\Assert\\Assert -->
<g id="edge1" class="edge">
<title>\\RichPHPTests\\TestCase&#45;&gt;\\RichPHPTests\\Assert\\Assert</title>
<path fill="none" stroke="black" d="M282.8,-366C247.92,-366 197.75,-366 160.27,-366"/>
<polygon fill="none" stroke="black" points="160.06,-362.5 150.06,-366 160.06,-369.5 160.06,-362.5"/>
</g>
<!-- \\RichPHPTests\\TestClass -->
<g id="node8" class="node">
<title>\\RichPHPTests\\TestClass</title>
<polygon fill="none" stroke="black" points="363.5,-330 286.5,-330 286.5,-294 363.5,-294 363.5,-330"/>
<text text-anchor="middle" x="325" y="-309.2" font-family="Courier,monospace" font-size="11.00">TestClass</text>
</g>
<!-- \\RichPHPTests\\TestResult -->
<g id="node9" class="node">
<title>\\RichPHPTests\\TestResult</title>
<polygon fill="none" stroke="black" points="367,-276 283,-276 283,-240 367,-240 367,-276"/>
<text text-anchor="middle" x="325" y="-255.2" font-family="Courier,monospace" font-size="11.00">TestResult</text>
</g>
<!-- \\RichPHPTests\\TestResults -->
<g id="node10" class="node">
<title>\\RichPHPTests\\TestResults</title>
<polygon fill="none" stroke="black" points="370.5,-222 279.5,-222 279.5,-186 370.5,-186 370.5,-222"/>
<text text-anchor="middle" x="325" y="-201.2" font-family="Courier,monospace" font-size="11.00">TestResults</text>
</g>
<!-- \\RichPHPTests\\TestResults&#45;&gt;\\RichPHPTests\\Interfaces\\TestResultsInterface -->
<g id="edge2" class="edge">
<title>\\RichPHPTests\\TestResults&#45;&gt;\\RichPHPTests\\Interfaces\\TestResultsInterface</title>
<path fill="none" stroke="black" stroke-dasharray="1,5" d="M279.45,-204C254.92,-204 223.63,-204 194.57,-204"/>
<polygon fill="none" stroke="black" points="194.4,-200.5 184.4,-204 194.4,-207.5 194.4,-200.5"/>
</g>
<!-- \\RichPHPTests\\TestsConfiguration -->
<g id="node11" class="node">
<title>\\RichPHPTests\\TestsConfiguration</title>
<polygon fill="none" stroke="black" points="394,-168 256,-168 256,-132 394,-132 394,-168"/>
<text text-anchor="middle" x="325" y="-147.2" font-family="Courier,monospace" font-size="11.00">TestsConfiguration</text>
</g>
<!-- \\RichPHPTests\\TestSuite -->
<g id="node12" class="node">
<title>\\RichPHPTests\\TestSuite</title>
<polygon fill="none" stroke="black" points="363.5,-114 286.5,-114 286.5,-78 363.5,-78 363.5,-114"/>
<text text-anchor="middle" x="325" y="-93.2" font-family="Courier,monospace" font-size="11.00">TestSuite</text>
</g>
<!-- \\RichPHPTests\\TestUtil -->
<g id="node13" class="node">
<title>\\RichPHPTests\\TestUtil</title>
<polygon fill="none" stroke="black" points="360.5,-60 289.5,-60 289.5,-24 360.5,-24 360.5,-60"/>
<text text-anchor="middle" x="325" y="-39.2" font-family="Courier,monospace" font-size="11.00">TestUtil</text>
</g>
</g>
</svg>
